<svg xmlns="http://www.w3.org/2000/svg" xmlns:xlink="http://www.w3.org/1999/xlink" width="34" height="34" viewBox="0 0 34 34">
  <defs>
    <clipPath id="clip-Data_portal_Hover">
      <rect width="34" height="34"/>
    </clipPath>
  </defs>
  <g id="Data_portal_Hover" data-name="Data portal – Hover" clip-path="url(#clip-Data_portal_Hover)">
    <g id="data_portal" data-name="data portal" transform="translate(2.762 4)">
      <g id="Group_11" data-name="Group 11" transform="translate(0 0)">
        <path id="Path_13" data-name="Path 13" d="M25.418,18.711a3.064,3.064,0,0,0-2.942,2.225H19.522V17.679h3.015A5.94,5.94,0,0,0,24.263,6.056,6.789,6.789,0,0,0,17.686.918a6.717,6.717,0,0,0-3.4.91A5.942,5.942,0,0,0,4.344,6.019a5.94,5.94,0,0,0,1.6,11.661H8.955v3.257H6A3.059,3.059,0,1,0,6,22.6H9.789a.834.834,0,0,0,.834-.834V17.679H13.4v5.042a3.059,3.059,0,1,0,1.669,0V17.679h2.781V21.77a.834.834,0,0,0,.834.834h3.787a3.059,3.059,0,1,0,2.942-3.893ZM3.059,23.161a1.39,1.39,0,1,1,1.39-1.39A1.392,1.392,0,0,1,3.059,23.161Zm12.57,2.5a1.39,1.39,0,1,1-1.39-1.39A1.392,1.392,0,0,1,15.629,25.664Zm-9.69-9.653a4.271,4.271,0,0,1-.622-8.5.834.834,0,0,0,.71-.9c-.012-.13-.018-.263-.018-.4a4.272,4.272,0,0,1,7.521-2.772.834.834,0,0,0,1.132.131,5.048,5.048,0,0,1,3.023-.989A5.119,5.119,0,0,1,22.728,6.87a.834.834,0,0,0,.658.684,4.271,4.271,0,0,1-.849,8.457Zm19.478,7.15a1.39,1.39,0,1,1,1.39-1.39A1.392,1.392,0,0,1,25.418,23.161Z" transform="translate(0 -0.277)" fill="#461a55" stroke="#461a55" stroke-width="0.5"/>
      </g>
    </g>
  </g>
</svg>
