<svg xmlns="http://www.w3.org/2000/svg" xmlns:xlink="http://www.w3.org/1999/xlink" width="77" height="74" viewBox="0 0 77 74">
  <defs>
    <clipPath id="clip-Donate_Floating_button">
      <rect width="77" height="74"/>
    </clipPath>
  </defs>
  <g id="Donate_Floating_button" data-name="Donate Floating button" clip-path="url(#clip-Donate_Floating_button)">
    <circle id="Ellipse_44" data-name="Ellipse 44" cx="35" cy="35" r="35" transform="translate(6 3)" fill="#225a93"/>
    <circle id="Ellipse_43" data-name="Ellipse 43" cx="35" cy="35" r="35" transform="translate(2 1)" fill="#bf1e2d"/>
    <g id="Group_12" data-name="Group 12" transform="translate(24.461 14.213)">
      <path id="Path_6" data-name="Path 6" d="M10.1,0H.24V10.152L15.061,25.071H25.138v-10.2ZM23.573,23.5H15.648L1.808,9.463v-7.9H9.6L23.573,15.648Z" transform="translate(-0.15)" fill="#fff"/>
      <path id="Path_9" data-name="Path 9" d="M10.1,0H.24V10.152L15.061,25.071H25.138v-10.2ZM23.573,23.5H15.648L1.808,9.463v-7.9H9.6L23.573,15.648Z" transform="translate(-0.15)" fill="#fff"/>
      <path id="Path_7" data-name="Path 7" d="M25.078,10.088V.23H14.926L0,15.051V25.128H10.212ZM1.583,23.563V15.638L15.615,1.794h7.9V9.588L9.43,23.563Z" transform="translate(0 -0.144)" fill="#fff"/>
      <path id="Path_8" data-name="Path 8" d="M11.33,27.857H27.873V11.19H11.33Zm15.291-1.278H12.6V12.468h14.02Z" transform="translate(-7.07 -6.983)" fill="#fff"/>
    </g>
    <g id="Group_1597" data-name="Group 1597" transform="translate(554.167 -75.127)">
      <path id="Path_25965" data-name="Path 25965" d="M-532.644,122.74a3.114,3.114,0,0,1,1.272,1.222,3.591,3.591,0,0,1,.45,1.816,3.6,3.6,0,0,1-.45,1.811,3.1,3.1,0,0,1-1.277,1.227,4.049,4.049,0,0,1-1.915.436h-2.6V122.3h2.6A4.042,4.042,0,0,1-532.644,122.74Zm-.534,4.523a1.986,1.986,0,0,0,.534-1.485,2.021,2.021,0,0,0-.534-1.495,2.021,2.021,0,0,0-1.495-.534h-.8v4.038h.8A2.043,2.043,0,0,0-533.178,127.263Z" transform="translate(0 -0.381)" fill="#fff"/>
      <path id="Path_25966" data-name="Path 25966" d="M-501.887,128.485a3.4,3.4,0,0,1-1.3-1.272,3.553,3.553,0,0,1-.48-1.836,3.527,3.527,0,0,1,.48-1.831,3.414,3.414,0,0,1,1.3-1.267,3.628,3.628,0,0,1,1.8-.455,3.628,3.628,0,0,1,1.8.455,3.343,3.343,0,0,1,1.287,1.267,3.587,3.587,0,0,1,.47,1.831,3.584,3.584,0,0,1-.475,1.836,3.377,3.377,0,0,1-1.286,1.272,3.6,3.6,0,0,1-1.792.455A3.626,3.626,0,0,1-501.887,128.485Zm3.128-1.643a2.105,2.105,0,0,0,.5-1.465,2.1,2.1,0,0,0-.5-1.47,1.713,1.713,0,0,0-1.331-.549,1.732,1.732,0,0,0-1.341.544,2.1,2.1,0,0,0-.5,1.475,2.1,2.1,0,0,0,.5,1.47,1.724,1.724,0,0,0,1.341.549A1.7,1.7,0,0,0-498.759,126.842Z" transform="translate(-26.594)" fill="#fff"/>
      <path id="Path_25967" data-name="Path 25967" d="M-458.327,129.252h-1.693l-2.831-4.286v4.286h-1.693V122.3h1.693l2.831,4.306V122.3h1.693Z" transform="translate(-57.648 -0.381)" fill="#fff"/>
      <path id="Path_25968" data-name="Path 25968" d="M-425.875,128.025h-2.593l-.416,1.227h-1.772l2.514-6.948h1.96l2.514,6.948h-1.792Zm-.435-1.307-.861-2.544-.851,2.544Z" transform="translate(-84.548 -0.381)" fill="#fff"/>
      <path id="Path_25969" data-name="Path 25969" d="M-389.521,122.3v1.356h-1.841v5.592h-1.693V123.66H-394.9V122.3Z" transform="translate(-112.934 -0.381)" fill="#fff"/>
      <path id="Path_25970" data-name="Path 25970" d="M-363.012,123.66v1.406h2.267v1.307h-2.267V127.9h2.564v1.356H-364.7V122.3h4.256v1.356Z" transform="translate(-136.899 -0.381)" fill="#fff"/>
    </g>
  </g>
</svg>
