<svg xmlns="http://www.w3.org/2000/svg" width="21.853" height="14.972" viewBox="0 0 21.853 14.972">
  <g id="email-colored" transform="translate(0)">
    <g id="Group_348" data-name="Group 348" transform="translate(0)">
      <path id="Path_154" data-name="Path 154" d="M19.932,80.609H1.921A1.923,1.923,0,0,0,0,82.53V93.66a1.923,1.923,0,0,0,1.921,1.921H19.932a1.923,1.923,0,0,0,1.921-1.921V82.53A1.923,1.923,0,0,0,19.932,80.609Zm-.251,1.28-.256.213-7.737,6.442a1.191,1.191,0,0,1-1.524,0L2.428,82.1l-.256-.213Zm-18.4.924,6.3,5.249-6.3,4.2ZM19.932,94.3H1.921a.641.641,0,0,1-.627-.513l7.317-4.87.734.611a2.471,2.471,0,0,0,3.163,0l.734-.611,7.317,4.87A.641.641,0,0,1,19.932,94.3Zm.64-2.042-6.3-4.2,6.3-5.249Z" transform="translate(0 -80.609)" fill="#225a93"/>
    </g>
  </g>
</svg>
