<svg xmlns="http://www.w3.org/2000/svg" xmlns:xlink="http://www.w3.org/1999/xlink" width="198" height="162" viewBox="0 0 198 162"><defs><clipPath id="a"><rect width="198" height="162" transform="translate(-0.481 -0.227)" fill="#225a93"/></clipPath></defs><g transform="translate(0.481 0.227)" opacity="0.15" clip-path="url(#a)"><g transform="matrix(-0.875, 0.485, -0.485, -0.875, 181.091, 141.986)" opacity="0.98"><path d="M63.78,0H0V65.677L95.889,162.2H161.08V96.181Zm87.181,152.007H99.684L10.143,61.226V10.144h50.4l90.416,91.1Z" transform="translate(0.584 0)" fill="#fff"/><path d="M63.78,0H0V65.677L95.889,162.2H161.08V96.181Zm87.181,152.007H99.684L10.143,61.226V10.144h50.4l90.416,91.1Z" transform="translate(0.584 0)" fill="#fff"/><path d="M162.247,63.78V0H96.57L0,95.889V161.08H66.067ZM10.241,150.961V99.684l90.781-89.564H152.1V60.545l-91.1,90.416Z" transform="translate(0 0.56)" fill="#fff"/><path d="M0,107.832H107.03V0H0Zm98.93-8.271H8.222V8.27H98.93Z" transform="translate(27.56 27.22)" fill="#fff"/></g></g></svg>