<svg id="footer_logo" data-name="footer logo" xmlns="http://www.w3.org/2000/svg" width="325.439" height="103.879" viewBox="0 0 325.439 103.879">
  <g id="Layer_1-2">
    <path id="Path_233" data-name="Path 233" d="M3.332,74.6v5.712H8.805V74.6h3.332V89.474H8.805V83.167H3.332v6.306H0V74.6Z" transform="translate(0 14.167)" fill="#fff"/>
    <path id="Path_234" data-name="Path 234" d="M18.732,74.6v8.448c0,2.618.952,3.808,2.737,3.808s2.737-1.19,2.737-3.808V74.6h3.332v8.329c0,4.522-2.261,6.782-6.188,6.782S15.4,87.57,15.4,82.929V74.6Z" transform="translate(2.925 14.167)" fill="#fff"/>
    <path id="Path_235" data-name="Path 235" d="M30.7,74.6h9.043v2.737H34.032v3.451h5.236v2.737H34.032v5.95H30.7Z" transform="translate(5.83 14.167)" fill="#fff"/>
    <path id="Path_236" data-name="Path 236" d="M46.451,74.6v8.448c0,2.618.952,3.808,2.618,3.808s2.737-1.19,2.737-3.808V74.6h3.332v8.329c0,4.522-2.261,6.782-6.188,6.782S43,87.57,43,82.929V74.6Z" transform="translate(8.166 14.167)" fill="#fff"/>
    <path id="Path_237" data-name="Path 237" d="M58.614,86.042a8.1,8.1,0,0,0,3.689.952c1.547,0,2.38-.595,2.38-1.547s-.714-1.428-2.5-2.023c-2.5-1.071-4.165-2.38-4.165-4.522,0-2.5,2.142-4.4,5.593-4.4a10.307,10.307,0,0,1,3.808.714l-.714,2.737a6.942,6.942,0,0,0-3.094-.714c-1.428,0-2.142.714-2.142,1.428,0,.952.833,1.309,2.737,2.142,2.618.952,3.808,2.38,3.808,4.4,0,2.5-1.9,4.522-5.95,4.522a10.144,10.144,0,0,1-4.165-.952Z" transform="translate(10.996 14.148)" fill="#fff"/>
    <path id="Path_238" data-name="Path 238" d="M31.495,0H.2V32.127L47.082,79.367H78.972V47Zm42.6,74.369H48.986L5.2,29.986V5H29.829L74.093,49.5Z" transform="translate(0.038)" fill="#fff"/>
    <path id="Path_239" data-name="Path 239" d="M79.367,31.495V.2H47.239L0,47.2V79.091H32.365ZM5,74.093V48.986L49.381,5.2H74.369V29.829l-44.5,44.264Z" transform="translate(0 0.038)" fill="#fff"/>
    <path id="Path_240" data-name="Path 240" d="M11.3,63.913H63.656V11.2H11.3Zm48.429-4.046H15.346V15.246H59.729Z" transform="translate(2.146 2.127)" fill="#fff"/>
    <g id="Group_1460" data-name="Group 1460" transform="translate(97.215 15.707)">
      <path id="Path_241" data-name="Path 241" d="M96.1,32.682H93.6V24.114H84.2v8.567H81.7V14h2.5v7.972h9.4V14h2.5Z" transform="translate(-81.7 -13.048)" fill="#fff"/>
      <path id="Path_242" data-name="Path 242" d="M105.724,31.979a5.935,5.935,0,0,1-.357-1.428,4.973,4.973,0,0,1-3.927,1.666,4.589,4.589,0,0,1-3.332-1.19,4.1,4.1,0,0,1,.357-6.306,7.442,7.442,0,0,1,4.641-1.19h2.261V22.46a3,3,0,0,0-.714-2.023,2.909,2.909,0,0,0-2.142-.714,4.109,4.109,0,0,0-2.142.595,1.873,1.873,0,0,0-.833,1.547h-2.38a3.492,3.492,0,0,1,.714-2.023,5.393,5.393,0,0,1,2.023-1.547,7.058,7.058,0,0,1,2.737-.595,5.108,5.108,0,0,1,3.689,1.19,4.152,4.152,0,0,1,1.428,3.332v6.544a6.744,6.744,0,0,0,.476,2.975v.238ZM101.8,30.194a4.848,4.848,0,0,0,2.142-.595,2.606,2.606,0,0,0,1.428-1.547V25.2h-1.9c-2.856,0-4.4.833-4.4,2.5a2.422,2.422,0,0,0,.714,1.785A3,3,0,0,0,101.8,30.194Z" transform="translate(-78.832 -12.345)" fill="#fff"/>
      <path id="Path_243" data-name="Path 243" d="M120.761,26.051a8.413,8.413,0,0,1-1.428,5.117,4.541,4.541,0,0,1-3.927,1.9,4.615,4.615,0,0,1-4.046-1.9l-.119,1.547H109.1V13.2h2.38v7.377a4.754,4.754,0,0,1,3.927-1.785,4.541,4.541,0,0,1,3.927,1.9,8.55,8.55,0,0,1,1.428,5.236Zm-2.38-.238a6.217,6.217,0,0,0-.952-3.689,3.227,3.227,0,0,0-2.737-1.309,3.369,3.369,0,0,0-3.332,2.142v5.95a3.589,3.589,0,0,0,3.332,2.142,3.01,3.01,0,0,0,2.618-1.309C118.143,28.907,118.381,27.6,118.381,25.813Z" transform="translate(-76.497 -13.2)" fill="#fff"/>
      <path id="Path_244" data-name="Path 244" d="M121.4,15.209a1.351,1.351,0,0,1,.357-.952,1.785,1.785,0,0,1,2.142,0,1.448,1.448,0,0,1,0,1.9,1.785,1.785,0,0,1-2.142,0A1.351,1.351,0,0,1,121.4,15.209ZM124.018,32.7h-2.38V18.9h2.38Z" transform="translate(-74.161 -13.067)" fill="#fff"/>
      <path id="Path_245" data-name="Path 245" d="M138.461,26.051a8.413,8.413,0,0,1-1.428,5.117,4.541,4.541,0,0,1-3.927,1.9,4.615,4.615,0,0,1-4.046-1.9l-.119,1.547H126.8V13.2h2.38v7.377a4.754,4.754,0,0,1,3.927-1.785,4.541,4.541,0,0,1,3.927,1.9,8.55,8.55,0,0,1,1.428,5.236Zm-2.38-.238a6.217,6.217,0,0,0-.952-3.689,3.227,3.227,0,0,0-2.737-1.309,3.369,3.369,0,0,0-3.332,2.142v5.95a3.589,3.589,0,0,0,3.332,2.142,3.009,3.009,0,0,0,2.618-1.309A5.955,5.955,0,0,0,136.081,25.813Z" transform="translate(-73.135 -13.2)" fill="#fff"/>
      <path id="Path_246" data-name="Path 246" d="M158.027,14V26.613a5.827,5.827,0,0,1-1.666,4.284,6.833,6.833,0,0,1-4.4,1.9h-.6a7.121,7.121,0,0,1-4.879-1.666,5.827,5.827,0,0,1-1.785-4.522V14h2.38V26.613a4.251,4.251,0,0,0,1.071,3.094,5.355,5.355,0,0,0,6.425,0,4.252,4.252,0,0,0,1.071-3.094V14Z" transform="translate(-69.736 -13.048)" fill="#fff"/>
      <path id="Path_247" data-name="Path 247" d="M161.061,18.138l.119,1.785a5.076,5.076,0,0,1,4.165-2.023c2.975,0,4.4,1.666,4.4,5V32.06h-2.38V22.779a3.221,3.221,0,0,0-.714-2.261,2.909,2.909,0,0,0-2.142-.714,4.011,4.011,0,0,0-2.023.595,3.077,3.077,0,0,0-1.309,1.666v9.876H158.8v-13.8Z" transform="translate(-67.058 -12.307)" fill="#fff"/>
      <path id="Path_248" data-name="Path 248" d="M171,15.209a1.351,1.351,0,0,1,.357-.952,1.785,1.785,0,0,1,2.142,0,1.448,1.448,0,0,1,0,1.9,1.785,1.785,0,0,1-2.142,0A1.351,1.351,0,0,1,171,15.209ZM173.5,32.7h-2.38V18.9h2.38Z" transform="translate(-64.741 -13.067)" fill="#fff"/>
    </g>
    <g id="Group_1461" data-name="Group 1461" transform="translate(209.78 21.537)">
      <path id="Path_249" data-name="Path 249" d="M182.249,28.69,185.7,18.1h2.38l-5,13.8H181.3l-5-13.8h2.38Z" transform="translate(-176.3 -18.1)" fill="#fff"/>
    </g>
    <g id="Group_1462" data-name="Group 1462" transform="translate(223.702 16.54)">
      <path id="Path_250" data-name="Path 250" d="M194.306,32.217a5.525,5.525,0,0,1-4.522-1.9,6.756,6.756,0,0,1-1.785-5v-.476a7.344,7.344,0,0,1,.833-3.689,6.321,6.321,0,0,1,2.142-2.5,5.588,5.588,0,0,1,3.094-.952,5.069,5.069,0,0,1,4.165,1.785A7.947,7.947,0,0,1,199.78,24.6v.952h-9.4a5.159,5.159,0,0,0,1.19,3.332,3.8,3.8,0,0,0,2.856,1.309,4.075,4.075,0,0,0,2.142-.476,8.189,8.189,0,0,0,1.547-1.309l1.428,1.071A5.987,5.987,0,0,1,194.306,32.217Zm-.357-12.375a3,3,0,0,0-2.38,1.071,5.249,5.249,0,0,0-1.19,2.975h6.9V23.65a4.415,4.415,0,0,0-.952-2.737A2.837,2.837,0,0,0,193.949,19.842Z" transform="translate(-188 -13.178)" fill="#fff"/>
      <path id="Path_251" data-name="Path 251" d="M206.782,20.18c-.357,0-.714-.119-1.19-.119a3.277,3.277,0,0,0-3.213,2.023V31.96H200v-13.8h2.261V19.7a3.944,3.944,0,0,1,3.332-1.9c.476,0,.833,0,1.071.238V20.18Z" transform="translate(-185.721 -13.159)" fill="#fff"/>
      <path id="Path_252" data-name="Path 252" d="M215.648,28.29a1.919,1.919,0,0,0-.714-1.547,6.4,6.4,0,0,0-2.5-.952,11.394,11.394,0,0,1-2.856-.952,4.3,4.3,0,0,1-1.547-1.309,2.868,2.868,0,0,1-.476-1.785,3.392,3.392,0,0,1,1.428-2.856,5.945,5.945,0,0,1,3.689-1.19,5.619,5.619,0,0,1,3.808,1.19,4.006,4.006,0,0,1,1.428,3.094h-2.38a2.078,2.078,0,0,0-.833-1.666,3,3,0,0,0-2.023-.714,3.4,3.4,0,0,0-2.023.595,1.7,1.7,0,0,0-.714,1.428,1.493,1.493,0,0,0,.714,1.309,6.67,6.67,0,0,0,2.5.833,11.4,11.4,0,0,1,2.856.952,4.8,4.8,0,0,1,1.666,1.309,3.244,3.244,0,0,1,.476,1.9,3.61,3.61,0,0,1-1.428,2.975,6.276,6.276,0,0,1-3.808,1.071,7.8,7.8,0,0,1-2.975-.595,4.649,4.649,0,0,1-2.023-1.666,3.918,3.918,0,0,1-.714-2.261h2.38a2.312,2.312,0,0,0,.952,1.9,3.776,3.776,0,0,0,2.38.714,3.533,3.533,0,0,0,2.142-.595A1.188,1.188,0,0,0,215.648,28.29Z" transform="translate(-184.354 -13.178)" fill="#fff"/>
      <path id="Path_253" data-name="Path 253" d="M218.9,15.209a1.351,1.351,0,0,1,.357-.952,1.785,1.785,0,0,1,2.142,0,1.448,1.448,0,0,1,0,1.9,1.785,1.785,0,0,1-2.142,0A1.351,1.351,0,0,1,218.9,15.209ZM221.518,32.7h-2.38V18.9h2.38Z" transform="translate(-182.132 -13.9)" fill="#fff"/>
      <path id="Path_254" data-name="Path 254" d="M227.679,15.219v3.332H230.3v1.785h-2.618V28.9a1.31,1.31,0,0,0,1.547,1.547,4.1,4.1,0,0,0,1.071-.119v1.9a9.185,9.185,0,0,1-1.785.238,2.952,2.952,0,0,1-2.38-.952,4.405,4.405,0,0,1-.833-2.737V20.217h-2.5V18.432h2.5V15.1h2.38Z" transform="translate(-181.391 -13.672)" fill="#fff"/>
      <path id="Path_255" data-name="Path 255" d="M236.168,28.452,239.381,18.1h2.5l-5.593,15.945c-.833,2.261-2.261,3.451-4.046,3.451h-.476l-.833-.119v-1.9h.595a3.019,3.019,0,0,0,1.9-.476,3.269,3.269,0,0,0,1.071-1.785l.476-1.428L230.1,18.1h2.618Z" transform="translate(-180.005 -13.102)" fill="#fff"/>
    </g>
    <g id="Group_1463" data-name="Group 1463" transform="translate(97.215 48.072)">
      <path id="Path_256" data-name="Path 256" d="M92.052,50.871H84.2v8.21H81.7V40.4H93.242v2.023H84.2v6.425h7.853Z" transform="translate(-81.7 -40.4)" fill="#fff"/>
    </g>
    <g id="Group_1464" data-name="Group 1464" transform="translate(110.304 47.12)">
      <path id="Path_257" data-name="Path 257" d="M92.7,51.32a7.649,7.649,0,0,1,.833-3.689,5.756,5.756,0,0,1,2.261-2.5,5.894,5.894,0,0,1,3.213-.833,5.525,5.525,0,0,1,4.522,1.9,8.167,8.167,0,0,1,1.785,5.236v.119a8.694,8.694,0,0,1-.714,3.57,5.756,5.756,0,0,1-2.261,2.5,6.089,6.089,0,0,1-3.332.952,5.525,5.525,0,0,1-4.522-1.9A7.928,7.928,0,0,1,92.7,51.439V51.32Zm2.38.238a5.906,5.906,0,0,0,1.071,3.689,3.57,3.57,0,0,0,5.712,0,6.412,6.412,0,0,0,1.071-3.927,5.906,5.906,0,0,0-1.071-3.689,3.57,3.57,0,0,0-5.712,0A6.178,6.178,0,0,0,95.08,51.558Z" transform="translate(-92.7 -38.707)" fill="#fff"/>
      <path id="Path_258" data-name="Path 258" d="M114.367,56.894a5.109,5.109,0,0,1-4.046,1.666,4.3,4.3,0,0,1-3.332-1.309,5.815,5.815,0,0,1-1.19-3.808V44.4h2.38v9.043c0,2.142.833,3.094,2.5,3.094a3.562,3.562,0,0,0,3.57-2.023V44.4h2.38V58.2h-2.261Z" transform="translate(-90.212 -38.688)" fill="#fff"/>
      <path id="Path_259" data-name="Path 259" d="M120.161,44.538l.119,1.785a5.077,5.077,0,0,1,4.165-2.023c2.975,0,4.4,1.666,4.4,5V58.46h-2.38V49.3a3.221,3.221,0,0,0-.714-2.261,2.909,2.909,0,0,0-2.142-.714,4.011,4.011,0,0,0-2.023.595,3.077,3.077,0,0,0-1.309,1.666V58.46H117.9V44.538Z" transform="translate(-87.914 -38.707)" fill="#fff"/>
      <path id="Path_260" data-name="Path 260" d="M129.6,52.213a7.726,7.726,0,0,1,1.547-5.117,4.686,4.686,0,0,1,3.927-1.9,4.774,4.774,0,0,1,3.808,1.666V39.6h2.38V59.233h-2.142L139,57.806a4.754,4.754,0,0,1-3.927,1.785,4.963,4.963,0,0,1-3.927-2.023,7.727,7.727,0,0,1-1.547-5.117Zm2.38.238a6.765,6.765,0,0,0,.952,3.689,3.227,3.227,0,0,0,2.737,1.309A3.556,3.556,0,0,0,139,55.426V49.119a3.6,3.6,0,0,0-5.95-.595C132.218,49.357,131.98,50.666,131.98,52.451Z" transform="translate(-85.692 -39.6)" fill="#fff"/>
      <path id="Path_261" data-name="Path 261" d="M151.124,58.379a5.932,5.932,0,0,1-.357-1.428,4.973,4.973,0,0,1-3.927,1.666,4.589,4.589,0,0,1-3.332-1.19,4.1,4.1,0,0,1,.357-6.307,7.442,7.442,0,0,1,4.641-1.19h2.261V48.86a3,3,0,0,0-.714-2.023,2.909,2.909,0,0,0-2.142-.714,4.109,4.109,0,0,0-2.142.595,1.873,1.873,0,0,0-.833,1.547h-2.38a3.491,3.491,0,0,1,.714-2.023,5.393,5.393,0,0,1,2.023-1.547,7.059,7.059,0,0,1,2.737-.595,5.108,5.108,0,0,1,3.689,1.19,4.152,4.152,0,0,1,1.428,3.332v6.306a6.744,6.744,0,0,0,.476,2.975v.238h-2.5ZM147.2,56.594A4.848,4.848,0,0,0,149.339,56a2.606,2.606,0,0,0,1.428-1.547V51.6h-1.9c-2.856,0-4.4.833-4.4,2.5a2.422,2.422,0,0,0,.714,1.785A3,3,0,0,0,147.2,56.594Z" transform="translate(-83.3 -38.745)" fill="#fff"/>
      <path id="Path_262" data-name="Path 262" d="M157.879,41.6v3.332H160.5v1.9h-2.618V55.4a1.31,1.31,0,0,0,1.547,1.547,4.1,4.1,0,0,0,1.071-.119v1.9a9.185,9.185,0,0,1-1.785.238,2.953,2.953,0,0,1-2.38-.952,4.406,4.406,0,0,1-.833-2.737V46.836H153V45.051h2.5V41.719h2.38Z" transform="translate(-81.249 -39.22)" fill="#fff"/>
      <path id="Path_263" data-name="Path 263" d="M161.6,41.609a1.351,1.351,0,0,1,.357-.952,1.785,1.785,0,0,1,2.142,0,1.448,1.448,0,0,1,0,1.9,1.785,1.785,0,0,1-2.142,0A1.351,1.351,0,0,1,161.6,41.609ZM164.218,59.1h-2.38V45.3h2.38Z" transform="translate(-79.615 -39.467)" fill="#fff"/>
      <path id="Path_264" data-name="Path 264" d="M166.419,51.32a7.649,7.649,0,0,1,.833-3.689,6.587,6.587,0,0,1,2.261-2.5,5.894,5.894,0,0,1,3.213-.833,5.525,5.525,0,0,1,4.522,1.9,7.552,7.552,0,0,1,1.785,5.236v.119a7.187,7.187,0,0,1-.833,3.57,5.756,5.756,0,0,1-2.261,2.5,6.089,6.089,0,0,1-3.332.952,5.525,5.525,0,0,1-4.522-1.9,7.351,7.351,0,0,1-1.785-5.236V51.32Zm2.38.238a5.906,5.906,0,0,0,1.071,3.689,3.57,3.57,0,0,0,5.712,0,6.412,6.412,0,0,0,1.071-3.927,5.906,5.906,0,0,0-1.071-3.689,3.57,3.57,0,0,0-5.712,0A6.178,6.178,0,0,0,168.8,51.558Z" transform="translate(-78.723 -38.707)" fill="#fff"/>
      <path id="Path_265" data-name="Path 265" d="M181.761,44.538l.119,1.785a5.076,5.076,0,0,1,4.165-2.023c2.975,0,4.4,1.666,4.4,5V58.46h-2.38V49.3a3.221,3.221,0,0,0-.714-2.261,2.909,2.909,0,0,0-2.142-.714,4.011,4.011,0,0,0-2.023.595,3.077,3.077,0,0,0-1.309,1.666V58.46H179.5V44.538Z" transform="translate(-76.216 -38.707)" fill="#fff"/>
      <path id="Path_266" data-name="Path 266" d="M210.527,40.4V53.013a5.828,5.828,0,0,1-1.666,4.284,6.833,6.833,0,0,1-4.4,1.9h-.595a7.121,7.121,0,0,1-4.879-1.666,5.827,5.827,0,0,1-1.785-4.522V40.4h2.38V53.013a4.251,4.251,0,0,0,1.071,3.094,5.354,5.354,0,0,0,6.425,0,4.251,4.251,0,0,0,1.071-3.094V40.4Z" transform="translate(-72.855 -39.448)" fill="#fff"/>
      <path id="Path_267" data-name="Path 267" d="M211.4,55.228a1.919,1.919,0,0,1,.357-1.071,1.433,1.433,0,0,1,2.5,1.071,1.351,1.351,0,0,1-.357.952,1.785,1.785,0,0,1-2.142,0A1.171,1.171,0,0,1,211.4,55.228Z" transform="translate(-70.158 -36.903)" fill="#fff"/>
      <path id="Path_268" data-name="Path 268" d="M223.182,50.79a10.525,10.525,0,0,1-4.641-2.261,4.25,4.25,0,0,1-1.428-3.213,4.617,4.617,0,0,1,1.785-3.689A7.087,7.087,0,0,1,223.42,40.2a8.138,8.138,0,0,1,3.451.714,6.557,6.557,0,0,1,2.38,2.023,4.744,4.744,0,0,1,.833,2.856h-2.5a3.323,3.323,0,0,0-1.071-2.618,4.684,4.684,0,0,0-2.975-.952,4.3,4.3,0,0,0-2.856.833,2.613,2.613,0,0,0-1.071,2.261,2.484,2.484,0,0,0,.952,1.9,11.373,11.373,0,0,0,3.332,1.428,24.059,24.059,0,0,1,3.689,1.428,5.551,5.551,0,0,1,1.9,1.785,4.337,4.337,0,0,1,.595,2.5,4.1,4.1,0,0,1-1.785,3.57,7.3,7.3,0,0,1-4.76,1.309,8.694,8.694,0,0,1-3.57-.714,7.378,7.378,0,0,1-2.618-2.023,4.842,4.842,0,0,1-.952-2.856h2.5a3.063,3.063,0,0,0,1.19,2.618,5.539,5.539,0,0,0,3.332.952,4.435,4.435,0,0,0,2.975-.833,2.544,2.544,0,0,0,1.071-2.142,2.614,2.614,0,0,0-.952-2.142A12.472,12.472,0,0,0,223.182,50.79Z" transform="translate(-69.209 -39.486)" fill="#fff"/>
      <path id="Path_269" data-name="Path 269" d="M230.2,55.228a1.919,1.919,0,0,1,.357-1.071,1.433,1.433,0,0,1,2.5,1.071,1.351,1.351,0,0,1-.357.952,1.785,1.785,0,0,1-2.142,0A1.773,1.773,0,0,1,230.2,55.228Z" transform="translate(-66.588 -36.903)" fill="#fff"/>
      <path id="Path_270" data-name="Path 270" d="M244.4,59.082h-2.5V40.4h2.5Z" transform="translate(-64.366 -39.448)" fill="#fff"/>
      <path id="Path_271" data-name="Path 271" d="M249.661,44.538l.119,1.785a5.076,5.076,0,0,1,4.165-2.023c2.975,0,4.4,1.666,4.4,5V58.46h-2.38V49.3a3.221,3.221,0,0,0-.714-2.261,2.908,2.908,0,0,0-2.142-.714,4.011,4.011,0,0,0-2.023.595,3.077,3.077,0,0,0-1.309,1.666V58.46H247.4V44.538Z" transform="translate(-63.322 -38.707)" fill="#fff"/>
      <path id="Path_272" data-name="Path 272" d="M265.168,56.694a3.918,3.918,0,0,0,2.261-.714,2.621,2.621,0,0,0,1.071-1.9h2.261a4.057,4.057,0,0,1-.833,2.261A4.648,4.648,0,0,1,267.905,58a5.259,5.259,0,0,1-2.618.595,5.685,5.685,0,0,1-4.522-1.9,7.773,7.773,0,0,1-1.666-5.117V51.1a8.7,8.7,0,0,1,.714-3.57,5.506,5.506,0,0,1,2.142-2.5,6.036,6.036,0,0,1,3.332-.833,5.209,5.209,0,0,1,3.808,1.428,5.589,5.589,0,0,1,1.666,3.57H268.5a3.149,3.149,0,0,0-1.071-2.261,2.963,2.963,0,0,0-2.261-.833,3.227,3.227,0,0,0-2.737,1.309,5.829,5.829,0,0,0-.952,3.808V51.7a6.484,6.484,0,0,0,.952,3.689A3.227,3.227,0,0,0,265.168,56.694Z" transform="translate(-61.1 -38.726)" fill="#fff"/>
      <path id="Path_273" data-name="Path 273" d="M271.1,55.228a1.919,1.919,0,0,1,.357-1.071,1.433,1.433,0,0,1,2.5,1.071,1.351,1.351,0,0,1-.357.952,1.785,1.785,0,0,1-2.142,0A1.171,1.171,0,0,1,271.1,55.228Z" transform="translate(-58.821 -36.903)" fill="#fff"/>
    </g>
  </g>
</svg>
