<svg xmlns="http://www.w3.org/2000/svg" xmlns:xlink="http://www.w3.org/1999/xlink" width="375" height="305" viewBox="0 0 375 305">
  <defs>
    <clipPath id="clip-path">
      <rect id="Rectangle_586" data-name="Rectangle 586" width="375" height="305" transform="translate(0 0.092)" fill="#225a93"/>
    </clipPath>
  </defs>
  <g id="footer_logo_design" data-name="footer logo design" transform="translate(0 -0.092)" opacity="0.05" clip-path="url(#clip-path)">
    <g id="Group_1505" data-name="Group 1505" transform="matrix(0.875, 0.485, -0.485, 0.875, 180.243, -0.836)" opacity="0.98">
      <path id="Path_25916" data-name="Path 25916" d="M120.951,307.589H0V183.041L181.841,0H305.467V125.194ZM286.278,19.328h-97.24L19.236,191.482v96.871h95.58L286.278,115.6Z" transform="translate(1.107 0)" fill="#fff"/>
      <path id="Path_25917" data-name="Path 25917" d="M120.951,307.589H0V183.041L181.841,0H305.467V125.194ZM286.278,19.328h-97.24L19.236,191.482v96.871h95.58L286.278,115.6Z" transform="translate(1.107 0)" fill="#fff"/>
      <path id="Path_25918" data-name="Path 25918" d="M307.682,184.517V305.467H183.133L0,123.626V0H125.287ZM19.42,19.19v97.24L191.574,286.277h96.871V190.652L115.692,19.19Z" transform="translate(0 1.061)" fill="#fff"/>
      <path id="Path_25919" data-name="Path 25919" d="M0,0H202.968V204.491H0ZM187.607,15.684H15.592V188.807H187.607Z" transform="translate(52.264 51.48)" fill="#fff"/>
    </g>
  </g>
</svg>
