<svg xmlns="http://www.w3.org/2000/svg" xmlns:xlink="http://www.w3.org/1999/xlink" width="34" height="34" viewBox="0 0 34 34">
  <defs>
    <clipPath id="clip-Home_Hover">
      <rect width="34" height="34"/>
    </clipPath>
  </defs>
  <g id="Home_Hover" data-name="Home – Hover" clip-path="url(#clip-Home_Hover)">
    <g id="home" transform="translate(1.483 -13.563)">
      <path id="Path_6" data-name="Path 6" d="M63.4,210.391H42.788A2.791,2.791,0,0,1,40,207.6v-14.67a.97.97,0,1,1,1.94,0V207.6a.85.85,0,0,0,.849.849H63.4a.85.85,0,0,0,.849-.849v-14.67a.97.97,0,1,1,1.94,0V207.6A2.791,2.791,0,0,1,63.4,210.391Z" transform="translate(-37.575 -165.281)" fill="#461a55" stroke="#461a55" stroke-width="0.5"/>
      <path id="Path_7" data-name="Path 7" d="M30.065,31.046a.966.966,0,0,1-.686-.284L17.317,18.7a2.549,2.549,0,0,0-3.6,0L1.656,30.762A.97.97,0,1,1,.284,29.39L12.346,17.329a4.49,4.49,0,0,1,6.343,0L30.75,29.39a.97.97,0,0,1-.686,1.656Z" transform="translate(0)" fill="#461a55" stroke="#461a55" stroke-width="0.5"/>
      <path id="Path_8" data-name="Path 8" d="M184.728,300.591H176.97a.97.97,0,0,1-.97-.97v-8.607a3.034,3.034,0,0,1,3.031-3.031h3.637a3.034,3.034,0,0,1,3.031,3.031v8.607A.97.97,0,0,1,184.728,300.591Zm-6.789-1.94h5.819v-7.637a1.092,1.092,0,0,0-1.091-1.091h-3.637a1.092,1.092,0,0,0-1.091,1.091Z" transform="translate(-165.332 -255.481)" fill="#461a55" stroke="#461a55" stroke-width="0.5"/>
    </g>
  </g>
</svg>
