<svg xmlns="http://www.w3.org/2000/svg" width="225.136" height="71.682" viewBox="0 0 225.136 71.682">
  <g id="HU-header_logo" data-name="HU-header logo" transform="translate(0 -0.143)">
    <g id="Group_1235" data-name="Group 1235" transform="translate(78.016 2.93)">
      <path id="Path_25856" data-name="Path 25856" d="M11322,927.3h141.085" transform="translate(-11322 -892.716)" fill="none" stroke="#461a55" stroke-width="1"/>
    </g>
    <g id="HU-logo" transform="translate(0 0.143)">
      <g id="Group_202" data-name="Group 202" transform="translate(0)">
        <path id="Path_190" data-name="Path 190" d="M207.868,253.621c0-.074,0-.155,0-.224a33.228,33.228,0,0,0-66.446-.008v.174c-.01.145-.01.287-.01.437v.485a1.528,1.528,0,0,1,.01.213,33.242,33.242,0,0,0,22.964,31.007,4.369,4.369,0,0,0,.911-1.642l.008-.019,0-.052c.069-.329.153-.677.237-1.088l.06-.208c.414-1.715.912-3.317.92-3.343.124-.432.229-.766.319-.99a5.849,5.849,0,0,1,.646-1.078,1.7,1.7,0,0,1,1.4-.671,2.3,2.3,0,0,1,.738.121l.458.189-.021-.488a3.4,3.4,0,0,0-.053-.492,22.293,22.293,0,0,1-5.556-1.965v-.1a22.261,22.261,0,0,1,3.427-41.063l-.031-.092a22.377,22.377,0,0,1,16.981,1.394v.1a22.27,22.27,0,0,1-3.417,41.073l.027.094a22.208,22.208,0,0,1-10.309.769c-1.235,2.565-1.457,6.818-1.457,9.5,0,.346-.023.8-.058,1.3a33.62,33.62,0,0,0,5.031.379,33.225,33.225,0,0,0,33.217-32.622c0-.06,0-.116,0-.174,0-.142.011-.285.011-.437V254C207.879,253.868,207.868,253.746,207.868,253.621Z" transform="translate(-141.408 -220.764)" fill="#bd96c5"/>
        <path id="Path_191" data-name="Path 191" d="M174.307,221.315a32.347,32.347,0,0,0-9.687,63.209,5.218,5.218,0,0,0,.334-.8l.008-.019,0-.052c.069-.329.153-.677.237-1.088l.06-.208c.414-1.715.912-3.317.92-3.343.124-.432.229-.766.319-.99a5.851,5.851,0,0,1,.646-1.078,1.7,1.7,0,0,1,1.4-.67,2.3,2.3,0,0,1,.738.121l.458.189-.021-.488a2.91,2.91,0,0,0-.461-1.544l2.131.185-.01.09c-1.757,2.3-2.049,7.419-2.049,10.483,0,.09,0,.2-.006.3a32.716,32.716,0,0,0,4.979.383,32.343,32.343,0,0,0,0-64.687Z" transform="translate(-141.069 -220.427)" fill="#461a55"/>
        <g id="Group_165" data-name="Group 165" transform="translate(10.458 10.453)">
          <path id="Path_192" data-name="Path 192" d="M147.9,250.032a22.776,22.776,0,1,1,22.78,22.777,22.781,22.781,0,0,1-22.78-22.777" transform="translate(-147.896 -227.249)" fill="#bd96c5" fill-rule="evenodd"/>
        </g>
        <path id="Path_193" data-name="Path 193" d="M160.6,265.1c0-3.064.292-8.18,2.049-10.483l.01-.09-2.131-.185a2.91,2.91,0,0,1,.461,1.544l.021.488-.458-.189a2.3,2.3,0,0,0-.738-.121,1.7,1.7,0,0,0-1.4.67,5.856,5.856,0,0,0-.646,1.078c-.09.224-.2.558-.319.99-.008.026-.506,1.628-.92,3.343l-.06.208c-.084.411-.168.759-.237,1.088l0,.051Z" transform="translate(-132.338 -200.217)" fill="#fff" fill-rule="evenodd"/>
        <g id="Group_166" data-name="Group 166" transform="translate(11.394 11.394)">
          <path id="Path_194" data-name="Path 194" d="M148.477,249.675a21.84,21.84,0,1,1,21.844,21.833,21.846,21.846,0,0,1-21.844-21.833" transform="translate(-148.477 -227.833)" fill="#fff" fill-rule="evenodd"/>
        </g>
        <g id="Group_167" data-name="Group 167" transform="translate(13.082 12.962)">
          <path id="Path_195" data-name="Path 195" d="M149.524,248.886a20.084,20.084,0,1,1,20.084,20.087,20.085,20.085,0,0,1-20.084-20.087" transform="translate(-149.524 -228.806)" fill="#cfb381" fill-rule="evenodd"/>
        </g>
        <g id="Group_190" data-name="Group 190" transform="translate(16.954 14.474)">
          <g id="Group_168" data-name="Group 168">
            <path id="Path_196" data-name="Path 196" d="M157.927,239.8a23.573,23.573,0,0,0-4.811,4.334l1.707.114s.558-.388.711-.013a.643.643,0,0,1-.232.671l-1.227.018.617.414-.875,1.1.021,1.749c0,.329.817.793.817.793a6.616,6.616,0,0,0,1.665.455c.516-.013,2.319-.28,3.451-.292s1.059,1.212,1.059,1.212a3.043,3.043,0,0,0-1.483-.592,11.959,11.959,0,0,0-3.448.1,2.869,2.869,0,0,1-1.613-.259,1.9,1.9,0,0,0,.087,2.75c.772.788,2.564.667,3.644.087a2.926,2.926,0,0,1,2.368.008,8.1,8.1,0,0,1-3.581,1.278,3.193,3.193,0,0,1-3.711-1.4,3.852,3.852,0,0,1,.9-3,9.129,9.129,0,0,0-.772-.84c-.19-.137-.256-1.225-.351-1.51s-.63-1.314-.63-1.314a1.545,1.545,0,0,1,.055-1.942,35.215,35.215,0,0,1,5.053-4.241,2.329,2.329,0,0,1,1.143-2.672l2.4-1.546q1.905-5.674,7.352-5.508-5.849,1.313-6.167,5.77-4.906,2.364-4.147,4.278" transform="translate(-151.926 -229.744)" fill="#461a55" fill-rule="evenodd"/>
          </g>
          <g id="Group_169" data-name="Group 169" transform="translate(7.496 9.826)">
            <path id="Path_197" data-name="Path 197" d="M159.864,236.28l-2.374-.44a5.589,5.589,0,0,1-.912,2.052,3.492,3.492,0,0,1,3.017-.99Z" transform="translate(-156.577 -235.84)" fill="#461a55" fill-rule="evenodd"/>
          </g>
          <g id="Group_170" data-name="Group 170" transform="translate(8.763 8.449)">
            <path id="Path_198" data-name="Path 198" d="M161.831,248.492a16.647,16.647,0,0,0-4.238,14.316,25.837,25.837,0,0,1,3.33-11.417c.366-.712,5.1-7.266,5.1-7.266l-2.985,3.024q.237-2.149,2.9-6.006c-.443-3.391-1.48-5.45-3.122-6.157,1.3,1.4,2.073,3.583,2.279,6.557a10.606,10.606,0,0,0-3.259,6.949" transform="translate(-157.363 -234.986)" fill="#461a55" fill-rule="evenodd"/>
          </g>
          <g id="Group_171" data-name="Group 171" transform="translate(11.792 0.291)">
            <path id="Path_199" data-name="Path 199" d="M159.242,234.534l1.936-.975q2.019-3.557,7.95-3.524-7.551-.824-9.886,4.5" transform="translate(-159.242 -229.924)" fill="#461a55" fill-rule="evenodd"/>
          </g>
          <g id="Group_172" data-name="Group 172" transform="translate(18.657 1.343)">
            <path id="Path_200" data-name="Path 200" d="M163.5,230.673a15.828,15.828,0,0,1,11.56,6.881q-3.559-7.8-11.56-6.881" transform="translate(-163.501 -230.577)" fill="#461a55" fill-rule="evenodd"/>
          </g>
          <g id="Group_173" data-name="Group 173" transform="translate(18.204 3.059)">
            <path id="Path_201" data-name="Path 201" d="M164.966,237.528q1.129-5.348-1.746-5.886c1.426,1.086,1.684,2.713.788,4.863Z" transform="translate(-163.22 -231.642)" fill="#461a55" fill-rule="evenodd"/>
          </g>
          <g id="Group_174" data-name="Group 174" transform="translate(15.423 3.534)">
            <path id="Path_202" data-name="Path 202" d="M162.872,235.923l-.063-1.462-1.314.63c.024-2.2.617-3.251,1.8-3.148q1.644.854.854,3.446c-.35.641-.77.817-1.273.534" transform="translate(-161.495 -231.937)" fill="#461a55" fill-rule="evenodd"/>
          </g>
          <g id="Group_175" data-name="Group 175" transform="translate(22.796 4.32)">
            <path id="Path_203" data-name="Path 203" d="M166.069,232.424a8.786,8.786,0,0,1,.74,1.731s1.883-.224,4.036,2.532a6.345,6.345,0,0,0-4.776-4.263" transform="translate(-166.069 -232.424)" fill="#461a55" fill-rule="evenodd"/>
          </g>
          <g id="Group_176" data-name="Group 176" transform="translate(24.074 6.783)">
            <path id="Path_204" data-name="Path 204" d="M167.539,235.878l-.677-1.926a5.05,5.05,0,0,1,3.182,2.893c-1.259-1.318-2.347-1.093-2.5-.967" transform="translate(-166.862 -233.952)" fill="#461a55" fill-rule="evenodd"/>
          </g>
          <g id="Group_177" data-name="Group 177" transform="translate(20.838 5.024)">
            <path id="Path_205" data-name="Path 205" d="M164.854,232.861a11.56,11.56,0,0,1,2.213,6.794c.1,4.292.8,5.895,1.858,7.813-.995-3.169-.453-5.888-.417-8.132s-1.762-4.971-3.654-6.475" transform="translate(-164.854 -232.861)" fill="#461a55" fill-rule="evenodd"/>
          </g>
          <g id="Group_178" data-name="Group 178" transform="translate(25.681 10.079)">
            <path id="Path_206" data-name="Path 206" d="M167.859,236a11.373,11.373,0,0,1,.247,5.484,9.407,9.407,0,0,0,.97,6.633c.828,1.6,2.141,2.6,2.719.735a5.854,5.854,0,0,0-.667-4.771,3.705,3.705,0,0,1-1.151,4.678c-.643-1.057-.517-2.245-.487-4.329s.516-5.5-1.631-8.428" transform="translate(-167.859 -235.997)" fill="#461a55" fill-rule="evenodd"/>
          </g>
          <g id="Group_179" data-name="Group 179" transform="translate(20.348 18.738)">
            <path id="Path_207" data-name="Path 207" d="M167,252.5c.023-.379.042-.849.023-1.415-3.125-3.565-1.923-9.719-1.923-9.719a13.258,13.258,0,0,0,1.22,10.316,8.894,8.894,0,0,0,.68.819" transform="translate(-164.55 -241.369)" fill="#461a55" fill-rule="evenodd"/>
          </g>
          <g id="Group_180" data-name="Group 180" transform="translate(24.045 10.856)">
            <path id="Path_208" data-name="Path 208" d="M172.611,240.971c-2.624-2.7-2.308-4.492-2.308-4.492-.675,3.524.991,4.8,2.155,6.309,1.146,1.509,2.556,3.145,2.3,5.511-1.365,7.3-5.3,8.309-7.751,6.955a5.388,5.388,0,0,1-.161,1.3c1.639,1.046,3.972,1.272,6.729-2.074,4.165-5.063,1.659-10.825-.962-13.511" transform="translate(-166.844 -236.479)" fill="#461a55" fill-rule="evenodd"/>
          </g>
          <g id="Group_181" data-name="Group 181" transform="translate(23.755 21.554)">
            <path id="Path_209" data-name="Path 209" d="M168.2,243.116s-.569.487-.253,2.374.384,4.32-1.28,3.973c0,0,.674,1.73,1.572,1.02s.928-2.181.476-3.486a9.862,9.862,0,0,1-.514-3.881" transform="translate(-166.664 -243.116)" fill="#461a55" fill-rule="evenodd"/>
          </g>
          <g id="Group_182" data-name="Group 182" transform="translate(21.702 25.117)">
            <path id="Path_210" data-name="Path 210" d="M167.194,245.327s-.5.648-.467,3.167-.142,3.353-1.336,2.581c0,0,.25,2.071,1.149,1.647s1.362-2.413,1.125-3.675-.82-2.407-.471-3.72" transform="translate(-165.39 -245.327)" fill="#461a55" fill-rule="evenodd"/>
          </g>
          <g id="Group_183" data-name="Group 183" transform="translate(17.144 28.301)">
            <path id="Path_211" data-name="Path 211" d="M166.58,247.3a15.567,15.567,0,0,0-.363,2.927c-.024,1.518-.764,3.14-2.045,3.456s-1.668-.788-1.48-1.549c0,0-.812,2.861,1.625,3.072,1.86.148,2.9-2.224,2.623-4.276a22.63,22.63,0,0,1-.359-3.63" transform="translate(-162.562 -247.302)" fill="#461a55" fill-rule="evenodd"/>
          </g>
          <g id="Group_184" data-name="Group 184" transform="translate(11.693 20.28)">
            <path id="Path_212" data-name="Path 212" d="M166,242.326s1.161,8.8-2.834,12.5c-1.879,1.742-4.447,1.27-3.611-3.517,0,0-1.651,6.191,1.963,5.862s5.983-7.737,4.481-14.844" transform="translate(-159.181 -242.326)" fill="#461a55" fill-rule="evenodd"/>
          </g>
          <g id="Group_185" data-name="Group 185" transform="translate(10.15 29.357)">
            <path id="Path_213" data-name="Path 213" d="M160.122,247.957s-2.1,3.569-.455,6.592a1.75,1.75,0,0,0,2.353.49c-1.264,1.359-2.747,1.04-3.454-.4-1.032-2.123.495-5.632,1.555-6.684" transform="translate(-158.223 -247.957)" fill="#461a55" fill-rule="evenodd"/>
          </g>
          <g id="Group_186" data-name="Group 186" transform="translate(19.908 11.02)">
            <path id="Path_214" data-name="Path 214" d="M165.764,236.674s3.206,6.775.155,12.429a13.363,13.363,0,0,0-.408-10.553s.011-.2-.28.158c-.229.3-.609.93-.912.348s1.148-2.974,1.446-2.382" transform="translate(-164.277 -236.581)" fill="#461a55" fill-rule="evenodd"/>
          </g>
          <g id="Group_187" data-name="Group 187" transform="translate(29.074 8.752)">
            <path id="Path_215" data-name="Path 215" d="M170.079,235.174s2.938,2.418,3.433,9.826c0,0-.311-4.839-3.15-7.779a6.414,6.414,0,0,0,.542,3.217c.23.211.388-.985.26-1.67.627,1.41.677,2.519.214,2.708s-1.812-2.191-1.3-6.3" transform="translate(-169.964 -235.174)" fill="#461a55" fill-rule="evenodd"/>
          </g>
          <g id="Group_188" data-name="Group 188" transform="translate(14.45 26.599)">
            <path id="Path_216" data-name="Path 216" d="M161.362,247.527a11.894,11.894,0,0,0,1.08-1.281c.074,2.466-.024,3.1-1.551,5.124a5.827,5.827,0,0,0,.471-3.843" transform="translate(-160.891 -246.246)" fill="#461a55" fill-rule="evenodd"/>
          </g>
          <g id="Group_189" data-name="Group 189" transform="translate(11.2 22.626)">
            <path id="Path_217" data-name="Path 217" d="M162.313,244.392c.177-.364,1.759-1.107,2.494-.113.284.482-2.211,4.389-5.932,5.99a14.29,14.29,0,0,0,4.162-4.37c.614-1.086-1.1-.764-.724-1.507" transform="translate(-158.875 -243.781)" fill="#461a55" fill-rule="evenodd"/>
          </g>
        </g>
        <g id="Group_191" data-name="Group 191" transform="translate(21.426 62.103)">
          <path id="Path_218" data-name="Path 218" d="M179.822,262.167c.49-.2.574.042-.161.322-4.681,1.8-9.963,1.675-14.673.68a69.1,69.1,0,0,1-10.287-2.882l.453-.994s24.083,3.116,24.668,2.874" transform="translate(-154.701 -259.293)" fill="#dbbd81" fill-rule="evenodd"/>
        </g>
        <g id="Group_192" data-name="Group 192" transform="translate(23.125 53.625)">
          <path id="Path_219" data-name="Path 219" d="M155.755,254.755l.311-.722c.48.232,5.129,2.51,7.622,3.361,5.388,1.855,10.3,3.045,13.855,3.045a28.063,28.063,0,0,0,5.058-.422,19.156,19.156,0,0,0,3.875-1.135,10.03,10.03,0,0,0,2.676-2.437c.308-.392.561-.63.577-.413.347,3.177-3.387,5.324-8.62,6-5.319.691-10.413-1.731-15.359-2.848a25.307,25.307,0,0,1-10-4.433" transform="translate(-155.755 -254.033)" fill="#bd96c5" fill-rule="evenodd"/>
        </g>
        <g id="Group_193" data-name="Group 193" transform="translate(23.125 53.929)">
          <path id="Path_220" data-name="Path 220" d="M155.755,254.814l.371-.592c.485.224,5.069,2.371,7.563,3.23,5.388,1.855,10.3,3.043,13.855,3.043a27.377,27.377,0,0,0,5.058-.427,18.22,18.22,0,0,0,5.28-1.791c.234-.081-.055.248-.166.347-1.51,1.362-5.119,2.318-6.81,2.531-5.326.682-10.209-.788-15.156-1.916a25.236,25.236,0,0,1-10-4.425" transform="translate(-155.755 -254.222)" fill="#dbbd81" fill-rule="evenodd"/>
        </g>
        <g id="Group_194" data-name="Group 194" transform="translate(21.52 54.669)">
          <path id="Path_221" data-name="Path 221" d="M185.2,260l.376.569s.153.176-1.2,1.283a21.933,21.933,0,0,1-4.832,3.191c-4.7,1.7-9.7,1.368-14.591.259a56.575,56.575,0,0,1-10.193-3.209l2.276-7.418a71.387,71.387,0,0,0,7.057,3.182c5.44,1.867,8.743,2.924,14.047,2.971A22.7,22.7,0,0,0,185.2,260" transform="translate(-154.759 -254.681)" fill="#bd96c5" fill-rule="evenodd"/>
        </g>
        <g id="Group_195" data-name="Group 195" transform="translate(22.389 56.063)">
          <path id="Path_222" data-name="Path 222" d="M163.459,258.344c5.516,1.9,8.92,2.983,14.341,3.019,4.9.047,6.573-.7,6.573-.7a22.08,22.08,0,0,1-5.729,3.773c-3.507,1.3-9.241,1.211-14.021.069a71.311,71.311,0,0,1-9.325-2.839l1.908-6.117a54.944,54.944,0,0,0,6.252,2.8" transform="translate(-155.298 -255.546)" fill="#dbbd81" fill-rule="evenodd"/>
        </g>
        <g id="Group_196" data-name="Group 196" transform="translate(28.222 53.135)">
          <path id="Path_223" data-name="Path 223" d="M170.8,253.729s-3.14,1.692-3.053,11.7c.034,4.054,1.043,5.893,1.043,5.893l-4.966-3.174-4.911,3.191s.534-4.165.534-5.862.069-8.955,2.51-10.786a.32.32,0,0,1,.276-.09,19.637,19.637,0,0,0,8.569-.875" transform="translate(-158.917 -253.729)" fill="#dbbd81" fill-rule="evenodd"/>
        </g>
        <g id="Group_197" data-name="Group 197" transform="translate(27.671 52.687)">
          <path id="Path_224" data-name="Path 224" d="M158.575,272.447l.074-.975c.013-.116.521-4.163.521-5.82,0-3.4.351-9.347,2.679-11.146a.812.812,0,0,1,.556-.214h.085l.156.019c.477.04,1.293.113,2.316.113a16.814,16.814,0,0,0,5.882-.972l.395.872c-.021.015-3.159,1.544-3.112,11.022.037,4.652.583,4.429.788,5.327l.627,1.731-5.5-3.514Zm5.466-4.288,4.333,2.573a10.6,10.6,0,0,1-.9-5.122c-.044-6.1,1.093-9.217,2.06-10.745a19.586,19.586,0,0,1-4.573.517h0c-1.064,0-1.9-.076-2.4-.113l-.11-.014c-1.449,1.1-2.3,4.989-2.524,10.385-.082,1.968-.337,2.606-.575,5.485Z" transform="translate(-158.575 -253.451)" fill="#bd96c5"/>
        </g>
        <g id="Group_198" data-name="Group 198" transform="translate(29.774 54.186)">
          <path id="Path_225" data-name="Path 225" d="M163.21,266.244l-3.33,2.207.019-.229a16.713,16.713,0,0,0,.24-3.14c0-5.306.838-9.044,2.358-10.54l.147.153c-1.48,1.447-2.3,5.142-2.3,10.387a14.753,14.753,0,0,1-.219,2.942L163.21,266l3.23,2.134c-.55-1.507-.8-1.4-.782-3.088.066-4.525.572-8.214,1.744-10.661l.189.094c-1.161,2.415-1.749,6.065-1.709,10.567.008,1.335.446,2.128,1.033,3.965Z" transform="translate(-159.88 -254.381)" fill="#bd96c5"/>
        </g>
        <g id="Group_199" data-name="Group 199" transform="translate(18.595 53.251)">
          <path id="Path_226" data-name="Path 226" d="M157.926,263.728c.082-.364.163-.735.255-1.1a.742.742,0,0,1,.053-.222c.421-1.747.925-3.353.925-3.353.118-.409.23-.777.329-1.028a7.228,7.228,0,0,1,.685-1.152,2.244,2.244,0,0,1,2.511-.645c-.053-1.62-1.228-2.558-3.064-2.41s-2.471,2.218-2.5,3.195-1.157,1.533-1.775,1.981c-.638.438-1.4.509-1.8.961-.427.45.55,1.3,1.489.948l.74-.282a5.774,5.774,0,0,1-.866,2.439,1.862,1.862,0,0,1-1.963.5s-.169,2.666,2.308,2.59a2.992,2.992,0,0,0,2.671-2.4v-.026" transform="translate(-152.945 -253.801)" fill="#dbbd81" fill-rule="evenodd"/>
        </g>
        <g id="Group_200" data-name="Group 200" transform="translate(18.281 52.931)">
          <path id="Path_227" data-name="Path 227" d="M155.27,266.588h0a2.372,2.372,0,0,1-1.794-.7,3.253,3.253,0,0,1-.72-2.234l.024-.411.4.126a1.914,1.914,0,0,0,.553.082,1.242,1.242,0,0,0,1.045-.471,4.707,4.707,0,0,0,.7-1.744l-.2.082a1.667,1.667,0,0,1-.575.108,1.539,1.539,0,0,1-1.388-.791.7.7,0,0,1,.106-.777,2.755,2.755,0,0,1,1.046-.611,4.06,4.06,0,0,0,.824-.4c.094-.076.211-.142.337-.227.569-.379,1.269-.851,1.288-1.5.037-1.07.772-3.33,2.793-3.5.132-.006.274-.016.4-.016a2.726,2.726,0,0,1,3.016,2.74l.021.488-.458-.189a2.3,2.3,0,0,0-.738-.121,1.7,1.7,0,0,0-1.4.671,5.853,5.853,0,0,0-.646,1.078c-.09.224-.2.558-.321.99-.007.026-.5,1.628-.919,3.343l-.06.208c-.084.411-.168.759-.237,1.088l0,.052-.008.019a3.266,3.266,0,0,1-2.971,2.618Zm-1.868-2.521a2.389,2.389,0,0,0,.543,1.386,1.72,1.72,0,0,0,1.325.495h.092a2.684,2.684,0,0,0,2.374-2.129v-.031c.071-.34.152-.69.247-1.1a1.113,1.113,0,0,1,.063-.277c.421-1.718.922-3.322.925-3.34.131-.45.24-.8.337-1.049l.011-.021a6.746,6.746,0,0,1,.724-1.209,2.358,2.358,0,0,1,1.905-.912,2.7,2.7,0,0,1,.5.042,2.126,2.126,0,0,0-2.337-1.681c-.1,0-.226,0-.347.01-1.6.139-2.176,2.005-2.208,2.89-.019.975-.917,1.568-1.572,2.007-.126.074-.227.148-.327.216a4.106,4.106,0,0,1-.959.475,2.269,2.269,0,0,0-.8.45c-.008.008-.019.024,0,.085a.943.943,0,0,0,.806.413,1.024,1.024,0,0,0,.347-.063l1.225-.479-.061.517a6.209,6.209,0,0,1-.925,2.6,1.883,1.883,0,0,1-1.557.727A1.672,1.672,0,0,1,153.4,264.067Z" transform="translate(-152.749 -253.603)" fill="#bd96c5"/>
        </g>
        <g id="Group_201" data-name="Group 201" transform="translate(31.035 55.72)">
          <path id="Path_228" data-name="Path 228" d="M162.085,257.586l-.661-.237v-2.016h.1a8.852,8.852,0,0,0,1.32,1.257,1.7,1.7,0,0,0,.938.364.745.745,0,0,0,.534-.2.636.636,0,0,0,.206-.471.8.8,0,0,0-.142-.454.967.967,0,0,0-.437-.3v-.084a1.12,1.12,0,0,1,.712.321.879.879,0,0,1,.25.651.965.965,0,0,1-.263.688.848.848,0,0,1-.638.282,1.214,1.214,0,0,1-.509-.122,3.38,3.38,0,0,1-.869-.6c-.456-.419-.722-.671-.824-.783v.893a1.915,1.915,0,0,0,.024.38.589.589,0,0,0,.077.2.514.514,0,0,0,.182.15Z" transform="translate(-160.196 -255.333)" fill="#461a55"/>
          <path id="Path_229" data-name="Path 229" d="M162.87,257.018a2.625,2.625,0,0,1,1,.182,1.463,1.463,0,0,1,.629.469.85.85,0,0,1,.166.469.914.914,0,0,1-.4.706,2.149,2.149,0,0,1-1.351.384,2.77,2.77,0,0,1-1-.163,1.277,1.277,0,0,1-.595-.44.868.868,0,0,1-.2-.514.934.934,0,0,1,.574-.806A2.378,2.378,0,0,1,162.87,257.018Zm-.066.5a3.2,3.2,0,0,0-1.148.174c-.255.1-.38.235-.38.43a.413.413,0,0,0,.126.277.735.735,0,0,0,.409.226,4.877,4.877,0,0,0,1.219.116,3.31,3.31,0,0,0,.974-.119.892.892,0,0,0,.409-.237.376.376,0,0,0,.085-.247.4.4,0,0,0-.155-.308,1.306,1.306,0,0,0-.663-.247A5.657,5.657,0,0,0,162.8,257.514Z" transform="translate(-160.383 -254.302)" fill="#461a55"/>
          <path id="Path_230" data-name="Path 230" d="M164.115,258.836l.4.833v.081h-2.885a1.436,1.436,0,0,0-.353.024.181.181,0,0,0-.113.1.744.744,0,0,0-.037.306h-.1V258.9h.1a.757.757,0,0,0,.037.311.236.236,0,0,0,.1.1,1.316,1.316,0,0,0,.371.026h1.847a2.8,2.8,0,0,0,.477-.023.194.194,0,0,0,.118-.063.225.225,0,0,0,.039-.111.574.574,0,0,0-.084-.255Z" transform="translate(-160.433 -253.19)" fill="#461a55"/>
          <path id="Path_231" data-name="Path 231" d="M161.927,262.327h-.363v-.459h-.9v-.414h.9v-1.444h.324l2.258,1.578v.28h-2.22Zm0-.874h1.684l-1.684-1.2Z" transform="translate(-160.662 -252.472)" fill="#461a55"/>
        </g>
        <path id="Path_232" data-name="Path 232" d="M154.76,268.615a2.591,2.591,0,0,1-.329.15l-.4-.5c-.056-.058-.126-.126-.214-.208l-1.132.558c-.387.226-.674.4-.877.506l-.108.055c-.126.055-.429.224-.916.492l-.111.079-.38.185-.376.229-.19.11a5.706,5.706,0,0,0-.579.363.7.7,0,0,0-.092.1.72.72,0,0,0,.023.089c.018.024.026.065.042.089a3.476,3.476,0,0,0,.16.4l.018.079a1.292,1.292,0,0,1,.069.2.73.73,0,0,1-.163.1.381.381,0,0,1-.158.055c-.037-.048-.092-.134-.153-.234s-.1-.182-.126-.217c-.156-.382-.29-.659-.38-.835-.052-.077-.084-.158-.132-.242a2.005,2.005,0,0,0-.113-.221c-.05-.1-.19-.327-.434-.687a1,1,0,0,1-.127-.19,2.76,2.76,0,0,1-.143-.282.757.757,0,0,0,.129-.082c.056-.019.118-.05.2-.08l.555.719a.149.149,0,0,0,.177.021l.153-.1.077-.043.19-.1.153-.081.034-.015a.116.116,0,0,1,.076-.05l.559-.308a1.313,1.313,0,0,1,.119-.074l.139-.071a1.341,1.341,0,0,0,.153-.074c.045-.031.147-.092.3-.182-.029-.089-.061-.168-.081-.223l-.359-.663-.179-.316-.43-.8-.45-.759a1.794,1.794,0,0,0-.208-.3c-.1.05-.35.179-.743.392l-.2.1-.737.437-.277.214a.158.158,0,0,0-.029.1,3.268,3.268,0,0,0,.137.706,1.514,1.514,0,0,1,.04.182,1.068,1.068,0,0,1-.269.1.378.378,0,0,1-.069-.114l-.234-.422a6.355,6.355,0,0,0-.406-.856c-.032-.068-.063-.114-.084-.155l-.34-.561a.642.642,0,0,0-.089-.142,1.689,1.689,0,0,1-.214-.308c-.045-.085-.093-.182-.148-.309a2.694,2.694,0,0,1,.318-.155c.206.237.347.4.408.461a1.657,1.657,0,0,0,.251.189l.094-.023.09-.04.1-.066.064-.027a1.243,1.243,0,0,0,.145-.061l.111-.063c.124-.074.2-.119.216-.132l.558-.31.416-.24.566-.3c.137-.066.392-.219.782-.447l.625-.355.517-.285c.1-.061.214-.116.356-.189a1.07,1.07,0,0,0-.052-.2,3.65,3.65,0,0,1-.163-.72l.308-.185c.063.118.1.185.113.206a4.747,4.747,0,0,1,.247.5,11.721,11.721,0,0,0,.606,1.18,9.286,9.286,0,0,0,.569.9.511.511,0,0,1,.058.166,1.339,1.339,0,0,1-.316.124l-.263-.295-.243-.316c-.032-.024-.064-.063-.118-.111a12.672,12.672,0,0,0-1.207.609l-.387.185a4.753,4.753,0,0,1-.535.348,3.246,3.246,0,0,0,.171.356l1.12,2.057.016.048.008.027a.51.51,0,0,1,.043.069c.045.073.081.14.118.194l.063.124a.677.677,0,0,0,.139.169l.34-.163.056-.028a1.031,1.031,0,0,1,.147-.1l1.364-.758c.073-.045.152-.092.224-.142l.008-.052-.261-.717c-.015-.039-.018-.064-.024-.081a.256.256,0,0,1-.006-.124c.056-.048.1-.077.123-.1l.169-.068c.06.111.11.195.153.271s.064.131.1.181a.581.581,0,0,1,.032.082l.327.635c.069.153.174.364.319.625l.058.1c.079.119.119.187.132.2C154.371,267.951,154.537,268.227,154.76,268.615Zm-4.254-8.1a4.36,4.36,0,0,0-.169-.685l-.073-.2c-.068-.791-.121-1.283-.145-1.489a.579.579,0,0,0-.121.011c-.048.011-.126.021-.243.043v.363a.939.939,0,0,1-.06.459.231.231,0,0,1-.177.1,1.1,1.1,0,0,1-.369-.042c-.651-.121-1.064-.2-1.241-.251l-.293-1.9.917-.546.451-.277a.4.4,0,0,1,.134-.045.169.169,0,0,1,.118.031.921.921,0,0,1,.14.272l.211.534a1.915,1.915,0,0,0,.335-.037l-.048-.242-.174-.838c-.027-.116-.064-.306-.1-.564-.035-.239-.066-.5-.094-.808s-.05-.571-.087-.812a.759.759,0,0,0-.116.011c-.048.01-.134.032-.242.063a1.954,1.954,0,0,0-.037.459.655.655,0,0,1-.058.31.852.852,0,0,1-.221.192,5.752,5.752,0,0,1-.6.366c-.3.171-.511.3-.651.385-.247.156-.561.347-.943.564s-.78.463-1.18.724l-1.91,1.188-.085.058.027.227c.021.1.037.206.06.318l3.28.687,2.788.582a.912.912,0,0,1,.319.164,1.435,1.435,0,0,1,.2.443c.06.15.1.258.132.316l.348-.045Zm-3.148-1.8c-.113-.78-.181-1.231-.2-1.373l-.021-.122c-.289.143-.606.326-.978.546s-.638.4-.837.534Zm2.186-6.926c.042-.5.085-.927.14-1.286l.14-.845a6.207,6.207,0,0,0,.065-.853,3.632,3.632,0,0,0-.134-.919,1.826,1.826,0,0,0-.38-.658,1.2,1.2,0,0,0-.451-.376,2.029,2.029,0,0,0-.672-.221,1.467,1.467,0,0,0-1.057.247,2.05,2.05,0,0,0-.785,1.064,3.98,3.98,0,0,0-.243-.688,1.506,1.506,0,0,0-.379-.474,1.226,1.226,0,0,0-.529-.211,1.811,1.811,0,0,0-.532.016,1.171,1.171,0,0,0-.48.224,1.23,1.23,0,0,0-.387.387,1.945,1.945,0,0,0-.224.384,3.341,3.341,0,0,0-.234.812l-.044.318c-.029.143-.032.229-.04.26s-.008.084-.008.122l-.026.193-.176,1.638-.134,1.12.355.037c.073-.256.118-.417.132-.482a.577.577,0,0,1,.1-.289c.023-.019.032-.037.055-.04a1.356,1.356,0,0,1,.471.016c.935.11,1.509.179,1.734.21l2.123.289a5.188,5.188,0,0,1,.812.158.9.9,0,0,1,.214.118,2.536,2.536,0,0,1,.053.54c0,.114,0,.211.006.292l.4.073C149.5,252.322,149.533,251.939,149.544,251.794Zm-3.577-1.67a4.393,4.393,0,0,0,.094-.469,1.921,1.921,0,0,0-.118-1.175,1.123,1.123,0,0,0-.9-.516,1.046,1.046,0,0,0-.854.25,1.667,1.667,0,0,0-.476,1.049c-.01.14-.021.337-.021.556.079.018.185.031.33.047.289.023.679.073,1.193.14l.422.077A2.736,2.736,0,0,1,145.967,250.124Zm3.187.38a1.6,1.6,0,0,0,.221-.587,2.083,2.083,0,0,0-.042-.951,1.16,1.16,0,0,0-.4-.593,1.8,1.8,0,0,0-.751-.276,1.577,1.577,0,0,0-.8.069,1.286,1.286,0,0,0-.622.532,2.928,2.928,0,0,0-.279,1.045,1.05,1.05,0,0,0-.016.442l.611.081.737.118,1.149.145A.658.658,0,0,0,149.154,250.5Zm1.646-5.18c.1-.322.18-.572.24-.74l.353-.822c.182-.358.287-.553.311-.595a.636.636,0,0,0,.061-.118,1.323,1.323,0,0,1,.06-.172.432.432,0,0,1,.037-.1.869.869,0,0,0-.161-.064,1.076,1.076,0,0,0-.24-.077c-.089.152-.142.245-.158.266a2.806,2.806,0,0,1-.295.49.23.23,0,0,1-.108-.029l-.177-.069-.938-.377-.619-.259-1.235-.495c-.288-.113-.688-.28-1.21-.5-.089-.026-.2-.064-.335-.118a2.072,2.072,0,0,1-.335-.174,2.456,2.456,0,0,1,.043-.443c.024-.174.042-.334.048-.477-.081-.037-.153-.069-.2-.1l-.148-.048c-.021.061-.068.2-.145.43-.137.419-.243.725-.319.9-.016.042-.064.145-.139.306l-.588,1.312.409.155c.023-.039.047-.1.076-.155a2.19,2.19,0,0,1,.369-.585,1.1,1.1,0,0,1,.168.031l.2.069.543.2.242.111.619.245c.019.006.339.147.945.413l.258.1,1.061.437.551.224a.8.8,0,0,1,.361.242,1.951,1.951,0,0,1-.023.521c-.026.158-.037.276-.05.343l.345.137C150.693,245.682,150.737,245.54,150.8,245.324Zm2.118-4.637c.274-.426.509-.785.727-1.077l.517-.677a5.565,5.565,0,0,0,.463-.73,4.01,4.01,0,0,0,.313-.862,2.16,2.16,0,0,0-.026-.769,1.382,1.382,0,0,0-.224-.542,2.565,2.565,0,0,0-.487-.513,1.5,1.5,0,0,0-1.057-.272,2.128,2.128,0,0,0-1.193.572,5.461,5.461,0,0,0,.118-.725,1.44,1.44,0,0,0-.122-.595,1.232,1.232,0,0,0-.371-.435,1.51,1.51,0,0,0-.477-.234,1.324,1.324,0,0,0-.525-.039,1.633,1.633,0,0,0-.525.171,3.161,3.161,0,0,0-.376.234,2.957,2.957,0,0,0-.577.6l-.192.263c-.09.113-.137.185-.161.216a.4.4,0,0,0-.069.1l-.11.163-.93,1.357-.642.928.3.208c.182-.2.3-.324.343-.369a.634.634,0,0,1,.222-.206.1.1,0,0,1,.076-.013,2.466,2.466,0,0,1,.406.234c.769.534,1.249.864,1.418,1l1.746,1.248a7.492,7.492,0,0,1,.648.527.8.8,0,0,1,.129.2,1.926,1.926,0,0,1-.206.5l-.126.269.321.242C152.624,241.13,152.843,240.8,152.918,240.687Zm-2.378-3.161a3.154,3.154,0,0,0,.3-.369,2.022,2.022,0,0,0,.45-1.091,1.105,1.105,0,0,0-.555-.877,1.036,1.036,0,0,0-.864-.181,1.649,1.649,0,0,0-.914.7c-.079.121-.174.284-.282.49.064.05.153.1.268.19.242.156.574.379.98.683l.34.26C150.329,237.374,150.414,237.435,150.54,237.526Zm2.639,1.837a1.523,1.523,0,0,0,.466-.416,2.121,2.121,0,0,0,.413-.856,1.082,1.082,0,0,0-.082-.717,1.625,1.625,0,0,0-.537-.595,1.425,1.425,0,0,0-.737-.308,1.262,1.262,0,0,0-.8.176,3.178,3.178,0,0,0-.735.785,1.4,1.4,0,0,0-.222.38l.5.364.6.448.943.666A.459.459,0,0,0,153.179,239.363Zm5.218-12.522c.361-.143.595-.181.7-.116a3.016,3.016,0,0,1,.472.846l.969,2.194a6.815,6.815,0,0,0,.5.949,1.973,1.973,0,0,0,.719.648,1.949,1.949,0,0,0,.995.156,3.66,3.66,0,0,0,1.31-.351,4.064,4.064,0,0,0,1.028-.629,2.537,2.537,0,0,0,.624-.711,1.9,1.9,0,0,0,.25-.729,1.623,1.623,0,0,0-.039-.579,9.057,9.057,0,0,0-.5-1.286l-.461-.915c-.106-.227-.214-.447-.321-.659a.965.965,0,0,1-.092-.189c-.027-.058-.073-.145-.114-.255-.084-.187-.153-.318-.193-.393a1.46,1.46,0,0,1-.122-.235.213.213,0,0,1-.015-.2,1.559,1.559,0,0,1,.314-.218,1.93,1.93,0,0,0,.337-.214.326.326,0,0,0-.042-.131.673.673,0,0,0-.116-.2l-.082.023a7.925,7.925,0,0,1-.837.418l-.893.351-.364.16.147.359.068-.014.426-.2a.567.567,0,0,1,.406,0c.079.031.161.14.256.319l.129.227c.5.9.909,1.71,1.23,2.453a4.016,4.016,0,0,1,.34.983,2.189,2.189,0,0,1-.026.577.9.9,0,0,1-.161.385,1.481,1.481,0,0,1-.326.4,3.578,3.578,0,0,1-.775.479,1.8,1.8,0,0,1-.843.145,1.16,1.16,0,0,1-.587-.2,1.963,1.963,0,0,1-.595-.735l-.569-1.122-.338-.809-.187-.358-.182-.435-.082-.166c-.031-.056-.068-.134-.111-.23a1.8,1.8,0,0,1-.2-.574c.027-.089.126-.179.3-.255a3.851,3.851,0,0,0,.514-.271l-.008-.035-.131-.267-.031-.061a3.028,3.028,0,0,1-.361.171c-.181.084-.384.185-.613.3s-.472.226-.716.331c-.074.032-.316.13-.729.287-.168.069-.335.137-.493.2-.055.032-.11.056-.171.087l.18.356A.951.951,0,0,0,158.4,226.841Zm10.477-3.64a1.154,1.154,0,0,1,.4.251.48.48,0,0,1,.121.2,2.755,2.755,0,0,1,.1.8l.056,1.022.047,1.633,0,.285c0,.111.013.438,0,.975,0,.181-.014.3-.074.34a1.149,1.149,0,0,1-.5.082c-.116,0-.174,0-.2,0a1.5,1.5,0,0,0-.234.027v.187c0,.058.014.124.014.2a.859.859,0,0,0,.176.015l.289-.027c.179-.018.535-.047,1.069-.073.572.037.917.055,1.022.045l.2-.013-.037-.422a1.06,1.06,0,0,0-.134-.029,3.94,3.94,0,0,1-.856-.077c-.031-.069-.053-.121-.068-.151a1.346,1.346,0,0,1-.024-.187c-.042-.321-.073-.616-.1-.89l-.055-.656,0-.355c0-.123,0-.234-.011-.348l-.118-1.87.845.714c.348.29.735.633,1.165,1.022l.65.625.88.827,1.262,1.169.63.6.574-.04-.013-.271c0-.026-.011-.108-.029-.243l.01-.271-.027-.266-.021-.614a2.008,2.008,0,0,0-.016-.272l-.118-1.763c0-.116-.019-.216-.024-.3-.036-.284-.06-.671-.082-1.156-.006-.226-.018-.361-.018-.424-.016-.124-.023-.192-.023-.213a.317.317,0,0,1,.04-.189,2.779,2.779,0,0,1,.263-.187,2.082,2.082,0,0,1,.369-.118.712.712,0,0,0,.229-.1l-.019-.327c-.064,0-.127.006-.209.013l-1.09.072-.993.06-.119.023v.3a1.532,1.532,0,0,0,.411.1.94.94,0,0,1,.5.153c.048.044.072.172.082.392,0,.071.039.322.085.758a6.581,6.581,0,0,1,.056.754c.023.277.042.517.061.716s.045.474.066.816l.04.582,0,.126c-2.121-1.965-3.346-3.106-3.685-3.436s-.777-.724-1.31-1.175c-.065,0-.121,0-.156,0s-.127.008-.311.024-.28.018-.308.023a.908.908,0,0,1-.114,0c-.2,0-.308,0-.356,0-.071,0-.221.011-.419.029l-.14,0-.438.018.037.353A3.587,3.587,0,0,1,168.873,223.2Zm9.391,6.2c.339.053.59.1.767.135l.866.226c.379.129.585.214.632.23a.722.722,0,0,0,.124.045c.01,0,.085.013.185.037a.493.493,0,0,1,.092.019c.024-.073.037-.126.053-.166a2.066,2.066,0,0,0,.035-.247c-.158-.068-.256-.1-.28-.122a3.662,3.662,0,0,1-.532-.219.337.337,0,0,1,.018-.113l.047-.19.235-.98.174-.65.319-1.294c.069-.3.182-.716.33-1.264.013-.093.04-.2.069-.351a2.134,2.134,0,0,1,.118-.363c.116,0,.271-.016.448-.01s.34-.006.482-.014c.024-.092.044-.163.06-.219.008-.039.026-.092.034-.151-.066-.016-.213-.042-.453-.082-.434-.084-.745-.143-.935-.192l-.326-.092-1.377-.409-.1.429a.774.774,0,0,0,.164.056,1.993,1.993,0,0,1,.63.285,1.032,1.032,0,0,1,0,.161l-.052.214-.118.564-.077.256-.161.651c0,.021-.092.351-.274.995l-.063.261-.28,1.109-.143.583a.939.939,0,0,1-.192.395,2.035,2.035,0,0,1-.525.052c-.15,0-.268,0-.34,0l-.089.351C177.9,229.341,178.048,229.368,178.264,229.4Zm6.468-4.61a1.712,1.712,0,0,1,.353.282.577.577,0,0,1,.089.251c0,.052-.011.426-.053,1.112l-.135,1.481-.168,2.332c-.076.671-.119,1.056-.142,1.165s-.031.214-.043.322a1.943,1.943,0,0,0,.239.132,1.358,1.358,0,0,0,.222.111q.225-.189.756-.714l.089-.056c.279-.245.45-.385.49-.424.164-.152.332-.29.472-.414.163-.123.292-.239.424-.359l1.355-1.167a12.986,12.986,0,0,1,1.146-.928.676.676,0,0,1,.206-.084,4.883,4.883,0,0,1,.822.081.823.823,0,0,0,.084-.164l.085-.143c-.114-.052-.268-.116-.448-.19a5.487,5.487,0,0,1-.651-.3c-.243-.134-.48-.272-.724-.435s-.393-.253-.44-.279a1.739,1.739,0,0,0-.127.2.52.52,0,0,0-.043.156c.043.035.106.069.166.116a.893.893,0,0,1,.15.111.965.965,0,0,1,.355.35.189.189,0,0,1,.014.193,1.189,1.189,0,0,1-.256.3q-.184.172-.517.493c-.068.076-.111.121-.153.16l-.3.247-1.3,1.181-.6.5c.031-.24.055-.5.071-.779l.11-1.414a12.641,12.641,0,0,1,.134-1.509l.068-.459a.193.193,0,0,1,.042-.106.173.173,0,0,1,.1-.089.674.674,0,0,1,.371.016c.053.011.242.081.553.2.016-.024.073-.153.182-.368l-.319-.174c-.11-.037-.266-.1-.469-.19-.279-.124-.461-.211-.546-.263a14,14,0,0,1-1.41-.825c-.035-.016-.124-.074-.269-.158l-.208.387Zm8.082,4.707c.056.061.092.124.145.172a3.264,3.264,0,0,1,.332.448c.029.048.063.1.079.127a.233.233,0,0,1,.052.158.744.744,0,0,0-.061.081l-.422.458-.411.393-.558.577-.417.39-1.357,1.328-.1.1c-.106.1-.174.171-.21.208a1.055,1.055,0,0,1-.3.218,2.98,2.98,0,0,1-.614-.409,3.4,3.4,0,0,0-.313-.237l-.248.25.44.422.143.15c.438.4.79.741,1.074,1.035.558.579,1.035,1.083,1.41,1.515.545.611.89.978,1.014,1.12.089.087.219.211.372.361l.475-.335.809-.53.139-.081a1.6,1.6,0,0,1,.169-.134,1.378,1.378,0,0,0-.123-.116,1.219,1.219,0,0,0-.189-.177,2.551,2.551,0,0,1-1.069.248,1.206,1.206,0,0,1-.661-.2,5.974,5.974,0,0,1-.9-.785,4.111,4.111,0,0,1-.806-.983.28.28,0,0,1,.09-.289l.782-.745c.2-.187.437-.414.717-.693a1.015,1.015,0,0,1,.124-.119c.2.163.474.43.829.79a4.26,4.26,0,0,1,.493.563.36.36,0,0,1,.04.238,2.064,2.064,0,0,1-.3.538,3.287,3.287,0,0,0-.181.277l.25.261.077-.073c.073-.073.182-.177.3-.319.143-.147.24-.258.3-.316.05-.042.108-.1.177-.161s.243-.227.493-.469c.111-.106.276-.266.479-.492l-.2-.206-.056-.05a5.008,5.008,0,0,1-.651.388.5.5,0,0,1-.266.037,1.148,1.148,0,0,1-.4-.274c-.187-.168-.5-.466-.911-.893-.044-.045-.089-.1-.142-.169l.453-.437.612-.579c.411-.4.65-.629.706-.693.23.227.49.485.775.78.251.253.477.506.675.748.114.142.179.218.2.242a1.324,1.324,0,0,1,.2.261,2.363,2.363,0,0,1-.11.553l-.118.4c-.055.132-.1.229-.129.3.05.068.093.108.108.134l.152.14a.815.815,0,0,0,.069-.06l.145-.152.748-.727a.351.351,0,0,0,.121-.245,5.248,5.248,0,0,0-.571-.7l-.638-.651c-.421-.443-.9-.912-1.447-1.433-.361-.348-.577-.563-.659-.653a6.2,6.2,0,0,1-.6-.7c-.079-.116-.192-.242-.316-.393ZM194,239.558a1.5,1.5,0,0,0-.153.084l.114.2a5.273,5.273,0,0,0,.269.5l.356.606c.016.032.044.09.087.169.058.118.211.516.471,1.191l.1.187c.006.018.024.052.053.11a2.492,2.492,0,0,0,.351-.145,4.279,4.279,0,0,0-.132-.695,1.273,1.273,0,0,1-.045-.389l.869-.384.991-.514a2.536,2.536,0,0,1,.316-.137c.074.139.127.243.163.3a.984.984,0,0,1,.134.511,2.18,2.18,0,0,1-.347.564c-.482.637-.837,1.088-1.064,1.362-.084.108-.213.279-.372.517l-.226.287c.027.056.064.116.113.2.106.172.163.272.179.3l.222.458c.066.14.121.264.161.369l.085.179.084.25.056.09.048.119a.366.366,0,0,0,.111-.047.422.422,0,0,0,.119-.09,1.515,1.515,0,0,0,0-.385,1.523,1.523,0,0,1,0-.429,4.529,4.529,0,0,1,.369-.621l.822-1.294c.085-.132.193-.313.3-.524.061-.1.113-.185.163-.255a1.912,1.912,0,0,0,1,.625,1.455,1.455,0,0,0,.964-.108,1.566,1.566,0,0,0,.822-1.075,2.394,2.394,0,0,0-.247-1.705,11.912,11.912,0,0,0-.6-1.1l-.3-.548-.126-.235c-.013-.018-.058-.142-.153-.368-.11-.208-.177-.348-.211-.413a2.742,2.742,0,0,0-.237-.406l-.058.01-.266.137c.027.089.1.261.193.514l.073.288c-.168.1-.566.3-1.19.606-.288.14-.591.285-.924.438l-.25.106-.424.218-.548.25-1,.5c-.253.119-.4.189-.44.206s-.077.014-.148.031a2.393,2.393,0,0,1-.3-.369.942.942,0,0,0-.266-.3A.685.685,0,0,0,194,239.558Zm4.068.554c.058.153.108.253.139.322a1.838,1.838,0,0,0,.811.961,1.007,1.007,0,0,0,.9-.039,1.877,1.877,0,0,0,.485-.335,1.1,1.1,0,0,0,.287-.38,1.354,1.354,0,0,0,.055-.569,2.565,2.565,0,0,0-.25-.672,1.709,1.709,0,0,0-.2-.343l-.084.032-.6.3-.385.168-.49.248c-.14.058-.318.143-.545.243Zm5.909,8.195a3.733,3.733,0,0,0-.055-.719,2.308,2.308,0,0,0-.875-1.557,1.841,1.841,0,0,0-1.438-.3,2.049,2.049,0,0,0-.779.359,1.763,1.763,0,0,0-.569.69,5.338,5.338,0,0,0-.327,1.373,4.411,4.411,0,0,1-.295,1.219.973.973,0,0,1-.614.471,1.017,1.017,0,0,1-.595-.092,1.063,1.063,0,0,1-.469-.443,1.831,1.831,0,0,1-.239-.569,1.529,1.529,0,0,1,0-.574,1.175,1.175,0,0,1,.153-.492,2.007,2.007,0,0,1,.34-.417,6.667,6.667,0,0,1,.611-.437l-.1-.454-.19.035-.453.1c-.408.1-.63.147-.674.148l-.053.016c-.045.021-.077.04-.082.063a1.091,1.091,0,0,0-.063.337l-.063.63a4.564,4.564,0,0,0,.063.848,3.087,3.087,0,0,0,.258.84,2.508,2.508,0,0,0,.416.59,3.254,3.254,0,0,0,.442.4,1.4,1.4,0,0,0,.509.213,2.538,2.538,0,0,0,.949-.007,2.04,2.04,0,0,0,.687-.248,1.985,1.985,0,0,0,.513-.514,2.162,2.162,0,0,0,.3-.738,4.6,4.6,0,0,0,.134-.785,2.908,2.908,0,0,1,.329-1.291.934.934,0,0,1,.559-.4.827.827,0,0,1,.68.161,1.169,1.169,0,0,1,.413.724,1.2,1.2,0,0,1-.235.967,2.661,2.661,0,0,1-.795.6v.058l.052.364.021.047a1,1,0,0,0,.19-.011,7.284,7.284,0,0,0,.788-.214c.218-.076.384-.139.492-.19A6.328,6.328,0,0,0,203.975,248.307Zm-6.209,4.089c.031.342.039.6.039.777l-.027.893c-.048.4-.073.625-.076.672-.013.066-.023.11-.023.126s0,.081.01.193v.094c.077.008.132.018.169.018.069,0,.158-.01.251-.018a2.977,2.977,0,0,0,.047-.311,5.676,5.676,0,0,1,.1-.561,1.068,1.068,0,0,1,.113-.01h.2l1.011.014.669.023,1.335.016c.3.006.74.018,1.31.04a2.839,2.839,0,0,1,.346-.008,1.617,1.617,0,0,1,.382.034,3.837,3.837,0,0,1,.129.43,2.419,2.419,0,0,0,.121.461,2.116,2.116,0,0,0,.214.018h.161c0-.066-.008-.226-.018-.464-.026-.445-.026-.758-.026-.951,0-.045,0-.152.019-.335l.082-1.436h-.442a.8.8,0,0,0-.019.181,1.98,1.98,0,0,1-.129.669,1.064,1.064,0,0,1-.168.032l-.214.006-.574.01-.266-.019h-.677c-.019,0-.356-.021-1.025-.055h-.274l-1.149-.036h-.592a.87.87,0,0,1-.429-.1,2.014,2.014,0,0,1-.16-.5c-.035-.158-.061-.263-.081-.337l-.368,0C197.737,252.034,197.753,252.176,197.766,252.4Zm6.151,5.661a9.982,9.982,0,0,1-1.164-.758,1.207,1.207,0,0,0-.263.24c-.008.045.027.11.1.222a3.148,3.148,0,0,1,.5.8,1.542,1.542,0,0,1-.077.635,8.994,8.994,0,0,1-.292.978.079.079,0,0,1-.04.058.088.088,0,0,1-.076.015,8.286,8.286,0,0,1-.925-.216l-1.847-.474c-.854-.224-1.464-.4-1.857-.527a.741.741,0,0,1-.229-.124,5.018,5.018,0,0,1-.029-.764.725.725,0,0,0-.094-.458l-.042-.006-.114-.029c-.024,0-.065-.016-.113-.026-.016.06-.045.177-.077.367-.089.482-.15.779-.169.877-.166.611-.287,1.036-.377,1.262a8.143,8.143,0,0,0-.266.845,1.4,1.4,0,0,1-.044.179,1.221,1.221,0,0,0,.124.048c.024,0,.1.016.214.026a1.7,1.7,0,0,0,.15-.235,2.061,2.061,0,0,0,.169-.34,1.854,1.854,0,0,1,.145-.269,1.369,1.369,0,0,1,.522.074l.637.171,1.546.4,1.426.384.664.177a1.671,1.671,0,0,1,.3.1,3.169,3.169,0,0,1-.076.348,9.27,9.27,0,0,1-.3,1.017.28.28,0,0,1-.118.119,2.53,2.53,0,0,1-.446.081,3.007,3.007,0,0,0-.619.139,1.726,1.726,0,0,0-.023.363,1.439,1.439,0,0,0,.224.084l.247.068.427.119q.691.169,1.015.256c.021-.061.032-.11.045-.143l.056-.214a1.257,1.257,0,0,0-.121-.085.949.949,0,0,1-.2-.193l.035-.3.4-1.507.295-1.1.161-.6.018-.092c.052-.2.113-.418.182-.672.1-.4.166-.619.182-.663a2.3,2.3,0,0,1,.371-.124.361.361,0,0,0,.1-.027l.081-.3C204.2,258.228,204.083,258.159,203.917,258.057Zm-2.748,8.532c-.019-.016-.05-.034-.061-.044a.4.4,0,0,0-.076-.026c-.2.2-.308.3-.34.329a.654.654,0,0,1-.19.094c-.31.021-.485.035-.517.035l-.875-.014-1.8.013a1.893,1.893,0,0,0-.3.018,1.212,1.212,0,0,1-.791-.118l-.1-.06c-.027-.019-.119-.076-.277-.176s-.45-.293-.885-.569c-.029-.019-.114-.074-.243-.161.01-.035.016-.077.026-.122l.347-.883c-.058-.04-.1-.069-.132-.089a.9.9,0,0,0-.134-.077l-.192.289a2.067,2.067,0,0,0-.18.332.784.784,0,0,1-.106.2l-.221.35-.3.477-.213.3-.332.427-.332.482a1.042,1.042,0,0,0,.118.081.484.484,0,0,0,.1.073.1.1,0,0,0,.1.018,1.818,1.818,0,0,0,.361-.406c.116-.124.182-.208.222-.243a.3.3,0,0,1,.076-.014l1.093.688a1.872,1.872,0,0,1,.216.156l.114.071.363.243.131.087a.528.528,0,0,1,.1.163c.1.193.269.611.508,1.231l.464,1.09a3.431,3.431,0,0,1,.363.964,1.531,1.531,0,0,1-.161.585l-.016.066.313.2a.771.771,0,0,1,.069-.124c.087-.153.147-.276.2-.379l.044-.071.131-.206a.426.426,0,0,1,.081-.092l.606-.841a2.618,2.618,0,0,0-.329-.172c-.026.026-.063.066-.108.116a1.253,1.253,0,0,1-.137.145.826.826,0,0,1-.134.171.357.357,0,0,1-.11.071.452.452,0,0,1-.09-.034.647.647,0,0,1-.131-.193l-.4-.775-.016-.039c-.2-.458-.345-.822-.44-1.093l-.332-.832a2.031,2.031,0,0,1,.3-.013h.2c.048,0,.1,0,.161,0,.032,0,.076,0,.1,0,.324.013.5.018.548.013.171,0,.348,0,.53,0a7.432,7.432,0,0,1,1.322.016l.055.047v.036c-.063.135-.106.232-.143.314l-.084.206a1.064,1.064,0,0,0-.089.269l.21.144a.515.515,0,0,0,.1.032l.023-.032a.5.5,0,0,0,.031-.069,6.213,6.213,0,0,1,.385-.69c.14-.21.322-.479.58-.814a4.142,4.142,0,0,1,.261-.324l.023-.052a1.289,1.289,0,0,1,.106-.134l.036-.037a2.539,2.539,0,0,0,.311-.55A1.116,1.116,0,0,1,201.168,266.589Z" transform="translate(-140.45 -219.778)" fill="#fff" fill-rule="evenodd"/>
      </g>
    </g>
    <g id="Group_1632" data-name="Group 1632" transform="translate(77.617 6.314)">
      <g id="Group_1583" data-name="Group 1583" transform="translate(0.401 4.89)">
        <path id="Path_26047" data-name="Path 26047" d="M-700.328,310.3c.492,0,1.391.064,3.144.064,1.669,0,2.587-.064,3.144-.064.086.107.086.663-.021.728a5.023,5.023,0,0,0-.984.191c-.406.15-.513.43-.513,1.07-.043,1.027-.021,2.332-.021,3.508.021.064.043.129.109.15a22.386,22.386,0,0,0,2.757.043c1.305,0,2.033,0,2.311-.021.043-.021.129-.086.129-.15,0-1.07.021-2.652-.043-3.827-.021-.28-.107-.642-.428-.749a5.841,5.841,0,0,0-1.177-.214.8.8,0,0,1,.021-.728c.878,0,1.584.064,3.251.064,1.755,0,2.418-.064,3.037-.064a.955.955,0,0,1-.021.728,4.734,4.734,0,0,0-1,.214c-.385.127-.514.342-.535,1-.065,1.434-.043,2.332-.043,4.963,0,1.432,0,3.1.043,4.041.021.578.107.92.449,1.07a9.649,9.649,0,0,0,1.368.278c.043.086,0,.663-.107.728-.533,0-1.646-.064-3.165-.064-1.432,0-2.78.064-3.251.064a.864.864,0,0,1,0-.728c.428-.064.727-.128,1.027-.193.364-.107.535-.385.556-1.07.043-1,.021-2.5.021-3.891,0-.064-.043-.15-.107-.15-.428-.023-1.477-.023-2.416-.023a18.9,18.9,0,0,0-2.739.066.3.3,0,0,0-.043.129c0,1.346,0,2.78.021,3.743,0,.619.064.983.578,1.132.278.086.749.171,1.177.257a1.068,1.068,0,0,1-.086.728c-.385,0-1.412-.064-3.379-.064-1.648,0-2.694.064-3.122.064a1.061,1.061,0,0,1-.022-.728l.984-.193c.576-.128.7-.45.768-1.368.021-.321.021-2.29.021-4.171,0-2.1,0-3.957-.021-4.6-.043-.683-.15-.918-.576-1.049-.364-.084-.663-.127-1.113-.191A1.064,1.064,0,0,1-700.328,310.3Z" transform="translate(700.468 -309.058)" fill="#461a55"/>
        <path id="Path_26048" data-name="Path 26048" d="M-687.248,314.826a1.742,1.742,0,0,0-1.453-.663,1.568,1.568,0,0,0-1.048.3,9.082,9.082,0,0,0-.706,1.263c-.107.086-.79-.235-.769-.364a4.8,4.8,0,0,1,.448-1.391,7.527,7.527,0,0,1,3.359-1.368,3.018,3.018,0,0,1,2.545,1.3,3.869,3.869,0,0,1,.535,2.159c0,1.006-.043,2.4-.043,3.272,0,.385.127.813.576.813a2.268,2.268,0,0,0,.706-.107,2.415,2.415,0,0,1-.107.856,3.88,3.88,0,0,1-2.331.835c-.727,0-1.177-.278-1.305-.663a2.339,2.339,0,0,1-.107-.364c0-.043-.086-.043-.086-.021a5.7,5.7,0,0,1-2.373,1.027,1.962,1.962,0,0,1-1.305-.514,2.887,2.887,0,0,1-.833-2.117,3.4,3.4,0,0,1,.364-1.284c.619-.385,3.272-1.006,4.064-1.348.084-.02.15-.15.169-.235a1.2,1.2,0,0,0,.021-.276A1.777,1.777,0,0,0-687.248,314.826Zm.235,2.352a11.4,11.4,0,0,0-1.8.685,1.894,1.894,0,0,0-.171.706,1.417,1.417,0,0,0,1.389,1.56.65.65,0,0,0,.473-.128.472.472,0,0,0,.126-.383c.043-.663.043-1.969.043-2.333C-686.949,317.242-686.992,317.178-687.013,317.178Z" transform="translate(707.456 -307.254)" fill="#461a55"/>
        <path id="Path_26049" data-name="Path 26049" d="M-677.348,316a4.254,4.254,0,0,1,1.006,2.823,4.606,4.606,0,0,1-1.776,3.871,7.909,7.909,0,0,1-3.614,1.37,7.429,7.429,0,0,1-2.1-.278,2.628,2.628,0,0,0-1.348.021c-.064.021-.214-.128-.214-.193.064-.514.128-2.438.108-5.453-.023-3.358,0-5.69-.087-6.373a.588.588,0,0,0-.492-.578l-.833-.128a1.14,1.14,0,0,1,.043-.706,18.337,18.337,0,0,0,4.255-.77c.064.021.15.321.15.407-.193.342-.235.663-.235,2.675-.02,1.261,0,1.881-.02,3.142.02.064.062.064.105.043a7.652,7.652,0,0,1,2.675-.918A3.108,3.108,0,0,1-677.348,316Zm-5,.621c-.066.021-.13.193-.13.3-.02,1.134-.043,3.4.043,4.6a1.236,1.236,0,0,0,.342.9,2.169,2.169,0,0,0,1.37.556,1.112,1.112,0,0,0,.963-.556,4.324,4.324,0,0,0,.6-2.416,4.465,4.465,0,0,0-.661-2.63,1.977,1.977,0,0,0-1.8-.9A1.938,1.938,0,0,0-682.351,316.618Z" transform="translate(711.228 -309.603)" fill="#461a55"/>
        <path id="Path_26050" data-name="Path 26050" d="M-675.123,323.192c-.408,0-1.222-.064-2.568-.064-1.2,0-1.967.064-2.5.064a1.2,1.2,0,0,1,0-.728,4.331,4.331,0,0,0,.792-.193c.3-.086.341-.321.364-.833.02-.473.02-1.8.02-2.825,0-.728,0-1.582-.02-1.945a.889.889,0,0,0-.149-.535,1.846,1.846,0,0,0-.856-.492,1.152,1.152,0,0,1,.043-.662,15.1,15.1,0,0,0,3.786-.749c0,.876-.023,2.438-.023,3.636,0,1.09,0,2.523.023,3.506,0,.642.127.792.385.9l.812.193A1,1,0,0,1-675.123,323.192Zm-1.776-10.373a2.809,2.809,0,0,1-1.583.15,1.249,1.249,0,0,1-.7-.961,1.62,1.62,0,0,1,.1-1.049,2.856,2.856,0,0,1,1.6-.492,1.644,1.644,0,0,1,1.006.278,2.009,2.009,0,0,1,.171.813A1.854,1.854,0,0,1-676.9,312.819Z" transform="translate(716.303 -308.926)" fill="#461a55"/>
        <path id="Path_26051" data-name="Path 26051" d="M-667.735,316a4.254,4.254,0,0,1,1.006,2.823,4.607,4.607,0,0,1-1.776,3.871,7.917,7.917,0,0,1-3.614,1.37,7.419,7.419,0,0,1-2.1-.278,2.628,2.628,0,0,0-1.348.021c-.064.021-.214-.128-.214-.193.064-.514.128-2.438.107-5.453-.021-3.358,0-5.69-.085-6.373a.588.588,0,0,0-.492-.578l-.835-.128a1.145,1.145,0,0,1,.045-.706,18.329,18.329,0,0,0,4.254-.77c.065.021.15.321.15.407-.192.342-.235.663-.235,2.675-.021,1.261,0,1.881-.021,3.142.021.064.064.064.107.043a7.654,7.654,0,0,1,2.675-.918A3.108,3.108,0,0,1-667.735,316Zm-5.005.621c-.064.021-.129.193-.129.3-.021,1.134-.043,3.4.043,4.6a1.237,1.237,0,0,0,.342.9,2.168,2.168,0,0,0,1.37.556,1.114,1.114,0,0,0,.963-.556,4.326,4.326,0,0,0,.6-2.416,4.465,4.465,0,0,0-.663-2.63,1.972,1.972,0,0,0-1.8-.9A1.957,1.957,0,0,0-672.741,316.618Z" transform="translate(718.755 -309.603)" fill="#461a55"/>
        <path id="Path_26052" data-name="Path 26052" d="M-668.521,310.3c.792,0,1.99.064,3.294.064,1.412,0,2.5-.064,3.379-.064a1.061,1.061,0,0,1,0,.728c-.385.041-.726.128-.984.171-.533.128-.7.512-.726,1.175-.064,1.519-.021,3.443-.021,4.577a18.937,18.937,0,0,0,.171,2.716c.257,1.475,1.282,2.459,3.379,2.459,1.432,0,3.015-.492,3.229-3.379a59.463,59.463,0,0,0,.043-6.138c-.043-.813-.214-1.218-.92-1.368a7.868,7.868,0,0,0-1.263-.214,1.208,1.208,0,0,1,.021-.728c.792,0,1.669.064,2.654.064,1.624,0,2.1-.064,2.587-.064a.867.867,0,0,1,0,.728c-.321.064-.621.107-.9.191-.535.13-.706.449-.77,1.5-.043.706-.128,3.7-.171,5.113-.171,4.383-2.352,5.817-5.667,5.817-3.85,0-5.134-1.881-5.367-3.957-.193-1.562-.15-4.832-.171-7.379-.021-.556-.193-.918-.706-1.068a5.9,5.9,0,0,0-1.113-.214A1.666,1.666,0,0,1-668.521,310.3Z" transform="translate(725.45 -309.058)" fill="#461a55"/>
        <path id="Path_26053" data-name="Path 26053" d="M-659.571,320.689c.3-.064.406-.385.449-.833.021-.642.043-2.354.043-3.272,0-.535,0-1.455-.043-1.669-.043-.193-.15-.492-1-.792a2.016,2.016,0,0,1,.105-.642,12.727,12.727,0,0,0,3.593-.94.26.26,0,0,1,.086.171v1.175a.076.076,0,0,0,.107.064,5.237,5.237,0,0,1,2.737-1.3,2.456,2.456,0,0,1,2.2,1.155,4.458,4.458,0,0,1,.576,2.523c0,1.3-.02,3.1,0,3.784a.487.487,0,0,0,.173.364,2.224,2.224,0,0,0,1.026.364,1.094,1.094,0,0,1-.107.728c-.342,0-.984-.064-2.459-.064-1.2,0-1.646.043-2.373.064-.064-.128-.087-.663,0-.728l.554-.15c.28-.086.342-.278.364-.6a35.686,35.686,0,0,0-.064-4.512,1.5,1.5,0,0,0-.642-.984,1.514,1.514,0,0,0-.918-.235,2.162,2.162,0,0,0-.985.278.483.483,0,0,0-.171.342c.021,1.368.021,3.764.043,4.961.022.578.193.685.471.77a4.528,4.528,0,0,0,.6.128,1.415,1.415,0,0,1-.043.728c-.834-.021-1.6-.064-2.545-.064-1.434,0-1.947.043-2.418.064a1.406,1.406,0,0,1-.019-.728C-659.976,320.8-659.826,320.754-659.571,320.689Z" transform="translate(731.95 -307.301)" fill="#461a55"/>
        <path id="Path_26054" data-name="Path 26054" d="M-648.737,323.192c-.407,0-1.22-.064-2.568-.064-1.2,0-1.967.064-2.5.064a1.2,1.2,0,0,1,0-.728,4.285,4.285,0,0,0,.792-.193c.3-.086.343-.321.364-.833.021-.473.021-1.8.021-2.825,0-.728,0-1.582-.021-1.945a.875.875,0,0,0-.15-.535,1.84,1.84,0,0,0-.856-.492,1.156,1.156,0,0,1,.043-.662,15.1,15.1,0,0,0,3.786-.749c0,.876-.021,2.438-.021,3.636,0,1.09,0,2.523.021,3.506,0,.642.128.792.385.9l.811.193A1,1,0,0,1-648.737,323.192Zm-1.776-10.373a2.808,2.808,0,0,1-1.583.15,1.259,1.259,0,0,1-.7-.961,1.612,1.612,0,0,1,.107-1.049,2.85,2.85,0,0,1,1.6-.492,1.644,1.644,0,0,1,1.006.278,1.979,1.979,0,0,1,.171.813A1.853,1.853,0,0,1-650.513,312.819Z" transform="translate(736.97 -308.926)" fill="#461a55"/>
        <path id="Path_26055" data-name="Path 26055" d="M-650.741,312.733c.747.023,1.8.066,2.63.066,1.154,0,1.86-.043,2.373-.066a1.064,1.064,0,0,1,.021.727,6.949,6.949,0,0,0-.749.194.213.213,0,0,0-.107.255c.278.834,1.2,3.208,1.648,4.342a.041.041,0,0,0,.064-.021c.4-.941,1.2-2.887,1.453-3.764.171-.535.021-.706-.214-.792a4.717,4.717,0,0,0-.941-.214,1.05,1.05,0,0,1,.066-.727c.341,0,1.154.066,1.945.066.642,0,1.434-.043,1.924-.066a1.058,1.058,0,0,1-.021.727,3.56,3.56,0,0,0-.747.194c-.278.105-.556.4-.856,1.047-.535,1.111-1.348,2.973-2.054,4.706-.341.9-.554,1.475-.726,1.988a7.816,7.816,0,0,0-1.583.021c-.171-.556-.407-1.177-.664-1.84-.514-1.389-1.175-2.95-1.6-3.977-.685-1.626-.813-1.8-1.3-1.969a3.545,3.545,0,0,0-.663-.171A1.315,1.315,0,0,1-650.741,312.733Z" transform="translate(739.32 -307.152)" fill="#461a55"/>
        <path id="Path_26056" data-name="Path 26056" d="M-636.819,319.061a2.819,2.819,0,0,1-.109.706,5.4,5.4,0,0,1-3.936,1.945,3.923,3.923,0,0,1-2.866-1.027,4.791,4.791,0,0,1-1.282-3.508,4.464,4.464,0,0,1,2.009-3.85,5.229,5.229,0,0,1,2.568-.726,3.4,3.4,0,0,1,3.4,3.1c.023.128.216.255.323.3a1.373,1.373,0,0,1-.13.578,41.065,41.065,0,0,1-5.3.469.328.328,0,0,0-.086.214,2.824,2.824,0,0,0,.813,1.755,2.748,2.748,0,0,0,2.031.726,3.774,3.774,0,0,0,2.459-.833C-636.906,318.932-636.819,319-636.819,319.061Zm-5.455-3.122c0,.02.043.127.128.127a15.567,15.567,0,0,0,2.288-.062.217.217,0,0,0,.128-.193c-.064-1.37-.535-2.352-1.347-2.352C-641.8,313.458-642.274,314.5-642.274,315.938Z" transform="translate(743.902 -307.254)" fill="#461a55"/>
        <path id="Path_26057" data-name="Path 26057" d="M-632.248,313.289a1.155,1.155,0,0,1,0,.471,6.205,6.205,0,0,1-.941,1.947.407.407,0,0,1-.3.064,2.463,2.463,0,0,0-1.689-.9.849.849,0,0,0-.62.214.41.41,0,0,0-.129.321c-.021,1.09,0,4.019.021,4.276.043.642.107.835.578.942a7.06,7.06,0,0,0,1.089.214,1.27,1.27,0,0,1-.107.728c-.469,0-1.5-.064-3.08-.064-1.025,0-1.9.064-2.48.064a1.667,1.667,0,0,1,0-.728,3.4,3.4,0,0,0,.834-.193c.193-.064.321-.257.342-.683.043-.43.064-1.947.043-3.274,0-.728,0-1.389-.043-1.731-.021-.257-.107-.535-1.07-.877a1.255,1.255,0,0,1,.107-.6,11.915,11.915,0,0,0,3.593-.94.265.265,0,0,1,.171.128c-.021.255-.085,1.346-.085,1.624,0,.086.085.086.107.043a10.949,10.949,0,0,1,1.241-1.2,2.086,2.086,0,0,1,1.2-.49A1.267,1.267,0,0,1-632.248,313.289Z" transform="translate(747.869 -307.301)" fill="#461a55"/>
        <path id="Path_26058" data-name="Path 26058" d="M-629.105,315.415a2,2,0,0,1-.706.041,2.575,2.575,0,0,0-.941-1.839,1.774,1.774,0,0,0-.919-.235.96.96,0,0,0-1.049.9c0,.6.214.92,2.074,1.774,1.669.749,2.225,1.476,2.225,2.653,0,1.881-1.819,2.973-3.828,2.973a8.736,8.736,0,0,1-2.694-.428c-.085-.449-.278-2.309-.3-2.673a1.931,1.931,0,0,1,.728-.214,3.459,3.459,0,0,0,1.389,2.181,2.361,2.361,0,0,0,1.156.321c.685,0,1.111-.364,1.111-.877,0-.576-.383-.918-1.346-1.389-2.2-1.049-2.823-1.862-2.823-3.165,0-1.541,1.2-2.823,3.614-2.823a13.672,13.672,0,0,1,1.518.105,6.816,6.816,0,0,0,1.049.13A21.7,21.7,0,0,0-629.105,315.415Z" transform="translate(751.552 -307.245)" fill="#461a55"/>
        <path id="Path_26059" data-name="Path 26059" d="M-625.709,323.192c-.406,0-1.222-.064-2.568-.064-1.2,0-1.967.064-2.5.064a1.2,1.2,0,0,1,0-.728,4.289,4.289,0,0,0,.792-.193c.3-.086.342-.321.364-.833.02-.473.02-1.8.02-2.825,0-.728,0-1.582-.02-1.945a.89.89,0,0,0-.15-.535,1.841,1.841,0,0,0-.856-.492,1.156,1.156,0,0,1,.043-.662,15.1,15.1,0,0,0,3.786-.749c0,.876-.021,2.438-.021,3.636,0,1.09,0,2.523.021,3.506,0,.642.129.792.385.9l.811.193A1,1,0,0,1-625.709,323.192Zm-1.776-10.373a2.811,2.811,0,0,1-1.584.15,1.25,1.25,0,0,1-.7-.961,1.621,1.621,0,0,1,.1-1.049,2.858,2.858,0,0,1,1.605-.492,1.646,1.646,0,0,1,1.006.278,2.012,2.012,0,0,1,.171.813A1.854,1.854,0,0,1-627.485,312.819Z" transform="translate(755.005 -308.926)" fill="#461a55"/>
        <path id="Path_26060" data-name="Path 26060" d="M-623.554,315.408c-.023,0-.088.086-.088.128,0,.813-.02,2.331-.02,3.336a8.276,8.276,0,0,0,.084,1.6,1.016,1.016,0,0,0,1.091.833,2.035,2.035,0,0,0,1.156-.3,1.79,1.79,0,0,1-.022.749,3.2,3.2,0,0,1-2.566,1.156,2.364,2.364,0,0,1-2.2-1.027,4.675,4.675,0,0,1-.319-2.373c0-1.07.019-2.994.019-3.893a.215.215,0,0,0-.128-.214c-.3-.043-.706-.043-1.025-.086a3.606,3.606,0,0,1,.193-.877,6.936,6.936,0,0,0,.854-.235c.044,0,.087-.084.107-.169v-1.819a10.256,10.256,0,0,0,2.375-1.134,1.909,1.909,0,0,1,.492-.043c-.064.492-.088,1.519-.088,2.908,0,.087.043.173.088.173.447,0,1.753-.066,2.331-.086-.064.362-.193,1.025-.214,1.389C-622.079,315.408-622.828,315.408-623.554,315.408Z" transform="translate(757.558 -308.478)" fill="#461a55"/>
        <path id="Path_26061" data-name="Path 26061" d="M-623.714,312.733c.276,0,1.368.066,2.758.066,1.261,0,1.86-.043,2.481-.066a2.06,2.06,0,0,1,.043.727,3.8,3.8,0,0,0-.642.194.373.373,0,0,0-.15.4c.3.942,1.348,3.508,1.6,4.107h.087a21.5,21.5,0,0,0,1.325-3.764.551.551,0,0,0-.363-.706,3.274,3.274,0,0,0-.961-.235,2.237,2.237,0,0,1,.105-.727c.449,0,1.156.066,1.947.066.706,0,1.432-.043,2.074-.066a2.044,2.044,0,0,1,.021.727,3.159,3.159,0,0,0-.79.235c-.385.171-.62.449-.92,1.262A82.28,82.28,0,0,1-619.8,324.9c-.257.49-.6,1.09-.749,1.368l-.255.087a2.739,2.739,0,0,1-1.477-.665.766.766,0,0,1,.021-.448,23.334,23.334,0,0,0,2.994-4.043,5.129,5.129,0,0,1-.3-.556c-.512-1.2-1.3-3.122-2.1-4.961-.62-1.477-.813-1.819-1.412-2.031a4.852,4.852,0,0,0-.769-.194A2.28,2.28,0,0,1-623.714,312.733Z" transform="translate(760.481 -307.152)" fill="#461a55"/>
      </g>
      <g id="Group_1584" data-name="Group 1584" transform="translate(0.427 40.114)">
        <path id="Path_26062" data-name="Path 26062" d="M-695.338,334.34a1.673,1.673,0,0,1-.59.036,2.142,2.142,0,0,0-.783-1.532,1.485,1.485,0,0,0-.767-.2.8.8,0,0,0-.874.749c0,.5.178.765,1.73,1.478,1.389.624,1.853,1.23,1.853,2.209,0,1.569-1.514,2.479-3.19,2.479a7.289,7.289,0,0,1-2.245-.357c-.071-.374-.231-1.926-.249-2.229a1.672,1.672,0,0,1,.606-.178,2.884,2.884,0,0,0,1.157,1.819,1.967,1.967,0,0,0,.963.268c.571,0,.927-.3.927-.731,0-.482-.321-.767-1.123-1.157-1.835-.874-2.352-1.551-2.352-2.639,0-1.282,1-2.352,3.012-2.352A11.04,11.04,0,0,1-696,332.1a5.849,5.849,0,0,0,.874.107A17.752,17.752,0,0,0-695.338,334.34Z" transform="translate(700.454 -327.534)" fill="#461a55"/>
        <path id="Path_26063" data-name="Path 26063" d="M-695.627,330.138a15.457,15.457,0,0,0,3.493-.64c.072.016.16.23.143.339-.161.248-.232.444-.232,1.692v3.3c0,.054.036.089.071.054a4.331,4.331,0,0,1,2.281-.927c1.48,0,2.318,1.034,2.318,2.94,0,.945-.018,2.6.018,3.3,0,.036.018.25.125.3a2.514,2.514,0,0,0,.854.285.742.742,0,0,1-.089.606c-.283,0-.89-.054-2.1-.054-.731,0-1.443.018-1.906.054a.707.707,0,0,1,0-.606,2.749,2.749,0,0,0,.463-.125c.248-.089.3-.25.319-.749a22.7,22.7,0,0,0-.071-3.6,1.3,1.3,0,0,0-1.336-1.015,1.763,1.763,0,0,0-.82.178.225.225,0,0,0-.107.212c0,1.427-.018,3.548.018,4.1.035.481.017.731.356.856a4.019,4.019,0,0,0,.553.143c.107.089.054.5-.017.606-.535,0-1.034-.054-2.14-.054s-1.639.054-2.031.054a.657.657,0,0,1,0-.606,4.752,4.752,0,0,0,.606-.16c.285-.089.321-.375.339-.981.036-.7.036-1.835.036-2.976,0-3.582-.018-4.811-.071-5.328a.5.5,0,0,0-.321-.464,4.441,4.441,0,0,0-.749-.161A.706.706,0,0,1-695.627,330.138Z" transform="translate(704.187 -329.498)" fill="#461a55"/>
        <path id="Path_26064" data-name="Path 26064" d="M-685.271,333.851a1.45,1.45,0,0,0-1.213-.553,1.312,1.312,0,0,0-.874.25,7.635,7.635,0,0,0-.586,1.05c-.091.071-.66-.2-.642-.3a3.991,3.991,0,0,1,.374-1.157,6.273,6.273,0,0,1,2.8-1.141,2.51,2.51,0,0,1,2.12,1.088,3.22,3.22,0,0,1,.446,1.8c0,.838-.036,2-.036,2.728,0,.319.107.676.481.676a1.885,1.885,0,0,0,.588-.089,2.013,2.013,0,0,1-.089.713,3.233,3.233,0,0,1-1.942.7c-.606,0-.981-.232-1.088-.553a1.967,1.967,0,0,1-.089-.3c0-.036-.071-.036-.071-.018a4.76,4.76,0,0,1-1.978.856,1.635,1.635,0,0,1-1.088-.428,2.4,2.4,0,0,1-.7-1.765,2.834,2.834,0,0,1,.3-1.068c.515-.321,2.726-.838,3.386-1.123.071-.018.125-.125.143-.2a1.022,1.022,0,0,0,.018-.232A1.473,1.473,0,0,0-685.271,333.851Zm.2,1.96a9.546,9.546,0,0,0-1.5.571,1.6,1.6,0,0,0-.143.588,1.183,1.183,0,0,0,1.159,1.3.542.542,0,0,0,.392-.107.391.391,0,0,0,.107-.321c.036-.553.036-1.639.036-1.942C-685.022,335.864-685.058,335.81-685.075,335.81Z" transform="translate(709.539 -327.541)" fill="#461a55"/>
        <path id="Path_26065" data-name="Path 26065" d="M-683.275,332.885a14.9,14.9,0,0,0,3.208-1c.036-.018.161.125.161.161,0,.161-.018.642-.018.963a.068.068,0,0,0,.089.053,5.036,5.036,0,0,1,2.334-.981,2.444,2.444,0,0,1,1.854.82,3.62,3.62,0,0,1,.856,2.405,3.854,3.854,0,0,1-1.444,3.208,5.515,5.515,0,0,1-3.262,1.177,2.513,2.513,0,0,1-.374-.018c-.035,0-.053.054-.053.089-.018.462,0,1.728.036,2.209.018.428.107.642.517.731.214.053.642.107,1.016.16a1.136,1.136,0,0,1-.089.6h-.466a37.32,37.32,0,0,0-4.526.234,1,1,0,0,1-.053-.642,4.461,4.461,0,0,0,.874-.214c.3-.107.339-.41.357-.838.036-.624.036-2.37.036-4.028,0-1.888,0-2.887-.053-3.705-.018-.287-.054-.466-.3-.589a5.149,5.149,0,0,0-.731-.216A1.311,1.311,0,0,1-683.275,332.885Zm3.493.82a.378.378,0,0,0-.178.283c-.018.5,0,2.728.035,3.477a1.38,1.38,0,0,0,.464,1,1.485,1.485,0,0,0,1,.339,1.1,1.1,0,0,0,.838-.41,3.389,3.389,0,0,0,.517-2.031,3.455,3.455,0,0,0-.571-2.191,1.589,1.589,0,0,0-1.336-.662A1.669,1.669,0,0,0-679.782,333.706Z" transform="translate(713.714 -327.628)" fill="#461a55"/>
        <path id="Path_26066" data-name="Path 26066" d="M-672.511,340.822c-.337,0-1.015-.054-2.138-.054-1,0-1.639.054-2.085.054a1.007,1.007,0,0,1,0-.606,3.606,3.606,0,0,0,.66-.16c.248-.072.283-.268.3-.7.016-.391.016-1.5.016-2.352,0-.606,0-1.319-.016-1.623a.717.717,0,0,0-.127-.444,1.515,1.515,0,0,0-.712-.41.969.969,0,0,1,.036-.553,12.6,12.6,0,0,0,3.154-.624c0,.731-.018,2.031-.018,3.03,0,.909,0,2.1.018,2.923,0,.535.107.66.321.749l.678.16A.839.839,0,0,1-672.511,340.822Zm-1.478-8.645a2.34,2.34,0,0,1-1.32.125,1.051,1.051,0,0,1-.588-.8,1.353,1.353,0,0,1,.091-.874,2.373,2.373,0,0,1,1.336-.41,1.371,1.371,0,0,1,.838.232,1.656,1.656,0,0,1,.143.678A1.537,1.537,0,0,1-673.989,332.177Z" transform="translate(718.995 -328.935)" fill="#461a55"/>
        <path id="Path_26067" data-name="Path 26067" d="M-672.129,338.736c.25-.054.339-.321.375-.7.018-.535.035-1.96.035-2.727,0-.446,0-1.213-.035-1.389s-.125-.41-.838-.66a1.635,1.635,0,0,1,.091-.535,10.6,10.6,0,0,0,2.992-.785.223.223,0,0,1,.073.143v.981a.064.064,0,0,0,.089.053,4.358,4.358,0,0,1,2.281-1.088,2.043,2.043,0,0,1,1.835.963,3.714,3.714,0,0,1,.482,2.1c0,1.088-.018,2.586,0,3.155a.41.41,0,0,0,.143.3,1.868,1.868,0,0,0,.856.3.914.914,0,0,1-.089.606c-.285,0-.82-.054-2.051-.054-1,0-1.371.036-1.977.054a1,1,0,0,1,0-.606l.464-.125c.232-.071.285-.232.3-.5a29.813,29.813,0,0,0-.054-3.761,1.239,1.239,0,0,0-.535-.818,1.258,1.258,0,0,0-.767-.2,1.784,1.784,0,0,0-.821.233.4.4,0,0,0-.141.284c.018,1.141.018,3.138.036,4.135.018.481.16.571.392.642a3.753,3.753,0,0,0,.5.107,1.179,1.179,0,0,1-.036.606c-.694-.018-1.335-.054-2.12-.054-1.195,0-1.621.036-2.015.054a1.168,1.168,0,0,1-.016-.606C-672.467,338.826-672.341,338.79-672.129,338.736Z" transform="translate(722.181 -327.581)" fill="#461a55"/>
        <path id="Path_26068" data-name="Path 26068" d="M-660.459,332.353a4.2,4.2,0,0,0,1.106.178c.6,0,.8-.053,1.086-.357.055-.036.268.107.287.16a2.789,2.789,0,0,1-.465,1.141.8.8,0,0,1-.64.212,2.154,2.154,0,0,1-.357-.016c-.018,0-.036.052-.036.071a2.214,2.214,0,0,1,.107.712,2.435,2.435,0,0,1-1.034,2.192,3.956,3.956,0,0,1-2.1.662c-.072.016-.571.016-.66.016-.071-.016-.25.161-.25.268,0,.25.214.428.606.481a23.883,23.883,0,0,1,3.083.375,1.906,1.906,0,0,1,1.444,1.888,3.637,3.637,0,0,1-2.407,3.138,5.152,5.152,0,0,1-2.192.462,4.492,4.492,0,0,1-2.156-.5,2.062,2.062,0,0,1-1.105-1.64,1.636,1.636,0,0,1,.107-.7,12.722,12.722,0,0,1,1.6-1.015c.035-.02.018-.072,0-.072a1.75,1.75,0,0,1-1.193-1.5,1.337,1.337,0,0,1,.071-.285c.23-.125,1.229-.658,1.532-.89a.113.113,0,0,0,0-.107,2.461,2.461,0,0,1-1.835-2.479,2.439,2.439,0,0,1,1.1-2.085,4.412,4.412,0,0,1,2.336-.678A5.716,5.716,0,0,1-660.459,332.353Zm.446,9.285a1.025,1.025,0,0,0-.642-.963,7.106,7.106,0,0,0-2.744-.426,1.029,1.029,0,0,0-.5.123,1.11,1.11,0,0,0-.5.892,1.405,1.405,0,0,0,.464,1.034,2.786,2.786,0,0,0,1.944.66C-660.548,342.957-660.013,342.28-660.013,341.638Zm-3.636-7.413c0,1.746.535,2.441,1.23,2.441a.748.748,0,0,0,.571-.285,2.362,2.362,0,0,0,.355-1.444c0-1.248-.339-2.3-1.211-2.3C-663.239,332.638-663.649,333.191-663.649,334.225Z" transform="translate(727.325 -327.541)" fill="#461a55"/>
        <path id="Path_26069" data-name="Path 26069" d="M-656.335,340.618c.25-.089.3-.339.3-.606.018-1.425.018-3.137.018-4.615,0-.036-.036-.125-.089-.125l-.874-.054a2.073,2.073,0,0,1,.162-.624,4.087,4.087,0,0,0,.747-.321.181.181,0,0,0,.071-.125,4.572,4.572,0,0,1,2.122-3.975,3.786,3.786,0,0,1,1.96-.676,1.774,1.774,0,0,1,1.534.587.706.706,0,0,1,.016.339,4.259,4.259,0,0,1-.89,1.266.517.517,0,0,1-.285.018c-.428-.5-1.105-1.141-1.569-1.141a.469.469,0,0,0-.39.2c-.2.268-.268.7-.268,2.031,0,.428.016,1.016.036,1.284a.152.152,0,0,0,.125.125l1.71-.054c-.053.268-.142.767-.178,1.124-.535,0-1.05-.018-1.569-.018-.052,0-.087.071-.087.107.016,2.031.036,3.616.071,4.472.016.464.105.66.444.767a4.558,4.558,0,0,0,.909.178,1.016,1.016,0,0,1-.089.606c-.5,0-.963-.054-2.566-.054-.874,0-1.656.054-2.051.054a.907.907,0,0,1,0-.606A4.255,4.255,0,0,0-656.335,340.618Z" transform="translate(734.437 -329.498)" fill="#461a55"/>
        <path id="Path_26070" data-name="Path 26070" d="M-652.566,332.341a21.894,21.894,0,0,0,3.313-.285,28.443,28.443,0,0,0-.107,3.226,9.193,9.193,0,0,0,.091,2.015,1.029,1.029,0,0,0,1.1.729,1.436,1.436,0,0,0,.856-.285.4.4,0,0,0,.125-.267c.036-.284.054-1.532,0-3.777,0-.2-.053-.481-.3-.553a5.614,5.614,0,0,0-.927-.2,1.089,1.089,0,0,1,.054-.606,25.207,25.207,0,0,0,3.565-.267c-.018.161-.036,1.088-.036,1.853v3.582c.018.339.089.571.321.606.232.018.446.018.731.018a1.825,1.825,0,0,1-.089.624,15.05,15.05,0,0,1-3.1.8.365.365,0,0,1-.107-.125,5.732,5.732,0,0,1-.089-.981.054.054,0,0,0-.089-.036,3.961,3.961,0,0,1-2.372,1.088c-1.407,0-2.013-.945-2.031-2.229-.018-.872,0-2.619-.018-3.509-.018-.374-.054-.57-.339-.66-.143-.037-.408-.107-.624-.143A1.171,1.171,0,0,1-652.566,332.341Z" transform="translate(737.891 -327.494)" fill="#461a55"/>
        <path id="Path_26071" data-name="Path 26071" d="M-642.773,334.335c-.018,0-.071.069-.071.105,0,.678-.018,1.944-.018,2.782a6.774,6.774,0,0,0,.071,1.336.845.845,0,0,0,.908.7,1.7,1.7,0,0,0,.963-.25,1.5,1.5,0,0,1-.018.624,2.66,2.66,0,0,1-2.138.963,1.97,1.97,0,0,1-1.837-.856,3.877,3.877,0,0,1-.268-1.978c0-.892.02-2.5.02-3.245a.176.176,0,0,0-.109-.176c-.248-.035-.587-.035-.854-.071a3,3,0,0,1,.161-.731,6.468,6.468,0,0,0,.713-.2c.034,0,.07-.071.089-.143V331.68a8.565,8.565,0,0,0,1.977-.945,1.534,1.534,0,0,1,.41-.036c-.053.41-.071,1.264-.071,2.423,0,.071.036.143.071.143.374,0,1.46-.054,1.942-.071-.054.3-.16.856-.178,1.159C-641.545,334.335-642.167,334.335-642.773,334.335Z" transform="translate(743.005 -328.561)" fill="#461a55"/>
        <path id="Path_26072" data-name="Path 26072" d="M-641.557,332.341a21.916,21.916,0,0,0,3.315-.285,28.509,28.509,0,0,0-.107,3.226,9.234,9.234,0,0,0,.089,2.015,1.032,1.032,0,0,0,1.105.729,1.436,1.436,0,0,0,.856-.285.4.4,0,0,0,.125-.267c.034-.284.053-1.532,0-3.777,0-.2-.054-.481-.3-.553a5.611,5.611,0,0,0-.927-.2,1.092,1.092,0,0,1,.053-.606,25.2,25.2,0,0,0,3.565-.267c-.018.161-.036,1.088-.036,1.853v3.582c.018.339.089.571.321.606.232.018.446.018.731.018a1.828,1.828,0,0,1-.089.624,15.066,15.066,0,0,1-3.1.8.386.386,0,0,1-.107-.125,5.953,5.953,0,0,1-.087-.981.054.054,0,0,0-.089-.036,3.96,3.96,0,0,1-2.372,1.088c-1.407,0-2.013-.945-2.031-2.229-.018-.872,0-2.619-.018-3.509-.018-.374-.054-.57-.339-.66-.143-.037-.41-.107-.625-.143A1.187,1.187,0,0,1-641.557,332.341Z" transform="translate(746.514 -327.494)" fill="#461a55"/>
        <path id="Path_26073" data-name="Path 26073" d="M-628.68,332.57a.932.932,0,0,1,0,.392,5.137,5.137,0,0,1-.783,1.621.339.339,0,0,1-.25.054,2.061,2.061,0,0,0-1.409-.747.713.713,0,0,0-.517.176.341.341,0,0,0-.105.268c-.02.909,0,3.352.016,3.565.036.535.089.7.482.785a5.875,5.875,0,0,0,.909.178,1.056,1.056,0,0,1-.089.606c-.392,0-1.248-.054-2.566-.054-.856,0-1.587.054-2.069.054a1.415,1.415,0,0,1,0-.606,2.841,2.841,0,0,0,.7-.16c.16-.054.267-.214.285-.571.036-.357.053-1.621.036-2.727,0-.606,0-1.159-.036-1.443-.018-.214-.089-.446-.89-.731a1.046,1.046,0,0,1,.087-.5,9.943,9.943,0,0,0,3-.785c.052,0,.123.071.143.107-.02.214-.072,1.123-.072,1.355,0,.071.072.071.087.036a9.011,9.011,0,0,1,1.034-1,1.737,1.737,0,0,1,1-.41A1.052,1.052,0,0,1-628.68,332.57Z" transform="translate(751.644 -327.581)" fill="#461a55"/>
        <path id="Path_26074" data-name="Path 26074" d="M-623.089,337.379a2.193,2.193,0,0,1-.089.587,4.5,4.5,0,0,1-3.279,1.623,3.268,3.268,0,0,1-2.388-.856,3.989,3.989,0,0,1-1.07-2.923,3.715,3.715,0,0,1,1.676-3.208A4.35,4.35,0,0,1-626.1,332a2.832,2.832,0,0,1,2.834,2.584c.018.107.178.214.267.25a1.122,1.122,0,0,1-.107.482,33.994,33.994,0,0,1-4.419.392.273.273,0,0,0-.071.178,2.346,2.346,0,0,0,.678,1.462,2.292,2.292,0,0,0,1.692.6,3.136,3.136,0,0,0,2.049-.7C-623.159,337.272-623.089,337.324-623.089,337.379Zm-4.543-2.6c0,.018.036.107.107.107a13.157,13.157,0,0,0,1.906-.053.18.18,0,0,0,.107-.16c-.053-1.141-.446-1.96-1.123-1.96C-627.242,332.709-627.632,333.583-627.632,334.776Z" transform="translate(755.699 -327.541)" fill="#461a55"/>
        <path id="Path_26075" data-name="Path 26075" d="M-619.089,334.34a1.667,1.667,0,0,1-.589.036,2.142,2.142,0,0,0-.785-1.532,1.484,1.484,0,0,0-.767-.2.8.8,0,0,0-.872.749c0,.5.178.765,1.728,1.478,1.391.624,1.854,1.23,1.854,2.209,0,1.569-1.516,2.479-3.19,2.479a7.277,7.277,0,0,1-2.245-.357c-.071-.374-.234-1.926-.252-2.229a1.676,1.676,0,0,1,.607-.178,2.893,2.893,0,0,0,1.159,1.819,1.968,1.968,0,0,0,.963.268c.571,0,.925-.3.925-.731,0-.482-.319-.767-1.121-1.157-1.837-.874-2.352-1.551-2.352-2.639,0-1.282,1-2.352,3.01-2.352a11.091,11.091,0,0,1,1.266.089,5.832,5.832,0,0,0,.874.107A18.067,18.067,0,0,0-619.089,334.34Z" transform="translate(760.172 -327.534)" fill="#461a55"/>
      </g>
    </g>
  </g>
</svg>
