<svg id="HU-logo" xmlns="http://www.w3.org/2000/svg" width="123.068" height="132.716" viewBox="0 0 123.068 132.716">
  <g id="Group_202" data-name="Group 202" transform="translate(0)">
    <path id="Path_190" data-name="Path 190" d="M264.455,281.6c0-.137,0-.286-.009-.415a61.52,61.52,0,0,0-123.02-.015v.322c-.018.269-.018.531-.018.809v.9a2.832,2.832,0,0,1,.018.394A61.545,61.545,0,0,0,183.943,341a8.089,8.089,0,0,0,1.686-3.041l.015-.036.009-.1c.128-.609.283-1.253.439-2.014l.11-.385c.767-3.175,1.689-6.142,1.7-6.189.23-.8.424-1.418.591-1.833a10.831,10.831,0,0,1,1.2-2,3.156,3.156,0,0,1,2.59-1.242,4.257,4.257,0,0,1,1.367.224l.848.349-.039-.9a6.292,6.292,0,0,0-.1-.91,41.273,41.273,0,0,1-10.287-3.638V319.1a41.215,41.215,0,0,1,6.345-76.027l-.057-.17a41.429,41.429,0,0,1,31.439,2.581v.188a41.233,41.233,0,0,1-6.327,76.045l.051.173a41.117,41.117,0,0,1-19.087,1.423c-2.286,4.748-2.7,12.623-2.7,17.589,0,.642-.042,1.486-.107,2.408a62.25,62.25,0,0,0,9.314.7,61.514,61.514,0,0,0,61.5-60.4c.009-.11.009-.215.009-.322,0-.263.021-.528.021-.809V282.3C264.476,282.054,264.455,281.828,264.455,281.6Z" transform="translate(-141.408 -220.764)" fill="#bd96c5"/>
    <path id="Path_191" data-name="Path 191" d="M201.847,221.315a59.889,59.889,0,0,0-17.936,117.027,9.656,9.656,0,0,0,.618-1.477l.015-.036.009-.1c.128-.609.284-1.253.439-2.014l.11-.385c.767-3.175,1.689-6.142,1.7-6.189.23-.8.424-1.418.591-1.832a10.83,10.83,0,0,1,1.2-2,3.156,3.156,0,0,1,2.59-1.241,4.259,4.259,0,0,1,1.367.224l.847.349-.039-.9a5.387,5.387,0,0,0-.853-2.859l3.945.343-.018.167c-3.253,4.265-3.793,13.737-3.793,19.409,0,.167-.006.373-.012.564a60.572,60.572,0,0,0,9.218.71,59.882,59.882,0,0,0,0-119.764Z" transform="translate(-140.309 -219.671)" fill="#461a55"/>
    <g id="Group_165" data-name="Group 165" transform="translate(19.362 19.353)">
      <path id="Path_192" data-name="Path 192" d="M147.9,269.431A42.168,42.168,0,1,1,190.073,311.6,42.178,42.178,0,0,1,147.9,269.431" transform="translate(-147.896 -227.249)" fill="#bd96c5" fill-rule="evenodd"/>
    </g>
    <path id="Path_193" data-name="Path 193" d="M164.327,274.265c0-5.673.54-15.145,3.793-19.409l.018-.167-3.945-.343a5.388,5.388,0,0,1,.853,2.859l.039.9-.848-.349a4.259,4.259,0,0,0-1.367-.224,3.156,3.156,0,0,0-2.59,1.241,10.841,10.841,0,0,0-1.2,2c-.167.415-.361,1.032-.591,1.832-.015.048-.937,3.014-1.7,6.189l-.11.385c-.155.761-.31,1.405-.439,2.014l-.009.1Z" transform="translate(-111.995 -154.131)" fill="#fff" fill-rule="evenodd"/>
    <g id="Group_166" data-name="Group 166" transform="translate(21.096 21.096)">
      <path id="Path_194" data-name="Path 194" d="M148.477,268.272a40.435,40.435,0,1,1,40.443,40.422,40.446,40.446,0,0,1-40.443-40.422" transform="translate(-148.477 -227.833)" fill="#fff" fill-rule="evenodd"/>
    </g>
    <g id="Group_167" data-name="Group 167" transform="translate(24.22 23.999)">
      <path id="Path_195" data-name="Path 195" d="M149.524,265.984a37.184,37.184,0,1,1,37.184,37.19,37.186,37.186,0,0,1-37.184-37.19" transform="translate(-149.524 -228.806)" fill="#cfb381" fill-rule="evenodd"/>
    </g>
    <g id="Group_190" data-name="Group 190" transform="translate(31.389 26.799)">
      <g id="Group_168" data-name="Group 168">
        <path id="Path_196" data-name="Path 196" d="M163.036,248.357a43.644,43.644,0,0,0-8.908,8.025l3.16.212s1.033-.719,1.316-.024a1.191,1.191,0,0,1-.43,1.242l-2.271.033,1.143.767-1.621,2.044.039,3.238c0,.609,1.513,1.468,1.513,1.468a12.249,12.249,0,0,0,3.083.842c.955-.024,4.294-.519,6.389-.54s1.961,2.244,1.961,2.244a5.633,5.633,0,0,0-2.745-1.1,22.144,22.144,0,0,0-6.383.182,5.311,5.311,0,0,1-2.987-.48,3.518,3.518,0,0,0,.161,5.091c1.429,1.459,4.748,1.235,6.747.161a5.417,5.417,0,0,1,4.384.015,15,15,0,0,1-6.631,2.367c-3.142.639-5.416-.239-6.87-2.6-.343-1.68.212-3.527,1.671-5.557a16.9,16.9,0,0,0-1.429-1.555c-.352-.254-.474-2.268-.651-2.8s-1.167-2.432-1.167-2.432a2.86,2.86,0,0,1,.1-3.6,65.2,65.2,0,0,1,9.356-7.852q-.837-2.8,2.116-4.948l4.438-2.862q3.527-10.506,13.611-10.2-10.828,2.431-11.418,10.684-9.083,4.378-7.678,7.92" transform="translate(-151.926 -229.744)" fill="#461a55" fill-rule="evenodd"/>
      </g>
      <g id="Group_169" data-name="Group 169" transform="translate(13.879 18.192)">
        <path id="Path_197" data-name="Path 197" d="M162.662,236.655l-4.4-.815a10.348,10.348,0,0,1-1.689,3.8c1.931-1.62,3.781-2.22,5.587-1.832Z" transform="translate(-156.577 -235.84)" fill="#461a55" fill-rule="evenodd"/>
      </g>
      <g id="Group_170" data-name="Group 170" transform="translate(16.225 15.643)">
        <path id="Path_198" data-name="Path 198" d="M165.635,259.991Q155.487,271.2,157.79,286.5c.364-7.314,2.047-13.14,6.165-21.137.677-1.319,9.436-13.453,9.436-13.453l-5.527,5.6q.439-3.979,5.366-11.119c-.821-6.279-2.74-10.09-5.78-11.4,2.414,2.6,3.838,6.634,4.22,12.14a19.637,19.637,0,0,0-6.034,12.865" transform="translate(-157.363 -234.986)" fill="#461a55" fill-rule="evenodd"/>
      </g>
      <g id="Group_171" data-name="Group 171" transform="translate(21.832 0.538)">
        <path id="Path_199" data-name="Path 199" d="M159.242,238.458l3.584-1.805q3.738-6.585,14.718-6.524-13.98-1.526-18.3,8.329" transform="translate(-159.242 -229.924)" fill="#461a55" fill-rule="evenodd"/>
      </g>
      <g id="Group_172" data-name="Group 172" transform="translate(34.542 2.486)">
        <path id="Path_200" data-name="Path 200" d="M163.5,230.756q14.042,1.894,21.4,12.74-6.589-14.436-21.4-12.74" transform="translate(-163.501 -230.577)" fill="#461a55" fill-rule="evenodd"/>
      </g>
      <g id="Group_173" data-name="Group 173" transform="translate(33.703 5.664)">
        <path id="Path_201" data-name="Path 201" d="M166.452,242.54q2.091-9.9-3.232-10.9c2.641,2.011,3.119,5.022,1.459,9Z" transform="translate(-163.22 -231.642)" fill="#461a55" fill-rule="evenodd"/>
      </g>
      <g id="Group_174" data-name="Group 174" transform="translate(28.556 6.544)">
        <path id="Path_202" data-name="Path 202" d="M164.044,239.318l-.116-2.707-2.432,1.167c.045-4.065,1.143-6.019,3.324-5.828q3.044,1.58,1.582,6.38c-.648,1.188-1.426,1.513-2.358.988" transform="translate(-161.495 -231.937)" fill="#461a55" fill-rule="evenodd"/>
      </g>
      <g id="Group_175" data-name="Group 175" transform="translate(42.206 7.998)">
        <path id="Path_203" data-name="Path 203" d="M166.069,232.424a16.266,16.266,0,0,1,1.37,3.205s3.486-.415,7.473,4.688c-2.5-6.3-7.067-7.541-8.842-7.893" transform="translate(-166.069 -232.424)" fill="#461a55" fill-rule="evenodd"/>
      </g>
      <g id="Group_176" data-name="Group 176" transform="translate(44.572 12.558)">
        <path id="Path_204" data-name="Path 204" d="M168.115,237.518l-1.253-3.566a9.349,9.349,0,0,1,5.891,5.357c-2.331-2.441-4.345-2.023-4.638-1.79" transform="translate(-166.862 -233.952)" fill="#461a55" fill-rule="evenodd"/>
      </g>
      <g id="Group_177" data-name="Group 177" transform="translate(38.58 9.302)">
        <path id="Path_205" data-name="Path 205" d="M164.854,232.861a21.4,21.4,0,0,1,4.1,12.579c.194,7.947,1.48,10.913,3.441,14.465-1.841-5.867-.839-10.9-.773-15.056s-3.262-9.2-6.765-11.988" transform="translate(-164.854 -232.861)" fill="#461a55" fill-rule="evenodd"/>
      </g>
      <g id="Group_178" data-name="Group 178" transform="translate(47.547 18.66)">
        <path id="Path_206" data-name="Path 206" d="M167.859,236a21.057,21.057,0,0,1,.457,10.152,17.417,17.417,0,0,0,1.8,12.28c1.534,2.963,3.963,4.808,5.034,1.361a10.838,10.838,0,0,0-1.235-8.833,6.86,6.86,0,0,1-2.131,8.66c-1.191-1.958-.958-4.157-.9-8.016s.955-10.191-3.02-15.6" transform="translate(-167.859 -235.997)" fill="#461a55" fill-rule="evenodd"/>
      </g>
      <g id="Group_179" data-name="Group 179" transform="translate(37.673 34.692)">
        <path id="Path_207" data-name="Path 207" d="M169.095,261.984c.042-.7.078-1.573.042-2.62-5.787-6.6-3.56-18-3.56-18-2.414,6.756-.119,15.822,2.259,19.1a16.465,16.465,0,0,0,1.259,1.516" transform="translate(-164.55 -241.369)" fill="#461a55" fill-rule="evenodd"/>
      </g>
      <g id="Group_180" data-name="Group 180" transform="translate(44.518 20.099)">
        <path id="Path_208" data-name="Path 208" d="M177.522,244.8c-4.858-5-4.273-8.317-4.273-8.317-1.25,6.524,1.835,8.9,3.99,11.68,2.122,2.793,4.733,5.822,4.256,10.2-2.528,13.519-9.818,15.384-14.351,12.877a9.974,9.974,0,0,1-.3,2.411c3.035,1.937,7.353,2.355,12.459-3.841,7.711-9.374,3.071-20.042-1.782-25.014" transform="translate(-166.844 -236.479)" fill="#461a55" fill-rule="evenodd"/>
      </g>
      <g id="Group_181" data-name="Group 181" transform="translate(43.981 39.905)">
        <path id="Path_209" data-name="Path 209" d="M169.5,243.116s-1.053.9-.469,4.4.71,8-2.369,7.356c0,0,1.247,3.2,2.91,1.889s1.719-4.038.88-6.455a18.259,18.259,0,0,1-.952-7.186" transform="translate(-166.664 -243.116)" fill="#461a55" fill-rule="evenodd"/>
      </g>
      <g id="Group_182" data-name="Group 182" transform="translate(40.179 46.504)">
        <path id="Path_210" data-name="Path 210" d="M168.729,245.327s-.934,1.2-.865,5.864-.263,6.207-2.474,4.778c0,0,.463,3.835,2.128,3.05s2.522-4.467,2.083-6.8-1.519-4.456-.871-6.888" transform="translate(-165.39 -245.327)" fill="#461a55" fill-rule="evenodd"/>
      </g>
      <g id="Group_183" data-name="Group 183" transform="translate(31.741 52.397)">
        <path id="Path_211" data-name="Path 211" d="M170,247.3a28.822,28.822,0,0,0-.671,5.419c-.045,2.811-1.414,5.813-3.787,6.4-2.387.6-3.089-1.459-2.74-2.868,0,0-1.5,5.3,3.008,5.688,3.444.274,5.372-4.118,4.855-7.917A41.9,41.9,0,0,1,170,247.3" transform="translate(-162.562 -247.302)" fill="#461a55" fill-rule="evenodd"/>
      </g>
      <g id="Group_184" data-name="Group 184" transform="translate(21.649 37.548)">
        <path id="Path_212" data-name="Path 212" d="M171.808,242.326s2.149,16.291-5.246,23.14c-3.48,3.226-8.233,2.352-6.685-6.512,0,0-3.056,11.462,3.635,10.854s11.078-14.324,8.3-27.482" transform="translate(-159.181 -242.326)" fill="#461a55" fill-rule="evenodd"/>
      </g>
      <g id="Group_185" data-name="Group 185" transform="translate(18.792 54.352)">
        <path id="Path_213" data-name="Path 213" d="M161.738,247.957s-3.886,6.607-.842,12.205c1.08,1.659,3.617,1.689,4.357.907-2.34,2.516-5.085,1.925-6.4-.737-1.91-3.93.916-10.427,2.88-12.376" transform="translate(-158.223 -247.957)" fill="#461a55" fill-rule="evenodd"/>
      </g>
      <g id="Group_186" data-name="Group 186" transform="translate(36.859 20.403)">
        <path id="Path_214" data-name="Path 214" d="M167.031,236.754s5.936,12.543.287,23.012a24.741,24.741,0,0,0-.755-19.538s.021-.367-.519.292c-.424.552-1.128,1.722-1.689.645s2.125-5.506,2.677-4.411" transform="translate(-164.277 -236.581)" fill="#461a55" fill-rule="evenodd"/>
      </g>
      <g id="Group_187" data-name="Group 187" transform="translate(53.828 16.204)">
        <path id="Path_215" data-name="Path 215" d="M170.177,235.174s5.44,4.476,6.356,18.192c0,0-.576-8.959-5.831-14.4-.1,2.945.57,5.566,1,5.956s.719-1.823.481-3.092c1.161,2.611,1.253,4.664.4,5.014-.877.343-3.354-4.056-2.405-11.668" transform="translate(-169.964 -235.174)" fill="#461a55" fill-rule="evenodd"/>
      </g>
      <g id="Group_188" data-name="Group 188" transform="translate(26.753 49.246)">
        <path id="Path_216" data-name="Path 216" d="M161.762,248.618a22.022,22.022,0,0,0,2-2.372c.137,4.566-.045,5.739-2.871,9.487a10.788,10.788,0,0,0,.871-7.114" transform="translate(-160.891 -246.246)" fill="#461a55" fill-rule="evenodd"/>
      </g>
      <g id="Group_189" data-name="Group 189" transform="translate(20.737 41.891)">
        <path id="Path_217" data-name="Path 217" d="M165.24,244.911c.328-.675,3.256-2.05,4.617-.209.525.892-4.094,8.126-10.982,11.089a26.458,26.458,0,0,0,7.705-8.09c1.137-2.011-2.041-1.415-1.34-2.79" transform="translate(-158.875 -243.781)" fill="#461a55" fill-rule="evenodd"/>
      </g>
    </g>
    <g id="Group_191" data-name="Group 191" transform="translate(39.67 114.98)">
      <path id="Path_218" data-name="Path 218" d="M201.211,264.614c.907-.364,1.062.078-.3.6-8.666,3.339-18.446,3.1-27.166,1.259a127.934,127.934,0,0,1-19.046-5.336l.839-1.841s44.588,5.769,45.671,5.321" transform="translate(-154.701 -259.293)" fill="#dbbd81" fill-rule="evenodd"/>
    </g>
    <g id="Group_192" data-name="Group 192" transform="translate(42.815 99.283)">
      <path id="Path_219" data-name="Path 219" d="M155.755,255.37l.576-1.337c.889.43,9.5,4.646,14.113,6.222,9.976,3.435,19.078,5.637,25.653,5.637a51.957,51.957,0,0,0,9.365-.782,35.463,35.463,0,0,0,7.174-2.1c1.519-.636,3.993-3.286,4.954-4.512.57-.725,1.038-1.167,1.068-.764.642,5.882-6.27,9.857-15.96,11.116-9.848,1.28-19.278-3.205-28.437-5.273-11.988-2.728-18.505-8.207-18.505-8.207" transform="translate(-155.755 -254.033)" fill="#bd96c5" fill-rule="evenodd"/>
    </g>
    <g id="Group_193" data-name="Group 193" transform="translate(42.815 99.847)">
      <path id="Path_220" data-name="Path 220" d="M155.755,255.317l.686-1.1c.9.415,9.385,4.39,14,5.981,9.976,3.435,19.078,5.634,25.653,5.634a50.685,50.685,0,0,0,9.365-.791,33.733,33.733,0,0,0,9.776-3.315c.433-.149-.1.46-.307.642-2.8,2.522-9.478,4.291-12.609,4.685-9.86,1.262-18.9-1.459-28.061-3.548-11.988-2.713-18.505-8.192-18.505-8.192" transform="translate(-155.755 -254.222)" fill="#dbbd81" fill-rule="evenodd"/>
    </g>
    <g id="Group_194" data-name="Group 194" transform="translate(39.843 101.217)">
      <path id="Path_221" data-name="Path 221" d="M211.117,264.538l.7,1.053s.284.325-2.22,2.375c-1.99,1.638-6.213,4.915-8.947,5.909-8.7,3.151-17.959,2.534-27.014.48a104.742,104.742,0,0,1-18.872-5.942l4.214-13.733a132.174,132.174,0,0,0,13.065,5.891c10.072,3.456,16.187,5.413,26.008,5.5,8.5.075,13.071-1.534,13.071-1.534" transform="translate(-154.759 -254.681)" fill="#bd96c5" fill-rule="evenodd"/>
    </g>
    <g id="Group_195" data-name="Group 195" transform="translate(41.451 103.798)">
      <path id="Path_222" data-name="Path 222" d="M170.407,260.727c10.212,3.51,16.515,5.524,26.551,5.589,9.063.086,12.17-1.3,12.17-1.3S203.5,270.157,198.522,272c-6.494,2.414-17.109,2.241-25.96.129a132.026,132.026,0,0,1-17.264-5.256l3.533-11.325a101.725,101.725,0,0,0,11.576,5.181" transform="translate(-155.298 -255.546)" fill="#dbbd81" fill-rule="evenodd"/>
    </g>
    <g id="Group_196" data-name="Group 196" transform="translate(52.252 98.376)">
      <path id="Path_223" data-name="Path 223" d="M180.926,253.729s-5.813,3.134-5.652,21.669c.063,7.506,1.931,10.91,1.931,10.91l-9.194-5.876-9.093,5.909s.988-7.711.988-10.854c0-3.163.128-16.58,4.646-19.97a.592.592,0,0,1,.51-.167c1.991.167,9.009.946,15.864-1.621" transform="translate(-158.917 -253.729)" fill="#dbbd81" fill-rule="evenodd"/>
    </g>
    <g id="Group_197" data-name="Group 197" transform="translate(51.231 97.546)">
      <path id="Path_224" data-name="Path 224" d="M158.575,288.621l.137-1.806c.024-.215.964-7.708.964-10.776,0-6.3.651-17.305,4.96-20.636a1.5,1.5,0,0,1,1.03-.4h.158l.29.036c.883.075,2.393.209,4.288.209a31.129,31.129,0,0,0,10.89-1.8l.731,1.614c-.039.027-5.849,2.859-5.763,20.407.069,8.613,1.08,8.2,1.459,9.863l1.161,3.205-10.191-6.506Zm10.12-7.938,8.022,4.763c-1.262-3.886-1.609-3.438-1.662-9.484-.081-11.3,2.023-17.064,3.814-19.893a36.265,36.265,0,0,1-8.466.958h0c-1.97,0-3.518-.14-4.447-.209l-.2-.027c-2.683,2.041-4.25,9.236-4.673,19.227-.152,3.644-.624,4.826-1.065,10.156Z" transform="translate(-158.575 -253.451)" fill="#bd96c5"/>
    </g>
    <g id="Group_198" data-name="Group 198" transform="translate(55.125 100.322)">
      <path id="Path_225" data-name="Path 225" d="M166.045,276.345l-6.165,4.085.036-.424c.555-5.449.445-3.724.445-5.813,0-9.824,1.552-16.745,4.366-19.514l.272.283c-2.74,2.68-4.25,9.52-4.25,19.231,0,2.053.137-.2-.406,5.446l5.7-3.754,5.981,3.951c-1.018-2.79-1.477-2.584-1.447-5.718.122-8.377,1.059-15.208,3.229-19.738l.349.173c-2.149,4.471-3.238,11.23-3.163,19.565.015,2.471.827,3.939,1.913,7.341Z" transform="translate(-159.88 -254.381)" fill="#bd96c5"/>
    </g>
    <g id="Group_199" data-name="Group 199" transform="translate(34.428 98.592)">
      <path id="Path_226" data-name="Path 226" d="M162.167,272.18c.152-.674.3-1.361.472-2.038a1.375,1.375,0,0,1,.1-.412c.779-3.235,1.713-6.207,1.713-6.207.218-.758.427-1.438.609-1.9a13.383,13.383,0,0,1,1.268-2.134,4.154,4.154,0,0,1,4.649-1.194c-.1-3-2.274-4.736-5.673-4.461-3.372.286-4.575,4.106-4.623,5.915s-2.143,2.838-3.286,3.668c-1.182.812-2.587.943-3.336,1.779-.791.833,1.018,2.4,2.757,1.755l1.37-.522a10.69,10.69,0,0,1-1.6,4.515c-1.316,1.7-3.635.928-3.635.928s-.313,4.936,4.273,4.8c2.868-.1,4.279-2.358,4.945-4.435v-.048" transform="translate(-152.944 -253.801)" fill="#dbbd81" fill-rule="evenodd"/>
    </g>
    <g id="Group_200" data-name="Group 200" transform="translate(33.846 98)">
      <path id="Path_227" data-name="Path 227" d="M157.415,277.644h0a4.392,4.392,0,0,1-3.322-1.292,6.023,6.023,0,0,1-1.334-4.136l.045-.761.734.233a3.544,3.544,0,0,0,1.023.152,2.3,2.3,0,0,0,1.934-.871,8.715,8.715,0,0,0,1.3-3.229l-.37.152a3.087,3.087,0,0,1-1.065.2,2.849,2.849,0,0,1-2.57-1.465,1.3,1.3,0,0,1,.2-1.438,5.1,5.1,0,0,1,1.937-1.131,7.514,7.514,0,0,0,1.525-.746c.173-.14.391-.263.624-.421,1.054-.7,2.349-1.576,2.385-2.776.069-1.981,1.429-6.165,5.172-6.482.245-.012.507-.03.74-.03,3.348,0,5.494,1.937,5.584,5.073l.039.9-.848-.349a4.257,4.257,0,0,0-1.367-.224,3.156,3.156,0,0,0-2.59,1.242,10.839,10.839,0,0,0-1.2,2c-.167.415-.361,1.033-.594,1.833-.012.048-.934,3.014-1.7,6.189l-.11.385c-.155.761-.31,1.405-.439,2.014l-.009.1-.015.036c-.964,3.038-2.919,4.76-5.5,4.847Zm-3.459-4.668a4.423,4.423,0,0,0,1.006,2.566,3.185,3.185,0,0,0,2.453.916h.17c2.581-.084,3.817-2.179,4.4-3.942v-.057c.131-.63.281-1.277.457-2.029a2.06,2.06,0,0,1,.116-.513c.779-3.181,1.707-6.151,1.713-6.183.242-.833.445-1.489.624-1.943l.021-.039a12.492,12.492,0,0,1,1.34-2.238,4.365,4.365,0,0,1,3.527-1.689,5,5,0,0,1,.919.078c-.388-1.973-1.952-3.113-4.327-3.113-.185,0-.418,0-.642.018-2.963.257-4.029,3.712-4.088,5.351-.036,1.805-1.7,2.9-2.91,3.715-.233.137-.421.275-.606.4a7.6,7.6,0,0,1-1.776.88,4.2,4.2,0,0,0-1.48.833c-.015.015-.036.045,0,.158a1.746,1.746,0,0,0,1.492.764,1.9,1.9,0,0,0,.642-.117l2.268-.886-.113.958a11.5,11.5,0,0,1-1.713,4.819,3.487,3.487,0,0,1-2.883,1.346A3.1,3.1,0,0,1,153.957,272.977Z" transform="translate(-152.749 -253.603)" fill="#bd96c5"/>
    </g>
    <g id="Group_201" data-name="Group 201" transform="translate(57.459 103.163)">
      <path id="Path_228" data-name="Path 228" d="M162.648,259.5l-1.224-.439v-3.733h.182a16.387,16.387,0,0,0,2.444,2.327,3.141,3.141,0,0,0,1.737.674,1.379,1.379,0,0,0,.988-.379,1.178,1.178,0,0,0,.382-.871,1.48,1.48,0,0,0-.263-.842,1.791,1.791,0,0,0-.809-.561v-.155a2.074,2.074,0,0,1,1.319.594,1.628,1.628,0,0,1,.463,1.206,1.786,1.786,0,0,1-.486,1.274,1.57,1.57,0,0,1-1.182.522,2.249,2.249,0,0,1-.943-.227,6.258,6.258,0,0,1-1.608-1.116c-.845-.776-1.337-1.242-1.525-1.45v1.653a3.546,3.546,0,0,0,.045.7,1.092,1.092,0,0,0,.143.364.952.952,0,0,0,.337.278Z" transform="translate(-159.15 -255.333)" fill="#461a55"/>
      <path id="Path_229" data-name="Path 229" d="M164.362,257.018a4.859,4.859,0,0,1,1.856.337,2.709,2.709,0,0,1,1.164.869,1.574,1.574,0,0,1,.307.868,1.691,1.691,0,0,1-.749,1.307,3.979,3.979,0,0,1-2.5.71,5.128,5.128,0,0,1-1.859-.3,2.365,2.365,0,0,1-1.1-.815,1.608,1.608,0,0,1-.361-.952,1.729,1.729,0,0,1,1.062-1.492A4.4,4.4,0,0,1,164.362,257.018Zm-.122.919a5.916,5.916,0,0,0-2.125.322c-.472.182-.7.436-.7.8a.765.765,0,0,0,.233.513,1.361,1.361,0,0,0,.758.418,9.029,9.029,0,0,0,2.256.215,6.13,6.13,0,0,0,1.8-.221,1.652,1.652,0,0,0,.758-.439.7.7,0,0,0,.158-.457.741.741,0,0,0-.286-.57,2.418,2.418,0,0,0-1.227-.457A10.47,10.47,0,0,0,164.24,257.937Z" transform="translate(-159.757 -251.989)" fill="#461a55"/>
      <path id="Path_230" data-name="Path 230" d="M166.736,258.836l.749,1.543v.149h-5.342a2.661,2.661,0,0,0-.654.045.335.335,0,0,0-.209.188,1.377,1.377,0,0,0-.069.567h-.176v-2.372h.176a1.4,1.4,0,0,0,.069.576.436.436,0,0,0,.176.176,2.434,2.434,0,0,0,.686.048h3.42a5.175,5.175,0,0,0,.883-.042.36.36,0,0,0,.218-.117.416.416,0,0,0,.072-.206,1.064,1.064,0,0,0-.155-.471Z" transform="translate(-159.92 -248.382)" fill="#461a55"/>
      <path id="Path_231" data-name="Path 231" d="M163,264.3h-.671v-.85h-1.671v-.767h1.671v-2.674h.6l4.181,2.922v.519H163Zm0-1.617h3.119L163,260.466Z" transform="translate(-160.662 -246.055)" fill="#461a55"/>
    </g>
    <path id="Path_232" data-name="Path 232" d="M164.795,307.985a4.8,4.8,0,0,1-.609.277l-.74-.925c-.1-.107-.233-.233-.4-.385l-2.095,1.033c-.716.418-1.247.743-1.623.937l-.2.1c-.233.1-.794.415-1.7.91l-.206.146-.7.343-.7.424-.352.2a10.569,10.569,0,0,0-1.071.672,1.293,1.293,0,0,0-.17.179,1.339,1.339,0,0,0,.042.164c.033.045.048.119.078.164a6.435,6.435,0,0,0,.3.737l.033.146a2.394,2.394,0,0,1,.128.367,1.351,1.351,0,0,1-.3.179.7.7,0,0,1-.292.1c-.069-.09-.17-.248-.284-.433s-.185-.337-.233-.4c-.29-.707-.537-1.221-.7-1.546-.1-.143-.155-.293-.245-.448a3.709,3.709,0,0,0-.209-.409c-.093-.182-.352-.606-.8-1.271a1.85,1.85,0,0,1-.236-.352,5.1,5.1,0,0,1-.266-.522,1.4,1.4,0,0,0,.239-.152c.1-.036.218-.092.367-.149l1.027,1.331a.275.275,0,0,0,.328.039l.283-.182.143-.08.352-.185.284-.149.063-.027a.214.214,0,0,1,.14-.093l1.036-.57a2.441,2.441,0,0,1,.221-.137l.257-.131a2.482,2.482,0,0,0,.284-.137c.083-.057.272-.17.561-.337-.054-.164-.113-.31-.149-.412l-.665-1.227-.331-.585-.8-1.48-.833-1.406a3.323,3.323,0,0,0-.385-.555c-.191.092-.648.331-1.376.725l-.373.179-1.364.809-.513.4a.293.293,0,0,0-.054.182,6.053,6.053,0,0,0,.254,1.307,2.8,2.8,0,0,1,.075.337,1.977,1.977,0,0,1-.5.194.7.7,0,0,1-.128-.212l-.433-.782a11.765,11.765,0,0,0-.752-1.585c-.06-.125-.116-.212-.155-.286l-.63-1.039a1.188,1.188,0,0,0-.164-.263,3.126,3.126,0,0,1-.4-.57c-.083-.158-.173-.337-.275-.573a5,5,0,0,1,.588-.287c.382.439.642.734.755.854a3.067,3.067,0,0,0,.466.349l.173-.042.167-.075.185-.122.119-.051a2.3,2.3,0,0,0,.269-.113l.206-.116c.23-.137.37-.221.4-.245l1.033-.573.77-.445,1.048-.555c.254-.123.725-.406,1.447-.827l1.158-.657.958-.528c.182-.113.4-.215.66-.349a1.982,1.982,0,0,0-.1-.367,6.759,6.759,0,0,1-.3-1.334l.57-.343c.116.218.194.343.209.382a8.8,8.8,0,0,1,.457.919,21.693,21.693,0,0,0,1.122,2.185,17.2,17.2,0,0,0,1.053,1.671.945.945,0,0,1,.107.307,2.482,2.482,0,0,1-.585.23l-.486-.546-.451-.585c-.06-.045-.119-.116-.218-.206a23.458,23.458,0,0,0-2.235,1.128l-.716.343a8.794,8.794,0,0,1-.991.645,6.018,6.018,0,0,0,.316.66l2.074,3.808.03.089.015.051a.945.945,0,0,1,.081.128c.084.134.149.26.218.358l.116.23a1.252,1.252,0,0,0,.257.313l.63-.3.1-.051a1.911,1.911,0,0,1,.272-.176l2.525-1.4c.134-.084.281-.17.415-.263l.015-.1-.483-1.328c-.027-.071-.033-.119-.045-.149a.474.474,0,0,1-.012-.23c.1-.09.188-.143.227-.176q.107-.045.313-.125c.11.206.2.361.283.5.075.117.119.242.179.334a1.075,1.075,0,0,1,.06.152l.606,1.176c.128.284.322.674.591,1.158l.107.182c.146.221.221.346.245.379C164.076,306.756,164.383,307.266,164.795,307.985Zm-7.875-14.993a8.072,8.072,0,0,0-.313-1.268l-.134-.361c-.125-1.465-.224-2.375-.269-2.757a1.073,1.073,0,0,0-.224.021c-.089.021-.233.039-.451.08v.672a1.739,1.739,0,0,1-.11.851.427.427,0,0,1-.328.182,2.044,2.044,0,0,1-.683-.077c-1.206-.224-1.97-.37-2.3-.466l-.543-3.51,1.7-1.012.836-.513a.739.739,0,0,1,.248-.084.313.313,0,0,1,.218.057,1.7,1.7,0,0,1,.26.5l.391.988a3.544,3.544,0,0,0,.621-.069l-.089-.448-.322-1.552c-.051-.215-.119-.567-.191-1.044-.066-.442-.122-.925-.173-1.5-.039-.549-.093-1.056-.161-1.5a1.4,1.4,0,0,0-.215.021c-.089.018-.248.06-.448.116a3.617,3.617,0,0,0-.069.85,1.214,1.214,0,0,1-.108.573,1.58,1.58,0,0,1-.409.355,10.65,10.65,0,0,1-1.107.677c-.546.316-.946.549-1.206.713-.457.29-1.038.642-1.746,1.044s-1.444.857-2.184,1.34l-3.536,2.2-.158.107.051.421c.039.185.069.382.11.588l6.073,1.271,5.163,1.077a1.689,1.689,0,0,1,.591.3,2.657,2.657,0,0,1,.367.82c.11.278.194.477.245.585l.645-.084Zm-5.828-3.327c-.209-1.444-.334-2.28-.379-2.542l-.039-.227c-.534.266-1.122.6-1.811,1.012s-1.182.74-1.549.988Zm4.047-12.823c.078-.931.158-1.716.26-2.382l.26-1.564a11.488,11.488,0,0,0,.119-1.579,6.724,6.724,0,0,0-.248-1.7,3.38,3.38,0,0,0-.7-1.217,2.23,2.23,0,0,0-.836-.7,3.757,3.757,0,0,0-1.244-.409,2.716,2.716,0,0,0-1.958.457,3.8,3.8,0,0,0-1.453,1.97,7.364,7.364,0,0,0-.451-1.274,2.787,2.787,0,0,0-.7-.877,2.271,2.271,0,0,0-.979-.391,3.351,3.351,0,0,0-.985.03,2.168,2.168,0,0,0-.889.415,2.277,2.277,0,0,0-.716.716,3.6,3.6,0,0,0-.415.71,6.187,6.187,0,0,0-.433,1.5l-.081.588c-.054.266-.06.424-.075.481,0,.084-.015.155-.015.227l-.048.358-.325,3.032-.248,2.074.656.069c.134-.474.218-.773.245-.892a1.068,1.068,0,0,1,.188-.534c.042-.036.06-.069.1-.075a2.509,2.509,0,0,1,.871.03c1.731.2,2.793.331,3.211.388l3.93.534a9.616,9.616,0,0,1,1.5.292,1.674,1.674,0,0,1,.4.218,4.7,4.7,0,0,1,.1,1c0,.212.006.391.012.54l.743.134C155.048,277.82,155.117,277.11,155.138,276.841Zm-6.622-3.092a8.133,8.133,0,0,0,.173-.868,3.557,3.557,0,0,0-.218-2.175,2.078,2.078,0,0,0-1.665-.955,1.937,1.937,0,0,0-1.582.463,3.086,3.086,0,0,0-.88,1.943c-.018.26-.039.624-.039,1.03.146.033.343.057.612.086.534.042,1.256.134,2.208.26l.782.143A5.068,5.068,0,0,1,148.516,273.75Zm5.9.7a2.959,2.959,0,0,0,.409-1.086,3.858,3.858,0,0,0-.078-1.761,2.149,2.149,0,0,0-.743-1.1,3.333,3.333,0,0,0-1.391-.51,2.92,2.92,0,0,0-1.477.128,2.382,2.382,0,0,0-1.152.985,5.422,5.422,0,0,0-.516,1.934,1.944,1.944,0,0,0-.03.818l1.131.149,1.364.218,2.128.268A1.218,1.218,0,0,0,154.416,274.454Zm3.047-9.591c.185-.6.334-1.059.445-1.37l.654-1.522c.337-.663.531-1.024.576-1.1a1.178,1.178,0,0,0,.113-.218,2.45,2.45,0,0,1,.11-.319.8.8,0,0,1,.069-.185,1.606,1.606,0,0,0-.3-.119,1.988,1.988,0,0,0-.445-.143c-.164.281-.263.453-.292.492a5.2,5.2,0,0,1-.546.907.425.425,0,0,1-.2-.054l-.328-.128-1.737-.7-1.146-.48-2.286-.916c-.534-.209-1.274-.519-2.241-.928-.164-.048-.376-.119-.621-.218a3.837,3.837,0,0,1-.621-.322,4.548,4.548,0,0,1,.08-.821c.045-.322.078-.618.09-.883-.149-.069-.284-.128-.376-.179-.072-.024-.17-.054-.275-.09-.039.113-.125.379-.269.8-.254.776-.451,1.343-.591,1.671-.03.077-.119.268-.257.567l-1.089,2.429.758.287c.042-.072.087-.179.14-.287a4.057,4.057,0,0,1,.683-1.083,2.031,2.031,0,0,1,.31.057l.373.128,1.006.376.448.206,1.146.454c.036.012.627.271,1.749.764l.477.179,1.964.809,1.021.415a1.484,1.484,0,0,1,.668.448,3.614,3.614,0,0,1-.042.964c-.048.292-.069.51-.092.636l.639.254C157.266,265.525,157.346,265.263,157.463,264.863Zm3.921-8.586c.507-.788.943-1.453,1.346-1.993l.958-1.253a10.3,10.3,0,0,0,.857-1.352,7.424,7.424,0,0,0,.579-1.6,4,4,0,0,0-.048-1.424,2.559,2.559,0,0,0-.415-1,4.748,4.748,0,0,0-.9-.949,2.768,2.768,0,0,0-1.958-.5,3.94,3.94,0,0,0-2.208,1.059,10.114,10.114,0,0,0,.218-1.343,2.666,2.666,0,0,0-.227-1.1,2.281,2.281,0,0,0-.687-.806,2.8,2.8,0,0,0-.883-.433,2.451,2.451,0,0,0-.973-.072,3.024,3.024,0,0,0-.973.316,5.853,5.853,0,0,0-.7.433,5.475,5.475,0,0,0-1.068,1.116l-.355.486c-.167.209-.254.343-.3.4a.737.737,0,0,0-.128.182l-.2.3-1.722,2.513-1.188,1.719.552.385c.337-.364.555-.6.636-.683a1.173,1.173,0,0,1,.412-.382.188.188,0,0,1,.14-.024,4.566,4.566,0,0,1,.752.433c1.424.988,2.313,1.6,2.626,1.847l3.232,2.31a13.881,13.881,0,0,1,1.2.976,1.491,1.491,0,0,1,.239.373,3.565,3.565,0,0,1-.382.925l-.233.5.594.448C160.841,257.1,161.247,256.486,161.384,256.277Zm-4.4-5.852a5.841,5.841,0,0,0,.558-.683,3.744,3.744,0,0,0,.833-2.02,2.046,2.046,0,0,0-1.027-1.623,1.919,1.919,0,0,0-1.6-.334,3.053,3.053,0,0,0-1.692,1.3c-.146.224-.322.525-.522.907.119.092.283.194.5.352.448.289,1.062.7,1.814,1.265l.63.481C156.591,250.144,156.749,250.258,156.982,250.425Zm4.885,3.4a2.82,2.82,0,0,0,.862-.77,3.927,3.927,0,0,0,.764-1.585,2,2,0,0,0-.152-1.328,3.008,3.008,0,0,0-.994-1.1,2.639,2.639,0,0,0-1.364-.57,2.336,2.336,0,0,0-1.474.325,5.884,5.884,0,0,0-1.361,1.453,2.589,2.589,0,0,0-.412.7l.925.675,1.116.83,1.746,1.232A.849.849,0,0,0,161.867,253.827Zm9.66-23.185c.668-.266,1.1-.334,1.3-.215a5.583,5.583,0,0,1,.874,1.567l1.794,4.062a12.615,12.615,0,0,0,.931,1.758,3.654,3.654,0,0,0,1.331,1.2,3.609,3.609,0,0,0,1.841.29,6.777,6.777,0,0,0,2.426-.651,7.525,7.525,0,0,0,1.9-1.164,4.7,4.7,0,0,0,1.155-1.316,3.513,3.513,0,0,0,.463-1.349,3,3,0,0,0-.072-1.071,16.772,16.772,0,0,0-.919-2.381l-.853-1.695c-.2-.421-.4-.827-.594-1.221a1.787,1.787,0,0,1-.17-.349c-.051-.107-.134-.269-.212-.471-.155-.346-.284-.588-.358-.728a2.706,2.706,0,0,1-.227-.436.394.394,0,0,1-.027-.361,2.885,2.885,0,0,1,.582-.4,3.574,3.574,0,0,0,.624-.4.6.6,0,0,0-.078-.242,1.246,1.246,0,0,0-.215-.367l-.152.042a14.671,14.671,0,0,1-1.549.773l-1.653.651-.674.3.272.666.125-.027.788-.37a1.051,1.051,0,0,1,.752,0c.146.057.3.26.474.591l.239.421c.922,1.662,1.683,3.166,2.277,4.542a7.437,7.437,0,0,1,.63,1.821,4.052,4.052,0,0,1-.048,1.068,1.66,1.66,0,0,1-.3.713,2.742,2.742,0,0,1-.6.743,6.625,6.625,0,0,1-1.435.886,3.332,3.332,0,0,1-1.561.269,2.148,2.148,0,0,1-1.086-.367,3.634,3.634,0,0,1-1.1-1.361l-1.053-2.077-.627-1.5-.346-.662-.337-.806-.152-.307c-.057-.1-.125-.248-.206-.427a3.34,3.34,0,0,1-.361-1.062c.051-.164.233-.331.561-.471a7.13,7.13,0,0,0,.952-.5l-.015-.066-.242-.5-.057-.113a5.609,5.609,0,0,1-.669.316c-.334.155-.71.343-1.134.561s-.874.418-1.325.612c-.137.059-.585.242-1.349.531-.31.128-.621.254-.913.376-.1.06-.2.1-.316.161l.334.659A1.761,1.761,0,0,0,171.527,230.642Zm19.4-6.738a2.136,2.136,0,0,1,.743.466.888.888,0,0,1,.224.373,5.1,5.1,0,0,1,.188,1.489l.1,1.892.086,3.023.009.528c0,.206.024.812,0,1.805,0,.334-.027.546-.137.63a2.126,2.126,0,0,1-.919.152c-.215,0-.322-.009-.364,0a2.781,2.781,0,0,0-.433.051v.346c.006.107.027.23.027.379a1.591,1.591,0,0,0,.325.027l.534-.051c.331-.033.991-.087,1.979-.134,1.059.069,1.7.1,1.892.083l.367-.024-.069-.782a1.957,1.957,0,0,0-.248-.054,7.3,7.3,0,0,1-1.585-.143c-.057-.128-.1-.224-.125-.28a2.488,2.488,0,0,1-.045-.346c-.078-.594-.134-1.14-.176-1.647l-.1-1.215-.009-.657c-.009-.227-.009-.433-.021-.645l-.218-3.462,1.564,1.322c.645.537,1.361,1.173,2.157,1.892l1.2,1.158,1.629,1.531,2.337,2.164,1.167,1.113,1.062-.075-.024-.5c0-.048-.021-.2-.054-.451l.018-.5-.051-.492-.039-1.137a3.718,3.718,0,0,0-.03-.5l-.218-3.265c0-.215-.036-.4-.045-.561-.066-.525-.11-1.241-.152-2.14-.012-.418-.033-.669-.033-.785-.03-.23-.042-.355-.042-.394a.586.586,0,0,1,.075-.349,5.143,5.143,0,0,1,.487-.346,3.852,3.852,0,0,1,.684-.218,1.317,1.317,0,0,0,.424-.188l-.036-.606c-.119,0-.236.012-.388.024l-2.018.134-1.838.11-.221.042v.552a2.836,2.836,0,0,0,.761.188,1.741,1.741,0,0,1,.922.283c.09.081.134.319.152.725,0,.131.072.6.158,1.4a12.18,12.18,0,0,1,.1,1.4c.042.513.078.958.114,1.325s.083.877.122,1.51l.075,1.077.006.233c-3.927-3.638-6.2-5.751-6.822-6.362s-1.438-1.34-2.426-2.176c-.119-.006-.224,0-.29,0-.042.006-.236.015-.576.045s-.519.033-.57.042a1.679,1.679,0,0,1-.212-.009c-.373,0-.57.009-.659.009-.131,0-.409.021-.776.054l-.26.009-.812.033.069.654A6.64,6.64,0,0,1,190.925,223.9Zm17.386,11.483c.627.1,1.092.179,1.421.251l1.6.418c.7.239,1.083.4,1.17.427a1.337,1.337,0,0,0,.23.084c.018.006.158.024.343.069a.912.912,0,0,1,.17.036c.045-.134.069-.233.1-.307a3.827,3.827,0,0,0,.066-.457c-.292-.125-.474-.194-.519-.227a6.78,6.78,0,0,1-.985-.406.625.625,0,0,1,.033-.209l.087-.352.436-1.815.322-1.2.591-2.4c.128-.552.337-1.325.612-2.34.024-.173.075-.376.128-.65a3.95,3.95,0,0,1,.218-.672c.215-.009.5-.03.83-.018s.63-.012.892-.027c.045-.17.081-.3.11-.406.015-.072.048-.17.063-.28-.122-.03-.394-.078-.839-.152-.8-.155-1.379-.266-1.731-.355l-.6-.17-2.549-.758-.176.794a1.431,1.431,0,0,0,.3.1,3.691,3.691,0,0,1,1.167.528,1.912,1.912,0,0,1,0,.3l-.1.4-.218,1.044-.143.474-.3,1.206c-.009.039-.17.651-.507,1.841l-.116.483-.519,2.053-.266,1.08a1.738,1.738,0,0,1-.355.731,3.767,3.767,0,0,1-.973.1c-.278-.009-.5-.009-.63,0l-.164.65C207.634,235.271,207.912,235.322,208.311,235.387Zm11.976-8.535a3.17,3.17,0,0,1,.654.522,1.068,1.068,0,0,1,.164.466c0,.1-.021.788-.1,2.059l-.251,2.742-.31,4.318c-.14,1.241-.221,1.955-.263,2.158-.018.2-.057.4-.081.6a3.6,3.6,0,0,0,.442.245,2.512,2.512,0,0,0,.412.206q.416-.349,1.4-1.322l.164-.1c.516-.454.833-.713.907-.785.3-.281.615-.537.874-.767.3-.227.54-.442.785-.665l2.51-2.161a24.045,24.045,0,0,1,2.122-1.719,1.251,1.251,0,0,1,.382-.155,9.038,9.038,0,0,1,1.522.149,1.522,1.522,0,0,0,.155-.3l.158-.266c-.212-.1-.5-.215-.83-.352a10.156,10.156,0,0,1-1.206-.549c-.451-.248-.889-.5-1.34-.806s-.728-.469-.815-.516a3.221,3.221,0,0,0-.236.364.964.964,0,0,0-.08.289c.08.066.2.128.307.215a1.653,1.653,0,0,1,.278.206,1.787,1.787,0,0,1,.657.648.349.349,0,0,1,.027.358,2.2,2.2,0,0,1-.474.549q-.34.318-.958.913c-.125.14-.206.224-.284.3l-.555.457-2.408,2.187-1.113.925c.057-.445.1-.925.131-1.441l.2-2.617a23.4,23.4,0,0,1,.248-2.793l.125-.851a.358.358,0,0,1,.078-.2.321.321,0,0,1,.188-.164,1.248,1.248,0,0,1,.686.03c.1.021.448.149,1.024.367.03-.045.134-.283.337-.68l-.591-.322c-.2-.069-.492-.185-.868-.352-.516-.23-.854-.391-1.012-.486a25.924,25.924,0,0,1-2.611-1.528c-.066-.03-.23-.137-.5-.292l-.385.716Zm14.963,8.714c.1.113.17.23.269.319a6.041,6.041,0,0,1,.615.83c.054.089.116.179.146.236a.431.431,0,0,1,.1.292,1.377,1.377,0,0,0-.113.149l-.782.847-.761.728-1.033,1.068-.773.722-2.513,2.459-.194.194c-.2.185-.322.316-.388.385a1.954,1.954,0,0,1-.564.4,5.52,5.52,0,0,1-1.137-.758,6.293,6.293,0,0,0-.579-.439l-.46.463.815.782.266.278c.812.74,1.462,1.373,1.988,1.916,1.033,1.071,1.916,2.005,2.611,2.805,1.009,1.131,1.647,1.811,1.877,2.074.164.161.406.391.689.668l.88-.621,1.5-.982.257-.149a2.96,2.96,0,0,1,.313-.248,2.543,2.543,0,0,0-.227-.215,2.257,2.257,0,0,0-.349-.328,4.724,4.724,0,0,1-1.979.46,2.232,2.232,0,0,1-1.224-.373,11.061,11.061,0,0,1-1.674-1.453,7.613,7.613,0,0,1-1.492-1.82.518.518,0,0,1,.167-.534l1.447-1.379c.367-.346.809-.767,1.328-1.283a1.88,1.88,0,0,1,.23-.221c.373.3.877.8,1.534,1.462a7.889,7.889,0,0,1,.913,1.042.666.666,0,0,1,.075.442,3.822,3.822,0,0,1-.555,1,6.092,6.092,0,0,0-.334.513l.463.484.143-.134c.134-.134.337-.328.564-.591.266-.272.445-.478.564-.585.093-.077.2-.188.328-.3s.451-.421.913-.868c.206-.2.51-.493.886-.91l-.376-.382-.1-.092a9.272,9.272,0,0,1-1.206.719.92.92,0,0,1-.492.069,2.126,2.126,0,0,1-.74-.507c-.346-.31-.931-.862-1.686-1.653-.081-.084-.164-.191-.263-.313l.839-.809,1.134-1.071c.761-.746,1.2-1.164,1.307-1.283.427.421.907.9,1.435,1.444.466.469.883.937,1.25,1.385.212.263.331.4.367.448a2.452,2.452,0,0,1,.367.484,4.375,4.375,0,0,1-.2,1.024l-.218.743c-.1.245-.188.424-.239.552.092.125.173.2.2.248l.281.26a1.5,1.5,0,0,0,.128-.11l.269-.281,1.385-1.346a.649.649,0,0,0,.224-.454,9.716,9.716,0,0,0-1.056-1.3l-1.182-1.206c-.779-.821-1.665-1.689-2.68-2.653-.669-.645-1.068-1.041-1.221-1.209a11.48,11.48,0,0,1-1.119-1.3c-.146-.215-.355-.448-.585-.728Zm2.19,18.622a2.762,2.762,0,0,0-.283.155l.212.361a9.765,9.765,0,0,0,.5.928l.659,1.122c.03.06.081.167.161.313.107.218.391.955.871,2.205l.179.346c.012.033.045.1.1.2a4.613,4.613,0,0,0,.65-.268,7.924,7.924,0,0,0-.245-1.286,2.357,2.357,0,0,1-.084-.719l1.609-.71,1.835-.952a4.694,4.694,0,0,1,.585-.254c.137.257.236.451.3.561a1.822,1.822,0,0,1,.248.946,4.037,4.037,0,0,1-.642,1.045c-.892,1.179-1.549,2.014-1.97,2.522-.155.2-.394.516-.689.958l-.418.531c.051.1.119.215.209.361.2.319.3.5.331.561l.412.847c.122.26.224.49.3.683l.158.331.155.463.1.167.09.221a.679.679,0,0,0,.206-.087.78.78,0,0,0,.221-.167,2.8,2.8,0,0,0,0-.713,2.818,2.818,0,0,1,.009-.794,8.385,8.385,0,0,1,.683-1.149l1.522-2.4c.158-.245.358-.579.564-.97.113-.191.209-.343.3-.472a3.54,3.54,0,0,0,1.853,1.158,2.693,2.693,0,0,0,1.785-.2,2.9,2.9,0,0,0,1.522-1.991,4.433,4.433,0,0,0-.457-3.157,22.059,22.059,0,0,0-1.107-2.029l-.561-1.015-.233-.436c-.024-.033-.108-.263-.284-.68-.2-.385-.328-.645-.391-.764a5.078,5.078,0,0,0-.439-.752l-.108.018-.492.254c.051.164.182.483.358.952l.134.534c-.31.176-1.047.555-2.2,1.122-.534.26-1.1.528-1.71.812l-.463.2-.785.4-1.015.462-1.847.922c-.469.221-.734.349-.815.382-.054.006-.143.027-.274.057a4.429,4.429,0,0,1-.558-.684,1.745,1.745,0,0,0-.493-.555A1.271,1.271,0,0,0,237.441,254.188Zm7.532,1.027c.107.283.2.468.257.6a3.4,3.4,0,0,0,1.5,1.779,1.864,1.864,0,0,0,1.659-.072,3.475,3.475,0,0,0,.9-.621,2.037,2.037,0,0,0,.531-.7,2.507,2.507,0,0,0,.1-1.053,4.749,4.749,0,0,0-.463-1.244,3.166,3.166,0,0,0-.373-.636l-.155.06-1.107.564-.713.31-.907.46c-.26.108-.588.266-1.009.451Zm10.94,15.172a6.912,6.912,0,0,0-.1-1.331,4.274,4.274,0,0,0-1.62-2.883,3.408,3.408,0,0,0-2.662-.558,3.793,3.793,0,0,0-1.441.665,3.263,3.263,0,0,0-1.053,1.277,9.882,9.882,0,0,0-.606,2.543,8.166,8.166,0,0,1-.546,2.256,1.8,1.8,0,0,1-1.137.871,1.882,1.882,0,0,1-1.1-.17,1.968,1.968,0,0,1-.868-.82,3.39,3.39,0,0,1-.442-1.054,2.83,2.83,0,0,1-.009-1.062,2.176,2.176,0,0,1,.283-.91,3.717,3.717,0,0,1,.63-.773,12.347,12.347,0,0,1,1.131-.809l-.179-.841-.352.066c-.158.033-.433.092-.838.176-.755.179-1.167.271-1.248.274l-.1.03c-.084.039-.143.075-.152.116a2.021,2.021,0,0,0-.116.624l-.116,1.167a8.452,8.452,0,0,0,.116,1.57,5.715,5.715,0,0,0,.478,1.555,4.644,4.644,0,0,0,.77,1.092,6.027,6.027,0,0,0,.818.734,2.591,2.591,0,0,0,.943.394,4.7,4.7,0,0,0,1.758-.012,3.777,3.777,0,0,0,1.271-.46,3.675,3.675,0,0,0,.949-.952,4,4,0,0,0,.561-1.367,8.524,8.524,0,0,0,.248-1.453,5.384,5.384,0,0,1,.609-2.39,1.729,1.729,0,0,1,1.036-.743,1.531,1.531,0,0,1,1.259.3,2.164,2.164,0,0,1,.764,1.34,2.228,2.228,0,0,1-.436,1.791,4.927,4.927,0,0,1-1.471,1.119v.107l.1.675.039.087a1.859,1.859,0,0,0,.352-.021,13.473,13.473,0,0,0,1.459-.4c.4-.141.71-.257.91-.352A11.72,11.72,0,0,0,255.913,270.387Zm-11.5,7.571c.057.633.072,1.116.072,1.438l-.051,1.653c-.089.743-.134,1.158-.14,1.244-.024.122-.042.2-.042.233s0,.149.018.358v.173c.143.015.245.033.313.033.128,0,.292-.018.466-.033a5.508,5.508,0,0,0,.087-.576,10.5,10.5,0,0,1,.188-1.039,1.977,1.977,0,0,1,.209-.018h.361l1.871.027,1.239.042,2.471.03c.561.012,1.37.033,2.426.075a5.249,5.249,0,0,1,.642-.015,2.991,2.991,0,0,1,.707.063,7.105,7.105,0,0,1,.239.8,4.477,4.477,0,0,0,.224.853,3.919,3.919,0,0,0,.4.033h.3c0-.122-.015-.418-.033-.86-.048-.823-.048-1.4-.048-1.761,0-.084.006-.281.036-.621l.152-2.659H255.7a1.478,1.478,0,0,0-.036.334,3.667,3.667,0,0,1-.239,1.239,1.973,1.973,0,0,1-.31.06l-.4.012-1.062.018-.492-.036h-1.253c-.036,0-.659-.039-1.9-.1h-.507l-2.128-.066h-1.1a1.609,1.609,0,0,1-.794-.179,3.729,3.729,0,0,1-.3-.919c-.066-.293-.113-.486-.149-.624l-.68-.009C244.364,277.286,244.394,277.549,244.418,277.958Zm11.388,10.481a18.485,18.485,0,0,1-2.155-1.4,2.236,2.236,0,0,0-.486.445c-.015.083.051.2.188.412a5.828,5.828,0,0,1,.919,1.48,2.855,2.855,0,0,1-.143,1.176,16.656,16.656,0,0,1-.54,1.811.147.147,0,0,1-.075.107.164.164,0,0,1-.14.027,15.325,15.325,0,0,1-1.713-.4l-3.42-.878c-1.582-.415-2.71-.74-3.438-.976a1.373,1.373,0,0,1-.424-.23,9.289,9.289,0,0,1-.054-1.415,1.342,1.342,0,0,0-.173-.847l-.078-.012-.212-.054c-.045-.006-.119-.03-.209-.048-.03.11-.084.328-.143.68-.164.892-.278,1.442-.313,1.623-.307,1.131-.531,1.919-.7,2.337a15.083,15.083,0,0,0-.492,1.564,2.58,2.58,0,0,1-.081.331,2.263,2.263,0,0,0,.23.09c.045.009.182.03.4.048a3.147,3.147,0,0,0,.278-.436,3.814,3.814,0,0,0,.313-.63,3.43,3.43,0,0,1,.269-.5,2.535,2.535,0,0,1,.967.138l1.179.316,2.862.743,2.641.71,1.229.328a3.1,3.1,0,0,1,.558.191,5.864,5.864,0,0,1-.14.645,17.17,17.17,0,0,1-.555,1.883.518.518,0,0,1-.218.221,4.68,4.68,0,0,1-.827.149,5.567,5.567,0,0,0-1.146.257,3.2,3.2,0,0,0-.042.671,2.663,2.663,0,0,0,.415.155l.457.125.791.221q1.28.313,1.88.475c.039-.113.06-.2.084-.266l.1-.4a2.323,2.323,0,0,0-.224-.158,1.756,1.756,0,0,1-.364-.358l.066-.561.746-2.79.546-2.029.3-1.107.033-.17c.1-.361.209-.773.337-1.245.188-.74.307-1.146.337-1.227a4.26,4.26,0,0,1,.686-.23.669.669,0,0,0,.179-.051l.149-.555C256.331,288.755,256.113,288.626,255.806,288.438Zm-5.088,15.8c-.036-.03-.092-.063-.113-.081a.735.735,0,0,0-.14-.048c-.37.373-.57.564-.63.609a1.21,1.21,0,0,1-.352.173c-.573.039-.9.066-.958.066l-1.621-.027-3.333.024a3.5,3.5,0,0,0-.555.033,2.244,2.244,0,0,1-1.465-.218l-.182-.111c-.051-.036-.221-.14-.513-.325-.307-.176-.833-.543-1.638-1.053-.054-.036-.212-.137-.451-.3.018-.065.03-.143.048-.227l.642-1.635c-.107-.075-.185-.128-.245-.164a1.669,1.669,0,0,0-.248-.143l-.355.534a3.824,3.824,0,0,0-.334.615,1.451,1.451,0,0,1-.2.373l-.409.647-.564.883-.394.561-.615.791-.615.892a1.939,1.939,0,0,0,.218.149.9.9,0,0,0,.179.134.176.176,0,0,0,.194.033,3.365,3.365,0,0,0,.668-.752c.215-.23.337-.385.412-.451a.565.565,0,0,1,.14-.027l2.023,1.274a3.465,3.465,0,0,1,.4.289l.212.131.671.45.242.161a.977.977,0,0,1,.191.3c.188.358.5,1.131.94,2.28l.859,2.017a6.351,6.351,0,0,1,.672,1.785,2.834,2.834,0,0,1-.3,1.083l-.03.122.579.379a1.426,1.426,0,0,1,.128-.23c.161-.284.272-.51.364-.7l.081-.131.242-.382a.788.788,0,0,1,.149-.17l1.122-1.558a4.844,4.844,0,0,0-.609-.319c-.048.048-.116.122-.2.215a2.315,2.315,0,0,1-.254.269,1.529,1.529,0,0,1-.248.316.659.659,0,0,1-.2.131.837.837,0,0,1-.167-.063,1.2,1.2,0,0,1-.242-.358l-.743-1.435-.03-.072c-.376-.848-.639-1.522-.815-2.023l-.615-1.54a3.765,3.765,0,0,1,.561-.024h.376c.09-.006.194-.006.3-.006.06,0,.14,0,.194.006.6.024.931.033,1.015.024.316,0,.645.009.982.009a13.758,13.758,0,0,1,2.447.03l.1.086v.066c-.116.251-.2.43-.266.582l-.155.382a1.969,1.969,0,0,0-.164.5l.388.266a.95.95,0,0,0,.185.059l.042-.059a.93.93,0,0,0,.057-.128,11.5,11.5,0,0,1,.713-1.277c.26-.388.6-.886,1.074-1.507a7.653,7.653,0,0,1,.483-.6l.042-.1a2.386,2.386,0,0,1,.2-.248l.066-.069a4.7,4.7,0,0,0,.576-1.018A2.067,2.067,0,0,1,250.718,304.234Z" transform="translate(-138.301 -217.565)" fill="#fff" fill-rule="evenodd"/>
  </g>
</svg>
