<svg xmlns="http://www.w3.org/2000/svg" width="32.325" height="34.455" viewBox="0 0 32.325 34.455">
  <g id="hu_logo_for_footer" data-name="hu logo for footer" transform="translate(0.35 0.35)">
    <path id="Path_190" data-name="Path 190" d="M173.027,236.4c0-.035,0-.074,0-.107a15.809,15.809,0,0,0-31.613,0v.083c0,.069,0,.137,0,.208v.231a.724.724,0,0,1,0,.1,15.815,15.815,0,0,0,10.926,14.752,2.078,2.078,0,0,0,.433-.781l0-.009,0-.025c.033-.156.073-.322.113-.518l.028-.1c.2-.816.434-1.578.438-1.59.059-.206.109-.364.152-.471a2.784,2.784,0,0,1,.307-.513.811.811,0,0,1,.666-.319,1.093,1.093,0,0,1,.351.058l.218.09-.01-.232a1.616,1.616,0,0,0-.025-.234,10.608,10.608,0,0,1-2.643-.935v-.05A10.591,10.591,0,0,1,154,226.5l-.015-.044a10.646,10.646,0,0,1,8.079.663v.048a10.6,10.6,0,0,1-1.626,19.541l.013.044a10.567,10.567,0,0,1-4.9.366,11.942,11.942,0,0,0-.693,4.52c0,.165-.011.382-.028.619a15.993,15.993,0,0,0,2.393.18,15.807,15.807,0,0,0,15.8-15.521c0-.028,0-.055,0-.083,0-.068.005-.136.005-.208v-.046C173.033,236.514,173.027,236.456,173.027,236.4Z" transform="translate(-141.408 -220.764)" fill="none" stroke="#fff" stroke-width="0.7"/>
    <path id="Path_191" data-name="Path 191" d="M157.351,221.315a15.39,15.39,0,0,0-4.609,30.073,2.482,2.482,0,0,0,.159-.38l0-.009,0-.025c.033-.156.073-.322.113-.518l.028-.1c.2-.816.434-1.578.438-1.591.059-.205.109-.364.152-.471a2.785,2.785,0,0,1,.308-.513.811.811,0,0,1,.666-.319,1.094,1.094,0,0,1,.351.057l.218.09-.01-.232a1.384,1.384,0,0,0-.219-.735l1.014.088,0,.043c-.836,1.1-.975,3.53-.975,4.988,0,.043,0,.1,0,.145a15.562,15.562,0,0,0,2.369.182,15.388,15.388,0,0,0,0-30.776Z" transform="translate(-141.537 -220.893)" fill="none" stroke="#fff" stroke-width="0.5"/>
    <path id="Path_192" data-name="Path 192" d="M147.9,236.952a9.7,9.7,0,1,1,9.7,9.7,9.7,9.7,0,0,1-9.7-9.7" transform="translate(-141.784 -221.139)" fill="none" stroke="#fff" stroke-width="0.3" fill-rule="evenodd"/>
    <path id="Path_193" data-name="Path 193" d="M158.311,259.464c0-1.458.139-3.892.975-4.988l0-.043-1.014-.088a1.384,1.384,0,0,1,.219.735l.01.232-.218-.09a1.094,1.094,0,0,0-.351-.057.811.811,0,0,0-.666.319,2.787,2.787,0,0,0-.308.513c-.043.107-.093.265-.152.471,0,.012-.241.775-.438,1.59l-.028.1c-.04.2-.08.361-.113.518l0,.024Z" transform="translate(-144.864 -228.593)" fill="#fff" fill-rule="evenodd"/>
    <path id="Path_195" data-name="Path 195" d="M149.524,238.36a9.555,9.555,0,1,1,9.555,9.557,9.556,9.556,0,0,1-9.555-9.557" transform="translate(-143.3 -222.639)" fill="none" stroke="#fff" stroke-width="0.3" fill-rule="evenodd"/>
    <g id="Group_214" data-name="Group 214" transform="translate(8.066 6.886)">
      <path id="Path_208" data-name="Path 208" d="M169.588,238.616c-1.248-1.285-1.1-2.137-1.1-2.137a3.1,3.1,0,0,0,1.025,3,3.62,3.62,0,0,1,1.094,2.622c-.65,3.474-2.523,3.953-3.688,3.309a2.563,2.563,0,0,1-.077.62c.78.5,1.89.605,3.2-.987a4.779,4.779,0,0,0-.458-6.428" transform="translate(-155.404 -231.314)" fill="#fff" fill-rule="evenodd"/>
      <path id="Path_196" data-name="Path 196" d="M154.781,234.527a11.217,11.217,0,0,0-2.289,2.062l.812.054s.265-.185.338-.006a.306.306,0,0,1-.11.319l-.584.008.294.2-.416.525.01.832c0,.156.389.377.389.377a3.148,3.148,0,0,0,.792.216c.245-.006,1.1-.133,1.642-.139s.5.577.5.577a1.448,1.448,0,0,0-.706-.281,5.689,5.689,0,0,0-1.64.047,1.365,1.365,0,0,1-.768-.123.9.9,0,0,0,.041,1.308,1.651,1.651,0,0,0,1.734.041,1.392,1.392,0,0,1,1.127,0,3.855,3.855,0,0,1-1.7.608,1.519,1.519,0,0,1-1.765-.668,1.833,1.833,0,0,1,.429-1.428,4.345,4.345,0,0,0-.367-.4c-.09-.065-.122-.583-.167-.719s-.3-.625-.3-.625a.735.735,0,0,1,.026-.924,16.758,16.758,0,0,1,2.4-2.018,1.108,1.108,0,0,1,.544-1.271l1.14-.735a3.354,3.354,0,0,1,3.5-2.62q-2.783.625-2.934,2.745-2.334,1.125-1.973,2.035" transform="translate(-151.926 -229.744)" fill="#fff" fill-rule="evenodd"/>
      <path id="Path_197" data-name="Path 197" d="M158.141,236.049l-1.13-.209a2.659,2.659,0,0,1-.434.976,1.661,1.661,0,0,1,1.436-.471Z" transform="translate(-153.011 -231.165)" fill="#fff" fill-rule="evenodd"/>
      <path id="Path_198" data-name="Path 198" d="M159.489,241.412a7.92,7.92,0,0,0-2.016,6.811,12.292,12.292,0,0,1,1.584-5.432c.174-.339,2.425-3.457,2.425-3.457l-1.42,1.439a7.168,7.168,0,0,1,1.379-2.857c-.211-1.613-.7-2.593-1.485-2.929a4.993,4.993,0,0,1,1.084,3.12,5.046,5.046,0,0,0-1.551,3.306" transform="translate(-153.194 -230.966)" fill="#fff" fill-rule="evenodd"/>
      <path id="Path_199" data-name="Path 199" d="M159.242,232.117l.921-.464q.961-1.692,3.782-1.676-3.592-.392-4.7,2.14" transform="translate(-153.632 -229.786)" fill="#fff" fill-rule="evenodd"/>
      <path id="Path_200" data-name="Path 200" d="M163.5,230.623A7.531,7.531,0,0,1,169,233.9q-1.693-3.71-5.5-3.274" transform="translate(-154.625 -229.938)" fill="#fff" fill-rule="evenodd"/>
      <path id="Path_201" data-name="Path 201" d="M164.05,234.443q.537-2.544-.831-2.8a1.77,1.77,0,0,1,.375,2.314Z" transform="translate(-154.559 -230.187)" fill="#fff" fill-rule="evenodd"/>
      <path id="Path_202" data-name="Path 202" d="M162.15,233.833l-.03-.7-.625.3c.012-1.044.294-1.547.854-1.5q.782.406.406,1.64c-.166.305-.367.389-.606.254" transform="translate(-154.157 -230.255)" fill="#fff" fill-rule="evenodd"/>
      <path id="Path_203" data-name="Path 203" d="M166.069,232.424a4.179,4.179,0,0,1,.352.824s.9-.107,1.92,1.2a3.019,3.019,0,0,0-2.272-2.028" transform="translate(-155.223 -230.369)" fill="#fff" fill-rule="evenodd"/>
      <path id="Path_204" data-name="Path 204" d="M167.184,234.868l-.322-.916a2.4,2.4,0,0,1,1.514,1.377c-.6-.627-1.117-.52-1.192-.46" transform="translate(-155.408 -230.725)" fill="#fff" fill-rule="evenodd"/>
      <path id="Path_205" data-name="Path 205" d="M164.854,232.861a5.5,5.5,0,0,1,1.053,3.232,6.8,6.8,0,0,0,.884,3.717,10.719,10.719,0,0,1-.2-3.869,4.469,4.469,0,0,0-1.738-3.081" transform="translate(-154.94 -230.471)" fill="#fff" fill-rule="evenodd"/>
      <path id="Path_206" data-name="Path 206" d="M167.859,236a5.411,5.411,0,0,1,.117,2.609,4.476,4.476,0,0,0,.462,3.156c.394.762,1.018,1.235,1.294.35a2.785,2.785,0,0,0-.317-2.27,1.763,1.763,0,0,1-.548,2.225,3.81,3.81,0,0,1-.232-2.06,6.026,6.026,0,0,0-.776-4.01" transform="translate(-155.641 -231.202)" fill="#fff" fill-rule="evenodd"/>
      <path id="Path_207" data-name="Path 207" d="M165.718,246.666c.011-.18.02-.4.011-.673-1.487-1.7-.915-4.624-.915-4.624a6.307,6.307,0,0,0,.581,4.908,4.221,4.221,0,0,0,.324.39" transform="translate(-154.869 -232.454)" fill="#fff" fill-rule="evenodd"/>
      <path id="Path_209" data-name="Path 209" d="M167.393,243.116s-.271.232-.12,1.13.183,2.055-.609,1.89c0,0,.321.823.748.485a1.5,1.5,0,0,0,.226-1.659,4.692,4.692,0,0,1-.245-1.847" transform="translate(-155.362 -232.861)" fill="#fff" fill-rule="evenodd"/>
      <path id="Path_210" data-name="Path 210" d="M166.248,245.327s-.24.308-.222,1.507-.067,1.6-.636,1.228c0,0,.119.985.547.784s.648-1.148.535-1.748a3.881,3.881,0,0,1-.224-1.77" transform="translate(-155.065 -233.377)" fill="#fff" fill-rule="evenodd"/>
      <path id="Path_211" data-name="Path 211" d="M164.474,247.3a7.406,7.406,0,0,0-.173,1.393,1.654,1.654,0,0,1-.973,1.644c-.613.155-.794-.375-.7-.737,0,0-.387,1.361.773,1.462.885.071,1.38-1.058,1.248-2.035a10.768,10.768,0,0,1-.171-1.727" transform="translate(-154.406 -233.837)" fill="#fff" fill-rule="evenodd"/>
      <path id="Path_212" data-name="Path 212" d="M162.426,242.326s.552,4.186-1.348,5.946c-.894.829-2.116.6-1.718-1.673,0,0-.785,2.946.934,2.789s2.847-3.681,2.132-7.062" transform="translate(-153.618 -232.677)" fill="#fff" fill-rule="evenodd"/>
      <path id="Path_213" data-name="Path 213" d="M159.126,247.957a3.543,3.543,0,0,0-.216,3.136.832.832,0,0,0,1.12.233.927.927,0,0,1-1.643-.189,3.468,3.468,0,0,1,.74-3.18" transform="translate(-153.394 -233.99)" fill="#fff" fill-rule="evenodd"/>
      <path id="Path_214" data-name="Path 214" d="M164.985,236.626s1.525,3.223.074,5.913a6.358,6.358,0,0,0-.194-5.021s.005-.094-.133.075c-.109.142-.29.442-.434.166s.546-1.415.688-1.133" transform="translate(-154.806 -231.338)" fill="#fff" fill-rule="evenodd"/>
      <path id="Path_215" data-name="Path 215" d="M170.018,235.174s1.4,1.15,1.633,4.675a6.643,6.643,0,0,0-1.5-3.7,3.051,3.051,0,0,0,.258,1.531c.11.1.185-.469.123-.794.3.671.322,1.2.1,1.288s-.862-1.042-.618-3" transform="translate(-156.131 -231.01)" fill="#fff" fill-rule="evenodd"/>
      <path id="Path_216" data-name="Path 216" d="M161.115,246.856a5.657,5.657,0,0,0,.514-.61,2.886,2.886,0,0,1-.738,2.438,2.772,2.772,0,0,0,.224-1.828" transform="translate(-154.016 -233.591)" fill="#fff" fill-rule="evenodd"/>
      <path id="Path_217" data-name="Path 217" d="M160.511,244.072c.084-.173.837-.527,1.186-.054.135.229-1.052,2.088-2.822,2.85a6.8,6.8,0,0,0,1.98-2.079c.292-.517-.525-.363-.344-.717" transform="translate(-153.546 -233.017)" fill="#fff" fill-rule="evenodd"/>
    </g>
    <path id="Path_218" data-name="Path 218" d="M166.653,260.66c.233-.094.273.02-.077.153a12.484,12.484,0,0,1-6.981.324,32.874,32.874,0,0,1-4.894-1.371l.216-.473s11.458,1.482,11.736,1.367" transform="translate(-144.507 -229.746)" fill="#fff" fill-rule="evenodd"/>
    <path id="Path_219" data-name="Path 219" d="M155.755,254.377l.148-.344c.229.11,2.44,1.194,3.627,1.6a22.339,22.339,0,0,0,6.592,1.449,13.352,13.352,0,0,0,2.406-.2,9.11,9.11,0,0,0,1.844-.54,4.772,4.772,0,0,0,1.273-1.159c.146-.186.267-.3.275-.2.165,1.511-1.611,2.533-4.1,2.857-2.531.329-4.954-.824-7.307-1.355a12.04,12.04,0,0,1-4.755-2.109" transform="translate(-144.753 -228.52)" fill="#fff" fill-rule="evenodd"/>
    <path id="Path_220" data-name="Path 220" d="M155.755,254.5l.176-.281c.231.107,2.412,1.128,3.6,1.537a22.335,22.335,0,0,0,6.592,1.448,13.023,13.023,0,0,0,2.406-.2,8.667,8.667,0,0,0,2.512-.852c.111-.038-.026.118-.079.165a7.439,7.439,0,0,1-3.24,1.2c-2.534.324-4.857-.375-7.211-.912a12.007,12.007,0,0,1-4.755-2.105" transform="translate(-144.753 -228.564)" fill="#e9e9e9" fill-rule="evenodd"/>
    <path id="Path_221" data-name="Path 221" d="M169.241,257.214l.179.271s.073.084-.571.61a10.433,10.433,0,0,1-2.3,1.518,12.25,12.25,0,0,1-6.942.123,26.914,26.914,0,0,1-4.85-1.527l1.083-3.529a33.962,33.962,0,0,0,3.357,1.514,18.8,18.8,0,0,0,6.683,1.413,10.8,10.8,0,0,0,3.359-.394" transform="translate(-144.521 -228.671)" fill="#fff" fill-rule="evenodd"/>
    <path id="Path_222" data-name="Path 222" d="M159.181,256.877A19.066,19.066,0,0,0,166,258.314a8.582,8.582,0,0,0,3.127-.335,10.505,10.505,0,0,1-2.725,1.8,12.881,12.881,0,0,1-6.671.033,33.931,33.931,0,0,1-4.436-1.35l.908-2.91a26.14,26.14,0,0,0,2.975,1.331" transform="translate(-144.646 -228.873)" fill="#fff" stroke="#e9e9e9" stroke-width="1" fill-rule="evenodd"/>
    <path id="Path_223" data-name="Path 223" d="M164.573,253.729s-1.494.805-1.452,5.568a6.42,6.42,0,0,0,.5,2.8l-2.363-1.51-2.337,1.518s.254-1.982.254-2.789.033-4.261,1.194-5.132a.152.152,0,0,1,.131-.043,9.343,9.343,0,0,0,4.077-.416" transform="translate(-145.49 -228.449)" fill="#fff" fill-rule="evenodd"/>
    <path id="Path_224" data-name="Path 224" d="M158.575,262.489l.035-.464c.006-.055.248-1.981.248-2.769,0-1.619.167-4.447,1.275-5.3a.386.386,0,0,1,.265-.1h.041l.074.009c.227.019.615.054,1.1.054a8,8,0,0,0,2.8-.462l.188.415c-.01.007-1.5.735-1.481,5.244a4.841,4.841,0,0,0,.375,2.535l.3.824-2.619-1.672Zm2.6-2.04,2.061,1.224a5.044,5.044,0,0,1-.427-2.437c-.021-2.9.52-4.385.98-5.112a9.318,9.318,0,0,1-2.176.246h0c-.506,0-.9-.036-1.143-.054l-.052-.007c-.689.525-1.092,2.373-1.2,4.941-.039.936-.16,1.24-.274,2.61Z" transform="translate(-145.41 -228.384)" fill="#fff"/>
    <path id="Path_225" data-name="Path 225" d="M161.464,260.025l-1.584,1.05.009-.109a7.95,7.95,0,0,0,.114-1.494c0-2.525.4-4.3,1.122-5.015l.07.073c-.7.689-1.092,2.446-1.092,4.942a7.02,7.02,0,0,1-.1,1.4l1.465-.965L163,260.922c-.262-.717-.38-.664-.372-1.469a12.884,12.884,0,0,1,.83-5.072l.09.045a11.9,11.9,0,0,0-.813,5.028,6.105,6.105,0,0,0,.492,1.886Z" transform="translate(-145.714 -228.601)" fill="#fff"/>
    <path id="Path_226" data-name="Path 226" d="M155.314,258.524c.039-.173.077-.35.121-.524a.354.354,0,0,1,.025-.106c.2-.831.44-1.6.44-1.6.056-.195.11-.37.156-.489a3.44,3.44,0,0,1,.326-.548,1.067,1.067,0,0,1,1.195-.307c-.025-.771-.584-1.217-1.458-1.146s-1.176,1.055-1.188,1.52-.551.729-.844.942-.665.242-.857.457.261.617.709.451l.352-.134a2.747,2.747,0,0,1-.412,1.16.886.886,0,0,1-.934.239s-.081,1.268,1.1,1.232a1.423,1.423,0,0,0,1.271-1.14v-.012" transform="translate(-144.098 -228.466)" fill="#fff" fill-rule="evenodd"/>
    <path id="Path_227" data-name="Path 227" d="M153.948,259.781h0a1.129,1.129,0,0,1-.854-.332,1.547,1.547,0,0,1-.343-1.063l.011-.2.189.06a.911.911,0,0,0,.263.039.591.591,0,0,0,.5-.224,2.239,2.239,0,0,0,.334-.83l-.1.039a.793.793,0,0,1-.274.051.732.732,0,0,1-.66-.377.334.334,0,0,1,.051-.37,1.311,1.311,0,0,1,.5-.291,1.931,1.931,0,0,0,.392-.192c.044-.036.1-.067.16-.108.271-.18.6-.4.613-.713.018-.509.367-1.584,1.329-1.666.063,0,.13-.008.19-.008a1.3,1.3,0,0,1,1.435,1.3l.01.232-.218-.09a1.093,1.093,0,0,0-.351-.058.811.811,0,0,0-.666.319,2.784,2.784,0,0,0-.307.513c-.043.107-.093.265-.153.471,0,.012-.24.774-.437,1.59l-.028.1c-.04.2-.08.361-.113.518l0,.025,0,.009A1.554,1.554,0,0,1,154,259.781Zm-.889-1.2a1.137,1.137,0,0,0,.258.659.819.819,0,0,0,.63.235h.044a1.277,1.277,0,0,0,1.13-1.013v-.015c.034-.162.072-.328.117-.521a.529.529,0,0,1,.03-.132c.2-.818.439-1.581.44-1.589.062-.214.114-.383.16-.5l.005-.01a3.209,3.209,0,0,1,.344-.575,1.122,1.122,0,0,1,.906-.434,1.285,1.285,0,0,1,.236.02,1.011,1.011,0,0,0-1.112-.8c-.048,0-.107,0-.165,0-.762.066-1.035.954-1.051,1.375-.009.464-.436.746-.748.955-.06.035-.108.071-.156.1a1.954,1.954,0,0,1-.456.226,1.08,1.08,0,0,0-.38.214s-.009.012,0,.041a.448.448,0,0,0,.383.2.488.488,0,0,0,.165-.03l.583-.228-.029.246a2.954,2.954,0,0,1-.44,1.238.9.9,0,0,1-.741.346A.794.794,0,0,1,153.06,258.581Z" transform="translate(-144.052 -228.42)" fill="#fff"/>
    <g id="Group_215" data-name="Group 215" transform="translate(14.765 26.51)">
      <path id="Path_228" data-name="Path 228" d="M161.738,256.405l-.314-.113v-.959h.047a4.213,4.213,0,0,0,.628.6.807.807,0,0,0,.446.173.355.355,0,0,0,.254-.1.3.3,0,0,0,.1-.224.381.381,0,0,0-.067-.216.46.46,0,0,0-.208-.144v-.04a.533.533,0,0,1,.339.153.418.418,0,0,1,.119.31.459.459,0,0,1-.125.327.4.4,0,0,1-.3.134.578.578,0,0,1-.242-.058,1.61,1.61,0,0,1-.413-.287c-.217-.2-.344-.319-.392-.373v.425a.911.911,0,0,0,.012.181.281.281,0,0,0,.037.094.244.244,0,0,0,.087.071Z" transform="translate(-160.84 -255.333)" fill="#225a93" stroke="#225a93" stroke-width="0.3"/>
      <path id="Path_229" data-name="Path 229" d="M161.952,257.018a1.249,1.249,0,0,1,.477.087.7.7,0,0,1,.3.223.4.4,0,0,1,.079.223.435.435,0,0,1-.192.336,1.023,1.023,0,0,1-.643.182,1.32,1.32,0,0,1-.478-.077.608.608,0,0,1-.283-.209.413.413,0,0,1-.093-.245.444.444,0,0,1,.273-.383A1.132,1.132,0,0,1,161.952,257.018Zm-.031.236a1.52,1.52,0,0,0-.546.083c-.121.047-.181.112-.181.2a.2.2,0,0,0,.06.132.35.35,0,0,0,.195.107,2.321,2.321,0,0,0,.58.055,1.574,1.574,0,0,0,.463-.057.425.425,0,0,0,.195-.113.179.179,0,0,0,.041-.117.19.19,0,0,0-.074-.146.621.621,0,0,0-.315-.117A2.693,2.693,0,0,0,161.92,257.254Z" transform="translate(-160.768 -255.726)" fill="#225a93" stroke="#225a93" stroke-width="0.3"/>
      <path id="Path_230" data-name="Path 230" d="M162.5,258.836l.192.4v.038H161.32a.683.683,0,0,0-.168.012.086.086,0,0,0-.054.048.354.354,0,0,0-.018.146h-.045v-.61h.045a.36.36,0,0,0,.018.148.111.111,0,0,0,.045.045.625.625,0,0,0,.176.012h.879a1.329,1.329,0,0,0,.227-.011.092.092,0,0,0,.056-.03.107.107,0,0,0,.018-.053.274.274,0,0,0-.04-.121Z" transform="translate(-160.749 -256.15)" fill="#225a93" stroke="#225a93" stroke-width="0.3"/>
      <path id="Path_231" data-name="Path 231" d="M161.264,261.112h-.173v-.219h-.429v-.2h.429v-.687h.154l1.074.751v.133h-1.056Zm0-.416h.8l-.8-.57Z" transform="translate(-160.662 -256.423)" fill="#225a93" stroke="#225a93" stroke-width="0.3"/>
    </g>
    <path id="Path_232" data-name="Path 232" d="M148.581,244.375a1.231,1.231,0,0,1-.156.071l-.19-.238c-.027-.028-.06-.06-.1-.1l-.538.265c-.184.107-.321.191-.417.241l-.051.026c-.06.026-.2.107-.436.234l-.053.038-.181.088-.179.109-.09.052a2.712,2.712,0,0,0-.275.173.336.336,0,0,0-.044.046.343.343,0,0,0,.011.042c.008.011.012.031.02.042a1.659,1.659,0,0,0,.076.189l.008.038a.617.617,0,0,1,.033.094.349.349,0,0,1-.077.046.182.182,0,0,1-.075.026c-.018-.023-.044-.064-.073-.111s-.048-.087-.06-.1c-.074-.182-.138-.314-.181-.4-.025-.037-.04-.075-.063-.115a.955.955,0,0,0-.054-.105c-.024-.047-.091-.156-.206-.327a.476.476,0,0,1-.061-.09,1.314,1.314,0,0,1-.068-.134.359.359,0,0,0,.061-.039c.027-.009.056-.024.094-.038l.264.342a.071.071,0,0,0,.084.01l.073-.047.037-.021.09-.048.073-.038.016-.007a.055.055,0,0,1,.036-.024l.266-.146a.636.636,0,0,1,.057-.035l.066-.034a.638.638,0,0,0,.073-.035c.021-.015.07-.044.144-.087-.014-.042-.029-.08-.038-.106l-.171-.315-.085-.15-.2-.38-.214-.361a.848.848,0,0,0-.1-.143c-.049.024-.166.085-.354.186l-.1.046-.35.208-.132.1a.076.076,0,0,0-.014.047,1.556,1.556,0,0,0,.065.336.713.713,0,0,1,.019.087.508.508,0,0,1-.128.05.18.18,0,0,1-.033-.054l-.111-.2a3.022,3.022,0,0,0-.193-.407c-.015-.032-.03-.054-.04-.074l-.162-.267a.3.3,0,0,0-.042-.067.8.8,0,0,1-.1-.146c-.021-.041-.044-.087-.071-.147a1.286,1.286,0,0,1,.151-.074c.1.113.165.189.194.219a.787.787,0,0,0,.12.09l.044-.011.043-.019.048-.031.031-.013a.59.59,0,0,0,.069-.029l.053-.03c.059-.035.1-.057.1-.063l.265-.147.2-.114.269-.143c.065-.031.186-.1.372-.212l.3-.169.246-.136c.047-.029.1-.055.169-.09a.509.509,0,0,0-.025-.094,1.74,1.74,0,0,1-.077-.343l.147-.088c.03.056.05.088.054.1a2.253,2.253,0,0,1,.117.236,5.578,5.578,0,0,0,.288.561,4.409,4.409,0,0,0,.271.429.244.244,0,0,1,.028.079.638.638,0,0,1-.15.059l-.125-.14-.116-.15c-.015-.012-.031-.03-.056-.053a6.042,6.042,0,0,0-.574.29l-.184.088a2.265,2.265,0,0,1-.255.166,1.541,1.541,0,0,0,.081.169l.533.979.008.023,0,.013a.236.236,0,0,1,.021.033c.021.034.038.067.056.092l.03.059a.324.324,0,0,0,.066.081l.162-.077.027-.013a.5.5,0,0,1,.07-.045l.649-.36c.035-.021.072-.044.107-.067l0-.025-.124-.341c-.007-.018-.008-.031-.011-.038a.122.122,0,0,1,0-.059c.027-.023.048-.037.058-.045l.081-.032c.028.053.052.093.073.129s.031.062.046.086a.283.283,0,0,1,.015.039l.156.3c.033.073.083.173.152.3l.028.047c.038.057.057.089.063.1C148.4,244.059,148.476,244.19,148.581,244.375Zm-2.024-3.853a2.074,2.074,0,0,0-.081-.326l-.035-.093c-.032-.377-.057-.61-.069-.709a.276.276,0,0,0-.058.005c-.023.005-.06.01-.116.021v.173a.447.447,0,0,1-.028.219.11.11,0,0,1-.084.047.526.526,0,0,1-.176-.02c-.31-.058-.506-.1-.59-.12l-.14-.9.436-.26.215-.132a.19.19,0,0,1,.064-.021.08.08,0,0,1,.056.015.438.438,0,0,1,.067.13l.1.254a.91.91,0,0,0,.16-.018l-.023-.115-.083-.4c-.013-.055-.031-.146-.049-.268s-.031-.238-.045-.384-.024-.271-.041-.387a.359.359,0,0,0-.055.005c-.023,0-.064.015-.115.03a.93.93,0,0,0-.018.219.312.312,0,0,1-.028.147.406.406,0,0,1-.105.091,2.754,2.754,0,0,1-.284.174c-.14.081-.243.141-.31.183-.117.074-.267.165-.449.268s-.371.22-.561.344l-.909.565-.041.028.013.108c.01.048.018.1.028.151l1.561.327,1.327.277a.435.435,0,0,1,.152.078.683.683,0,0,1,.094.211c.028.071.05.123.063.15l.166-.021Zm-1.5-.855c-.054-.371-.086-.586-.1-.653l-.01-.058c-.137.068-.288.155-.465.26s-.3.19-.4.254Zm1.04-3.3c.02-.239.041-.441.067-.612l.067-.4a2.95,2.95,0,0,0,.031-.406,1.727,1.727,0,0,0-.064-.437.868.868,0,0,0-.181-.313.572.572,0,0,0-.215-.179.966.966,0,0,0-.32-.105.7.7,0,0,0-.5.117.976.976,0,0,0-.373.506,1.894,1.894,0,0,0-.116-.327.716.716,0,0,0-.18-.225.584.584,0,0,0-.252-.1.862.862,0,0,0-.253.008.557.557,0,0,0-.229.107.585.585,0,0,0-.184.184.927.927,0,0,0-.107.183,1.59,1.59,0,0,0-.111.386l-.021.151c-.014.068-.015.109-.019.124s0,.04,0,.058l-.012.092-.084.779-.064.533.169.018c.035-.122.056-.2.063-.229a.274.274,0,0,1,.048-.137c.011-.009.015-.018.026-.019a.646.646,0,0,1,.224.008c.445.052.718.085.825.1l1.01.137a2.467,2.467,0,0,1,.387.075.428.428,0,0,1,.1.056,1.206,1.206,0,0,1,.025.257c0,.054,0,.1,0,.139l.191.035C146.077,236.624,146.094,236.441,146.1,236.372Zm-1.7-.794a2.089,2.089,0,0,0,.044-.223.915.915,0,0,0-.056-.559.534.534,0,0,0-.428-.245.5.5,0,0,0-.406.119.793.793,0,0,0-.226.5c0,.067-.01.16-.01.265.038.008.088.015.157.022.137.011.323.035.568.067l.2.037A1.291,1.291,0,0,1,144.4,235.578Zm1.516.181a.761.761,0,0,0,.105-.279.991.991,0,0,0-.02-.452.552.552,0,0,0-.191-.282.857.857,0,0,0-.357-.131.751.751,0,0,0-.38.033.612.612,0,0,0-.3.253,1.393,1.393,0,0,0-.133.5.5.5,0,0,0-.008.21l.291.038.35.056.547.069A.314.314,0,0,0,145.914,235.759Zm.783-2.465c.048-.153.086-.272.114-.352l.168-.391c.087-.17.136-.263.148-.283a.3.3,0,0,0,.029-.056.635.635,0,0,1,.028-.082.207.207,0,0,1,.018-.048.413.413,0,0,0-.077-.031.51.51,0,0,0-.114-.037c-.042.072-.067.117-.075.126a1.335,1.335,0,0,1-.14.233.109.109,0,0,1-.051-.014l-.084-.033-.446-.179-.294-.123-.587-.235c-.137-.054-.327-.133-.576-.239-.042-.012-.1-.031-.16-.056a.988.988,0,0,1-.159-.083,1.168,1.168,0,0,1,.021-.211c.011-.083.02-.159.023-.227-.038-.018-.073-.033-.1-.046l-.071-.023c-.01.029-.032.1-.069.2-.065.2-.116.345-.152.429-.008.02-.031.069-.066.146l-.28.624.195.074c.011-.018.022-.046.036-.074a1.042,1.042,0,0,1,.176-.278.517.517,0,0,1,.08.015l.1.033.258.1.115.053.294.117.449.2.123.046.5.208.262.107a.381.381,0,0,1,.172.115.927.927,0,0,1-.011.248c-.012.075-.018.131-.024.163l.164.065C146.647,233.464,146.667,233.4,146.7,233.294Zm1.008-2.206c.13-.2.242-.373.346-.512l.246-.322a2.65,2.65,0,0,0,.22-.347,1.908,1.908,0,0,0,.149-.41,1.028,1.028,0,0,0-.012-.366.658.658,0,0,0-.107-.258,1.22,1.22,0,0,0-.232-.244.711.711,0,0,0-.5-.13,1.012,1.012,0,0,0-.567.272,2.6,2.6,0,0,0,.056-.345.685.685,0,0,0-.058-.283.586.586,0,0,0-.176-.207.719.719,0,0,0-.227-.111.63.63,0,0,0-.25-.018.777.777,0,0,0-.25.081,1.5,1.5,0,0,0-.179.111,1.405,1.405,0,0,0-.275.287l-.091.125c-.043.054-.065.088-.077.1a.189.189,0,0,0-.033.047l-.052.077-.442.646-.305.442.142.1.163-.176a.3.3,0,0,1,.106-.1.048.048,0,0,1,.036-.006,1.18,1.18,0,0,1,.193.111c.366.254.594.411.675.475l.831.594a3.57,3.57,0,0,1,.308.251.384.384,0,0,1,.061.1.915.915,0,0,1-.1.238l-.06.128.153.115C147.565,231.3,147.67,231.141,147.7,231.088Zm-1.131-1.5a1.506,1.506,0,0,0,.143-.176.962.962,0,0,0,.214-.519.526.526,0,0,0-.264-.417.493.493,0,0,0-.411-.086.784.784,0,0,0-.435.334c-.038.058-.083.135-.134.233.031.024.073.05.127.09.115.074.273.18.466.325l.162.123C146.473,229.512,146.514,229.541,146.574,229.584Zm1.255.874a.725.725,0,0,0,.222-.2,1.009,1.009,0,0,0,.2-.407.514.514,0,0,0-.039-.341.773.773,0,0,0-.255-.283.678.678,0,0,0-.35-.147.6.6,0,0,0-.379.084,1.512,1.512,0,0,0-.35.373.665.665,0,0,0-.106.181l.238.173.287.213.449.317A.218.218,0,0,0,147.829,230.458Zm2.482-5.958c.172-.068.283-.086.335-.055a1.435,1.435,0,0,1,.225.4l.461,1.044a3.243,3.243,0,0,0,.239.452.939.939,0,0,0,.342.308.927.927,0,0,0,.473.074,1.741,1.741,0,0,0,.623-.167,1.932,1.932,0,0,0,.489-.3,1.207,1.207,0,0,0,.3-.338.9.9,0,0,0,.119-.347.773.773,0,0,0-.018-.275,4.313,4.313,0,0,0-.236-.612l-.219-.436c-.051-.108-.1-.212-.153-.314a.462.462,0,0,1-.044-.09c-.013-.028-.035-.069-.054-.121-.04-.089-.073-.151-.092-.187a.7.7,0,0,1-.058-.112.1.1,0,0,1-.007-.093.74.74,0,0,1,.15-.1.92.92,0,0,0,.16-.1.156.156,0,0,0-.02-.062.32.32,0,0,0-.055-.094l-.039.011a3.765,3.765,0,0,1-.4.2l-.425.167-.173.076.07.171.032-.007.2-.1a.27.27,0,0,1,.193,0c.038.015.077.067.122.152l.061.108c.237.427.433.814.585,1.167a1.91,1.91,0,0,1,.162.468,1.042,1.042,0,0,1-.012.275.426.426,0,0,1-.077.183.7.7,0,0,1-.155.191,1.7,1.7,0,0,1-.369.228.856.856,0,0,1-.4.069.552.552,0,0,1-.279-.094.934.934,0,0,1-.283-.35l-.271-.534-.161-.385-.089-.17-.087-.207-.039-.079c-.015-.027-.032-.064-.053-.11a.857.857,0,0,1-.093-.273c.013-.042.06-.085.144-.121a1.833,1.833,0,0,0,.245-.129l0-.017-.062-.127-.015-.029a1.44,1.44,0,0,1-.172.081c-.086.04-.182.088-.291.144s-.225.107-.34.157c-.035.015-.15.062-.347.136l-.235.1c-.026.015-.052.027-.081.041l.086.169A.452.452,0,0,0,150.311,224.5Zm4.985-1.732a.549.549,0,0,1,.191.12.228.228,0,0,1,.058.1,1.312,1.312,0,0,1,.048.383l.027.486.022.777,0,.136c0,.053.006.209,0,.464,0,.086-.007.14-.035.162a.546.546,0,0,1-.236.039c-.055,0-.083,0-.094,0a.718.718,0,0,0-.111.013v.089c0,.028.007.059.007.1a.408.408,0,0,0,.084.007l.137-.013c.085-.008.255-.022.508-.035.272.018.436.026.486.021l.094-.006-.018-.2a.508.508,0,0,0-.064-.014,1.875,1.875,0,0,1-.407-.037l-.032-.072a.641.641,0,0,1-.012-.089c-.02-.153-.035-.293-.045-.423l-.026-.312,0-.169c0-.058,0-.111-.005-.166l-.056-.89.4.34c.166.138.35.3.554.486l.309.3.419.393.6.556.3.286.273-.019-.006-.129c0-.012-.005-.051-.014-.116l0-.129-.013-.127-.01-.292a.954.954,0,0,0-.008-.13l-.056-.839c0-.055-.009-.1-.012-.144-.017-.135-.028-.319-.039-.55,0-.107-.008-.172-.008-.2-.008-.059-.011-.091-.011-.1a.15.15,0,0,1,.019-.09,1.315,1.315,0,0,1,.125-.089.991.991,0,0,1,.176-.056.338.338,0,0,0,.109-.048l-.009-.156c-.031,0-.061,0-.1.006l-.518.034-.472.028-.057.011v.142a.73.73,0,0,0,.2.048.447.447,0,0,1,.237.073c.023.021.034.082.039.186,0,.034.018.153.041.36a3.135,3.135,0,0,1,.027.359c.011.132.02.246.029.34s.021.225.031.388l.019.277,0,.06c-1.009-.935-1.592-1.478-1.753-1.635s-.37-.344-.623-.559c-.031,0-.058,0-.074,0l-.148.012c-.085.007-.133.008-.146.011a.433.433,0,0,1-.054,0c-.1,0-.146,0-.169,0s-.105.005-.2.014l-.067,0-.209.008.018.168A1.7,1.7,0,0,1,155.3,222.769Zm4.468,2.951c.161.025.281.046.365.064l.412.107c.18.061.278.1.3.11a.343.343,0,0,0,.059.021s.041.006.088.018a.234.234,0,0,1,.044.009c.011-.035.018-.06.025-.079a.987.987,0,0,0,.017-.117c-.075-.032-.122-.05-.133-.058a1.739,1.739,0,0,1-.253-.1.16.16,0,0,1,.008-.054l.022-.09.112-.466.083-.309.152-.616c.033-.142.087-.341.157-.6.006-.044.019-.1.033-.167a1.016,1.016,0,0,1,.056-.173c.055,0,.129-.008.213,0s.162,0,.229-.007c.012-.044.021-.077.028-.1s.012-.044.016-.072c-.031-.008-.1-.02-.215-.039-.206-.04-.354-.068-.445-.091l-.155-.044-.655-.195-.045.2a.368.368,0,0,0,.078.027.949.949,0,0,1,.3.136.494.494,0,0,1,0,.077l-.025.1-.056.268-.037.122-.077.31c0,.01-.044.167-.13.473l-.03.124-.133.528-.068.278a.447.447,0,0,1-.091.188.969.969,0,0,1-.25.025c-.071,0-.127,0-.162,0l-.042.167Zm3.077-2.193a.813.813,0,0,1,.168.134.275.275,0,0,1,.042.12c0,.025-.005.2-.025.529l-.064.7-.08,1.11c-.036.319-.057.5-.068.554s-.015.1-.021.153a.925.925,0,0,0,.114.063.647.647,0,0,0,.106.053q.107-.09.36-.34l.042-.027c.133-.117.214-.183.233-.2.078-.072.158-.138.225-.2s.139-.114.2-.171l.645-.555a6.173,6.173,0,0,1,.545-.442.321.321,0,0,1,.1-.04,2.325,2.325,0,0,1,.391.038.391.391,0,0,0,.04-.078l.041-.068c-.054-.025-.127-.055-.213-.09a2.611,2.611,0,0,1-.31-.141c-.116-.064-.229-.13-.344-.207s-.187-.12-.209-.133a.828.828,0,0,0-.061.094.246.246,0,0,0-.021.074c.021.017.051.033.079.055a.425.425,0,0,1,.071.053.459.459,0,0,1,.169.166.09.09,0,0,1,.007.092.567.567,0,0,1-.122.141q-.087.082-.246.235c-.032.036-.053.058-.073.076l-.143.117-.619.562-.286.238c.015-.114.026-.238.034-.37l.052-.673a6.015,6.015,0,0,1,.064-.718l.032-.219a.092.092,0,0,1,.02-.051.083.083,0,0,1,.048-.042.321.321,0,0,1,.176.008c.025.005.115.038.263.094.008-.012.035-.073.087-.175l-.152-.083c-.052-.018-.127-.048-.223-.09-.133-.059-.219-.1-.26-.125a6.668,6.668,0,0,1-.671-.393c-.017-.008-.059-.035-.128-.075l-.1.184Zm3.845,2.239c.027.029.044.059.069.082a1.551,1.551,0,0,1,.158.213c.014.023.03.046.038.061a.111.111,0,0,1,.025.075.355.355,0,0,0-.029.038l-.2.218-.2.187-.265.275-.2.186-.646.632-.05.05c-.051.048-.083.081-.1.1a.5.5,0,0,1-.145.1,1.42,1.42,0,0,1-.292-.195,1.617,1.617,0,0,0-.149-.113l-.118.119.209.2.068.071c.209.19.376.353.511.492.265.275.492.515.671.721.259.291.423.465.482.533l.177.172.226-.16.385-.252.066-.038a.757.757,0,0,1,.081-.064.669.669,0,0,0-.058-.055.582.582,0,0,0-.09-.084,1.214,1.214,0,0,1-.508.118.574.574,0,0,1-.314-.1,2.843,2.843,0,0,1-.43-.373,1.956,1.956,0,0,1-.383-.468.133.133,0,0,1,.043-.137l.372-.354c.094-.089.208-.2.341-.33a.485.485,0,0,1,.059-.057c.1.077.225.2.394.376a2.027,2.027,0,0,1,.235.268.171.171,0,0,1,.019.113.982.982,0,0,1-.143.256,1.559,1.559,0,0,0-.086.132l.119.124.037-.035c.035-.035.087-.084.145-.152s.114-.123.145-.15.051-.048.084-.077.116-.108.235-.223c.053-.051.131-.127.228-.234l-.1-.1-.027-.024a2.383,2.383,0,0,1-.31.185.236.236,0,0,1-.127.018.546.546,0,0,1-.19-.13c-.089-.08-.239-.222-.433-.425-.021-.021-.042-.049-.067-.081l.215-.208.291-.275c.2-.192.309-.3.336-.33.11.108.233.231.369.371.12.12.227.241.321.356.054.067.085.1.094.115a.633.633,0,0,1,.094.124,1.125,1.125,0,0,1-.052.263l-.056.191c-.026.063-.048.109-.061.142.024.032.044.051.051.064l.072.067a.384.384,0,0,0,.033-.028l.069-.072.356-.346a.167.167,0,0,0,.058-.117,2.5,2.5,0,0,0-.271-.335l-.3-.31c-.2-.211-.428-.434-.689-.682-.172-.166-.275-.268-.314-.311a2.948,2.948,0,0,1-.288-.334c-.038-.055-.091-.115-.15-.187Zm.563,4.785a.715.715,0,0,0-.073.04l.054.093a2.5,2.5,0,0,0,.128.238l.169.288c.008.015.021.043.041.081.028.056.1.245.224.567l.046.089c0,.008.011.025.025.052a1.188,1.188,0,0,0,.167-.069,2.042,2.042,0,0,0-.063-.331.605.605,0,0,1-.021-.185l.413-.183.472-.245a1.208,1.208,0,0,1,.15-.065c.035.066.061.116.077.144a.468.468,0,0,1,.064.243,1.036,1.036,0,0,1-.165.268c-.229.3-.4.518-.506.648-.04.051-.1.133-.177.246l-.107.137c.013.027.031.055.054.093.051.082.077.13.085.144l.106.218c.031.067.058.126.077.176l.041.085.04.119.027.043.023.057a.173.173,0,0,0,.053-.022.2.2,0,0,0,.057-.043.722.722,0,0,0,0-.183.724.724,0,0,1,0-.2,2.151,2.151,0,0,1,.176-.3l.391-.616c.041-.063.092-.149.145-.249.029-.049.054-.088.077-.121a.91.91,0,0,0,.476.3.692.692,0,0,0,.459-.051.745.745,0,0,0,.391-.512,1.139,1.139,0,0,0-.117-.811,5.671,5.671,0,0,0-.284-.521l-.144-.261-.06-.112c-.006-.008-.028-.067-.073-.175s-.084-.166-.1-.2a1.3,1.3,0,0,0-.113-.193l-.028,0-.127.065c.013.042.047.124.092.245l.035.137c-.08.045-.269.143-.566.288-.137.067-.281.136-.439.209l-.119.051-.2.1-.261.119-.475.237c-.12.057-.189.09-.209.1s-.037.007-.071.015a1.139,1.139,0,0,1-.143-.176.448.448,0,0,0-.127-.143A.327.327,0,0,0,167.249,230.551Zm1.936.264c.028.073.051.12.066.153a.874.874,0,0,0,.386.457.479.479,0,0,0,.426-.018.893.893,0,0,0,.231-.16.523.523,0,0,0,.137-.181.644.644,0,0,0,.026-.271,1.22,1.22,0,0,0-.119-.32.812.812,0,0,0-.1-.163l-.04.015-.285.145-.183.08-.233.118c-.067.028-.151.068-.259.116Zm2.811,3.9a1.777,1.777,0,0,0-.026-.342,1.1,1.1,0,0,0-.416-.741.876.876,0,0,0-.684-.143.975.975,0,0,0-.37.171.839.839,0,0,0-.271.328,2.541,2.541,0,0,0-.156.653,2.1,2.1,0,0,1-.14.58.463.463,0,0,1-.292.224.484.484,0,0,1-.283-.044.506.506,0,0,1-.223-.211.871.871,0,0,1-.113-.271.728.728,0,0,1,0-.273.559.559,0,0,1,.073-.234.953.953,0,0,1,.162-.2,3.167,3.167,0,0,1,.291-.208l-.046-.216-.091.017-.215.045c-.194.046-.3.07-.321.071l-.025.008c-.021.01-.037.019-.039.03a.519.519,0,0,0-.03.16l-.03.3a2.17,2.17,0,0,0,.03.4,1.469,1.469,0,0,0,.123.4,1.194,1.194,0,0,0,.2.281,1.547,1.547,0,0,0,.21.189.665.665,0,0,0,.242.1,1.206,1.206,0,0,0,.452,0,.97.97,0,0,0,.327-.118.944.944,0,0,0,.244-.245,1.028,1.028,0,0,0,.144-.351,2.194,2.194,0,0,0,.064-.373,1.383,1.383,0,0,1,.156-.614.444.444,0,0,1,.266-.191.393.393,0,0,1,.324.077.556.556,0,0,1,.2.344.573.573,0,0,1-.112.46,1.267,1.267,0,0,1-.378.288v.028l.025.173.01.022a.476.476,0,0,0,.09-.005,3.46,3.46,0,0,0,.375-.1c.1-.036.182-.066.234-.091A3.006,3.006,0,0,0,172,234.713Zm-2.954,1.946c.015.163.018.287.018.37l-.013.425c-.023.191-.035.3-.036.32s-.011.052-.011.06,0,.038,0,.092v.045c.037,0,.063.008.081.008.033,0,.075,0,.12-.008a1.42,1.42,0,0,0,.022-.148,2.7,2.7,0,0,1,.048-.267l.054,0h.093l.481.007.318.011.635.008c.144,0,.352.008.623.019a1.351,1.351,0,0,1,.165,0,.772.772,0,0,1,.182.016,1.826,1.826,0,0,1,.061.2,1.153,1.153,0,0,0,.058.219,1,1,0,0,0,.1.008h.077c0-.031,0-.107-.008-.221-.012-.212-.012-.36-.012-.452,0-.021,0-.072.009-.16l.039-.683h-.21a.381.381,0,0,0-.009.086.942.942,0,0,1-.061.318.511.511,0,0,1-.08.015l-.1,0-.273,0-.127-.009h-.322l-.488-.026h-.13l-.547-.017h-.281a.414.414,0,0,1-.2-.046.96.96,0,0,1-.076-.236c-.017-.075-.029-.125-.038-.16l-.175,0C169.028,236.486,169.036,236.554,169.042,236.659Zm2.926,2.693a4.742,4.742,0,0,1-.554-.36.576.576,0,0,0-.125.114c0,.021.013.052.048.106a1.5,1.5,0,0,1,.236.38.733.733,0,0,1-.037.3,4.283,4.283,0,0,1-.139.465.038.038,0,0,1-.019.028.042.042,0,0,1-.036.007,3.933,3.933,0,0,1-.44-.1l-.879-.226c-.406-.107-.7-.19-.883-.251a.353.353,0,0,1-.109-.059,2.385,2.385,0,0,1-.014-.364.345.345,0,0,0-.044-.218l-.02,0-.054-.014c-.011,0-.031-.008-.054-.012-.008.028-.021.084-.037.175-.042.229-.071.37-.081.417-.079.291-.137.493-.179.6a3.868,3.868,0,0,0-.127.4.664.664,0,0,1-.021.085.583.583,0,0,0,.059.023c.011,0,.047.008.1.012a.809.809,0,0,0,.071-.112.983.983,0,0,0,.081-.162.874.874,0,0,1,.069-.128.65.65,0,0,1,.248.035l.3.081.735.191.679.182.316.084a.794.794,0,0,1,.143.049,1.509,1.509,0,0,1-.036.166,4.41,4.41,0,0,1-.143.484.133.133,0,0,1-.056.057,1.2,1.2,0,0,1-.212.038,1.432,1.432,0,0,0-.294.066.823.823,0,0,0-.011.173.681.681,0,0,0,.107.04l.117.032.2.057q.329.081.483.122c.01-.029.015-.052.021-.068l.027-.1a.608.608,0,0,0-.058-.041.451.451,0,0,1-.094-.092l.017-.144.192-.717.14-.522.077-.284.008-.044c.025-.093.054-.2.087-.32.048-.19.079-.294.087-.315a1.1,1.1,0,0,1,.176-.059.173.173,0,0,0,.046-.013l.038-.143C172.1,239.433,172.047,239.4,171.968,239.352Zm-1.307,4.059c-.009-.008-.024-.016-.029-.021a.189.189,0,0,0-.036-.012c-.1.1-.146.145-.162.156a.31.31,0,0,1-.09.045c-.147.01-.231.017-.246.017l-.416-.007-.857.006a.9.9,0,0,0-.143.008.576.576,0,0,1-.377-.056l-.047-.028-.132-.084c-.079-.045-.214-.14-.421-.271l-.116-.077c0-.017.008-.037.012-.058l.165-.42c-.028-.019-.048-.033-.063-.042a.424.424,0,0,0-.064-.037l-.091.137a.988.988,0,0,0-.086.158.373.373,0,0,1-.051.1l-.105.166-.145.227-.1.144-.158.2-.158.229a.5.5,0,0,0,.056.038.232.232,0,0,0,.046.035.045.045,0,0,0,.05.008.865.865,0,0,0,.172-.193c.055-.059.087-.1.106-.116a.144.144,0,0,1,.036-.007l.52.327a.892.892,0,0,1,.1.074l.054.034.173.116.062.041a.25.25,0,0,1,.049.077c.048.092.128.291.242.586l.221.518a1.633,1.633,0,0,1,.173.459.728.728,0,0,1-.077.278l-.008.031.149.1a.368.368,0,0,1,.033-.059c.041-.073.07-.131.094-.18l.021-.034.062-.1a.2.2,0,0,1,.038-.044l.288-.4a1.251,1.251,0,0,0-.156-.082l-.051.055a.6.6,0,0,1-.065.069.4.4,0,0,1-.064.081.169.169,0,0,1-.052.034.214.214,0,0,1-.043-.016.309.309,0,0,1-.062-.092l-.191-.369-.008-.018c-.1-.218-.164-.391-.209-.52l-.158-.4a.972.972,0,0,1,.144-.006h.1c.023,0,.05,0,.077,0s.036,0,.05,0c.154.006.239.008.261.006l.252,0a3.538,3.538,0,0,1,.629.008l.026.022v.017c-.03.064-.051.11-.068.15l-.04.1a.506.506,0,0,0-.042.128l.1.068a.246.246,0,0,0,.048.015l.011-.015a.237.237,0,0,0,.015-.033,2.971,2.971,0,0,1,.183-.328c.067-.1.153-.228.276-.387a1.966,1.966,0,0,1,.124-.154l.011-.025a.619.619,0,0,1,.051-.064l.017-.018a1.209,1.209,0,0,0,.148-.261A.533.533,0,0,1,170.661,243.411Z" transform="translate(-141.773 -221.14)" fill="#fff" fill-rule="evenodd"/>
  </g>
</svg>
