<svg xmlns="http://www.w3.org/2000/svg" xmlns:xlink="http://www.w3.org/1999/xlink" width="92" height="110" viewBox="0 0 92 110">
  <defs>
    <clipPath id="clip-HUFUS_responsive_logo">
      <rect width="92" height="110"/>
    </clipPath>
  </defs>
  <g id="HUFUS_responsive_logo" data-name="HUFUS responsive logo" clip-path="url(#clip-HUFUS_responsive_logo)">
    <g id="Group_1591" data-name="Group 1591">
      <path id="Path_233" data-name="Path 233" d="M3.148,74.6V80H8.319V74.6h3.148V88.652H8.319V82.694H3.148v5.958H0V74.6Z" transform="translate(10.023 15.551)" fill="#00984a"/>
      <path id="Path_234" data-name="Path 234" d="M18.548,74.6v7.981c0,2.473.9,3.6,2.586,3.6s2.586-1.124,2.586-3.6V74.6h3.148v7.869c0,4.272-2.136,6.408-5.846,6.408S15.4,86.853,15.4,82.469V74.6Z" transform="translate(11.936 15.551)" fill="#00984a"/>
      <path id="Path_235" data-name="Path 235" d="M30.7,74.6h8.543v2.586h-5.4v3.26h4.946v2.586H33.848v5.621H30.7Z" transform="translate(13.835 15.551)" fill="#00984a"/>
      <path id="Path_236" data-name="Path 236" d="M46.26,74.6v7.981c0,2.473.9,3.6,2.473,3.6s2.586-1.124,2.586-3.6V74.6h3.148v7.869c0,4.272-2.136,6.408-5.846,6.408S43,86.853,43,82.469V74.6Z" transform="translate(15.361 15.551)" fill="#00984a"/>
      <path id="Path_237" data-name="Path 237" d="M58.574,85.4a7.651,7.651,0,0,0,3.485.9c1.461,0,2.248-.562,2.248-1.461s-.675-1.349-2.361-1.911c-2.361-1.012-3.935-2.248-3.935-4.272,0-2.361,2.023-4.159,5.283-4.159a9.737,9.737,0,0,1,3.6.674l-.674,2.586a6.559,6.559,0,0,0-2.923-.674c-1.349,0-2.023.674-2.023,1.349,0,.9.787,1.237,2.586,2.023,2.473.9,3.6,2.248,3.6,4.159,0,2.361-1.8,4.272-5.621,4.272a9.583,9.583,0,0,1-3.935-.9Z" transform="translate(17.212 15.538)" fill="#00984a"/>
      <path id="Path_238" data-name="Path 238" d="M29.765,0H.2V30.352L44.491,74.98H74.618V44.4ZM70.009,70.259H46.29L4.921,28.328V4.721h23.27L70.009,46.764Z" transform="translate(10.048 6.289)" fill="#bf1e2d"/>
      <path id="Path_239" data-name="Path 239" d="M74.98,29.765V.2H44.629L0,44.6V74.731H30.577ZM4.721,70.009V46.29L46.652,4.921H70.259v23.27L28.216,70.009Z" transform="translate(10.023 6.313)" fill="#285992"/>
      <path id="Path_240" data-name="Path 240" d="M11.3,61H60.762V11.2H11.3Zm45.753-3.822H15.122V15.022H57.053Z" transform="translate(11.427 7.68)" fill="#00984a"/>
    </g>
  </g>
</svg>
