<svg id="instagram" xmlns="http://www.w3.org/2000/svg" width="21.097" height="21.101" viewBox="0 0 21.097 21.101">
  <g id="Group_1297" data-name="Group 1297" transform="translate(0)">
    <g id="_005-instagram" data-name="005-instagram" transform="translate(0)">
      <path id="Path_537" data-name="Path 537" d="M21.492,6.2A7.71,7.71,0,0,0,21,3.644,5.405,5.405,0,0,0,17.914.557a7.73,7.73,0,0,0-2.56-.49C14.224.012,13.866,0,11,0S7.778.012,6.652.062a7.712,7.712,0,0,0-2.56.49,5.148,5.148,0,0,0-1.871,1.22A5.2,5.2,0,0,0,1.005,3.64,7.731,7.731,0,0,0,.515,6.2C.461,7.329.449,7.688.449,10.553S.461,13.776.51,14.9A7.71,7.71,0,0,0,1,17.461a5.4,5.4,0,0,0,3.087,3.087,7.731,7.731,0,0,0,2.56.49c1.125.05,1.484.062,4.349.062s3.223-.012,4.349-.062a7.708,7.708,0,0,0,2.56-.49,5.4,5.4,0,0,0,3.088-3.087,7.736,7.736,0,0,0,.49-2.56c.049-1.125.062-1.484.062-4.349s0-3.223-.054-4.349Zm-1.9,8.615a5.784,5.784,0,0,1-.363,1.958,3.5,3.5,0,0,1-2,2,5.8,5.8,0,0,1-1.958.363c-1.113.05-1.447.062-4.262.062s-3.153-.012-4.262-.062a5.78,5.78,0,0,1-1.958-.363,3.247,3.247,0,0,1-1.212-.787,3.281,3.281,0,0,1-.787-1.212,5.805,5.805,0,0,1-.363-1.958c-.05-1.113-.062-1.447-.062-4.262s.012-3.153.062-4.262a5.781,5.781,0,0,1,.363-1.958,3.207,3.207,0,0,1,.792-1.212,3.276,3.276,0,0,1,1.212-.787,5.808,5.808,0,0,1,1.958-.363c1.113-.049,1.447-.062,4.262-.062s3.153.012,4.262.062a5.783,5.783,0,0,1,1.958.363,3.245,3.245,0,0,1,1.212.787,3.28,3.28,0,0,1,.787,1.212A5.807,5.807,0,0,1,19.591,6.3c.049,1.113.062,1.447.062,4.262s-.012,3.145-.062,4.258Zm0,0" transform="translate(-0.449 0)" fill="#fff"/>
      <path id="Path_538" data-name="Path 538" d="M130.369,124.5a5.421,5.421,0,1,0,5.421,5.421A5.422,5.422,0,0,0,130.369,124.5Zm0,8.937a3.516,3.516,0,1,1,3.516-3.516A3.517,3.517,0,0,1,130.369,133.437Zm0,0" transform="translate(-119.817 -119.368)" fill="#fff"/>
      <path id="Path_539" data-name="Path 539" d="M364.981,89.867a1.266,1.266,0,1,1-1.266-1.265A1.266,1.266,0,0,1,364.981,89.867Zm0,0" transform="translate(-347.528 -84.95)" fill="#fff"/>
    </g>
  </g>
</svg>
