<svg xmlns="http://www.w3.org/2000/svg" xmlns:xlink="http://www.w3.org/1999/xlink" width="121" height="65" viewBox="0 0 121 65">
  <defs>
    <clipPath id="clip-KW_footer_logo">
      <rect width="121" height="65"/>
    </clipPath>
  </defs>
  <g id="KW_footer_logo" data-name="KW footer logo" clip-path="url(#clip-KW_footer_logo)">
    <g id="Group_1492" data-name="Group 1492" transform="translate(-55.598 -8.352)">
      <text id="KWP" transform="translate(104 58)" fill="#fff" font-size="32" font-family="Poppins-Regular, Poppins"><tspan x="0" y="0">KWP</tspan></text>
      <g id="h2o" transform="translate(12.596 13.351)">
        <path id="Path_2" data-name="Path 2" d="M49.908,99.4A18.042,18.042,0,0,0,46,110.653a17.837,17.837,0,1,0,35.673,0A18.042,18.042,0,0,0,77.769,99.4l-13.93-17.4Zm28.524,11.249a14.594,14.594,0,1,1-29.187,0,14.787,14.787,0,0,1,3.195-9.222l11.4-14.236,11.4,14.236A14.787,14.787,0,0,1,78.432,110.653Z" transform="translate(0 -73.141)" fill="#fff"/>
        <path id="Path_3" data-name="Path 3" d="M109.246,347.005H106a11.363,11.363,0,0,0,11.351,11.351v-3.243A8.117,8.117,0,0,1,109.246,347.005Z" transform="translate(-53.515 -309.494)" fill="#fff"/>
        <path id="Path_4" data-name="Path 4" d="M332.218,13.081a8.008,8.008,0,0,0-1.768-5.055L324.111,0l-6.34,8.026A8.008,8.008,0,0,0,316,13.081a8.108,8.108,0,1,0,16.215,0Zm-12.972,0a4.8,4.8,0,0,1,1.059-3.032l3.805-4.817,3.805,4.817a4.8,4.8,0,0,1,1.059,3.032,4.865,4.865,0,1,1-9.729,0Z" transform="translate(-240.814)" fill="#fff"/>
      </g>
    </g>
  </g>
</svg>
