<svg xmlns="http://www.w3.org/2000/svg" width="149.906" height="59.029" viewBox="0 0 149.906 59.029">
  <g id="HU_footer_logo_white" data-name="HU footer logo white" transform="translate(-928.727 -3379.65)">
    <g id="Group_1494" data-name="Group 1494" transform="translate(929.077 3380)">
      <path id="Path_190" data-name="Path 190" d="M195.812,247.661c0-.061,0-.127,0-.183a27.2,27.2,0,0,0-54.392-.007v.142c-.008.119-.008.235-.008.358v.4a1.246,1.246,0,0,1,.008.174,27.211,27.211,0,0,0,18.8,25.382,3.576,3.576,0,0,0,.745-1.345l.007-.016,0-.042c.057-.269.125-.554.194-.891l.049-.17c.339-1.4.747-2.715.753-2.737.1-.354.187-.627.261-.81a4.79,4.79,0,0,1,.529-.883,1.4,1.4,0,0,1,1.145-.549,1.882,1.882,0,0,1,.6.1l.375.154-.017-.4a2.779,2.779,0,0,0-.044-.4,18.253,18.253,0,0,1-4.548-1.608v-.086a18.223,18.223,0,0,1,2.805-33.614l-.025-.075a18.317,18.317,0,0,1,13.9,1.141v.083a18.23,18.23,0,0,1-2.8,33.622l.022.077a18.181,18.181,0,0,1-8.439.629c-1.011,2.1-1.193,5.581-1.193,7.777,0,.284-.018.657-.047,1.065a27.516,27.516,0,0,0,4.118.31,27.2,27.2,0,0,0,27.191-26.7c0-.049,0-.095,0-.142,0-.116.009-.234.009-.358v-.079C195.821,247.863,195.812,247.763,195.812,247.661Z" transform="translate(-141.408 -220.764)" fill="none" stroke="#fff" stroke-width="0.7"/>
      <path id="Path_191" data-name="Path 191" d="M168.439,221.315a26.479,26.479,0,0,0-7.93,51.742,4.273,4.273,0,0,0,.273-.653l.007-.016,0-.042c.057-.269.125-.554.194-.891l.049-.17c.339-1.4.747-2.715.753-2.737.1-.354.187-.627.261-.81a4.792,4.792,0,0,1,.529-.883,1.4,1.4,0,0,1,1.145-.549,1.882,1.882,0,0,1,.6.1l.375.154-.017-.4a2.382,2.382,0,0,0-.377-1.264l1.744.152-.008.074c-1.438,1.886-1.677,6.073-1.677,8.582,0,.074,0,.165-.005.249a26.774,26.774,0,0,0,4.076.314,26.476,26.476,0,0,0,0-52.952Z" transform="translate(-141.231 -220.588)" fill="none" stroke="#fff" stroke-width="0.5"/>
      <path id="Path_192" data-name="Path 192" d="M147.9,245.9a18.644,18.644,0,1,1,18.648,18.645A18.648,18.648,0,0,1,147.9,245.9" transform="translate(-139.335 -218.692)" fill="none" stroke="#fff" stroke-width="0.7" fill-rule="evenodd"/>
      <path id="Path_193" data-name="Path 193" d="M159.811,263.152c0-2.508.239-6.7,1.677-8.582l.008-.074-1.744-.152a2.382,2.382,0,0,1,.377,1.264l.017.4-.375-.154a1.883,1.883,0,0,0-.6-.1,1.4,1.4,0,0,0-1.145.549,4.8,4.8,0,0,0-.529.883c-.074.183-.16.457-.261.81-.007.021-.414,1.333-.753,2.737l-.049.17c-.069.336-.137.621-.194.891l0,.042Z" transform="translate(-136.673 -210.037)" fill="#fff" fill-rule="evenodd"/>
      <path id="Path_194" data-name="Path 194" d="M148.477,245.713a17.878,17.878,0,1,1,17.881,17.872,17.883,17.883,0,0,1-17.881-17.872" transform="translate(-139.15 -218.506)" fill="none" stroke="#fff" stroke-width="0.7" fill-rule="evenodd"/>
      <path id="Path_195" data-name="Path 195" d="M149.524,245.244a16.44,16.44,0,1,1,16.44,16.443,16.441,16.441,0,0,1-16.44-16.443" transform="translate(-138.815 -218.195)" fill="none" stroke="#fff" stroke-width="1" fill-rule="evenodd"/>
      <g id="Group_214" data-name="Group 214" transform="translate(13.878 11.849)">
        <path id="Path_208" data-name="Path 208" d="M171.565,240.156c-2.148-2.21-1.889-3.677-1.889-3.677-.553,2.884.811,3.933,1.764,5.164s2.093,2.574,1.882,4.511c-1.118,5.977-4.341,6.8-6.345,5.694a4.411,4.411,0,0,1-.132,1.066c1.342.856,3.251,1.041,5.509-1.7,3.409-4.144,1.358-8.861-.788-11.06" transform="translate(-147.161 -227.592)" fill="#fff" fill-rule="evenodd"/>
        <path id="Path_196" data-name="Path 196" d="M156.838,237.973a19.3,19.3,0,0,0-3.939,3.548l1.4.094s.457-.318.582-.011a.527.527,0,0,1-.19.549l-1,.014.505.339-.716.9.017,1.432c0,.269.669.649.669.649a5.416,5.416,0,0,0,1.363.372c.422-.011,1.9-.23,2.825-.239s.867.992.867.992a2.491,2.491,0,0,0-1.214-.484,9.789,9.789,0,0,0-2.822.081,2.349,2.349,0,0,1-1.321-.212,1.555,1.555,0,0,0,.071,2.251c.632.645,2.1.546,2.983.071a2.4,2.4,0,0,1,1.938.007,6.633,6.633,0,0,1-2.932,1.046,2.613,2.613,0,0,1-3.037-1.149,3.153,3.153,0,0,1,.739-2.457,7.477,7.477,0,0,0-.632-.687c-.156-.112-.21-1-.288-1.236s-.516-1.075-.516-1.075a1.264,1.264,0,0,1,.045-1.59,28.834,28.834,0,0,1,4.136-3.471,1.906,1.906,0,0,1,.936-2.188l1.962-1.265q1.56-4.645,6.018-4.509-4.788,1.075-5.048,4.724-4.016,1.936-3.395,3.5" transform="translate(-151.926 -229.744)" fill="#fff" fill-rule="evenodd"/>
        <path id="Path_197" data-name="Path 197" d="M159.267,236.2l-1.944-.36a4.575,4.575,0,0,1-.747,1.68,2.858,2.858,0,0,1,2.47-.81Z" transform="translate(-150.441 -227.797)" fill="#fff" fill-rule="evenodd"/>
        <path id="Path_198" data-name="Path 198" d="M161.02,246.042a13.627,13.627,0,0,0-3.469,11.719,21.15,21.15,0,0,1,2.726-9.346c.3-.583,4.172-5.948,4.172-5.948l-2.444,2.475a12.333,12.333,0,0,1,2.372-4.916c-.363-2.776-1.211-4.461-2.556-5.04a8.592,8.592,0,0,1,1.866,5.368,8.683,8.683,0,0,0-2.668,5.688" transform="translate(-150.189 -228.07)" fill="#fff" fill-rule="evenodd"/>
        <path id="Path_199" data-name="Path 199" d="M159.242,233.7l1.585-.8q1.653-2.911,6.508-2.884-6.181-.675-8.092,3.683" transform="translate(-149.589 -229.686)" fill="#fff" fill-rule="evenodd"/>
        <path id="Path_200" data-name="Path 200" d="M163.5,230.656a12.957,12.957,0,0,1,9.463,5.633q-2.913-6.383-9.463-5.633" transform="translate(-148.229 -229.478)" fill="#fff" fill-rule="evenodd"/>
        <path id="Path_201" data-name="Path 201" d="M164.649,236.461q.924-4.378-1.429-4.819c1.168.889,1.379,2.221.645,3.981Z" transform="translate(-148.318 -229.138)" fill="#fff" fill-rule="evenodd"/>
        <path id="Path_202" data-name="Path 202" d="M162.622,235.2l-.051-1.2-1.075.516c.02-1.8.505-2.661,1.47-2.577q1.346.7.7,2.821c-.286.525-.631.669-1.042.437" transform="translate(-148.869 -229.044)" fill="#fff" fill-rule="evenodd"/>
        <path id="Path_203" data-name="Path 203" d="M166.069,232.424a7.191,7.191,0,0,1,.606,1.417s1.541-.183,3.3,2.073a5.194,5.194,0,0,0-3.91-3.49" transform="translate(-147.408 -228.888)" fill="#fff" fill-rule="evenodd"/>
        <path id="Path_204" data-name="Path 204" d="M167.416,235.529l-.554-1.577a4.134,4.134,0,0,1,2.6,2.368c-1.03-1.079-1.921-.895-2.05-.792" transform="translate(-147.155 -228.4)" fill="#fff" fill-rule="evenodd"/>
        <path id="Path_205" data-name="Path 205" d="M164.854,232.861a9.463,9.463,0,0,1,1.812,5.562c.086,3.514.654,4.825,1.521,6.4-.814-2.594-.371-4.82-.342-6.657s-1.442-4.069-2.991-5.3" transform="translate(-147.796 -228.748)" fill="#fff" fill-rule="evenodd"/>
        <path id="Path_206" data-name="Path 206" d="M167.859,236a9.31,9.31,0,0,1,.2,4.489,7.7,7.7,0,0,0,.794,5.43c.678,1.31,1.752,2.126,2.226.6a4.791,4.791,0,0,0-.546-3.906,3.033,3.033,0,0,1-.942,3.829c-.526-.866-.424-1.838-.4-3.544s.422-4.506-1.335-6.9" transform="translate(-146.837 -227.747)" fill="#fff" fill-rule="evenodd"/>
        <path id="Path_207" data-name="Path 207" d="M166.559,250.484c.018-.31.034-.7.018-1.158-2.558-2.919-1.574-7.956-1.574-7.956a10.853,10.853,0,0,0,1,8.444,7.265,7.265,0,0,0,.557.67" transform="translate(-147.894 -226.03)" fill="#fff" fill-rule="evenodd"/>
        <path id="Path_209" data-name="Path 209" d="M167.919,243.116s-.466.4-.207,1.944.314,3.536-1.048,3.252c0,0,.552,1.416,1.286.835a2.584,2.584,0,0,0,.389-2.854,8.074,8.074,0,0,1-.421-3.177" transform="translate(-147.218 -225.472)" fill="#fff" fill-rule="evenodd"/>
        <path id="Path_210" data-name="Path 210" d="M166.866,245.327s-.413.53-.383,2.593-.116,2.744-1.094,2.112c0,0,.2,1.7.941,1.348s1.115-1.975.921-3.008-.672-1.97-.385-3.045" transform="translate(-147.625 -224.766)" fill="#fff" fill-rule="evenodd"/>
        <path id="Path_211" data-name="Path 211" d="M165.851,247.3a12.744,12.744,0,0,0-.3,2.4c-.02,1.243-.625,2.57-1.674,2.829s-1.366-.645-1.211-1.268c0,0-.665,2.342,1.33,2.515,1.523.121,2.375-1.821,2.147-3.5a18.527,18.527,0,0,1-.294-2.971" transform="translate(-148.529 -224.135)" fill="#fff" fill-rule="evenodd"/>
        <path id="Path_212" data-name="Path 212" d="M164.764,242.326s.95,7.2-2.32,10.231c-1.538,1.426-3.64,1.04-2.956-2.879,0,0-1.351,5.068,1.607,4.8s4.9-6.333,3.668-12.151" transform="translate(-149.609 -225.725)" fill="#fff" fill-rule="evenodd"/>
        <path id="Path_213" data-name="Path 213" d="M159.777,247.957s-1.718,2.921-.372,5.4a1.432,1.432,0,0,0,1.926.4,1.6,1.6,0,0,1-2.828-.326c-.844-1.738.405-4.61,1.273-5.472" transform="translate(-149.915 -223.926)" fill="#fff" fill-rule="evenodd"/>
        <path id="Path_214" data-name="Path 214" d="M165.495,236.658s2.624,5.546.127,10.174a10.939,10.939,0,0,0-.334-8.638s.009-.162-.23.129c-.187.244-.5.761-.747.285s.939-2.434,1.184-1.95" transform="translate(-147.981 -227.56)" fill="#fff" fill-rule="evenodd"/>
        <path id="Path_215" data-name="Path 215" d="M170.058,235.174s2.405,1.979,2.81,8.043c0,0-.255-3.961-2.578-6.368a5.25,5.25,0,0,0,.443,2.634c.189.173.318-.806.212-1.367.513,1.155.554,2.062.176,2.217s-1.483-1.793-1.063-5.159" transform="translate(-146.164 -228.009)" fill="#fff" fill-rule="evenodd"/>
        <path id="Path_216" data-name="Path 216" d="M161.276,247.295a9.737,9.737,0,0,0,.884-1.049,4.966,4.966,0,0,1-1.269,4.195,4.77,4.77,0,0,0,.385-3.146" transform="translate(-149.062 -224.472)" fill="#fff" fill-rule="evenodd"/>
        <path id="Path_217" data-name="Path 217" d="M161.689,244.281c.145-.3,1.44-.906,2.041-.092.232.395-1.81,3.593-4.856,4.9a11.7,11.7,0,0,0,3.407-3.577c.5-.889-.9-.625-.592-1.234" transform="translate(-149.706 -225.26)" fill="#fff" fill-rule="evenodd"/>
      </g>
      <path id="Path_218" data-name="Path 218" d="M175.265,261.646c.4-.161.47.034-.132.264a21.48,21.48,0,0,1-12.011.557,56.571,56.571,0,0,1-8.421-2.359l.371-.814s19.714,2.551,20.193,2.353" transform="translate(-137.162 -208.456)" fill="#fff" fill-rule="evenodd"/>
      <path id="Path_219" data-name="Path 219" d="M155.755,254.624l.255-.591c.393.19,4.2,2.054,6.24,2.751,4.411,1.519,8.435,2.492,11.342,2.492a22.971,22.971,0,0,0,4.14-.346A15.677,15.677,0,0,0,180.9,258a8.211,8.211,0,0,0,2.19-1.995c.252-.321.459-.516.472-.338.284,2.6-2.772,4.358-7.056,4.915-4.354.566-8.524-1.417-12.573-2.331a20.716,20.716,0,0,1-8.182-3.629" transform="translate(-136.825 -210.136)" fill="#fff" fill-rule="evenodd"/>
      <path id="Path_220" data-name="Path 220" d="M155.755,254.706l.3-.484c.4.183,4.15,1.941,6.191,2.644,4.411,1.519,8.435,2.491,11.342,2.491a22.412,22.412,0,0,0,4.14-.35,14.914,14.914,0,0,0,4.322-1.466c.191-.066-.045.2-.136.284-1.236,1.115-4.191,1.9-5.575,2.072-4.359.558-8.357-.645-12.407-1.569a20.658,20.658,0,0,1-8.182-3.622" transform="translate(-136.825 -210.076)" fill="#e9e9e9" fill-rule="evenodd"/>
      <path id="Path_221" data-name="Path 221" d="M179.677,259.039l.307.466s.125.144-.982,1.05a17.953,17.953,0,0,1-3.956,2.612c-3.845,1.393-7.94,1.12-11.944.212a46.308,46.308,0,0,1-8.344-2.627l1.863-6.072a58.44,58.44,0,0,0,5.777,2.6c4.453,1.528,7.157,2.393,11.5,2.432a18.579,18.579,0,0,0,5.779-.678" transform="translate(-137.143 -209.929)" fill="#fff" fill-rule="evenodd"/>
      <path id="Path_222" data-name="Path 222" d="M161.978,257.837c4.515,1.552,7.3,2.442,11.739,2.471,4.007.038,5.381-.577,5.381-.577a18.076,18.076,0,0,1-4.689,3.089c-2.871,1.067-7.564.991-11.478.057a58.377,58.377,0,0,1-7.633-2.324l1.562-5.007a44.98,44.98,0,0,0,5.118,2.291" transform="translate(-136.971 -209.653)" fill="#fff" stroke="#e9e9e9" stroke-width="1" fill-rule="evenodd"/>
      <path id="Path_223" data-name="Path 223" d="M168.648,253.729s-2.57,1.385-2.5,9.581a11.046,11.046,0,0,0,.854,4.824l-4.065-2.6-4.02,2.612s.437-3.409.437-4.8.057-7.331,2.054-8.83a.261.261,0,0,1,.226-.074,16.075,16.075,0,0,0,7.014-.717" transform="translate(-135.815 -210.233)" fill="#fff" fill-rule="evenodd"/>
      <path id="Path_224" data-name="Path 224" d="M158.575,269l.061-.8c.011-.1.426-3.408.426-4.765,0-2.785.288-7.651,2.193-9.124a.665.665,0,0,1,.455-.176h.07l.128.016c.391.033,1.058.092,1.9.092a13.764,13.764,0,0,0,4.815-.8l.323.714c-.017.012-2.586,1.264-2.548,9.022.03,3.808.478,3.626.645,4.361l.513,1.417-4.506-2.876Zm4.474-3.51L166.6,267.6a8.679,8.679,0,0,1-.735-4.193c-.036-5,.895-7.545,1.686-8.8a16.034,16.034,0,0,1-3.743.424h0c-.871,0-1.556-.062-1.966-.092l-.09-.012c-1.186.9-1.879,4.084-2.066,8.5-.067,1.611-.276,2.134-.471,4.49Z" transform="translate(-135.924 -210.322)" fill="#fff"/>
      <path id="Path_225" data-name="Path 225" d="M162.606,264.092,159.88,265.9l.016-.187a13.679,13.679,0,0,0,.2-2.57c0-4.344.686-7.4,1.93-8.628l.12.125c-1.211,1.185-1.879,4.209-1.879,8.5a12.079,12.079,0,0,1-.179,2.408l2.521-1.66,2.644,1.747c-.45-1.234-.653-1.143-.64-2.528.054-3.7.468-6.724,1.428-8.727l.154.077a20.477,20.477,0,0,0-1.4,8.65,10.5,10.5,0,0,0,.846,3.246Z" transform="translate(-135.507 -210.025)" fill="#fff"/>
      <path id="Path_226" data-name="Path 226" d="M157.022,261.927c.067-.3.133-.6.208-.9a.609.609,0,0,1,.044-.182c.344-1.43.757-2.744.757-2.744.1-.335.189-.636.269-.842a5.917,5.917,0,0,1,.561-.943,1.837,1.837,0,0,1,2.056-.528c-.044-1.326-1.005-2.094-2.508-1.973s-2.023,1.816-2.044,2.615-.947,1.255-1.453,1.622c-.523.359-1.144.417-1.475.786-.35.368.45,1.062,1.219.776l.606-.231a4.726,4.726,0,0,1-.709,2,1.524,1.524,0,0,1-1.607.41s-.139,2.182,1.889,2.12a2.449,2.449,0,0,0,2.186-1.961v-.021" transform="translate(-137.723 -210.21)" fill="#fff" fill-rule="evenodd"/>
      <path id="Path_227" data-name="Path 227" d="M154.812,264.233h0a1.942,1.942,0,0,1-1.469-.571,2.662,2.662,0,0,1-.59-1.829l.02-.337.325.1a1.568,1.568,0,0,0,.453.067,1.017,1.017,0,0,0,.855-.385,3.852,3.852,0,0,0,.575-1.428l-.164.067a1.364,1.364,0,0,1-.471.088,1.26,1.26,0,0,1-1.136-.648.574.574,0,0,1,.087-.636,2.256,2.256,0,0,1,.856-.5,3.326,3.326,0,0,0,.674-.33c.077-.062.173-.116.276-.186.466-.31,1.038-.7,1.054-1.227.03-.876.632-2.726,2.287-2.866.108-.005.224-.013.327-.013a2.232,2.232,0,0,1,2.469,2.243l.017.4-.375-.154a1.881,1.881,0,0,0-.6-.1,1.4,1.4,0,0,0-1.145.549,4.791,4.791,0,0,0-.529.883c-.074.183-.16.457-.263.81-.005.021-.413,1.333-.752,2.736l-.049.17c-.069.337-.137.621-.194.891l0,.042-.007.016a2.673,2.673,0,0,1-2.432,2.143Zm-1.529-2.064a1.956,1.956,0,0,0,.445,1.135,1.408,1.408,0,0,0,1.085.405h.075a2.2,2.2,0,0,0,1.944-1.743v-.025c.058-.278.124-.565.2-.9a.908.908,0,0,1,.051-.227c.344-1.407.755-2.719.757-2.734.107-.368.2-.658.276-.859l.009-.017a5.521,5.521,0,0,1,.592-.99,1.93,1.93,0,0,1,1.56-.747,2.212,2.212,0,0,1,.406.034,1.74,1.74,0,0,0-1.913-1.376c-.082,0-.185,0-.284.008-1.31.113-1.781,1.641-1.808,2.366-.016.8-.751,1.284-1.286,1.643-.1.061-.186.121-.268.177a3.36,3.36,0,0,1-.785.389,1.857,1.857,0,0,0-.654.368c-.007.007-.016.02,0,.07a.772.772,0,0,0,.66.338.84.84,0,0,0,.284-.052l1-.392-.05.423a5.082,5.082,0,0,1-.757,2.131,1.541,1.541,0,0,1-1.275.6A1.367,1.367,0,0,1,153.283,262.169Z" transform="translate(-137.785 -210.273)" fill="#fff"/>
      <g id="Group_215" data-name="Group 215" transform="translate(25.405 45.612)">
        <path id="Path_228" data-name="Path 228" d="M161.965,257.178l-.541-.194v-1.651h.08a7.251,7.251,0,0,0,1.081,1.029,1.389,1.389,0,0,0,.768.3.61.61,0,0,0,.437-.168.521.521,0,0,0,.169-.385.655.655,0,0,0-.116-.372.792.792,0,0,0-.358-.248v-.069a.917.917,0,0,1,.583.263.72.72,0,0,1,.2.533.79.79,0,0,1-.215.563.694.694,0,0,1-.522.231.994.994,0,0,1-.417-.1,2.771,2.771,0,0,1-.711-.493c-.373-.343-.591-.549-.674-.641v.731a1.566,1.566,0,0,0,.02.311.483.483,0,0,0,.063.161.42.42,0,0,0,.149.123Z" transform="translate(-160.419 -255.333)" fill="#461a55" stroke="#461a55" stroke-width="0.3"/>
        <path id="Path_229" data-name="Path 229" d="M162.552,257.018a2.149,2.149,0,0,1,.821.149,1.2,1.2,0,0,1,.515.384.7.7,0,0,1,.136.384.748.748,0,0,1-.331.578,1.76,1.76,0,0,1-1.106.314,2.27,2.27,0,0,1-.822-.133,1.046,1.046,0,0,1-.487-.36.711.711,0,0,1-.16-.421.764.764,0,0,1,.47-.66A1.947,1.947,0,0,1,162.552,257.018Zm-.054.406a2.615,2.615,0,0,0-.939.143c-.208.08-.311.193-.311.352a.338.338,0,0,0,.1.227.6.6,0,0,0,.335.185,3.993,3.993,0,0,0,1,.095,2.708,2.708,0,0,0,.8-.1.73.73,0,0,0,.335-.194.308.308,0,0,0,.07-.2.328.328,0,0,0-.127-.252,1.069,1.069,0,0,0-.542-.2A4.631,4.631,0,0,0,162.5,257.424Z" transform="translate(-160.516 -254.795)" fill="#461a55" stroke="#461a55" stroke-width="0.3"/>
        <path id="Path_230" data-name="Path 230" d="M163.556,258.836l.331.682v.066h-2.362a1.176,1.176,0,0,0-.289.02.148.148,0,0,0-.092.083.609.609,0,0,0-.03.251h-.078v-1.049h.078a.62.62,0,0,0,.03.255.192.192,0,0,0,.078.078,1.076,1.076,0,0,0,.3.021h1.512a2.286,2.286,0,0,0,.391-.018.159.159,0,0,0,.1-.051.184.184,0,0,0,.032-.091.471.471,0,0,0-.069-.208Z" transform="translate(-160.542 -254.214)" fill="#461a55" stroke="#461a55" stroke-width="0.3"/>
        <path id="Path_231" data-name="Path 231" d="M161.7,261.906h-.3v-.376h-.739v-.339h.739v-1.182h.265l1.849,1.292v.229H161.7Zm0-.715h1.379l-1.379-.98Z" transform="translate(-160.662 -253.839)" fill="#461a55" stroke="#461a55" stroke-width="0.3"/>
      </g>
      <path id="Path_232" data-name="Path 232" d="M152.622,260.227a2.119,2.119,0,0,1-.269.123l-.327-.409c-.046-.047-.1-.1-.175-.17l-.926.457c-.317.185-.552.329-.718.414l-.088.045c-.1.045-.351.183-.749.4l-.091.065-.311.152-.307.187-.156.09a4.668,4.668,0,0,0-.474.3.575.575,0,0,0-.075.079.592.592,0,0,0,.018.073c.015.02.021.053.034.073a2.846,2.846,0,0,0,.131.326l.014.065a1.057,1.057,0,0,1,.057.162.6.6,0,0,1-.133.079.313.313,0,0,1-.129.045c-.03-.04-.075-.11-.125-.191s-.082-.149-.1-.178c-.128-.313-.237-.54-.311-.684-.042-.063-.069-.129-.108-.2a1.644,1.644,0,0,0-.092-.181c-.041-.08-.156-.268-.355-.562a.818.818,0,0,1-.1-.156,2.26,2.26,0,0,1-.117-.231.619.619,0,0,0,.106-.067c.046-.016.1-.041.162-.066l.454.588a.122.122,0,0,0,.145.017l.125-.081.063-.036.156-.082.125-.066.028-.012a.1.1,0,0,1,.062-.041l.458-.252a1.1,1.1,0,0,1,.1-.061l.113-.058a1.091,1.091,0,0,0,.125-.061c.037-.025.12-.075.248-.149-.024-.073-.05-.137-.066-.182l-.294-.542-.146-.259-.352-.654-.368-.621a1.463,1.463,0,0,0-.17-.245c-.084.041-.286.146-.608.321l-.165.079-.6.358-.227.176a.13.13,0,0,0-.024.08,2.678,2.678,0,0,0,.112.578,1.231,1.231,0,0,1,.033.149.874.874,0,0,1-.22.086.31.31,0,0,1-.057-.094l-.191-.346a5.2,5.2,0,0,0-.333-.7c-.026-.055-.051-.094-.069-.127l-.278-.459a.523.523,0,0,0-.073-.116,1.382,1.382,0,0,1-.175-.252c-.037-.07-.077-.149-.121-.253a2.216,2.216,0,0,1,.26-.127c.169.194.284.325.334.377a1.351,1.351,0,0,0,.206.154l.077-.019.074-.033.082-.054.053-.022a1.015,1.015,0,0,0,.119-.05l.091-.051c.1-.061.164-.1.177-.108l.457-.253.34-.2.463-.245c.112-.054.321-.179.64-.366l.512-.29.424-.234c.081-.05.176-.1.292-.154a.875.875,0,0,0-.042-.162,2.992,2.992,0,0,1-.133-.59l.252-.152c.051.1.086.152.092.169a3.878,3.878,0,0,1,.2.406,9.6,9.6,0,0,0,.5.966,7.593,7.593,0,0,0,.466.739.42.42,0,0,1,.047.136,1.1,1.1,0,0,1-.259.1l-.215-.241-.2-.259c-.026-.02-.053-.051-.1-.091a10.4,10.4,0,0,0-.988.5l-.317.152a3.9,3.9,0,0,1-.438.285,2.651,2.651,0,0,0,.14.292l.917,1.684.013.04.007.022a.409.409,0,0,1,.036.057c.037.059.066.115.1.158l.051.1a.557.557,0,0,0,.113.139l.278-.133.046-.022a.846.846,0,0,1,.12-.078l1.116-.62c.059-.037.124-.075.183-.116l.007-.042-.214-.587c-.012-.032-.014-.053-.02-.066a.21.21,0,0,1-.005-.1c.046-.04.083-.063.1-.078l.139-.055c.049.091.09.16.125.222s.053.107.079.148a.48.48,0,0,1,.026.067l.268.52c.057.125.143.3.261.512l.047.08c.065.1.1.153.108.168C152.3,259.684,152.44,259.909,152.622,260.227ZM149.14,253.6a3.566,3.566,0,0,0-.139-.561l-.059-.16c-.055-.648-.1-1.05-.119-1.219a.476.476,0,0,0-.1.009c-.04.009-.1.017-.2.036v.3a.769.769,0,0,1-.049.376.189.189,0,0,1-.145.08.9.9,0,0,1-.3-.034c-.533-.1-.871-.164-1.016-.206l-.24-1.552.751-.447.369-.227a.327.327,0,0,1,.11-.037.138.138,0,0,1,.1.025.754.754,0,0,1,.115.223l.173.437a1.563,1.563,0,0,0,.274-.03l-.04-.2-.143-.686c-.022-.095-.053-.251-.084-.462-.029-.2-.054-.409-.077-.661s-.041-.467-.071-.665a.623.623,0,0,0-.1.009c-.04.008-.11.026-.2.051a1.6,1.6,0,0,0-.03.376.537.537,0,0,1-.048.253.7.7,0,0,1-.181.157,4.732,4.732,0,0,1-.489.3c-.242.14-.418.243-.533.315-.2.128-.459.284-.772.462s-.639.379-.966.592l-1.564.972-.07.047.022.186c.017.082.03.169.049.26l2.685.562,2.283.476a.748.748,0,0,1,.261.135,1.176,1.176,0,0,1,.162.363c.049.123.086.211.108.259l.285-.037Zm-2.577-1.471c-.092-.639-.148-1.008-.168-1.124l-.017-.1c-.236.117-.5.267-.8.447s-.523.327-.685.437Zm1.789-5.67c.034-.412.07-.759.115-1.053l.115-.691a5.079,5.079,0,0,0,.053-.7,2.97,2.97,0,0,0-.11-.752,1.493,1.493,0,0,0-.311-.538.985.985,0,0,0-.369-.307,1.661,1.661,0,0,0-.55-.181,1.2,1.2,0,0,0-.866.2,1.678,1.678,0,0,0-.643.871,3.26,3.26,0,0,0-.2-.563,1.233,1.233,0,0,0-.31-.388,1,1,0,0,0-.433-.173,1.482,1.482,0,0,0-.435.013.959.959,0,0,0-.393.183,1.007,1.007,0,0,0-.317.317,1.6,1.6,0,0,0-.183.314,2.736,2.736,0,0,0-.191.665l-.036.26c-.024.117-.026.187-.033.212s-.007.069-.007.1l-.021.158-.144,1.341-.109.917.29.03c.059-.21.1-.342.108-.395a.471.471,0,0,1,.083-.236c.018-.016.026-.03.045-.033a1.111,1.111,0,0,1,.385.013c.765.09,1.235.146,1.42.172l1.738.236a4.243,4.243,0,0,1,.665.129.737.737,0,0,1,.176.1,2.076,2.076,0,0,1,.044.442c0,.094,0,.173.005.239l.329.059C148.313,246.89,148.343,246.576,148.352,246.457Zm-2.928-1.367a3.591,3.591,0,0,0,.077-.384,1.574,1.574,0,0,0-.1-.962.919.919,0,0,0-.736-.422.856.856,0,0,0-.7.2,1.365,1.365,0,0,0-.389.859c-.008.115-.017.276-.017.455.065.014.152.025.27.038.236.018.555.059.976.115l.346.063A2.223,2.223,0,0,1,145.424,245.09Zm2.609.311a1.309,1.309,0,0,0,.181-.48,1.705,1.705,0,0,0-.034-.779.95.95,0,0,0-.329-.486,1.474,1.474,0,0,0-.615-.226,1.292,1.292,0,0,0-.653.057,1.053,1.053,0,0,0-.509.435,2.4,2.4,0,0,0-.228.855.859.859,0,0,0-.013.362l.5.066.6.1.941.119A.542.542,0,0,0,148.033,245.4Zm1.347-4.241c.082-.264.148-.468.2-.606l.289-.673c.149-.293.235-.453.255-.487a.52.52,0,0,0,.05-.1,1.1,1.1,0,0,1,.049-.141.356.356,0,0,1,.03-.082.709.709,0,0,0-.132-.053.877.877,0,0,0-.2-.063c-.073.124-.116.2-.129.218a2.3,2.3,0,0,1-.241.4.188.188,0,0,1-.088-.024l-.145-.057-.768-.309-.507-.212-1.011-.405c-.236-.092-.563-.23-.991-.41-.073-.021-.166-.053-.275-.1a1.7,1.7,0,0,1-.274-.143,2.011,2.011,0,0,1,.036-.363c.02-.143.034-.273.04-.391-.066-.03-.125-.057-.166-.079l-.121-.04c-.017.05-.055.168-.119.352-.112.343-.2.594-.261.739-.013.034-.053.119-.113.251l-.482,1.074.335.127c.018-.032.038-.079.062-.127a1.794,1.794,0,0,1,.3-.479.892.892,0,0,1,.137.025l.165.057.445.166.2.091.507.2c.016.005.277.12.773.338l.211.079.868.358.451.183a.656.656,0,0,1,.3.2,1.6,1.6,0,0,1-.019.426c-.021.129-.03.226-.041.281l.282.112C149.293,241.454,149.328,241.338,149.38,241.161Zm1.734-3.8c.224-.348.417-.643.6-.881l.424-.554a4.56,4.56,0,0,0,.379-.6,3.285,3.285,0,0,0,.256-.706,1.768,1.768,0,0,0-.021-.629,1.132,1.132,0,0,0-.183-.443,2.1,2.1,0,0,0-.4-.42,1.224,1.224,0,0,0-.866-.223,1.741,1.741,0,0,0-.976.468,4.473,4.473,0,0,0,.1-.594,1.179,1.179,0,0,0-.1-.487,1.009,1.009,0,0,0-.3-.356,1.237,1.237,0,0,0-.391-.191,1.083,1.083,0,0,0-.43-.032,1.337,1.337,0,0,0-.43.14,2.582,2.582,0,0,0-.307.191,2.42,2.42,0,0,0-.472.494l-.157.215c-.074.092-.112.152-.132.177a.326.326,0,0,0-.057.08l-.09.133-.761,1.111-.525.76.244.17c.149-.161.245-.265.281-.3a.52.52,0,0,1,.182-.169.083.083,0,0,1,.062-.011,2.026,2.026,0,0,1,.332.191c.629.437,1.023.707,1.161.817l1.429,1.021a6.135,6.135,0,0,1,.53.431.66.66,0,0,1,.106.165,1.575,1.575,0,0,1-.169.409l-.1.22.263.2C150.874,237.728,151.053,237.457,151.114,237.365Zm-1.946-2.587a2.591,2.591,0,0,0,.247-.3,1.655,1.655,0,0,0,.368-.893.9.9,0,0,0-.454-.718.848.848,0,0,0-.707-.148,1.349,1.349,0,0,0-.748.575c-.065.1-.142.232-.231.4.053.041.125.086.219.156.2.128.47.31.8.559l.278.212C148.995,234.653,149.065,234.7,149.168,234.778Zm2.16,1.5a1.247,1.247,0,0,0,.381-.34,1.736,1.736,0,0,0,.338-.7.885.885,0,0,0-.067-.587,1.33,1.33,0,0,0-.439-.487,1.166,1.166,0,0,0-.6-.252,1.033,1.033,0,0,0-.652.144,2.6,2.6,0,0,0-.6.643,1.145,1.145,0,0,0-.182.311l.409.3.493.367.772.545A.375.375,0,0,0,151.327,236.282Zm4.271-10.251c.3-.117.487-.148.577-.095a2.469,2.469,0,0,1,.387.693l.793,1.8a5.584,5.584,0,0,0,.412.777,1.616,1.616,0,0,0,.588.53,1.6,1.6,0,0,0,.814.128,3,3,0,0,0,1.073-.288,3.326,3.326,0,0,0,.842-.515,2.077,2.077,0,0,0,.511-.582,1.553,1.553,0,0,0,.2-.6,1.33,1.33,0,0,0-.032-.474,7.417,7.417,0,0,0-.406-1.053l-.377-.749c-.087-.186-.176-.366-.263-.54a.792.792,0,0,1-.075-.154c-.022-.048-.059-.119-.094-.208-.069-.153-.125-.26-.158-.322a1.2,1.2,0,0,1-.1-.193.174.174,0,0,1-.012-.16,1.277,1.277,0,0,1,.257-.178,1.581,1.581,0,0,0,.276-.175.268.268,0,0,0-.034-.107.551.551,0,0,0-.1-.162l-.067.018a6.49,6.49,0,0,1-.685.342l-.731.288-.3.131.12.294.055-.012.348-.164a.464.464,0,0,1,.333,0c.065.025.132.115.21.261l.106.186c.408.735.744,1.4,1.007,2.008a3.288,3.288,0,0,1,.278.8,1.792,1.792,0,0,1-.021.472.734.734,0,0,1-.132.315,1.212,1.212,0,0,1-.267.329,2.929,2.929,0,0,1-.635.392,1.473,1.473,0,0,1-.69.119.95.95,0,0,1-.48-.162,1.606,1.606,0,0,1-.487-.6l-.466-.918-.277-.662-.153-.293-.149-.356-.067-.136c-.025-.046-.055-.109-.091-.189a1.475,1.475,0,0,1-.16-.47c.022-.073.1-.146.248-.208a3.156,3.156,0,0,0,.421-.222l-.007-.029-.107-.219-.025-.05a2.473,2.473,0,0,1-.3.14c-.148.069-.314.152-.5.248s-.387.185-.586.271c-.061.026-.259.107-.6.235l-.4.166c-.045.026-.09.046-.14.071l.148.292A.778.778,0,0,0,155.6,226.031Zm8.576-2.979a.945.945,0,0,1,.328.206.393.393,0,0,1,.1.165,2.257,2.257,0,0,1,.083.658l.046.837.038,1.337,0,.234c0,.091.011.359,0,.8,0,.148-.012.241-.061.278a.94.94,0,0,1-.406.067c-.095,0-.142,0-.161,0a1.235,1.235,0,0,0-.191.023v.153c0,.048.012.1.012.168a.7.7,0,0,0,.144.012l.236-.022c.146-.014.438-.038.875-.059.468.03.751.045.837.037l.162-.011-.03-.346a.877.877,0,0,0-.11-.024,3.225,3.225,0,0,1-.7-.063c-.025-.057-.044-.1-.055-.124a1.107,1.107,0,0,1-.02-.153c-.034-.263-.059-.5-.078-.728l-.045-.537,0-.29c0-.1,0-.191-.009-.285l-.1-1.531.691.585c.285.238.6.519.954.837l.532.512.72.677,1.033.957.516.492.47-.033-.011-.222c0-.021-.009-.088-.024-.2l.008-.222-.022-.218-.017-.5a1.641,1.641,0,0,0-.013-.223l-.1-1.443c0-.1-.016-.177-.02-.248-.029-.232-.049-.549-.067-.946-.005-.185-.014-.3-.014-.347-.013-.1-.018-.157-.018-.174a.259.259,0,0,1,.033-.154,2.26,2.26,0,0,1,.215-.153,1.7,1.7,0,0,1,.3-.1.582.582,0,0,0,.187-.083l-.016-.268c-.053,0-.1.005-.172.011l-.892.059-.813.049-.1.018v.244a1.254,1.254,0,0,0,.336.083.769.769,0,0,1,.408.125c.04.036.059.141.067.321,0,.058.032.264.07.62a5.392,5.392,0,0,1,.046.618c.018.227.034.424.05.586s.037.388.054.668l.033.476,0,.1c-1.736-1.608-2.739-2.543-3.016-2.813s-.636-.592-1.073-.962c-.053,0-.1,0-.128,0s-.1.007-.255.02-.23.015-.252.018a.746.746,0,0,1-.094,0c-.165,0-.252,0-.292,0-.058,0-.181.009-.343.024l-.115,0-.359.015.03.289A2.939,2.939,0,0,1,164.175,223.052Zm7.687,5.077c.277.044.483.079.628.111l.709.185c.31.106.479.175.517.189a.593.593,0,0,0,.1.037c.008,0,.07.011.152.03a.405.405,0,0,1,.075.016c.02-.059.03-.1.044-.136a1.7,1.7,0,0,0,.029-.2c-.129-.055-.21-.086-.23-.1a3,3,0,0,1-.435-.179.275.275,0,0,1,.015-.092l.038-.156.193-.8.142-.532.261-1.059c.057-.244.149-.586.271-1.035.01-.077.033-.166.057-.288a1.748,1.748,0,0,1,.1-.3c.1,0,.222-.013.367-.008s.278-.005.395-.012c.02-.075.036-.133.049-.179s.021-.075.028-.124c-.054-.013-.174-.034-.371-.067-.355-.069-.61-.117-.765-.157l-.267-.075-1.127-.335-.078.351a.634.634,0,0,0,.135.046,1.633,1.633,0,0,1,.516.234.85.85,0,0,1,0,.132l-.042.176-.1.462-.063.21-.132.533c0,.017-.075.288-.224.814l-.051.214-.23.908-.117.478a.769.769,0,0,1-.157.323,1.667,1.667,0,0,1-.43.042c-.123,0-.219,0-.278,0l-.073.288Zm5.295-3.774a1.4,1.4,0,0,1,.289.231.472.472,0,0,1,.073.206c0,.042-.009.348-.044.91l-.111,1.213-.137,1.909c-.062.549-.1.864-.116.954s-.025.176-.036.264a1.594,1.594,0,0,0,.2.108,1.113,1.113,0,0,0,.182.091q.184-.154.619-.585l.073-.046c.228-.2.368-.315.4-.347.135-.124.272-.238.387-.339.133-.1.239-.2.347-.294l1.11-.955a10.616,10.616,0,0,1,.938-.76.553.553,0,0,1,.169-.069,4,4,0,0,1,.673.066.673.673,0,0,0,.069-.135l.07-.117c-.094-.042-.219-.1-.367-.156a4.492,4.492,0,0,1-.533-.243c-.2-.109-.393-.223-.592-.356s-.322-.207-.36-.228a1.425,1.425,0,0,0-.1.161.424.424,0,0,0-.036.128c.036.029.087.057.136.1a.734.734,0,0,1,.123.091.79.79,0,0,1,.29.286.154.154,0,0,1,.012.158.975.975,0,0,1-.21.243q-.15.141-.424.4c-.055.062-.091.1-.125.131l-.245.2-1.065.967-.492.409c.025-.2.045-.409.058-.637l.09-1.157a10.356,10.356,0,0,1,.11-1.235l.055-.376a.158.158,0,0,1,.034-.087.142.142,0,0,1,.083-.073.552.552,0,0,1,.3.013c.044.009.2.066.453.162.013-.02.059-.125.149-.3l-.261-.142c-.09-.03-.218-.082-.384-.156-.228-.1-.377-.173-.447-.215a11.471,11.471,0,0,1-1.155-.676c-.029-.013-.1-.061-.22-.129l-.17.317Zm6.616,3.853c.046.05.075.1.119.141a2.669,2.669,0,0,1,.272.367c.024.04.051.079.065.1a.191.191,0,0,1,.042.129.614.614,0,0,0-.05.066l-.346.375-.336.322-.457.472-.342.319-1.111,1.087-.086.086c-.087.082-.143.14-.172.17a.862.862,0,0,1-.249.178,2.444,2.444,0,0,1-.5-.335,2.785,2.785,0,0,0-.256-.194l-.2.2.36.346.117.123c.359.327.647.607.879.847.456.474.847.887,1.154,1.24.446.5.728.8.83.917.073.071.179.173.3.3l.389-.274.662-.434.113-.066a1.3,1.3,0,0,1,.139-.11,1.145,1.145,0,0,0-.1-.095,1,1,0,0,0-.154-.145,2.089,2.089,0,0,1-.875.2.987.987,0,0,1-.541-.165,4.893,4.893,0,0,1-.74-.643,3.366,3.366,0,0,1-.66-.8.229.229,0,0,1,.074-.236l.64-.61c.162-.153.358-.339.587-.567a.831.831,0,0,1,.1-.1c.165.133.388.352.678.647a3.482,3.482,0,0,1,.4.461.3.3,0,0,1,.033.2,1.69,1.69,0,0,1-.245.441,2.684,2.684,0,0,0-.148.227l.2.214.063-.059c.059-.059.149-.145.249-.261.117-.12.2-.211.249-.259s.088-.083.145-.132.2-.186.4-.384c.091-.087.226-.218.392-.4l-.166-.169-.046-.041a4.1,4.1,0,0,1-.533.318.406.406,0,0,1-.218.03.94.94,0,0,1-.327-.224c-.153-.137-.412-.381-.745-.731-.036-.037-.073-.084-.116-.139l.371-.358.5-.474c.336-.33.532-.515.578-.567.189.186.4.4.635.639.206.207.391.414.553.612.094.116.147.178.162.2a1.088,1.088,0,0,1,.162.214,1.933,1.933,0,0,1-.09.453l-.1.329c-.045.108-.083.187-.105.244.041.055.077.088.088.11l.124.115a.666.666,0,0,0,.057-.049l.119-.124.612-.6a.287.287,0,0,0,.1-.2,4.293,4.293,0,0,0-.467-.577l-.523-.533c-.344-.363-.736-.747-1.185-1.173-.3-.285-.472-.461-.54-.534a5.074,5.074,0,0,1-.495-.574c-.065-.1-.157-.2-.259-.322Zm.968,8.233a1.237,1.237,0,0,0-.125.069l.094.16a4.312,4.312,0,0,0,.22.41l.292.5c.013.026.036.074.071.139.047.1.173.422.385.975l.079.153c.005.015.02.042.044.09a2.046,2.046,0,0,0,.288-.119,3.515,3.515,0,0,0-.108-.569,1.042,1.042,0,0,1-.037-.318l.711-.314.811-.421a2.074,2.074,0,0,1,.259-.112c.061.113.1.2.133.248a.805.805,0,0,1,.109.418,1.785,1.785,0,0,1-.284.462c-.395.521-.685.891-.871,1.115-.069.088-.174.228-.3.424l-.185.235c.022.046.053.095.092.16.087.141.133.223.146.248l.182.375c.054.115.1.216.132.3l.07.146.069.2.046.074.04.1a.3.3,0,0,0,.091-.038.346.346,0,0,0,.1-.074,1.242,1.242,0,0,0,0-.315,1.246,1.246,0,0,1,0-.351,3.7,3.7,0,0,1,.3-.508l.673-1.06c.07-.108.158-.256.249-.429.05-.084.092-.152.133-.209a1.566,1.566,0,0,0,.819.512,1.191,1.191,0,0,0,.789-.088,1.282,1.282,0,0,0,.673-.88,1.96,1.96,0,0,0-.2-1.4,9.755,9.755,0,0,0-.489-.9l-.248-.449-.1-.193c-.011-.015-.048-.116-.125-.3s-.145-.285-.173-.338a2.238,2.238,0,0,0-.194-.332l-.048.008-.218.112c.022.073.08.214.158.421l.059.236c-.137.078-.463.245-.974.5-.236.115-.484.234-.756.359l-.2.087-.347.178-.449.2-.817.408c-.207.1-.325.154-.36.169s-.063.012-.121.025a1.958,1.958,0,0,1-.247-.3.772.772,0,0,0-.218-.245A.563.563,0,0,0,184.741,236.441Zm3.33.454c.048.125.088.207.113.264a1.5,1.5,0,0,0,.664.786.824.824,0,0,0,.734-.032,1.536,1.536,0,0,0,.4-.274.9.9,0,0,0,.235-.311,1.109,1.109,0,0,0,.045-.466,2.1,2.1,0,0,0-.2-.55,1.4,1.4,0,0,0-.165-.281l-.069.026-.49.249-.315.137-.4.2c-.115.048-.26.117-.446.2Zm4.837,6.708a3.056,3.056,0,0,0-.045-.588,1.889,1.889,0,0,0-.716-1.275,1.507,1.507,0,0,0-1.177-.247,1.678,1.678,0,0,0-.637.294,1.443,1.443,0,0,0-.466.565,4.371,4.371,0,0,0-.268,1.124,3.608,3.608,0,0,1-.241,1,.8.8,0,0,1-.5.385.832.832,0,0,1-.487-.075.87.87,0,0,1-.384-.363,1.5,1.5,0,0,1-.2-.466,1.252,1.252,0,0,1,0-.47.962.962,0,0,1,.125-.4,1.641,1.641,0,0,1,.278-.342,5.448,5.448,0,0,1,.5-.358l-.079-.372-.156.029-.371.078c-.334.079-.516.12-.552.121l-.044.013c-.037.017-.063.033-.067.051a.892.892,0,0,0-.051.276l-.051.516a3.735,3.735,0,0,0,.051.694,2.529,2.529,0,0,0,.211.687,2.054,2.054,0,0,0,.34.483,2.661,2.661,0,0,0,.362.325,1.145,1.145,0,0,0,.417.174,2.076,2.076,0,0,0,.777-.005,1.67,1.67,0,0,0,.562-.2,1.623,1.623,0,0,0,.42-.421,1.77,1.77,0,0,0,.248-.6,3.776,3.776,0,0,0,.11-.643,2.38,2.38,0,0,1,.269-1.057.765.765,0,0,1,.458-.329.676.676,0,0,1,.557.132.956.956,0,0,1,.338.592.985.985,0,0,1-.193.792,2.179,2.179,0,0,1-.651.495v.047l.042.3.017.038a.817.817,0,0,0,.156-.009,5.951,5.951,0,0,0,.645-.175c.178-.062.314-.114.4-.156A5.174,5.174,0,0,0,192.909,243.6Zm-5.082,3.347c.025.28.032.493.032.636l-.022.731c-.04.329-.059.512-.062.55-.011.054-.018.09-.018.1s0,.066.008.158v.077c.063.007.108.014.139.014.057,0,.129-.008.206-.014a2.441,2.441,0,0,0,.038-.255,4.642,4.642,0,0,1,.083-.459.879.879,0,0,1,.092-.008h.16l.827.012.548.018,1.092.013c.248.005.606.014,1.073.033a2.327,2.327,0,0,1,.284-.007,1.326,1.326,0,0,1,.313.028,3.135,3.135,0,0,1,.106.352,1.982,1.982,0,0,0,.1.377,1.728,1.728,0,0,0,.175.014h.132c0-.054-.007-.185-.014-.38-.021-.364-.021-.62-.021-.778,0-.037,0-.124.016-.274l.067-1.176h-.362a.655.655,0,0,0-.016.148,1.621,1.621,0,0,1-.105.548.879.879,0,0,1-.137.026l-.175.005-.47.008-.218-.016h-.554c-.016,0-.292-.017-.839-.045h-.224l-.941-.029h-.484a.712.712,0,0,1-.351-.079,1.651,1.651,0,0,1-.131-.406c-.029-.129-.05-.215-.066-.276l-.3,0C187.8,246.654,187.816,246.77,187.826,246.951Zm5.035,4.634a8.162,8.162,0,0,1-.953-.62.99.99,0,0,0-.215.2c-.007.037.022.09.083.182a2.575,2.575,0,0,1,.406.654,1.261,1.261,0,0,1-.063.52,7.362,7.362,0,0,1-.239.8.065.065,0,0,1-.033.048.073.073,0,0,1-.062.012,6.775,6.775,0,0,1-.757-.177l-1.512-.388c-.7-.183-1.2-.327-1.52-.431a.607.607,0,0,1-.187-.1,4.107,4.107,0,0,1-.024-.625.593.593,0,0,0-.077-.375l-.034-.005-.094-.024c-.02,0-.053-.013-.092-.021-.013.049-.037.145-.063.3-.073.394-.123.637-.139.718-.136.5-.235.848-.309,1.033a6.657,6.657,0,0,0-.218.691,1.142,1.142,0,0,1-.036.146,1,1,0,0,0,.1.04c.02,0,.08.013.175.021a1.393,1.393,0,0,0,.123-.193,1.69,1.69,0,0,0,.139-.278,1.51,1.51,0,0,1,.119-.22,1.119,1.119,0,0,1,.427.061l.521.14,1.265.329,1.168.314.544.145a1.368,1.368,0,0,1,.247.084,2.591,2.591,0,0,1-.062.285,7.588,7.588,0,0,1-.245.833.229.229,0,0,1-.1.1,2.073,2.073,0,0,1-.365.066,2.464,2.464,0,0,0-.507.113,1.416,1.416,0,0,0-.018.3,1.177,1.177,0,0,0,.183.069l.2.055.35.1q.566.139.831.21c.017-.05.026-.09.037-.117l.046-.176a1.036,1.036,0,0,0-.1-.07.776.776,0,0,1-.161-.158l.029-.248.33-1.234.241-.9.132-.489.014-.075c.042-.16.092-.342.149-.55.083-.327.136-.507.149-.542a1.882,1.882,0,0,1,.3-.1.3.3,0,0,0,.079-.022l.066-.245C193.093,251.725,193,251.668,192.861,251.585Zm-2.25,6.984c-.016-.013-.041-.028-.05-.036a.326.326,0,0,0-.062-.021c-.164.165-.252.249-.278.269a.532.532,0,0,1-.156.077c-.253.017-.4.029-.423.029l-.716-.012-1.474.011a1.555,1.555,0,0,0-.245.015.992.992,0,0,1-.648-.1l-.08-.049c-.022-.016-.1-.062-.227-.144s-.368-.24-.724-.466c-.024-.016-.094-.061-.2-.132.008-.029.013-.063.021-.1l.284-.723c-.048-.033-.082-.057-.108-.073a.731.731,0,0,0-.11-.063l-.157.236a1.7,1.7,0,0,0-.148.272.641.641,0,0,1-.087.165l-.181.286-.249.391-.174.248-.272.35-.272.394a.858.858,0,0,0,.1.066.4.4,0,0,0,.079.059.078.078,0,0,0,.086.014,1.49,1.49,0,0,0,.3-.332c.1-.1.149-.17.182-.2a.247.247,0,0,1,.062-.012l.895.563a1.531,1.531,0,0,1,.177.128l.094.058.3.2.107.071a.431.431,0,0,1,.084.133c.083.158.22.5.416,1.008l.38.892a2.811,2.811,0,0,1,.3.789,1.253,1.253,0,0,1-.132.479l-.013.054.256.168a.634.634,0,0,1,.057-.1c.071-.125.12-.226.161-.31l.036-.058.107-.169a.351.351,0,0,1,.066-.075l.5-.689a2.155,2.155,0,0,0-.269-.141c-.021.021-.051.054-.088.095a1.031,1.031,0,0,1-.112.119.68.68,0,0,1-.11.14.292.292,0,0,1-.09.058.369.369,0,0,1-.074-.028.531.531,0,0,1-.107-.158l-.329-.635-.013-.032c-.166-.375-.282-.673-.36-.895l-.272-.681a1.667,1.667,0,0,1,.248-.011h.166c.04,0,.086,0,.132,0,.026,0,.062,0,.086,0,.265.011.412.015.449.011.14,0,.285,0,.434,0a6.088,6.088,0,0,1,1.082.013l.045.038v.029c-.051.111-.087.19-.117.257l-.069.169a.87.87,0,0,0-.073.22l.171.117a.424.424,0,0,0,.082.026l.018-.026a.407.407,0,0,0,.025-.057,5.112,5.112,0,0,1,.315-.565c.115-.172.264-.392.475-.666a3.374,3.374,0,0,1,.214-.265l.018-.042a1.057,1.057,0,0,1,.087-.11l.029-.03a2.08,2.08,0,0,0,.255-.45A.922.922,0,0,1,190.612,258.569Z" transform="translate(-140.908 -220.249)" fill="#fff" fill-rule="evenodd"/>
    </g>
    <g id="Group_1495" data-name="Group 1495" transform="translate(990.548 3389.11)">
      <path id="Path_25856" data-name="Path 25856" d="M11322,927.3h86.6" transform="translate(-11321.6 -906.337)" fill="none" stroke="#fff" stroke-width="0.5"/>
      <g id="Group_1583" data-name="Group 1583" transform="translate(0.401 3.89)">
        <path id="Path_26047" data-name="Path 26047" d="M-700.385,310.3c.293,0,.829.038,1.874.038.995,0,1.542-.038,1.874-.038.051.064.051.4-.013.434a2.993,2.993,0,0,0-.587.114c-.242.089-.306.256-.306.638-.025.612-.013,1.39-.013,2.091.013.038.026.077.065.089a13.33,13.33,0,0,0,1.643.026c.778,0,1.212,0,1.377-.013.026-.013.077-.051.077-.089,0-.638.013-1.58-.025-2.281-.013-.167-.064-.383-.255-.446a3.481,3.481,0,0,0-.7-.127.474.474,0,0,1,.013-.434c.523,0,.944.038,1.938.038,1.046,0,1.441-.038,1.81-.038a.569.569,0,0,1-.013.434,2.823,2.823,0,0,0-.6.127c-.23.076-.306.2-.319.6-.038.854-.026,1.39-.026,2.958,0,.853,0,1.848.026,2.408.013.344.064.548.268.638a5.748,5.748,0,0,0,.815.166c.026.051,0,.4-.064.434-.318,0-.981-.038-1.886-.038-.854,0-1.657.038-1.937.038a.515.515,0,0,1,0-.434c.255-.038.434-.077.612-.115.217-.064.319-.23.332-.638.025-.6.013-1.491.013-2.319,0-.038-.025-.089-.064-.089-.255-.014-.88-.014-1.44-.014a11.265,11.265,0,0,0-1.632.039.182.182,0,0,0-.026.077c0,.8,0,1.657.013,2.231,0,.369.038.586.344.675.166.051.446.1.7.153a.637.637,0,0,1-.051.434c-.229,0-.842-.038-2.014-.038-.982,0-1.606.038-1.861.038a.632.632,0,0,1-.013-.434l.587-.115c.343-.077.42-.268.458-.815.013-.191.013-1.365.013-2.486,0-1.249,0-2.358-.013-2.741-.026-.407-.089-.547-.343-.625-.217-.05-.4-.075-.663-.114A.635.635,0,0,1-700.385,310.3Z" transform="translate(700.469 -309.559)" fill="#fff"/>
        <path id="Path_26048" data-name="Path 26048" d="M-688.985,313.927a1.038,1.038,0,0,0-.866-.4.934.934,0,0,0-.625.178,5.413,5.413,0,0,0-.421.753c-.064.051-.471-.14-.458-.217a2.862,2.862,0,0,1,.267-.829,4.486,4.486,0,0,1,2-.815,1.8,1.8,0,0,1,1.517.777,2.306,2.306,0,0,1,.319,1.287c0,.6-.025,1.428-.025,1.95,0,.23.076.485.343.485a1.351,1.351,0,0,0,.421-.064,1.439,1.439,0,0,1-.064.51,2.313,2.313,0,0,1-1.389.5c-.434,0-.7-.166-.778-.4a1.392,1.392,0,0,1-.064-.217c0-.026-.051-.026-.051-.013a3.4,3.4,0,0,1-1.415.612,1.17,1.17,0,0,1-.778-.306,1.721,1.721,0,0,1-.5-1.262,2.026,2.026,0,0,1,.217-.765c.369-.23,1.95-.6,2.422-.8.05-.012.089-.089.1-.14a.718.718,0,0,0,.013-.165A1.059,1.059,0,0,0-688.985,313.927Zm.14,1.4a6.8,6.8,0,0,0-1.07.408,1.128,1.128,0,0,0-.1.421.845.845,0,0,0,.828.93.387.387,0,0,0,.282-.077.281.281,0,0,0,.075-.228c.026-.4.026-1.173.026-1.39C-688.806,315.367-688.832,315.329-688.844,315.329Z" transform="translate(701.029 -309.415)" fill="#fff"/>
        <path id="Path_26049" data-name="Path 26049" d="M-681.138,313.414a2.536,2.536,0,0,1,.6,1.682A2.745,2.745,0,0,1-681.6,317.4a4.714,4.714,0,0,1-2.154.816,4.427,4.427,0,0,1-1.249-.166,1.566,1.566,0,0,0-.8.013c-.038.013-.127-.077-.127-.115.038-.306.076-1.453.065-3.25-.014-2,0-3.391-.052-3.8a.351.351,0,0,0-.293-.344l-.5-.077a.68.68,0,0,1,.026-.421,10.927,10.927,0,0,0,2.536-.459c.038.013.089.191.089.242-.115.2-.14.4-.14,1.594-.012.751,0,1.121-.012,1.873.012.038.037.038.063.026a4.561,4.561,0,0,1,1.594-.547A1.853,1.853,0,0,1-681.138,313.414Zm-2.982.37c-.039.013-.078.115-.078.179-.012.676-.026,2.027.025,2.741a.737.737,0,0,0,.2.535,1.293,1.293,0,0,0,.816.332.663.663,0,0,0,.574-.332,2.577,2.577,0,0,0,.356-1.44,2.662,2.662,0,0,0-.394-1.568,1.178,1.178,0,0,0-1.071-.536A1.156,1.156,0,0,0-684.121,313.784Z" transform="translate(701.331 -309.603)" fill="#fff"/>
        <path id="Path_26050" data-name="Path 26050" d="M-677.194,318.051c-.243,0-.728-.038-1.53-.038-.713,0-1.172.038-1.491.038a.718.718,0,0,1,0-.434,2.58,2.58,0,0,0,.472-.115c.178-.051.2-.191.217-.5.012-.282.012-1.071.012-1.684,0-.434,0-.943-.012-1.16a.53.53,0,0,0-.089-.319,1.1,1.1,0,0,0-.51-.293.687.687,0,0,1,.026-.394,9,9,0,0,0,2.256-.446c0,.522-.014,1.453-.014,2.167,0,.649,0,1.5.014,2.09,0,.383.076.472.229.536l.484.115A.6.6,0,0,1-677.194,318.051Zm-1.059-6.182a1.674,1.674,0,0,1-.944.089.745.745,0,0,1-.42-.573.965.965,0,0,1,.063-.625,1.7,1.7,0,0,1,.957-.293.98.98,0,0,1,.6.166,1.2,1.2,0,0,1,.1.485A1.105,1.105,0,0,1-678.253,311.869Z" transform="translate(701.738 -309.549)" fill="#fff"/>
        <path id="Path_26051" data-name="Path 26051" d="M-671.526,313.414a2.535,2.535,0,0,1,.6,1.682,2.746,2.746,0,0,1-1.059,2.307,4.719,4.719,0,0,1-2.154.816,4.422,4.422,0,0,1-1.249-.166,1.566,1.566,0,0,0-.8.013c-.038.013-.128-.077-.128-.115.038-.306.077-1.453.064-3.25-.013-2,0-3.391-.051-3.8a.351.351,0,0,0-.293-.344l-.5-.077a.682.682,0,0,1,.027-.421,10.925,10.925,0,0,0,2.536-.459c.038.013.089.191.089.242-.115.2-.14.4-.14,1.594-.013.751,0,1.121-.013,1.873.013.038.038.038.064.026a4.561,4.561,0,0,1,1.594-.547A1.852,1.852,0,0,1-671.526,313.414Zm-2.983.37c-.038.013-.077.115-.077.179-.013.676-.025,2.027.026,2.741a.737.737,0,0,0,.2.535,1.292,1.292,0,0,0,.816.332.664.664,0,0,0,.574-.332,2.578,2.578,0,0,0,.356-1.44,2.66,2.66,0,0,0-.4-1.568,1.175,1.175,0,0,0-1.07-.536A1.168,1.168,0,0,0-674.51,313.784Z" transform="translate(701.935 -309.603)" fill="#fff"/>
        <path id="Path_26052" data-name="Path 26052" d="M-668.541,310.3c.472,0,1.186.038,1.963.038.842,0,1.492-.038,2.014-.038a.632.632,0,0,1,0,.434c-.229.024-.433.076-.587.1-.318.076-.42.3-.432.7-.038.905-.013,2.052-.013,2.728a11.284,11.284,0,0,0,.1,1.619c.153.879.764,1.466,2.014,1.466.853,0,1.8-.293,1.925-2.014a35.427,35.427,0,0,0,.026-3.658c-.026-.485-.128-.726-.548-.815a4.692,4.692,0,0,0-.753-.127.721.721,0,0,1,.013-.434c.472,0,.995.038,1.581.038.968,0,1.249-.038,1.542-.038a.517.517,0,0,1,0,.434c-.191.038-.37.064-.536.114-.319.078-.421.268-.459.893-.026.421-.077,2.205-.1,3.047-.1,2.612-1.4,3.467-3.378,3.467-2.295,0-3.06-1.121-3.2-2.358-.115-.931-.089-2.88-.1-4.4-.013-.332-.115-.547-.421-.637a3.516,3.516,0,0,0-.663-.127A.992.992,0,0,1-668.541,310.3Z" transform="translate(702.472 -309.559)" fill="#fff"/>
        <path id="Path_26053" data-name="Path 26053" d="M-659.854,317.4c.179-.038.242-.23.268-.5.013-.383.025-1.4.025-1.95,0-.319,0-.867-.025-.995s-.089-.293-.6-.472a1.2,1.2,0,0,1,.063-.383,7.588,7.588,0,0,0,2.141-.56.155.155,0,0,1,.051.1v.7a.046.046,0,0,0,.064.038,3.121,3.121,0,0,1,1.631-.777,1.464,1.464,0,0,1,1.313.689,2.657,2.657,0,0,1,.343,1.5c0,.777-.012,1.847,0,2.255a.291.291,0,0,0,.1.217,1.326,1.326,0,0,0,.611.217.652.652,0,0,1-.064.434c-.2,0-.587-.038-1.466-.038-.714,0-.981.026-1.414.038-.038-.077-.052-.4,0-.434l.33-.089c.167-.051.2-.166.217-.357a21.27,21.27,0,0,0-.038-2.689.892.892,0,0,0-.383-.587.9.9,0,0,0-.547-.14,1.289,1.289,0,0,0-.587.166.287.287,0,0,0-.1.2c.013.815.013,2.244.025,2.957.013.344.115.408.281.459a2.7,2.7,0,0,0,.357.077.843.843,0,0,1-.025.434c-.5-.013-.956-.038-1.517-.038-.854,0-1.161.026-1.441.038a.838.838,0,0,1-.012-.434C-660.1,317.462-660.006,317.436-659.854,317.4Z" transform="translate(702.993 -309.418)" fill="#fff"/>
        <path id="Path_26054" data-name="Path 26054" d="M-650.807,318.051c-.242,0-.727-.038-1.53-.038-.713,0-1.172.038-1.491.038a.717.717,0,0,1,0-.434,2.555,2.555,0,0,0,.472-.115c.179-.051.2-.191.217-.5.013-.282.013-1.071.013-1.684,0-.434,0-.943-.013-1.16a.522.522,0,0,0-.089-.319,1.1,1.1,0,0,0-.51-.293.688.688,0,0,1,.026-.394,9,9,0,0,0,2.256-.446c0,.522-.013,1.453-.013,2.167,0,.649,0,1.5.013,2.09,0,.383.077.472.23.536l.483.115A.6.6,0,0,1-650.807,318.051Zm-1.059-6.182a1.673,1.673,0,0,1-.944.089.75.75,0,0,1-.42-.573.96.96,0,0,1,.064-.625,1.7,1.7,0,0,1,.955-.293.98.98,0,0,1,.6.166,1.179,1.179,0,0,1,.1.485A1.1,1.1,0,0,1-651.866,311.869Z" transform="translate(703.396 -309.549)" fill="#fff"/>
        <path id="Path_26055" data-name="Path 26055" d="M-650.79,312.733c.445.014,1.07.039,1.568.039.688,0,1.108-.025,1.415-.039a.635.635,0,0,1,.013.434,4.134,4.134,0,0,0-.446.116.127.127,0,0,0-.064.152c.166.5.714,1.912.982,2.588a.025.025,0,0,0,.038-.013c.241-.561.713-1.721.866-2.244.1-.319.013-.421-.128-.472a2.816,2.816,0,0,0-.561-.128.626.626,0,0,1,.039-.434c.2,0,.688.039,1.159.039.383,0,.854-.025,1.147-.039a.631.631,0,0,1-.013.434,2.124,2.124,0,0,0-.445.116c-.166.063-.332.241-.51.624-.319.662-.8,1.772-1.224,2.8-.2.535-.331.879-.432,1.185a4.663,4.663,0,0,0-.944.013c-.1-.332-.242-.7-.4-1.1-.306-.828-.7-1.758-.955-2.37-.408-.969-.485-1.071-.777-1.173a2.112,2.112,0,0,0-.4-.1A.784.784,0,0,1-650.79,312.733Z" transform="translate(703.584 -309.406)" fill="#fff"/>
        <path id="Path_26056" data-name="Path 26056" d="M-640.128,316.451a1.68,1.68,0,0,1-.065.421,3.217,3.217,0,0,1-2.346,1.16,2.338,2.338,0,0,1-1.708-.612,2.855,2.855,0,0,1-.764-2.091,2.661,2.661,0,0,1,1.2-2.295,3.117,3.117,0,0,1,1.53-.433,2.025,2.025,0,0,1,2.026,1.848c.014.077.129.152.192.179a.818.818,0,0,1-.078.344,24.467,24.467,0,0,1-3.161.28.2.2,0,0,0-.051.128,1.683,1.683,0,0,0,.485,1.046,1.638,1.638,0,0,0,1.211.433,2.249,2.249,0,0,0,1.466-.5C-640.18,316.375-640.128,316.413-640.128,316.451Zm-3.251-1.861c0,.012.025.075.076.075a9.276,9.276,0,0,0,1.364-.037.129.129,0,0,0,.076-.115c-.038-.816-.319-1.4-.8-1.4C-643.1,313.112-643.38,313.736-643.38,314.591Z" transform="translate(703.952 -309.415)" fill="#fff"/>
        <path id="Path_26057" data-name="Path 26057" d="M-635.358,312.987a.689.689,0,0,1,0,.281,3.7,3.7,0,0,1-.561,1.161.242.242,0,0,1-.179.038,1.468,1.468,0,0,0-1.006-.536.506.506,0,0,0-.37.128.244.244,0,0,0-.077.191c-.013.649,0,2.4.013,2.549.026.383.064.5.344.561a4.208,4.208,0,0,0,.649.127.757.757,0,0,1-.064.434c-.28,0-.892-.038-1.836-.038-.611,0-1.134.038-1.478.038a.994.994,0,0,1,0-.434,2.024,2.024,0,0,0,.5-.115c.115-.038.191-.153.2-.407s.038-1.161.026-1.951c0-.434,0-.828-.026-1.032-.013-.153-.064-.319-.638-.523a.748.748,0,0,1,.064-.357,7.1,7.1,0,0,0,2.142-.56.158.158,0,0,1,.1.077c-.013.152-.051.8-.051.968,0,.051.051.051.064.026a6.525,6.525,0,0,1,.74-.714,1.243,1.243,0,0,1,.713-.292A.755.755,0,0,1-635.358,312.987Z" transform="translate(704.27 -309.418)" fill="#fff"/>
        <path id="Path_26058" data-name="Path 26058" d="M-631.585,314.284a1.19,1.19,0,0,1-.421.024,1.535,1.535,0,0,0-.561-1.1,1.058,1.058,0,0,0-.547-.14.572.572,0,0,0-.625.536c0,.357.128.548,1.236,1.057.995.446,1.326.88,1.326,1.581,0,1.121-1.084,1.772-2.282,1.772a5.207,5.207,0,0,1-1.606-.255c-.051-.268-.166-1.376-.179-1.593a1.151,1.151,0,0,1,.434-.128,2.062,2.062,0,0,0,.828,1.3,1.407,1.407,0,0,0,.689.191c.408,0,.662-.217.662-.523,0-.343-.229-.547-.8-.828-1.313-.625-1.682-1.11-1.682-1.887,0-.918.713-1.682,2.154-1.682a8.148,8.148,0,0,1,.9.063,4.064,4.064,0,0,0,.625.078A12.919,12.919,0,0,0-631.585,314.284Z" transform="translate(704.565 -309.414)" fill="#fff"/>
        <path id="Path_26059" data-name="Path 26059" d="M-627.779,318.051c-.242,0-.728-.038-1.53-.038-.713,0-1.172.038-1.491.038a.718.718,0,0,1,0-.434,2.555,2.555,0,0,0,.472-.115c.179-.051.2-.191.217-.5.012-.282.012-1.071.012-1.684,0-.434,0-.943-.012-1.16a.53.53,0,0,0-.089-.319,1.1,1.1,0,0,0-.51-.293.688.688,0,0,1,.026-.394,9,9,0,0,0,2.256-.446c0,.522-.013,1.453-.013,2.167,0,.649,0,1.5.013,2.09,0,.383.077.472.23.536l.484.115A.6.6,0,0,1-627.779,318.051Zm-1.059-6.182a1.675,1.675,0,0,1-.944.089.745.745,0,0,1-.42-.573.965.965,0,0,1,.063-.625,1.7,1.7,0,0,1,.957-.293.981.981,0,0,1,.6.166,1.2,1.2,0,0,1,.1.485A1.1,1.1,0,0,1-628.838,311.869Z" transform="translate(704.842 -309.549)" fill="#fff"/>
        <path id="Path_26060" data-name="Path 26060" d="M-625.178,313.643c-.014,0-.052.051-.052.077,0,.485-.012,1.389-.012,1.988a4.936,4.936,0,0,0,.05.957.606.606,0,0,0,.65.5,1.213,1.213,0,0,0,.689-.179,1.068,1.068,0,0,1-.013.446,1.9,1.9,0,0,1-1.529.689,1.409,1.409,0,0,1-1.314-.612,2.786,2.786,0,0,1-.19-1.415c0-.638.012-1.784.012-2.32a.128.128,0,0,0-.077-.128c-.177-.026-.421-.026-.611-.051a2.149,2.149,0,0,1,.115-.523,4.128,4.128,0,0,0,.509-.14c.027,0,.052-.05.064-.1v-1.084a6.113,6.113,0,0,0,1.416-.676,1.139,1.139,0,0,1,.293-.026c-.038.293-.052.906-.052,1.733,0,.052.025.1.052.1.267,0,1.045-.039,1.389-.051-.038.216-.115.611-.128.828C-624.3,313.643-624.746,313.643-625.178,313.643Z" transform="translate(705.047 -309.513)" fill="#fff"/>
        <path id="Path_26061" data-name="Path 26061" d="M-623.766,312.733c.165,0,.815.039,1.644.039.751,0,1.109-.025,1.478-.039a1.226,1.226,0,0,1,.025.434,2.265,2.265,0,0,0-.383.116.222.222,0,0,0-.089.241c.179.561.8,2.091.956,2.448h.052a12.809,12.809,0,0,0,.79-2.244.329.329,0,0,0-.217-.421,1.953,1.953,0,0,0-.573-.14,1.334,1.334,0,0,1,.063-.434c.268,0,.689.039,1.161.039.421,0,.854-.025,1.236-.039a1.218,1.218,0,0,1,.013.434,1.884,1.884,0,0,0-.471.14c-.229.1-.37.268-.548.752a49.028,49.028,0,0,1-2.8,5.927c-.153.292-.357.649-.446.815l-.152.052a1.633,1.633,0,0,1-.88-.4.457.457,0,0,1,.013-.267,13.906,13.906,0,0,0,1.785-2.409,3.063,3.063,0,0,1-.179-.332c-.3-.713-.777-1.861-1.249-2.957-.37-.88-.485-1.084-.842-1.211a2.893,2.893,0,0,0-.458-.116A1.358,1.358,0,0,1-623.766,312.733Z" transform="translate(705.282 -309.406)" fill="#fff"/>
      </g>
      <g id="Group_1584" data-name="Group 1584" transform="translate(0.416 26.672)">
        <path id="Path_26062" data-name="Path 26062" d="M-697.4,333.4a1,1,0,0,1-.352.021,1.276,1.276,0,0,0-.466-.913.885.885,0,0,0-.457-.117.477.477,0,0,0-.521.446c0,.3.106.456,1.031.881.828.372,1.1.733,1.1,1.317,0,.935-.9,1.477-1.9,1.477a4.345,4.345,0,0,1-1.338-.213c-.042-.223-.138-1.148-.149-1.329a1,1,0,0,1,.361-.106,1.719,1.719,0,0,0,.69,1.084,1.173,1.173,0,0,0,.574.159c.34,0,.553-.181.553-.436,0-.287-.191-.457-.669-.69-1.094-.521-1.4-.925-1.4-1.573,0-.764.6-1.4,1.8-1.4a6.581,6.581,0,0,1,.753.053,3.482,3.482,0,0,0,.521.064A10.58,10.58,0,0,0-697.4,333.4Z" transform="translate(700.454 -329.34)" fill="#fff"/>
        <path id="Path_26063" data-name="Path 26063" d="M-695.652,329.88a9.211,9.211,0,0,0,2.082-.382c.043.01.1.137.085.2-.1.148-.138.265-.138,1.009v1.965c0,.032.021.053.043.032a2.581,2.581,0,0,1,1.359-.553c.882,0,1.382.616,1.382,1.753,0,.563-.01,1.551.011,1.965,0,.021.011.149.074.181a1.5,1.5,0,0,0,.509.17.442.442,0,0,1-.053.361c-.169,0-.53-.032-1.253-.032-.436,0-.86.011-1.136.032a.421.421,0,0,1,0-.361,1.636,1.636,0,0,0,.276-.074c.148-.053.18-.149.19-.446a13.516,13.516,0,0,0-.042-2.146.776.776,0,0,0-.8-.6,1.051,1.051,0,0,0-.489.106.134.134,0,0,0-.064.127c0,.85-.011,2.115.011,2.443.021.287.01.436.212.51a2.39,2.39,0,0,0,.329.085c.064.053.032.3-.01.361-.319,0-.616-.032-1.275-.032s-.977.032-1.211.032a.392.392,0,0,1,0-.361,2.83,2.83,0,0,0,.361-.1c.17-.053.191-.223.2-.585.021-.414.021-1.094.021-1.774,0-2.135-.011-2.867-.043-3.176a.3.3,0,0,0-.191-.276,2.65,2.65,0,0,0-.446-.1A.421.421,0,0,1-695.652,329.88Z" transform="translate(700.753 -329.498)" fill="#fff"/>
        <path id="Path_26064" data-name="Path 26064" d="M-686.719,333.1a.864.864,0,0,0-.723-.33.782.782,0,0,0-.521.149,4.545,4.545,0,0,0-.35.626c-.054.043-.393-.117-.383-.181a2.378,2.378,0,0,1,.223-.69A3.738,3.738,0,0,1-686.8,332a1.5,1.5,0,0,1,1.264.648,1.92,1.92,0,0,1,.266,1.072c0,.5-.021,1.189-.021,1.626,0,.19.064.4.287.4a1.124,1.124,0,0,0,.351-.053,1.2,1.2,0,0,1-.053.425,1.927,1.927,0,0,1-1.157.414c-.361,0-.584-.138-.648-.329a1.164,1.164,0,0,1-.053-.181c0-.021-.043-.021-.043-.011a2.837,2.837,0,0,1-1.179.51.974.974,0,0,1-.648-.255,1.433,1.433,0,0,1-.415-1.052,1.69,1.69,0,0,1,.181-.637c.307-.191,1.625-.5,2.018-.67.043-.011.074-.074.085-.117a.61.61,0,0,0,.011-.138A.878.878,0,0,0-686.719,333.1Zm.117,1.168a5.69,5.69,0,0,0-.893.34.957.957,0,0,0-.085.351.7.7,0,0,0,.691.775.323.323,0,0,0,.234-.064.233.233,0,0,0,.064-.191c.021-.329.021-.977.021-1.157C-686.57,334.3-686.591,334.269-686.6,334.269Z" transform="translate(701.183 -329.341)" fill="#fff"/>
        <path id="Path_26065" data-name="Path 26065" d="M-683.375,332.481a8.881,8.881,0,0,0,1.912-.6c.021-.011.1.074.1.1,0,.1-.011.383-.011.574a.041.041,0,0,0,.053.032,3,3,0,0,1,1.391-.585,1.457,1.457,0,0,1,1.105.489,2.157,2.157,0,0,1,.51,1.434,2.3,2.3,0,0,1-.861,1.912,3.287,3.287,0,0,1-1.944.7,1.5,1.5,0,0,1-.223-.011c-.021,0-.032.032-.032.053-.011.275,0,1.03.021,1.317.011.255.064.383.308.436.128.032.383.064.606.1a.678.678,0,0,1-.053.36h-.277a22.238,22.238,0,0,0-2.7.139.6.6,0,0,1-.032-.383,2.66,2.66,0,0,0,.521-.128c.181-.064.2-.244.212-.5.021-.372.021-1.412.021-2.4,0-1.126,0-1.721-.032-2.208-.011-.171-.032-.277-.181-.351a3.063,3.063,0,0,0-.436-.129A.781.781,0,0,1-683.375,332.481Zm2.082.489a.225.225,0,0,0-.106.169c-.011.3,0,1.626.021,2.073a.822.822,0,0,0,.276.594.885.885,0,0,0,.594.2.656.656,0,0,0,.5-.245,2.02,2.02,0,0,0,.308-1.211,2.059,2.059,0,0,0-.34-1.306.947.947,0,0,0-.8-.394A.994.994,0,0,0-681.293,332.97Z" transform="translate(701.517 -329.348)" fill="#fff"/>
        <path id="Path_26066" data-name="Path 26066" d="M-674.236,336.538c-.2,0-.6-.032-1.274-.032-.6,0-.977.032-1.242.032a.6.6,0,0,1,0-.361,2.144,2.144,0,0,0,.393-.1c.148-.043.169-.159.181-.415.01-.233.01-.892.01-1.4,0-.361,0-.786-.01-.967a.427.427,0,0,0-.075-.265.9.9,0,0,0-.424-.244.578.578,0,0,1,.021-.329,7.507,7.507,0,0,0,1.88-.372c0,.436-.011,1.211-.011,1.806,0,.542,0,1.253.011,1.742,0,.319.064.393.191.446l.4.1A.5.5,0,0,1-674.236,336.538Zm-.881-5.153a1.394,1.394,0,0,1-.786.074.626.626,0,0,1-.351-.477.807.807,0,0,1,.054-.521,1.415,1.415,0,0,1,.8-.244.817.817,0,0,1,.5.138.987.987,0,0,1,.085.4A.916.916,0,0,1-675.117,331.385Z" transform="translate(701.941 -329.453)" fill="#fff"/>
        <path id="Path_26067" data-name="Path 26067" d="M-672.365,335.993c.149-.032.2-.191.223-.415.011-.319.021-1.168.021-1.625,0-.266,0-.723-.021-.828s-.075-.244-.5-.393a.976.976,0,0,1,.054-.319,6.318,6.318,0,0,0,1.783-.468.133.133,0,0,1,.044.085v.585a.038.038,0,0,0,.053.032,2.6,2.6,0,0,1,1.359-.648,1.218,1.218,0,0,1,1.094.574,2.214,2.214,0,0,1,.287,1.253c0,.648-.011,1.541,0,1.88a.245.245,0,0,0,.085.181,1.114,1.114,0,0,0,.51.181.545.545,0,0,1-.053.361c-.17,0-.489-.032-1.222-.032-.594,0-.817.021-1.178.032a.6.6,0,0,1,0-.361l.276-.074c.138-.043.17-.138.181-.3a17.759,17.759,0,0,0-.032-2.242.738.738,0,0,0-.319-.488.75.75,0,0,0-.457-.118,1.064,1.064,0,0,0-.489.139.24.24,0,0,0-.084.169c.011.68.011,1.871.021,2.465.011.287.1.34.234.383a2.241,2.241,0,0,0,.3.064.7.7,0,0,1-.021.361c-.413-.011-.8-.032-1.263-.032-.712,0-.966.021-1.2.032a.7.7,0,0,1-.01-.361C-672.566,336.046-672.491,336.025-672.365,335.993Z" transform="translate(702.196 -329.344)" fill="#fff"/>
        <path id="Path_26068" data-name="Path 26068" d="M-662.756,332.209a2.5,2.5,0,0,0,.659.106c.36,0,.478-.032.647-.213.033-.021.159.064.171.1a1.663,1.663,0,0,1-.277.68.478.478,0,0,1-.381.127,1.286,1.286,0,0,1-.213-.01c-.011,0-.021.031-.021.043a1.318,1.318,0,0,1,.064.424,1.451,1.451,0,0,1-.617,1.306,2.358,2.358,0,0,1-1.253.394c-.043.01-.34.01-.393.01s-.149.1-.149.159c0,.149.128.255.361.287a14.236,14.236,0,0,1,1.838.223,1.136,1.136,0,0,1,.861,1.126,2.168,2.168,0,0,1-1.435,1.871,3.07,3.07,0,0,1-1.306.275,2.677,2.677,0,0,1-1.285-.3,1.229,1.229,0,0,1-.659-.978.974.974,0,0,1,.064-.415,7.584,7.584,0,0,1,.956-.6c.021-.012.011-.043,0-.043a1.043,1.043,0,0,1-.711-.893.8.8,0,0,1,.042-.17c.137-.074.732-.392.913-.53a.068.068,0,0,0,0-.064,1.467,1.467,0,0,1-1.094-1.477,1.454,1.454,0,0,1,.658-1.242,2.629,2.629,0,0,1,1.392-.4A3.406,3.406,0,0,1-662.756,332.209Zm.266,5.534a.611.611,0,0,0-.383-.574,4.235,4.235,0,0,0-1.636-.254.613.613,0,0,0-.3.073.662.662,0,0,0-.3.531.837.837,0,0,0,.276.616,1.66,1.66,0,0,0,1.159.393C-662.809,338.529-662.49,338.125-662.49,337.743Zm-2.167-4.418c0,1.04.319,1.455.733,1.455a.446.446,0,0,0,.34-.17,1.408,1.408,0,0,0,.211-.861c0-.744-.2-1.37-.722-1.37C-664.413,332.379-664.657,332.708-664.657,333.325Z" transform="translate(702.609 -329.341)" fill="#fff"/>
        <path id="Path_26069" data-name="Path 26069" d="M-656.629,336.126c.149-.053.181-.2.181-.361.011-.849.011-1.87.011-2.751,0-.021-.021-.074-.053-.074l-.521-.032a1.235,1.235,0,0,1,.1-.372,2.435,2.435,0,0,0,.445-.191.108.108,0,0,0,.042-.074,2.725,2.725,0,0,1,1.265-2.369,2.256,2.256,0,0,1,1.168-.4,1.057,1.057,0,0,1,.914.35.421.421,0,0,1,.01.2,2.538,2.538,0,0,1-.531.755.309.309,0,0,1-.17.011c-.255-.3-.659-.68-.935-.68a.28.28,0,0,0-.233.117c-.117.159-.159.415-.159,1.211,0,.255.009.606.021.765a.09.09,0,0,0,.074.074l1.019-.032c-.032.159-.085.457-.106.67-.319,0-.626-.011-.935-.011-.031,0-.052.043-.052.064.01,1.211.021,2.155.043,2.666.01.276.063.393.265.457a2.714,2.714,0,0,0,.542.106.606.606,0,0,1-.053.361c-.3,0-.574-.032-1.529-.032-.521,0-.987.032-1.222.032a.541.541,0,0,1,0-.361A2.534,2.534,0,0,0-656.629,336.126Z" transform="translate(703.179 -329.498)" fill="#fff"/>
        <path id="Path_26070" data-name="Path 26070" d="M-652.6,332.226a13.049,13.049,0,0,0,1.975-.17,16.959,16.959,0,0,0-.064,1.923,5.481,5.481,0,0,0,.054,1.2.614.614,0,0,0,.658.435.856.856,0,0,0,.51-.17.24.24,0,0,0,.074-.159c.021-.169.032-.913,0-2.251,0-.117-.032-.287-.181-.329a3.344,3.344,0,0,0-.553-.117.649.649,0,0,1,.032-.361,15.019,15.019,0,0,0,2.125-.159c-.011.1-.021.648-.021,1.1v2.135c.011.2.053.34.191.361s.266.011.436.011a1.088,1.088,0,0,1-.053.372,8.97,8.97,0,0,1-1.848.478.217.217,0,0,1-.064-.074,3.416,3.416,0,0,1-.053-.585.032.032,0,0,0-.053-.021,2.361,2.361,0,0,1-1.414.648c-.838,0-1.2-.563-1.21-1.329-.011-.52,0-1.561-.011-2.092-.011-.223-.032-.34-.2-.393-.085-.022-.243-.064-.372-.085A.7.7,0,0,1-652.6,332.226Z" transform="translate(703.456 -329.337)" fill="#fff"/>
        <path id="Path_26071" data-name="Path 26071" d="M-644.127,332.864a.1.1,0,0,0-.043.063c0,.4-.011,1.158-.011,1.658a4.028,4.028,0,0,0,.042.8.5.5,0,0,0,.541.414,1.011,1.011,0,0,0,.574-.149.892.892,0,0,1-.011.372,1.585,1.585,0,0,1-1.274.574,1.174,1.174,0,0,1-1.095-.51,2.311,2.311,0,0,1-.159-1.179c0-.531.012-1.488.012-1.934a.1.1,0,0,0-.065-.105c-.148-.021-.35-.021-.509-.043a1.787,1.787,0,0,1,.1-.436,3.845,3.845,0,0,0,.425-.117c.02,0,.041-.042.053-.085v-.9a5.106,5.106,0,0,0,1.179-.563.912.912,0,0,1,.244-.021c-.032.245-.043.754-.043,1.444,0,.042.021.085.043.085.223,0,.87-.032,1.157-.043-.032.181-.1.51-.106.691C-643.395,332.864-643.766,332.864-644.127,332.864Z" transform="translate(703.867 -329.423)" fill="#fff"/>
        <path id="Path_26072" data-name="Path 26072" d="M-641.592,332.226a13.063,13.063,0,0,0,1.976-.17,16.992,16.992,0,0,0-.064,1.923,5.5,5.5,0,0,0,.053,1.2.615.615,0,0,0,.659.435.856.856,0,0,0,.51-.17.241.241,0,0,0,.074-.159c.02-.169.032-.913,0-2.251,0-.117-.032-.287-.181-.329a3.342,3.342,0,0,0-.553-.117.651.651,0,0,1,.032-.361,15.017,15.017,0,0,0,2.125-.159c-.011.1-.021.648-.021,1.1v2.135c.011.2.053.34.191.361s.266.011.436.011a1.089,1.089,0,0,1-.053.372,8.979,8.979,0,0,1-1.849.478.231.231,0,0,1-.064-.074,3.547,3.547,0,0,1-.052-.585.032.032,0,0,0-.053-.021,2.36,2.36,0,0,1-1.413.648c-.839,0-1.2-.563-1.211-1.329-.01-.52,0-1.561-.01-2.092-.011-.223-.032-.34-.2-.393-.085-.022-.245-.064-.372-.085A.708.708,0,0,1-641.592,332.226Z" transform="translate(704.148 -329.337)" fill="#fff"/>
        <path id="Path_26073" data-name="Path 26073" d="M-631.271,332.318a.554.554,0,0,1,0,.234,3.061,3.061,0,0,1-.466.966.2.2,0,0,1-.149.032,1.228,1.228,0,0,0-.84-.445.425.425,0,0,0-.308.105.2.2,0,0,0-.063.159c-.012.542,0,2,.01,2.125.021.319.053.414.287.468a3.5,3.5,0,0,0,.542.106.629.629,0,0,1-.053.361c-.234,0-.744-.032-1.529-.032-.51,0-.946.032-1.233.032a.843.843,0,0,1,0-.361,1.694,1.694,0,0,0,.415-.1c.1-.032.159-.128.17-.34s.032-.966.021-1.625c0-.361,0-.691-.021-.86-.011-.128-.053-.266-.53-.436a.623.623,0,0,1,.052-.3,5.926,5.926,0,0,0,1.786-.468c.031,0,.073.043.085.064-.012.128-.043.669-.043.808,0,.043.043.043.052.021a5.367,5.367,0,0,1,.616-.6,1.036,1.036,0,0,1,.6-.244A.627.627,0,0,1-631.271,332.318Z" transform="translate(704.559 -329.344)" fill="#fff"/>
        <path id="Path_26074" data-name="Path 26074" d="M-625.847,335.2a1.308,1.308,0,0,1-.053.35,2.68,2.68,0,0,1-1.954.967,1.948,1.948,0,0,1-1.423-.51,2.378,2.378,0,0,1-.638-1.742,2.214,2.214,0,0,1,1-1.912,2.593,2.593,0,0,1,1.274-.361,1.688,1.688,0,0,1,1.689,1.54c.011.064.106.128.159.149a.668.668,0,0,1-.064.287,20.257,20.257,0,0,1-2.634.234.162.162,0,0,0-.043.106,1.4,1.4,0,0,0,.4.872,1.366,1.366,0,0,0,1.009.36,1.869,1.869,0,0,0,1.221-.415C-625.888,335.141-625.847,335.172-625.847,335.2Zm-2.708-1.552c0,.011.021.064.064.064a7.844,7.844,0,0,0,1.136-.032.108.108,0,0,0,.064-.1c-.032-.68-.266-1.168-.67-1.168C-628.322,332.421-628.555,332.942-628.555,333.653Z" transform="translate(704.884 -329.341)" fill="#fff"/>
        <path id="Path_26075" data-name="Path 26075" d="M-621.156,333.4a.993.993,0,0,1-.351.021,1.276,1.276,0,0,0-.468-.913.884.884,0,0,0-.457-.117.476.476,0,0,0-.52.446c0,.3.106.456,1.03.881.829.372,1.105.733,1.105,1.317,0,.935-.9,1.477-1.9,1.477a4.338,4.338,0,0,1-1.338-.213c-.042-.223-.139-1.148-.15-1.329a1,1,0,0,1,.361-.106,1.724,1.724,0,0,0,.691,1.084,1.173,1.173,0,0,0,.574.159c.34,0,.552-.181.552-.436,0-.287-.19-.457-.668-.69-1.095-.521-1.4-.925-1.4-1.573,0-.764.594-1.4,1.794-1.4a6.614,6.614,0,0,1,.755.053,3.47,3.47,0,0,0,.521.064A10.773,10.773,0,0,0-621.156,333.4Z" transform="translate(705.243 -329.34)" fill="#fff"/>
      </g>
    </g>
  </g>
</svg>
