<svg xmlns="http://www.w3.org/2000/svg" xmlns:xlink="http://www.w3.org/1999/xlink" width="98" height="45" viewBox="0 0 98 45">
  <defs>
    <clipPath id="clip-kwp-res-logo">
      <rect width="98" height="45"/>
    </clipPath>
  </defs>
  <g id="kwp-res-logo" clip-path="url(#clip-kwp-res-logo)">
    <g id="kwp_new_responsive_logo" data-name="kwp new responsive logo" transform="translate(-58.122 -21.855)">
      <g id="Group_1626" data-name="Group 1626" transform="translate(109.1 28.597)">
        <path id="Path_25908" data-name="Path 25908" d="M118.538,33.1l-2.625-3.51V33.1h-1.9V25.152h1.9v3.487l2.6-3.487h2.235l-3.025,3.9,3.136,4.054Zm6.217,4.318-2.035,7.949h-2.3l-1.246-5.231-1.29,5.231h-2.3l-1.98-7.949h2.035l1.123,5.786,1.39-5.786h2.091l1.335,5.786,1.134-5.786Zm-4.793,14.825a2.629,2.629,0,0,1-.311,1.268,2.319,2.319,0,0,1-.956.917,3.317,3.317,0,0,1-1.6.351h-1.179v2.853h-1.9V49.684h3.081a3.453,3.453,0,0,1,1.579.328,2.233,2.233,0,0,1,.968.906A2.671,2.671,0,0,1,119.961,52.243Zm-3.014,1a1.122,1.122,0,0,0,.812-.26,1.148,1.148,0,0,0,0-1.472,1.121,1.121,0,0,0-.812-.26h-1.034V53.24Z" transform="translate(-113.6 -24.051)" fill="#fff"/>
        <path id="Path_25909" data-name="Path 25909" d="M129.9,28.663a3.87,3.87,0,0,1,.356-1.706,2.763,2.763,0,0,1,.99-1.13,2.539,2.539,0,0,1,1.39-.4,2.326,2.326,0,0,1,1.146.271,1.969,1.969,0,0,1,.767.712v-.893h1.9v6.305h-1.9v-.893a2.055,2.055,0,0,1-.779.712,2.326,2.326,0,0,1-1.146.271,2.52,2.52,0,0,1-1.379-.4,2.846,2.846,0,0,1-.99-1.141A3.944,3.944,0,0,1,129.9,28.663Zm4.649.011a1.582,1.582,0,0,0-.4-1.141,1.256,1.256,0,0,0-.956-.418,1.291,1.291,0,0,0-.968.418,1.568,1.568,0,0,0-.389,1.13,1.651,1.651,0,0,0,.389,1.153,1.291,1.291,0,0,0,.968.418,1.256,1.256,0,0,0,.956-.418A1.582,1.582,0,0,0,134.55,28.675Zm5.179-2.1a2.474,2.474,0,0,1,.834-.814,2.1,2.1,0,0,1,1.112-.305V27.5h-.523a1.565,1.565,0,0,0-1.068.316,1.374,1.374,0,0,0-.356,1.085v2.927h-1.9V25.522h1.9Zm2.477,2.09a3.869,3.869,0,0,1,.356-1.706,2.764,2.764,0,0,1,.99-1.13,2.539,2.539,0,0,1,1.39-.4,2.326,2.326,0,0,1,1.146.271,1.969,1.969,0,0,1,.767.712v-.893h1.9v6.305h-1.9v-.893a2.055,2.055,0,0,1-.778.712,2.326,2.326,0,0,1-1.146.271,2.52,2.52,0,0,1-1.379-.4,2.846,2.846,0,0,1-.99-1.141A3.943,3.943,0,0,1,142.207,28.663Zm4.649.011a1.582,1.582,0,0,0-.4-1.141,1.256,1.256,0,0,0-.956-.418,1.291,1.291,0,0,0-.968.418,1.568,1.568,0,0,0-.389,1.13,1.651,1.651,0,0,0,.389,1.153,1.291,1.291,0,0,0,.968.418,1.256,1.256,0,0,0,.956-.418A1.582,1.582,0,0,0,146.855,28.675Zm2.9,0a3.616,3.616,0,0,1,.389-1.718,2.812,2.812,0,0,1,1.1-1.13,3.286,3.286,0,0,1,1.624-.4,3.021,3.021,0,0,1,1.946.621,2.929,2.929,0,0,1,1.034,1.751h-2.024a.976.976,0,0,0-.99-.723A.988.988,0,0,0,152,27.5a1.9,1.9,0,0,0-.311,1.175A1.957,1.957,0,0,0,152,29.861a1,1,0,0,0,.834.407.976.976,0,0,0,.99-.723h2.024a2.968,2.968,0,0,1-1.034,1.74,3.013,3.013,0,0,1-1.946.633,3.286,3.286,0,0,1-1.624-.4,2.812,2.812,0,0,1-1.1-1.13A3.616,3.616,0,0,1,149.755,28.675Zm10.926-3.22a2.183,2.183,0,0,1,1.713.723,2.821,2.821,0,0,1,.645,1.966v3.684h-1.891V28.4a1.4,1.4,0,0,0-.323-.983,1.249,1.249,0,0,0-1.735,0,1.4,1.4,0,0,0-.323.983v3.424h-1.9V23.465h1.9v2.9a2.041,2.041,0,0,1,.79-.667A2.49,2.49,0,0,1,160.681,25.454Zm4.636-.588a1.175,1.175,0,0,1-.823-.294,1,1,0,0,1-.311-.746.981.981,0,0,1,.311-.746,1.149,1.149,0,0,1,.823-.305,1.1,1.1,0,0,1,.8.305.965.965,0,0,1,.323.746.987.987,0,0,1-.323.746A1.12,1.12,0,0,1,165.317,24.866Zm.945.655v6.305h-1.9V25.522ZM133.844,40.9A3.87,3.87,0,0,1,134.2,39.2a2.764,2.764,0,0,1,.99-1.13,2.539,2.539,0,0,1,1.39-.4,2.326,2.326,0,0,1,1.146.271,1.969,1.969,0,0,1,.767.712v-.893h1.9v6.305h-1.9v-.893a2.055,2.055,0,0,1-.778.712,2.326,2.326,0,0,1-1.146.271,2.52,2.52,0,0,1-1.379-.4,2.847,2.847,0,0,1-.99-1.141A3.944,3.944,0,0,1,133.844,40.9Zm4.649.011a1.582,1.582,0,0,0-.4-1.141,1.256,1.256,0,0,0-.956-.418,1.291,1.291,0,0,0-.968.418,1.568,1.568,0,0,0-.389,1.13,1.651,1.651,0,0,0,.389,1.153,1.291,1.291,0,0,0,.968.418,1.256,1.256,0,0,0,.956-.418A1.582,1.582,0,0,0,138.492,40.916Zm6.736,1.514v1.638h-.968a2.361,2.361,0,0,1-1.613-.508,2.163,2.163,0,0,1-.578-1.684V39.368h-.756v-1.6h.756V36.227h1.9v1.537h1.246v1.6h-1.246V41.9a.535.535,0,0,0,.133.407.644.644,0,0,0,.445.124Zm6.909-1.616a5.013,5.013,0,0,1-.033.565h-4.3a1.361,1.361,0,0,0,.367.9,1.16,1.16,0,0,0,.812.305,1,1,0,0,0,.99-.61h2.024a2.8,2.8,0,0,1-.567,1.119,2.766,2.766,0,0,1-1.012.78,3.224,3.224,0,0,1-1.368.282,3.286,3.286,0,0,1-1.624-.4,2.791,2.791,0,0,1-1.112-1.13,3.534,3.534,0,0,1-.4-1.718A3.616,3.616,0,0,1,146.3,39.2a2.791,2.791,0,0,1,1.112-1.13,3.309,3.309,0,0,1,1.635-.4,3.276,3.276,0,0,1,1.6.384,2.7,2.7,0,0,1,1.09,1.1A3.332,3.332,0,0,1,152.138,40.815Zm-1.946-.508a1,1,0,0,0-.334-.791,1.319,1.319,0,0,0-1.646-.011,1.274,1.274,0,0,0-.4.8Zm4.851-1.492a2.474,2.474,0,0,1,.834-.814,2.1,2.1,0,0,1,1.112-.305v2.045h-.523a1.565,1.565,0,0,0-1.068.316,1.374,1.374,0,0,0-.356,1.085v2.927h-1.9V37.764h1.9ZM131.367,51.056a2.474,2.474,0,0,1,.834-.814,2.1,2.1,0,0,1,1.112-.305v2.045h-.523a1.565,1.565,0,0,0-1.068.316,1.374,1.374,0,0,0-.356,1.085v2.927h-1.9V50.005h1.9Zm5.68,5.345a3.414,3.414,0,0,1-1.646-.4,2.919,2.919,0,0,1-1.146-1.13,3.457,3.457,0,0,1-.411-1.718,3.361,3.361,0,0,1,.423-1.706,2.879,2.879,0,0,1,1.157-1.141,3.623,3.623,0,0,1,3.292,0,2.879,2.879,0,0,1,1.157,1.141,3.637,3.637,0,0,1-.011,3.424,2.88,2.88,0,0,1-1.168,1.13A3.414,3.414,0,0,1,137.047,56.4Zm0-1.672a1.212,1.212,0,0,0,.923-.407,1.618,1.618,0,0,0,.389-1.164,1.647,1.647,0,0,0-.378-1.164,1.178,1.178,0,0,0-.912-.407,1.19,1.19,0,0,0-.923.407,1.654,1.654,0,0,0-.367,1.164,1.714,1.714,0,0,0,.356,1.164A1.178,1.178,0,0,0,137.047,54.729Zm5.2-5.379a1.175,1.175,0,0,1-.823-.294,1,1,0,0,1-.311-.746.981.981,0,0,1,.311-.746,1.149,1.149,0,0,1,.823-.305,1.1,1.1,0,0,1,.8.305.965.965,0,0,1,.323.746.987.987,0,0,1-.323.746A1.12,1.12,0,0,1,142.248,49.35Zm.956,7.774a2.125,2.125,0,0,1-.578,1.672,2.327,2.327,0,0,1-1.613.52h-.745V57.678h.456a.644.644,0,0,0,.445-.124.535.535,0,0,0,.133-.407V50.005h1.9Zm7.217-4.068a5.01,5.01,0,0,1-.033.565h-4.3a1.361,1.361,0,0,0,.367.9,1.16,1.16,0,0,0,.812.305,1,1,0,0,0,.99-.61h2.024a2.8,2.8,0,0,1-.567,1.119,2.766,2.766,0,0,1-1.012.78,3.224,3.224,0,0,1-1.368.283,3.286,3.286,0,0,1-1.624-.4,2.791,2.791,0,0,1-1.112-1.13,3.534,3.534,0,0,1-.4-1.718,3.616,3.616,0,0,1,.389-1.718,2.791,2.791,0,0,1,1.112-1.13,3.309,3.309,0,0,1,1.635-.4,3.276,3.276,0,0,1,1.6.384,2.7,2.7,0,0,1,1.09,1.1A3.332,3.332,0,0,1,150.422,53.056Zm-1.946-.508a1,1,0,0,0-.334-.791,1.319,1.319,0,0,0-1.646-.011,1.274,1.274,0,0,0-.4.8Zm2.571.61a3.616,3.616,0,0,1,.389-1.718,2.812,2.812,0,0,1,1.1-1.13,3.286,3.286,0,0,1,1.624-.4,3.021,3.021,0,0,1,1.946.621,2.929,2.929,0,0,1,1.034,1.751h-2.024a.976.976,0,0,0-.99-.723.988.988,0,0,0-.834.418,1.9,1.9,0,0,0-.311,1.175,1.957,1.957,0,0,0,.311,1.186,1,1,0,0,0,.834.407.976.976,0,0,0,.99-.723h2.024a2.968,2.968,0,0,1-1.034,1.74,3.013,3.013,0,0,1-1.946.633,3.286,3.286,0,0,1-1.624-.4,2.812,2.812,0,0,1-1.1-1.13A3.616,3.616,0,0,1,151.047,53.158Zm10.57,1.514v1.639h-.968a2.361,2.361,0,0,1-1.613-.508,2.163,2.163,0,0,1-.578-1.684V51.61H157.7v-1.6h.756V48.468h1.9v1.537h1.246v1.6h-1.246v2.531a.535.535,0,0,0,.133.407.644.644,0,0,0,.445.124Z" transform="translate(-122.113 -22.776)" fill="#fff"/>
      </g>
      <g id="Group_1627" data-name="Group 1627" transform="translate(60.745 23.685)">
        <g id="Group_1624" data-name="Group 1624">
          <path id="Path_25901" data-name="Path 25901" d="M9.25,71.906l4.726-5.643a3.707,3.707,0,0,1,5.684,0l1.862,2.223a3.707,3.707,0,0,0,5.7-.021l1.8-2.181a3.707,3.707,0,0,1,5.684-.042l1.947,2.29a3.707,3.707,0,0,0,5.684-.042l1.778-2.155a3.707,3.707,0,0,1,5.719,0l4.6,5.57v9.94l-1.468-4.2A3.707,3.707,0,0,0,47.2,75.937l-6.683,5.14a3.709,3.709,0,0,1-2.26.769H25.843a3.708,3.708,0,0,1-2.525-.993l-5.3-4.927a3.707,3.707,0,0,0-5.7.807L9.25,81.846Z" transform="translate(-9.25 -39.91)" fill="#004aad" fill-rule="evenodd"/>
          <path id="Path_25902" data-name="Path 25902" d="M9.25,51.319l4.726-5.643a3.707,3.707,0,0,1,5.684,0L21.522,47.9a3.707,3.707,0,0,0,5.7-.021l1.8-2.181a3.707,3.707,0,0,1,5.684-.042l1.947,2.29a3.707,3.707,0,0,0,5.684-.042l1.778-2.155a3.707,3.707,0,0,1,5.719,0l4.6,5.57v9.94l-4.6-5.57a3.707,3.707,0,0,0-5.719,0l-1.778,2.155a3.707,3.707,0,0,1-5.684.042L34.707,55.6a3.707,3.707,0,0,0-5.684.042l-1.8,2.181a3.707,3.707,0,0,1-5.7.021L19.66,55.616a3.707,3.707,0,0,0-5.684,0L9.25,61.259Z" transform="translate(-9.25 -29.088)" fill="#3977c9" fill-rule="evenodd"/>
          <path id="Path_25903" data-name="Path 25903" d="M9.25,24.968l7-8.768a3.727,3.727,0,0,1,1.375-1.074l5.83-2.634a3.56,3.56,0,0,1,1.467-.317h6.885a3.571,3.571,0,0,1,1.758.465l4.228,2.387a3.571,3.571,0,0,0,1.758.465h5.676a3.642,3.642,0,0,1,2.86,1.414l6.343,8.063V35.392l-4.6-5.841a3.6,3.6,0,0,0-5.719,0l-1.778,2.26a3.6,3.6,0,0,1-5.684.044l-1.947-2.4a3.6,3.6,0,0,0-5.684.044l-1.8,2.287a3.6,3.6,0,0,1-5.7.022L19.66,29.474a3.6,3.6,0,0,0-5.684,0L9.25,35.392Z" transform="translate(-9.25 -12.175)" fill="#91bbf3" fill-rule="evenodd"/>
        </g>
        <g id="Group_1625" data-name="Group 1625" transform="translate(14.383 5.918)">
          <rect id="Rectangle_288" data-name="Rectangle 288" width="4.844" height="24.082" transform="translate(0 2.85)" fill="#fff"/>
          <path id="Path_25921" data-name="Path 25921" d="M.242.326,4.627,0,3.677,21.568,0,17.891Z" transform="translate(1.423 14.559) rotate(-45)" fill="#fff"/>
          <path id="Path_25920" data-name="Path 25920" d="M0,3.77,3.77,0,5.036,17.988l-3.982.1Z" transform="translate(14.178 0) rotate(45)" fill="#fff"/>
        </g>
      </g>
    </g>
  </g>
</svg>
