<svg xmlns="http://www.w3.org/2000/svg" width="160.518" height="72.63" viewBox="0 0 160.518 72.63">
  <g id="kwp_new_logo" data-name="kwp new logo" transform="translate(-60.745 -23.685)">
    <g id="Group_1626" data-name="Group 1626">
      <path id="Path_25908" data-name="Path 25908" d="M122.152,38.918l-4.546-6.079v6.079h-3.294V25.152h3.294v6.04l4.507-6.04h3.872L120.746,31.9l5.432,7.02ZM132.919,46.4l-3.525,13.766h-3.987L123.25,51.1l-2.234,9.06h-3.987L113.6,46.4h3.525l1.945,10.021L121.478,46.4H125.1l2.311,10.021L129.375,46.4Zm-8.3,25.676a4.553,4.553,0,0,1-.539,2.2,4.016,4.016,0,0,1-1.656,1.588,5.745,5.745,0,0,1-2.774.608h-2.042v4.942h-3.294V67.64h5.335a5.98,5.98,0,0,1,2.735.569,3.867,3.867,0,0,1,1.676,1.569A4.625,4.625,0,0,1,124.618,72.072ZM119.4,73.8a1.942,1.942,0,0,0,1.406-.451,1.988,1.988,0,0,0,0-2.549,1.942,1.942,0,0,0-1.406-.451h-1.791V73.8Z" transform="translate(30.892 8.948)" fill="#91BBF3"/>
      <path id="Path_25909" data-name="Path 25909" d="M130.22,32.972a6.7,6.7,0,0,1,.616-2.955,4.786,4.786,0,0,1,1.714-1.957,4.4,4.4,0,0,1,2.408-.685,4.027,4.027,0,0,1,1.984.47,3.411,3.411,0,0,1,1.329,1.233V27.532h3.294v10.92h-3.294V36.906a3.56,3.56,0,0,1-1.348,1.233,4.028,4.028,0,0,1-1.984.47,4.365,4.365,0,0,1-2.388-.685,4.93,4.93,0,0,1-1.714-1.977A6.83,6.83,0,0,1,130.22,32.972Zm8.051.02a2.739,2.739,0,0,0-.693-1.977,2.175,2.175,0,0,0-1.656-.724,2.235,2.235,0,0,0-1.676.724,2.715,2.715,0,0,0-.674,1.957,2.859,2.859,0,0,0,.674,2,2.235,2.235,0,0,0,1.676.724,2.175,2.175,0,0,0,1.656-.724A2.739,2.739,0,0,0,138.272,32.992Zm8.97-3.64a4.284,4.284,0,0,1,1.445-1.409,3.628,3.628,0,0,1,1.926-.528v3.542h-.905a2.711,2.711,0,0,0-1.849.548,2.38,2.38,0,0,0-.616,1.879v5.069h-3.294V27.532h3.294Zm4.29,3.621a6.7,6.7,0,0,1,.616-2.955,4.786,4.786,0,0,1,1.714-1.957,4.4,4.4,0,0,1,2.408-.685,4.028,4.028,0,0,1,1.984.47,3.41,3.41,0,0,1,1.329,1.233V27.532h3.294v10.92h-3.294V36.906a3.56,3.56,0,0,1-1.348,1.233,4.028,4.028,0,0,1-1.984.47,4.365,4.365,0,0,1-2.388-.685,4.93,4.93,0,0,1-1.714-1.977A6.83,6.83,0,0,1,151.532,32.972Zm8.051.02a2.739,2.739,0,0,0-.693-1.977,2.175,2.175,0,0,0-1.656-.724,2.235,2.235,0,0,0-1.676.724,2.715,2.715,0,0,0-.674,1.957,2.859,2.859,0,0,0,.674,2,2.235,2.235,0,0,0,1.676.724,2.175,2.175,0,0,0,1.656-.724A2.739,2.739,0,0,0,159.584,32.992Zm5.022,0a6.263,6.263,0,0,1,.674-2.975,4.87,4.87,0,0,1,1.907-1.957A5.692,5.692,0,0,1,170,27.375a5.232,5.232,0,0,1,3.371,1.076,5.073,5.073,0,0,1,1.791,3.033h-3.506a1.69,1.69,0,0,0-1.714-1.253,1.711,1.711,0,0,0-1.445.724,3.3,3.3,0,0,0-.539,2.035,3.389,3.389,0,0,0,.539,2.055,1.727,1.727,0,0,0,1.445.7,1.69,1.69,0,0,0,1.714-1.253h3.506a5.141,5.141,0,0,1-1.791,3.014,5.219,5.219,0,0,1-3.371,1.1,5.692,5.692,0,0,1-2.812-.685,4.87,4.87,0,0,1-1.907-1.957A6.263,6.263,0,0,1,164.605,32.992Zm18.924-5.578a3.78,3.78,0,0,1,2.966,1.253,4.886,4.886,0,0,1,1.117,3.405v6.38h-3.274v-5.93a2.421,2.421,0,0,0-.559-1.7,2.164,2.164,0,0,0-3,0,2.421,2.421,0,0,0-.559,1.7v5.93h-3.294V23.97h3.294V29a3.535,3.535,0,0,1,1.368-1.155A4.313,4.313,0,0,1,183.529,27.414Zm8.029-1.018a2.035,2.035,0,0,1-1.425-.509,1.739,1.739,0,0,1-.539-1.292,1.7,1.7,0,0,1,.539-1.292,1.991,1.991,0,0,1,1.425-.528,1.9,1.9,0,0,1,1.387.528A1.671,1.671,0,0,1,193.5,24.6a1.71,1.71,0,0,1-.559,1.292A1.939,1.939,0,0,1,191.558,26.4Zm1.637,1.135v10.92H189.9V27.532ZM137.048,54.174a6.7,6.7,0,0,1,.616-2.955,4.786,4.786,0,0,1,1.714-1.957,4.4,4.4,0,0,1,2.408-.685,4.028,4.028,0,0,1,1.984.47,3.41,3.41,0,0,1,1.329,1.233V48.733h3.294v10.92H145.1V58.108a3.56,3.56,0,0,1-1.348,1.233,4.028,4.028,0,0,1-1.984.47,4.365,4.365,0,0,1-2.388-.685,4.93,4.93,0,0,1-1.714-1.977A6.83,6.83,0,0,1,137.048,54.174Zm8.051.02a2.739,2.739,0,0,0-.693-1.977,2.175,2.175,0,0,0-1.656-.724,2.235,2.235,0,0,0-1.676.724,2.715,2.715,0,0,0-.674,1.957,2.859,2.859,0,0,0,.674,2,2.235,2.235,0,0,0,1.676.724,2.175,2.175,0,0,0,1.656-.724A2.739,2.739,0,0,0,145.1,54.193Zm11.667,2.622v2.838h-1.676a4.089,4.089,0,0,1-2.793-.881,3.747,3.747,0,0,1-1-2.916V51.512h-1.31V48.733h1.31V46.072h3.294v2.662h2.157v2.779H154.59V55.9a.926.926,0,0,0,.231.7,1.116,1.116,0,0,0,.77.215Zm11.966-2.8a8.681,8.681,0,0,1-.058.979h-7.454a2.358,2.358,0,0,0,.636,1.566,2.008,2.008,0,0,0,1.406.528,1.728,1.728,0,0,0,1.714-1.057h3.506a4.853,4.853,0,0,1-.982,1.937,4.79,4.79,0,0,1-1.753,1.35,5.584,5.584,0,0,1-2.369.489,5.692,5.692,0,0,1-2.812-.685,4.834,4.834,0,0,1-1.926-1.957,6.121,6.121,0,0,1-.693-2.975,6.263,6.263,0,0,1,.674-2.975,4.834,4.834,0,0,1,1.926-1.957,5.732,5.732,0,0,1,2.831-.685,5.674,5.674,0,0,1,2.774.665,4.677,4.677,0,0,1,1.888,1.9A5.771,5.771,0,0,1,168.733,54.017Zm-3.371-.881a1.733,1.733,0,0,0-.578-1.37,2.285,2.285,0,0,0-2.851-.02,2.207,2.207,0,0,0-.693,1.39Zm8.4-2.583a4.284,4.284,0,0,1,1.445-1.409,3.628,3.628,0,0,1,1.926-.528v3.542h-.905a2.711,2.711,0,0,0-1.849.548,2.38,2.38,0,0,0-.616,1.879v5.069H170.47V48.733h3.294Zm-41.005,21.2a4.284,4.284,0,0,1,1.445-1.409,3.628,3.628,0,0,1,1.926-.528V73.36h-.905a2.711,2.711,0,0,0-1.849.548,2.38,2.38,0,0,0-.616,1.879v5.069h-3.294V69.935h3.294Zm9.837,9.257a5.912,5.912,0,0,1-2.851-.685,5.056,5.056,0,0,1-1.984-1.957,5.986,5.986,0,0,1-.713-2.975,5.82,5.82,0,0,1,.732-2.955,4.986,4.986,0,0,1,2-1.977,6.274,6.274,0,0,1,5.7,0,4.986,4.986,0,0,1,2,1.977,6.3,6.3,0,0,1-.019,5.93,4.989,4.989,0,0,1-2.022,1.957A5.913,5.913,0,0,1,142.6,81.012Zm0-2.9a2.1,2.1,0,0,0,1.6-.7,2.8,2.8,0,0,0,.674-2.016,2.853,2.853,0,0,0-.655-2.016,2.041,2.041,0,0,0-1.579-.7,2.062,2.062,0,0,0-1.6.7A2.864,2.864,0,0,0,140.4,75.4a2.969,2.969,0,0,0,.616,2.016A2.041,2.041,0,0,0,142.6,78.115ZM151.6,68.8a2.035,2.035,0,0,1-1.425-.509A1.739,1.739,0,0,1,149.64,67a1.7,1.7,0,0,1,.539-1.292,1.991,1.991,0,0,1,1.425-.528,1.9,1.9,0,0,1,1.387.528A1.671,1.671,0,0,1,153.55,67a1.71,1.71,0,0,1-.559,1.292A1.939,1.939,0,0,1,151.6,68.8Zm1.656,13.465a3.681,3.681,0,0,1-1,2.9,4.031,4.031,0,0,1-2.793.9h-1.29V83.223h.79a1.116,1.116,0,0,0,.77-.215.926.926,0,0,0,.231-.7V69.935h3.294Zm12.5-7.045a8.678,8.678,0,0,1-.058.979h-7.454a2.358,2.358,0,0,0,.636,1.566,2.008,2.008,0,0,0,1.406.528A1.728,1.728,0,0,0,162,77.235h3.506a4.852,4.852,0,0,1-.982,1.938,4.79,4.79,0,0,1-1.753,1.35,5.585,5.585,0,0,1-2.369.489,5.692,5.692,0,0,1-2.812-.685,4.834,4.834,0,0,1-1.926-1.957,6.12,6.12,0,0,1-.693-2.975,6.263,6.263,0,0,1,.674-2.975,4.834,4.834,0,0,1,1.926-1.957,5.732,5.732,0,0,1,2.831-.685,5.674,5.674,0,0,1,2.774.665,4.676,4.676,0,0,1,1.888,1.9A5.771,5.771,0,0,1,165.761,75.219Zm-3.371-.881a1.733,1.733,0,0,0-.578-1.37,2.285,2.285,0,0,0-2.851-.02,2.206,2.206,0,0,0-.693,1.39Zm4.453,1.057a6.263,6.263,0,0,1,.674-2.975,4.87,4.87,0,0,1,1.907-1.957,5.692,5.692,0,0,1,2.812-.685,5.232,5.232,0,0,1,3.371,1.076,5.073,5.073,0,0,1,1.791,3.033h-3.506a1.69,1.69,0,0,0-1.714-1.253,1.711,1.711,0,0,0-1.445.724,3.3,3.3,0,0,0-.539,2.035,3.389,3.389,0,0,0,.539,2.055,1.727,1.727,0,0,0,1.445.7,1.69,1.69,0,0,0,1.714-1.253H177.4a5.141,5.141,0,0,1-1.791,3.014,5.219,5.219,0,0,1-3.371,1.1,5.692,5.692,0,0,1-2.812-.685,4.87,4.87,0,0,1-1.907-1.957A6.263,6.263,0,0,1,166.844,75.4Zm18.307,2.622v2.838h-1.676a4.089,4.089,0,0,1-2.793-.881,3.747,3.747,0,0,1-1-2.916V72.714h-1.31V69.935h1.31V67.273h3.294v2.662h2.157v2.779h-2.157V77.1a.926.926,0,0,0,.231.7,1.116,1.116,0,0,0,.77.215Z" transform="translate(27.76 9.417)" fill="#91BBF3"/>
    </g>
    <g id="Group_1627" data-name="Group 1627">
      <g id="Group_1624" data-name="Group 1624">
        <path id="Path_25901" data-name="Path 25901" d="M9.25,77.007l8.185-9.773a6.42,6.42,0,0,1,9.844,0L30.5,71.086a6.42,6.42,0,0,0,9.875-.036L43.5,67.271A6.42,6.42,0,0,1,53.34,67.2l3.371,3.966a6.421,6.421,0,0,0,9.845-.072l3.079-3.733a6.42,6.42,0,0,1,9.905,0L87.5,77.007V94.222l-2.543-7.266a6.42,6.42,0,0,0-9.975-2.968l-11.574,8.9a6.423,6.423,0,0,1-3.915,1.332H37.988a6.422,6.422,0,0,1-4.373-1.72l-9.173-8.533a6.42,6.42,0,0,0-9.878,1.4L9.25,94.222Z" transform="translate(51.495 2.093)" fill="#004aad" fill-rule="evenodd"/>
        <path id="Path_25902" data-name="Path 25902" d="M9.25,56.42l8.185-9.773a6.42,6.42,0,0,1,9.844,0L30.5,50.5a6.42,6.42,0,0,0,9.875-.037L43.5,46.684a6.42,6.42,0,0,1,9.845-.072l3.371,3.966a6.42,6.42,0,0,0,9.845-.072l3.079-3.733a6.42,6.42,0,0,1,9.905,0L87.5,56.42V73.635l-7.959-9.647a6.421,6.421,0,0,0-9.905,0l-3.079,3.733a6.421,6.421,0,0,1-9.845.072L53.34,63.827A6.42,6.42,0,0,0,43.5,63.9l-3.117,3.778a6.42,6.42,0,0,1-9.875.037l-3.225-3.851a6.42,6.42,0,0,0-9.844,0L9.25,73.635Z" transform="translate(51.495 5.767)" fill="#3977c9" fill-rule="evenodd"/>
        <path id="Path_25903" data-name="Path 25903" d="M9.25,34.331,21.377,19.147a6.454,6.454,0,0,1,2.382-1.861l10.1-4.562a6.165,6.165,0,0,1,2.54-.549H48.321a6.185,6.185,0,0,1,3.044.8l7.322,4.135a6.185,6.185,0,0,0,3.044.8h9.831a6.308,6.308,0,0,1,4.953,2.448L87.5,34.331V52.385L79.541,42.268a6.233,6.233,0,0,0-9.905,0l-3.079,3.915a6.232,6.232,0,0,1-9.845.076L53.34,42.1a6.232,6.232,0,0,0-9.845.076l-3.117,3.962a6.232,6.232,0,0,1-9.875.038l-3.225-4.039a6.232,6.232,0,0,0-9.844,0L9.25,52.385Z" transform="translate(51.495 11.51)" fill="#91bbf3" fill-rule="evenodd"/>
      </g>
      <g id="Group_1625" data-name="Group 1625" transform="translate(-2 0.454)">
        <rect id="Rectangle_288" data-name="Rectangle 288" width="8.39" height="41.707" transform="translate(87.655 38.417)" fill="#fff"/>
        <path id="Path_25921" data-name="Path 25921" d="M1.523.293l7.6-.565L7.472,37.081,1.1,30.714Z" transform="translate(89.53 59.668) rotate(-45)" fill="#fff"/>
        <path id="Path_25920" data-name="Path 25920" d="M-.705,7.56l6.53-6.53L8.016,32.184l-6.9.173Z" transform="translate(113.438 33.25) rotate(45)" fill="#fff"/>
      </g>
    </g>
  </g>
</svg>
