<svg xmlns="http://www.w3.org/2000/svg" xmlns:xlink="http://www.w3.org/1999/xlink" width="130" height="59" viewBox="0 0 130 59">
  <defs>
    <clipPath id="clip-KWP-New_Footer_logo">
      <rect width="130" height="59"/>
    </clipPath>
  </defs>
  <g id="KWP-New_Footer_logo" data-name="KWP-New Footer logo" clip-path="url(#clip-KWP-New_Footer_logo)">
    <g id="KWP-New_Footer_logo-2" data-name="KWP-New Footer logo" transform="translate(-60.745 -23.685)">
      <g id="Group_1626" data-name="Group 1626" transform="translate(128.102 30.528)">
        <path id="Path_25908" data-name="Path 25908" d="M120.478,36.224l-3.656-4.889v4.889h-2.649V25.152h2.649V30.01l3.625-4.858h3.114l-4.214,5.426,4.369,5.646Zm8.66,6.014L126.3,53.311H123.1l-1.735-7.287-1.8,7.287h-3.207L113.6,42.239h2.835L118,50.3l1.936-8.06h2.912l1.859,8.06,1.58-8.06ZM122.461,62.89a3.662,3.662,0,0,1-.434,1.767,3.23,3.23,0,0,1-1.332,1.278,4.621,4.621,0,0,1-2.231.489h-1.642V70.4h-2.649V59.325h4.291a4.81,4.81,0,0,1,2.2.457,3.11,3.11,0,0,1,1.348,1.262A3.72,3.72,0,0,1,122.461,62.89Zm-4.2,1.388a1.562,1.562,0,0,0,1.131-.363,1.6,1.6,0,0,0,0-2.05,1.562,1.562,0,0,0-1.131-.363h-1.441v2.776Z" transform="translate(-113.6 -23.618)" fill="#fff"/>
        <path id="Path_25909" data-name="Path 25909" d="M130.073,30.977a5.39,5.39,0,0,1,.5-2.377,3.85,3.85,0,0,1,1.379-1.574,3.537,3.537,0,0,1,1.936-.551,3.239,3.239,0,0,1,1.6.378,2.743,2.743,0,0,1,1.069.992V26.6H139.2v8.783h-2.649V34.141a2.863,2.863,0,0,1-1.084.992,3.239,3.239,0,0,1-1.6.378,3.51,3.51,0,0,1-1.921-.551,3.965,3.965,0,0,1-1.379-1.59A5.493,5.493,0,0,1,130.073,30.977Zm6.476.016a2.2,2.2,0,0,0-.558-1.59,1.749,1.749,0,0,0-1.332-.582,1.8,1.8,0,0,0-1.348.582,2.184,2.184,0,0,0-.542,1.574,2.3,2.3,0,0,0,.542,1.606,1.8,1.8,0,0,0,1.348.582,1.749,1.749,0,0,0,1.332-.582A2.2,2.2,0,0,0,136.548,30.993Zm7.215-2.928a3.446,3.446,0,0,1,1.162-1.133,2.918,2.918,0,0,1,1.549-.425v2.849h-.728a2.18,2.18,0,0,0-1.487.441,1.915,1.915,0,0,0-.5,1.511v4.077h-2.649V26.6h2.649Zm3.451,2.912a5.39,5.39,0,0,1,.5-2.377,3.85,3.85,0,0,1,1.379-1.574,3.537,3.537,0,0,1,1.936-.551,3.239,3.239,0,0,1,1.6.378,2.743,2.743,0,0,1,1.069.992V26.6h2.649v8.783h-2.649V34.141a2.863,2.863,0,0,1-1.084.992,3.239,3.239,0,0,1-1.6.378,3.511,3.511,0,0,1-1.921-.551,3.965,3.965,0,0,1-1.379-1.59A5.493,5.493,0,0,1,147.214,30.977Zm6.476.016a2.2,2.2,0,0,0-.558-1.59,1.749,1.749,0,0,0-1.332-.582,1.8,1.8,0,0,0-1.348.582,2.184,2.184,0,0,0-.542,1.574,2.3,2.3,0,0,0,.542,1.606,1.8,1.8,0,0,0,1.348.582,1.749,1.749,0,0,0,1.332-.582A2.2,2.2,0,0,0,153.689,30.993Zm4.039,0a5.037,5.037,0,0,1,.542-2.393,3.917,3.917,0,0,1,1.534-1.574,4.578,4.578,0,0,1,2.262-.551,4.208,4.208,0,0,1,2.711.866,4.08,4.08,0,0,1,1.441,2.44H163.4a1.359,1.359,0,0,0-1.379-1.007,1.376,1.376,0,0,0-1.162.582,2.653,2.653,0,0,0-.434,1.637,2.726,2.726,0,0,0,.434,1.653,1.389,1.389,0,0,0,1.162.567A1.359,1.359,0,0,0,163.4,32.2h2.82a4.135,4.135,0,0,1-1.441,2.424,4.2,4.2,0,0,1-2.711.881,4.578,4.578,0,0,1-2.262-.551,3.917,3.917,0,0,1-1.534-1.574A5.037,5.037,0,0,1,157.728,30.993Zm15.22-4.486a3.041,3.041,0,0,1,2.386,1.007,3.93,3.93,0,0,1,.9,2.739v5.131H173.6V30.615a1.947,1.947,0,0,0-.449-1.369,1.74,1.74,0,0,0-2.417,0,1.947,1.947,0,0,0-.449,1.369v4.769h-2.649V23.736h2.649v4.045a2.843,2.843,0,0,1,1.1-.929A3.469,3.469,0,0,1,172.948,26.507Zm6.458-.819a1.637,1.637,0,0,1-1.146-.409,1.4,1.4,0,0,1-.434-1.039,1.366,1.366,0,0,1,.434-1.039,1.6,1.6,0,0,1,1.146-.425,1.527,1.527,0,0,1,1.115.425,1.344,1.344,0,0,1,.449,1.039,1.375,1.375,0,0,1-.449,1.039A1.56,1.56,0,0,1,179.406,25.688Zm1.317.913v8.783h-2.649V26.6ZM135.564,48.029a5.39,5.39,0,0,1,.5-2.377,3.85,3.85,0,0,1,1.379-1.574,3.537,3.537,0,0,1,1.936-.551,3.239,3.239,0,0,1,1.6.378,2.743,2.743,0,0,1,1.069.992V43.653h2.649v8.783H142.04V51.193a2.863,2.863,0,0,1-1.084.992,3.239,3.239,0,0,1-1.6.378,3.511,3.511,0,0,1-1.921-.551,3.965,3.965,0,0,1-1.379-1.59A5.493,5.493,0,0,1,135.564,48.029Zm6.476.016a2.2,2.2,0,0,0-.558-1.59,1.749,1.749,0,0,0-1.332-.582,1.8,1.8,0,0,0-1.348.582,2.184,2.184,0,0,0-.542,1.574,2.3,2.3,0,0,0,.542,1.606,1.8,1.8,0,0,0,1.348.582,1.749,1.749,0,0,0,1.332-.582A2.2,2.2,0,0,0,142.04,48.045Zm9.384,2.109v2.282h-1.348a3.289,3.289,0,0,1-2.246-.708,3.013,3.013,0,0,1-.806-2.345V45.888H145.97V43.653h1.053V41.513h2.649v2.141h1.735v2.235h-1.735v3.526a.745.745,0,0,0,.186.567.9.9,0,0,0,.62.173Zm9.624-2.251a6.982,6.982,0,0,1-.046.787h-6a1.9,1.9,0,0,0,.511,1.259,1.615,1.615,0,0,0,1.131.425,1.39,1.39,0,0,0,1.379-.85h2.82a3.9,3.9,0,0,1-.79,1.558,3.853,3.853,0,0,1-1.41,1.086,4.492,4.492,0,0,1-1.906.394,4.578,4.578,0,0,1-2.262-.551,3.888,3.888,0,0,1-1.549-1.574,4.923,4.923,0,0,1-.558-2.393,5.037,5.037,0,0,1,.542-2.393,3.888,3.888,0,0,1,1.549-1.574,4.61,4.61,0,0,1,2.277-.551,4.564,4.564,0,0,1,2.231.535,3.761,3.761,0,0,1,1.518,1.527A4.642,4.642,0,0,1,161.048,47.9Zm-2.711-.708a1.394,1.394,0,0,0-.465-1.1,1.838,1.838,0,0,0-2.293-.016,1.775,1.775,0,0,0-.558,1.118Zm6.758-2.078a3.446,3.446,0,0,1,1.162-1.133,2.918,2.918,0,0,1,1.549-.425v2.849h-.728a2.18,2.18,0,0,0-1.487.441,1.915,1.915,0,0,0-.5,1.511v4.077h-2.649V43.653h2.649ZM132.114,62.17a3.446,3.446,0,0,1,1.162-1.133,2.918,2.918,0,0,1,1.549-.425V63.46H134.1a2.18,2.18,0,0,0-1.487.441,1.914,1.914,0,0,0-.5,1.511v4.077h-2.649V60.706h2.649Zm7.912,7.445a4.755,4.755,0,0,1-2.293-.551,4.066,4.066,0,0,1-1.6-1.574,4.815,4.815,0,0,1-.573-2.393,4.681,4.681,0,0,1,.589-2.377,4.01,4.01,0,0,1,1.611-1.59,5.046,5.046,0,0,1,4.586,0,4.01,4.01,0,0,1,1.611,1.59,5.066,5.066,0,0,1-.015,4.769,4.012,4.012,0,0,1-1.627,1.574A4.756,4.756,0,0,1,140.026,69.615Zm0-2.33a1.689,1.689,0,0,0,1.286-.567,2.253,2.253,0,0,0,.542-1.621,2.3,2.3,0,0,0-.527-1.621,1.641,1.641,0,0,0-1.27-.567,1.658,1.658,0,0,0-1.286.567,2.3,2.3,0,0,0-.511,1.621,2.388,2.388,0,0,0,.5,1.621A1.642,1.642,0,0,0,140.026,67.285Zm7.246-7.493a1.637,1.637,0,0,1-1.146-.409,1.4,1.4,0,0,1-.434-1.039,1.366,1.366,0,0,1,.434-1.039,1.6,1.6,0,0,1,1.146-.425,1.527,1.527,0,0,1,1.115.425,1.344,1.344,0,0,1,.449,1.039,1.375,1.375,0,0,1-.449,1.039A1.56,1.56,0,0,1,147.272,59.793Zm1.332,10.83a2.961,2.961,0,0,1-.806,2.33,3.242,3.242,0,0,1-2.246.724h-1.038V71.394h.635a.9.9,0,0,0,.62-.173.745.745,0,0,0,.186-.567V60.706H148.6Zm10.054-5.667a6.982,6.982,0,0,1-.046.787h-6A1.9,1.9,0,0,0,153.127,67a1.615,1.615,0,0,0,1.131.425,1.39,1.39,0,0,0,1.379-.85h2.82a3.9,3.9,0,0,1-.79,1.558,3.853,3.853,0,0,1-1.41,1.086,4.492,4.492,0,0,1-1.905.394,4.578,4.578,0,0,1-2.262-.551,3.888,3.888,0,0,1-1.549-1.574,4.923,4.923,0,0,1-.558-2.393,5.038,5.038,0,0,1,.542-2.393,3.888,3.888,0,0,1,1.549-1.574,4.61,4.61,0,0,1,2.277-.551,4.563,4.563,0,0,1,2.231.535,3.761,3.761,0,0,1,1.518,1.527A4.642,4.642,0,0,1,158.658,64.956Zm-2.711-.708a1.394,1.394,0,0,0-.465-1.1,1.838,1.838,0,0,0-2.293-.016,1.775,1.775,0,0,0-.558,1.118Zm3.582.85a5.037,5.037,0,0,1,.542-2.393,3.917,3.917,0,0,1,1.534-1.574,4.578,4.578,0,0,1,2.262-.551,4.208,4.208,0,0,1,2.711.866,4.08,4.08,0,0,1,1.441,2.44H165.2a1.359,1.359,0,0,0-1.379-1.007,1.376,1.376,0,0,0-1.162.582,2.653,2.653,0,0,0-.434,1.637,2.726,2.726,0,0,0,.434,1.653,1.389,1.389,0,0,0,1.162.567,1.359,1.359,0,0,0,1.379-1.007h2.82a4.135,4.135,0,0,1-1.441,2.424,4.2,4.2,0,0,1-2.711.881,4.578,4.578,0,0,1-2.262-.551,3.917,3.917,0,0,1-1.534-1.574A5.037,5.037,0,0,1,159.528,65.1Zm14.724,2.109v2.282H172.9a3.288,3.288,0,0,1-2.246-.708,3.013,3.013,0,0,1-.806-2.345V62.941H168.8V60.706h1.053V58.565H172.5v2.141h1.735v2.235H172.5v3.526a.745.745,0,0,0,.186.567.9.9,0,0,0,.62.173Z" transform="translate(-119.224 -22.776)" fill="#fff"/>
      </g>
      <g id="Group_1627" data-name="Group 1627" transform="translate(60.745 23.685)">
        <g id="Group_1624" data-name="Group 1624">
          <path id="Path_25901" data-name="Path 25901" d="M9.25,74.645l6.583-7.86a5.164,5.164,0,0,1,7.918,0l2.594,3.1a5.164,5.164,0,0,0,7.942-.029l2.507-3.038a5.164,5.164,0,0,1,7.918-.058l2.712,3.19a5.164,5.164,0,0,0,7.918-.058l2.477-3a5.164,5.164,0,0,1,7.967,0l6.4,7.759V88.491L70.14,82.647a5.164,5.164,0,0,0-8.022-2.387l-9.309,7.16a5.166,5.166,0,0,1-3.149,1.071h-17.3a5.165,5.165,0,0,1-3.517-1.383l-7.378-6.863a5.164,5.164,0,0,0-7.945,1.124L9.25,88.491Z" transform="translate(-9.25 -30.075)" fill="#d4d7d8" fill-rule="evenodd"/>
          <path id="Path_25902" data-name="Path 25902" d="M9.25,54.058l6.583-7.86a5.164,5.164,0,0,1,7.918,0l2.594,3.1a5.164,5.164,0,0,0,7.942-.029l2.507-3.038a5.164,5.164,0,0,1,7.918-.058l2.712,3.19a5.164,5.164,0,0,0,7.918-.058l2.477-3a5.164,5.164,0,0,1,7.967,0l6.4,7.759V67.9l-6.4-7.759a5.164,5.164,0,0,0-7.967,0l-2.477,3a5.164,5.164,0,0,1-7.918.058l-2.712-3.19a5.164,5.164,0,0,0-7.918.058l-2.507,3.038a5.164,5.164,0,0,1-7.942.029l-2.594-3.1a5.164,5.164,0,0,0-7.918,0L9.25,67.9Z" transform="translate(-9.25 -23.091)" fill="#ecebeb" fill-rule="evenodd"/>
          <path id="Path_25903" data-name="Path 25903" d="M9.25,30,19,17.782a5.191,5.191,0,0,1,1.916-1.5l8.121-3.669a4.959,4.959,0,0,1,2.043-.442h9.591a4.975,4.975,0,0,1,2.448.647l5.889,3.325a4.975,4.975,0,0,0,2.448.647h7.907a5.073,5.073,0,0,1,3.983,1.969L72.186,30v14.52l-6.4-8.137a5.013,5.013,0,0,0-7.967,0l-2.477,3.148a5.012,5.012,0,0,1-7.918.061l-2.712-3.346A10.123,10.123,0,0,0,42.054,34.5s-3.857.018-5.261,1.8L34.287,39.49a5.013,5.013,0,0,1-7.942.031l-2.594-3.248a5.012,5.012,0,0,0-7.918,0L9.25,44.516Z" transform="translate(-9.25 -12.175)" fill="#fff" fill-rule="evenodd"/>
        </g>
        <g id="Group_1625" data-name="Group 1625" transform="translate(20.035 8.243)">
          <rect id="Rectangle_288" data-name="Rectangle 288" width="6.748" height="33.545" transform="translate(0 3.97)" fill="#461a55"/>
          <path id="Path_25921" data-name="Path 25921" d="M.337.454,6.446,0,5.122,30.043,0,24.922Z" transform="translate(1.982 20.28) rotate(-45)" fill="#461a55"/>
          <path id="Path_25920" data-name="Path 25920" d="M0,5.252,5.252,0,7.015,25.056,1.468,25.2Z" transform="translate(19.75 0) rotate(45)" fill="#461a55"/>
        </g>
      </g>
    </g>
  </g>
</svg>
