<svg xmlns="http://www.w3.org/2000/svg" xmlns:xlink="http://www.w3.org/1999/xlink" width="215" height="408" viewBox="0 0 215 408">
  <defs>
    <clipPath id="clip-left_drop">
      <rect width="215" height="408"/>
    </clipPath>
  </defs>
  <g id="left_drop" data-name="left drop" clip-path="url(#clip-left_drop)">
    <g id="h2o" transform="translate(-177.002)" opacity="0.09">
      <path id="Path_2" data-name="Path 2" d="M74.7,209.829A132.557,132.557,0,0,0,46,292.475c0,72.259,58.788,131.047,131.047,131.047S308.1,364.734,308.1,292.475a132.554,132.554,0,0,0-28.7-82.645L177.05,82.006ZM284.27,292.475a107.22,107.22,0,1,1-214.441,0A108.642,108.642,0,0,1,93.3,224.722L177.05,120.128,260.8,224.723A108.643,108.643,0,0,1,284.27,292.475Z" transform="translate(0 -16.875)"/>
      <path id="Path_3" data-name="Path 3" d="M165.57,347.005H189.4A83.488,83.488,0,0,1,106,430.4V406.572A59.634,59.634,0,0,0,165.57,347.005Z" transform="translate(70.653 -71.405)"/>
      <path id="Path_4" data-name="Path 4" d="M435.137,96.105A58.836,58.836,0,0,0,422.15,58.968L375.57,0,328.99,58.969A58.837,58.837,0,0,0,316,96.106a59.567,59.567,0,1,0,119.134,0Zm-95.307,0a35.249,35.249,0,0,1,7.784-22.276L375.57,38.439,403.526,73.83a35.246,35.246,0,0,1,7.784,22.276,35.74,35.74,0,1,1-71.48,0Z" transform="translate(-55.559)"/>
    </g>
  </g>
</svg>
