<svg xmlns="http://www.w3.org/2000/svg" width="26.744" height="26.744" viewBox="0 0 26.744 26.744">
  <g id="linkedin" transform="translate(1.589 -0.229)">
    <g id="Group_1296" data-name="Group 1296" transform="translate(0)">
      <rect id="Rectangle_464" data-name="Rectangle 464" width="23.57" height="23.582" rx="4" transform="translate(0.907 0.907)" fill="#fff"/>
      <path id="_006-linkedin" data-name="006-linkedin" d="M24.324,0H2.419A2.419,2.419,0,0,0,0,2.419V24.325a2.419,2.419,0,0,0,2.419,2.419H24.324a2.419,2.419,0,0,0,2.419-2.419V2.419A2.419,2.419,0,0,0,24.324,0ZM8.276,23.092a.7.7,0,0,1-.7.7h-3a.7.7,0,0,1-.7-.7V10.53a.7.7,0,0,1,.7-.7h3a.7.7,0,0,1,.7.7ZM6.073,8.641A2.847,2.847,0,1,1,8.92,5.794,2.847,2.847,0,0,1,6.073,8.641ZM23.937,23.149a.647.647,0,0,1-.647.647H20.074a.647.647,0,0,1-.647-.647V17.257c0-.879.258-3.852-2.3-3.852-1.982,0-2.384,2.035-2.465,2.948v6.8a.647.647,0,0,1-.647.647h-3.11a.647.647,0,0,1-.647-.647V10.473a.647.647,0,0,1,.647-.647h3.11a.647.647,0,0,1,.647.647v1.1c.735-1.1,1.827-1.954,4.152-1.954,5.149,0,5.12,4.811,5.12,7.454v6.08Z" transform="translate(-1.589 0.23)" fill="#225a93"/>
    </g>
  </g>
</svg>
