<svg xmlns="http://www.w3.org/2000/svg" xmlns:xlink="http://www.w3.org/1999/xlink" width="34" height="34" viewBox="0 0 34 34">
  <defs>
    <clipPath id="clip-Projects_Hover">
      <rect width="34" height="34"/>
    </clipPath>
  </defs>
  <g id="Projects_Hover" data-name="Projects – Hover" clip-path="url(#clip-Projects_Hover)">
    <path id="projects" d="M28.772,13.439l-4.641-2.32L28.772,8.8a1.13,1.13,0,0,0,0-2.019L15.452.119a1.13,1.13,0,0,0-1.01,0L1.122,6.779a1.13,1.13,0,0,0,0,2.019l4.641,2.32-4.641,2.32a1.13,1.13,0,0,0,0,2.019l4.641,2.32L1.122,20.1a1.13,1.13,0,0,0,0,2.019l13.32,6.66a1.129,1.129,0,0,0,1.01,0l13.32-6.66a1.13,1.13,0,0,0,0-2.019l-4.641-2.32,4.641-2.32a1.13,1.13,0,0,0,0-2.019ZM14.947,2.39l10.8,5.4-10.8,5.4-10.8-5.4Zm10.8,18.718-10.8,5.4-10.8-5.4,4.136-2.068,6.155,3.078a1.129,1.129,0,0,0,1.01,0l6.155-3.078Zm-10.8-1.262-10.8-5.4,4.136-2.068,6.155,3.078a1.129,1.129,0,0,0,1.01,0l6.155-3.078,4.136,2.068Zm0,0" transform="translate(2.053 2.552)" fill="#461a55"/>
  </g>
</svg>
