<svg xmlns="http://www.w3.org/2000/svg" xmlns:xlink="http://www.w3.org/1999/xlink" width="34" height="34" viewBox="0 0 34 34">
  <defs>
    <clipPath id="clip-Team_Hover">
      <rect width="34" height="34"/>
    </clipPath>
  </defs>
  <g id="Team_Hover" data-name="Team – Hover" clip-path="url(#clip-Team_Hover)">
    <g id="group" transform="translate(1 4)">
      <g id="Group_4" data-name="Group 4" transform="translate(0 11.765)">
        <g id="Group_3" data-name="Group 3" transform="translate(0 0)">
          <path id="Path_9" data-name="Path 9" d="M27.648,232.114H24.477a4.732,4.732,0,0,0-1.247.167A4.749,4.749,0,0,0,19,229.68h-5.6a4.749,4.749,0,0,0-4.231,2.6,4.732,4.732,0,0,0-1.247-.167H4.745A4.751,4.751,0,0,0,0,236.859v5.069a2.85,2.85,0,0,0,2.847,2.847h26.7a2.85,2.85,0,0,0,2.847-2.847v-5.069A4.751,4.751,0,0,0,27.648,232.114Zm-19,2.311v8.452h-5.8a.95.95,0,0,1-.949-.949v-5.069a2.85,2.85,0,0,1,2.847-2.847H7.916a2.837,2.837,0,0,1,.745.1C8.654,234.215,8.649,234.32,8.649,234.425Zm13.2,8.452h-11.3v-8.452a2.85,2.85,0,0,1,2.847-2.847H19a2.85,2.85,0,0,1,2.847,2.847Zm8.649-.949a.95.95,0,0,1-.949.949h-5.8v-8.452c0-.105,0-.21-.012-.314a2.84,2.84,0,0,1,.745-.1h3.171a2.85,2.85,0,0,1,2.847,2.847Z" transform="translate(0 -229.68)" fill="#461a55"/>
        </g>
      </g>
      <g id="Group_6" data-name="Group 6" transform="translate(2.114 5.237)">
        <g id="Group_5" data-name="Group 5" transform="translate(0 0)">
          <path id="Path_10" data-name="Path 10" d="M37.631,126.5a4.217,4.217,0,1,0,4.217,4.217A4.221,4.221,0,0,0,37.631,126.5Zm0,6.535a2.319,2.319,0,1,1,2.319-2.319A2.321,2.321,0,0,1,37.631,133.039Z" transform="translate(-33.414 -126.504)" fill="#461a55"/>
        </g>
      </g>
      <g id="Group_8" data-name="Group 8" transform="translate(10.563 0)">
        <g id="Group_7" data-name="Group 7" transform="translate(0 0)">
          <path id="Path_11" data-name="Path 11" d="M172.6,43.729a5.633,5.633,0,1,0,5.633,5.633A5.64,5.64,0,0,0,172.6,43.729Zm0,9.368a3.735,3.735,0,1,1,3.735-3.735A3.739,3.739,0,0,1,172.6,53.1Z" transform="translate(-166.962 -43.729)" fill="#461a55"/>
        </g>
      </g>
      <g id="Group_10" data-name="Group 10" transform="translate(21.846 5.237)">
        <g id="Group_9" data-name="Group 9" transform="translate(0 0)">
          <path id="Path_12" data-name="Path 12" d="M349.511,126.5a4.217,4.217,0,1,0,4.217,4.217A4.221,4.221,0,0,0,349.511,126.5Zm0,6.535a2.319,2.319,0,1,1,2.319-2.319A2.321,2.321,0,0,1,349.511,133.039Z" transform="translate(-345.294 -126.504)" fill="#461a55"/>
        </g>
      </g>
    </g>
  </g>
</svg>
