<svg xmlns="http://www.w3.org/2000/svg" width="22.127" height="22.135" viewBox="0 0 22.127 22.135">
  <g id="telephone-colored" transform="translate(0.099 0.1)">
    <path id="Path_153" data-name="Path 153" d="M5.34,14.581a23.271,23.271,0,0,0,7.74,6.063,12.047,12.047,0,0,0,4.332,1.282c.1,0,.2.009.309.009a3.587,3.587,0,0,0,2.782-1.2.1.1,0,0,0,.018-.023,11.711,11.711,0,0,1,.877-.909c.214-.2.432-.418.641-.636A2.195,2.195,0,0,0,22.03,15.9L19.3,13.172a2.211,2.211,0,0,0-1.6-.736,2.285,2.285,0,0,0-1.618.732l-1.627,1.627c-.15-.086-.3-.164-.45-.236a5.621,5.621,0,0,1-.5-.273A17.221,17.221,0,0,1,9.39,10.54,9.917,9.917,0,0,1,8,8.322c.427-.386.827-.791,1.214-1.186.136-.141.277-.282.418-.423a2.33,2.33,0,0,0,.754-1.636A2.312,2.312,0,0,0,9.63,3.441L8.276,2.086c-.159-.159-.309-.314-.464-.473C7.512,1.3,7.2.986,6.89.7A2.266,2.266,0,0,0,5.29,0,2.333,2.333,0,0,0,3.672.7l-1.7,1.7A3.493,3.493,0,0,0,.931,4.641a8.412,8.412,0,0,0,.632,3.636A21.154,21.154,0,0,0,5.34,14.581ZM2.04,4.736a2.4,2.4,0,0,1,.723-1.545L4.454,1.5a1.224,1.224,0,0,1,.836-.386,1.161,1.161,0,0,1,.818.4c.3.282.591.577.9.891.155.159.314.318.473.482L8.835,4.236a1.234,1.234,0,0,1,.427.85,1.234,1.234,0,0,1-.427.85c-.141.141-.282.286-.423.427-.423.427-.818.832-1.254,1.218L7.135,7.6a.889.889,0,0,0-.227,1.009c0,.014.009.023.014.036a10.7,10.7,0,0,0,1.6,2.6A18.176,18.176,0,0,0,12.9,15.235a6.506,6.506,0,0,0,.6.327,5.621,5.621,0,0,1,.5.273l.05.027a.95.95,0,0,0,.441.114.964.964,0,0,0,.677-.309l1.7-1.7a1.2,1.2,0,0,1,.832-.4,1.142,1.142,0,0,1,.8.4L21.243,16.7a1.1,1.1,0,0,1-.014,1.714c-.191.2-.391.4-.6.6a13.089,13.089,0,0,0-.95.986,2.5,2.5,0,0,1-1.95.827c-.077,0-.159,0-.236-.009a10.945,10.945,0,0,1-3.918-1.173A22.107,22.107,0,0,1,6.2,13.881,20.248,20.248,0,0,1,2.613,7.9,7.331,7.331,0,0,1,2.04,4.736Z" transform="translate(-0.912 0)" fill="#225a93" stroke="#225a93" stroke-width="0.2"/>
  </g>
</svg>
