<svg id="twitter" xmlns="http://www.w3.org/2000/svg" width="21.261" height="20.238" viewBox="0 0 21.261 20.238">
  <path id="_003-twitter" data-name="003-twitter" d="M21.261,50.4a8.075,8.075,0,0,1-2.512.806,5.016,5.016,0,0,0,1.918-2.822A7.985,7.985,0,0,1,17.9,49.616,4.1,4.1,0,0,0,14.72,48c-2.413,0-4.356,2.295-4.356,5.108a6.128,6.128,0,0,0,.1,1.164A11.853,11.853,0,0,1,1.48,48.931a5.829,5.829,0,0,0-.6,2.581A5.392,5.392,0,0,0,2.82,55.756,3.834,3.834,0,0,1,.85,55.127v.056A5,5,0,0,0,4.343,60.2a3.751,3.751,0,0,1-1.143.168,3.31,3.31,0,0,1-.825-.087,4.554,4.554,0,0,0,4.073,3.557,7.984,7.984,0,0,1-5.4,2.178A6.985,6.985,0,0,1,0,65.946a11.009,11.009,0,0,0,6.687,2.292c8.021,0,12.406-7.784,12.406-14.531,0-.226-.007-.444-.016-.66A9.664,9.664,0,0,0,21.261,50.4Z" transform="translate(0 -48)" fill="#fff"/>
</svg>
