<svg xmlns="http://www.w3.org/2000/svg" width="28.772" height="20.149" viewBox="0 0 28.772 20.149">
  <g id="youtuvbe" transform="translate(0 0)">
    <g id="_001-youtube" data-name="001-youtube" transform="translate(0 0)">
      <path id="Exclusion_1" data-name="Exclusion 1" d="M14.389,20.149c-.09,0-9.01-.007-11.26-.618A3.621,3.621,0,0,1,.59,16.993,38.287,38.287,0,0,1,0,10.072,38.448,38.448,0,0,1,.59,3.151,3.7,3.7,0,0,1,3.129.591C5.357.007,14.3,0,14.389,0s9.029.007,11.258.618A3.6,3.6,0,0,1,28.18,3.151a35.985,35.985,0,0,1,.592,6.947,38.326,38.326,0,0,1-.592,6.921,3.6,3.6,0,0,1-2.533,2.533C23.418,20.142,14.477,20.149,14.389,20.149ZM11.52,5.76h0v8.627l7.49-4.316L11.52,5.761Z" fill="#fff"/>
    </g>
  </g>
</svg>
