<svg xmlns="http://www.w3.org/2000/svg" width="160.518" height="72.63" viewBox="0 0 160.518 72.63">
  <g id="kwp_new_logo" data-name="kwp new logo" transform="translate(-60.745 -23.685)">
    <g id="Group_1627" data-name="Group 1627">
      <g id="Group_1624" data-name="Group 1624">
        <path id="Path_25901" data-name="Path 25901" d="M9.25,77.007l8.185-9.773a6.42,6.42,0,0,1,9.844,0L30.5,71.086a6.42,6.42,0,0,0,9.875-.036L43.5,67.271A6.42,6.42,0,0,1,53.34,67.2l3.371,3.966a6.421,6.421,0,0,0,9.845-.072l3.079-3.733a6.42,6.42,0,0,1,9.905,0L87.5,77.007V94.222l-2.543-7.266a6.42,6.42,0,0,0-9.975-2.968l-11.574,8.9a6.423,6.423,0,0,1-3.915,1.332H37.988a6.422,6.422,0,0,1-4.373-1.72l-9.173-8.533a6.42,6.42,0,0,0-9.878,1.4L9.25,94.222Z" transform="translate(51.495 2.093)" fill="#004aad" fill-rule="evenodd"/>
        <path id="Path_25902" data-name="Path 25902" d="M9.25,56.42l8.185-9.773a6.42,6.42,0,0,1,9.844,0L30.5,50.5a6.42,6.42,0,0,0,9.875-.037L43.5,46.684a6.42,6.42,0,0,1,9.845-.072l3.371,3.966a6.42,6.42,0,0,0,9.845-.072l3.079-3.733a6.42,6.42,0,0,1,9.905,0L87.5,56.42V73.635l-7.959-9.647a6.421,6.421,0,0,0-9.905,0l-3.079,3.733a6.421,6.421,0,0,1-9.845.072L53.34,63.827A6.42,6.42,0,0,0,43.5,63.9l-3.117,3.778a6.42,6.42,0,0,1-9.875.037l-3.225-3.851a6.42,6.42,0,0,0-9.844,0L9.25,73.635Z" transform="translate(51.495 5.767)" fill="#3977c9" fill-rule="evenodd"/>
        <path id="Path_25903" data-name="Path 25903" d="M9.25,34.331,21.377,19.147a6.454,6.454,0,0,1,2.382-1.861l10.1-4.562a6.165,6.165,0,0,1,2.54-.549H48.321a6.185,6.185,0,0,1,3.044.8l7.322,4.135a6.185,6.185,0,0,0,3.044.8h9.831a6.308,6.308,0,0,1,4.953,2.448L87.5,34.331V52.385L79.541,42.268a6.233,6.233,0,0,0-9.905,0l-3.079,3.915a6.232,6.232,0,0,1-9.845.076L53.34,42.1a6.232,6.232,0,0,0-9.845.076l-3.117,3.962a6.232,6.232,0,0,1-9.875.038l-3.225-4.039a6.232,6.232,0,0,0-9.844,0L9.25,52.385Z" transform="translate(51.495 11.51)" fill="#91bbf3" fill-rule="evenodd"/>
      </g>
      <g id="Group_1625" data-name="Group 1625" transform="translate(-2 0.454)">
        <rect id="Rectangle_288" data-name="Rectangle 288" width="8.39" height="41.707" transform="translate(87.655 38.417)" fill="#fff"/>
        <path id="Path_25921" data-name="Path 25921" d="M1.523.293l7.6-.565L7.472,37.081,1.1,30.714Z" transform="translate(89.53 59.668) rotate(-45)" fill="#fff"/>
        <path id="Path_25920" data-name="Path 25920" d="M-.705,7.56l6.53-6.53L8.016,32.184l-6.9.173Z" transform="translate(113.438 33.25) rotate(45)" fill="#fff"/>
      </g>
    </g>
  </g>
</svg>
